<?xml version="1.0"?>
<svg width="500" height="500" xmlns="http://www.w3.org/2000/svg" xmlns:svg="http://www.w3.org/2000/svg" preserveAspectRatio="xMidYMid meet" version="1.0">
 <!-- Created with SVG-edit - https://github.com/SVG-Edit/svgedit-->

 <g class="layer">
  <title>Layer 1</title>
  <path d="m313.42,232.23c-0.56,0.06 -1.13,0.12 -2.33,0.09c-2.63,0 -4.83,-0.41 -6.6,0.26c-8.07,3.03 -16.94,4.11 -24.12,9.37c-3.88,2.84 -8.47,4.77 -12.57,7.34c-1.02,0.64 -1.4,2.21 -2.07,3.35c0,0 0.14,0.09 -0.23,0.08c-2.01,1.77 -3.67,3.57 -5.33,5.36c0,0 0.01,0.04 -0.32,0.02c-1.72,0.04 -3.12,0.1 -4.67,-0.02c-1.12,-0.11 -2.07,-0.05 -3.34,-0.02c-0.93,0.04 -1.55,0.12 -2.16,0.21c-1.33,-0.09 -2.65,-0.18 -4.38,-0.54c-4.98,-1.67 -9.54,-3.06 -14.42,-4.59c-1.23,-0.11 -2.15,-0.08 -3.07,-0.05c-0.55,-0.11 -1.1,-0.23 -1.97,-0.62c-3.3,-1.54 -6.28,-2.8 -9.47,-4.2c-1.65,-0.36 -3.09,-0.6 -4.53,-1.12c-0.73,-3.49 -3.56,-2.79 -5.99,-3.35c-2.04,-1.04 -3.95,-1.81 -5.86,-2.86c-0.87,-0.83 -1.74,-1.4 -2.64,-2.23c-0.86,-0.57 -1.69,-0.86 -2.76,-1.16c-0.57,-0.04 -0.9,-0.05 -1.24,-0.25c-0.01,-0.18 -0.12,-0.54 0.19,-0.65c3.56,-0.66 6.98,-0.79 10.04,-1.84c8.93,-3.06 10.71,-13.15 7.9,-21.26c-0.21,-0.62 -1.71,-1.16 -2.62,-1.18c-5.64,-0.07 -6.65,0.96 -6.64,6.29c0,1.02 -0.14,2.05 0.02,3.04c0.59,3.6 -1.69,4.7 -4.8,5.07c-1.06,0.12 -2.14,0.04 -3.21,0.05c-2.36,0.04 -4.09,0.53 -4.29,3.36c-0.05,0.79 -1.87,1.49 -3.15,2.21c-1.22,-0.56 -2.21,-1.05 -3.11,-1.64c-1.6,-1.05 -3.17,-2.18 -4.77,-3.56c-0.52,-3.31 -2.34,-4.95 -5.6,-5.08c0,0 -0.11,0.1 -0.06,-0.24c-0.56,-2.9 -1.8,-4.84 -5.03,-5.13c-0.1,-0.16 -0.33,-0.47 -0.24,-0.73c-1.84,-2.77 -3.76,-5.27 -5.7,-8.01c-0.11,-0.53 -0.21,-0.83 -0.34,-1.41c-1.5,-3.22 -3.54,-6.02 -4.3,-9.12c-2.25,-9.06 -4.29,-18.2 -0.89,-27.49c0.4,-1.09 -0.04,-2.46 -0.02,-3.93c0.1,-0.53 0.13,-0.84 0.39,-1.31c1.76,-3.35 3.3,-6.55 4.95,-9.93c0.3,-0.57 0.49,-0.97 1.01,-1.35c3.18,0.05 3.05,-1.61 2.56,-3.48c0,0 -0.09,-0.19 0.22,-0.28c0.77,-0.84 1.23,-1.6 1.82,-2.41c0.11,-0.06 0.35,-0.15 0.67,-0.09c1.17,-0.41 2.09,-0.77 2.85,-1.34c3.34,-2.48 6.65,-5 9.93,-7.56c1.48,-1.16 2.84,-2.46 4.26,-3.7c0,0 -0.04,-0.23 0.16,-0.23c0.58,0.04 0.96,0.08 1.55,0.31c3.77,-0.5 7.32,-1.35 10.91,-1.83c3.65,-0.48 7.38,-0.44 11.02,-0.96c0.83,-0.11 1.45,-1.57 2.16,-2.41c0.8,-0.05 1.6,-0.11 2.78,0.16c1.44,0.99 2.42,2.11 3.56,2.29c7.14,1.15 14.34,1.98 21.48,3.15c2.82,0.46 5.54,1.51 8.62,2.32c1.68,0.29 3.05,0.56 4.48,1.03c0.6,0.31 1.13,0.41 1.89,0.55c0.55,0.04 0.86,0.05 1.5,0.09c1.74,0.34 3.16,0.63 4.58,1.18c0.06,0.74 0.11,1.24 0.27,1.96c0.82,0.51 1.55,0.8 2.59,1.15c1.87,0.44 3.43,0.83 5.27,1.25c1.02,0.14 1.76,0.27 2.49,0.68c0.64,1.12 1.1,2.26 1.97,2.74c4.82,2.67 9.81,5.07 14.57,7.83c1.74,1.01 2.36,3.77 5.41,3.09c0.81,0.63 1.47,1.05 2.14,1.77c0.35,1.04 0.49,1.99 1.07,2.51c5.48,4.91 11.39,9.43 14.83,16.09c0.48,0.92 2.28,1.22 3.47,1.81c0.16,0.32 0.32,0.63 0.52,1.48c0.47,1.51 0.89,2.51 1.27,3.82c-0.26,3.25 0.29,5.78 3.72,6.8c0.1,0.53 0.21,1.07 0.27,2.12c-0.06,0.9 -0.06,1.28 -0.28,1.8c-0.02,0.82 0.17,1.48 0.37,2.37c0.03,0.5 0.05,0.79 -0.03,1.45c-0.04,5.1 0.02,9.85 0.08,14.81c-0.04,0.5 -0.06,0.79 -0.29,1.18c-0.13,0.54 -0.05,0.99 0.03,1.76c0.11,0.91 0.23,1.51 0.34,2.11c-0.09,0.31 -0.18,0.61 -0.67,1.15c-3.62,0.73 -2.85,2.99 -2.79,5.21c-0.35,1.02 -0.65,1.78 -1.11,2.38c-0.84,0.79 -1.51,1.73 -2.2,2.67m-107.28,-57.79c-0.8,-2.28 -2.01,-4.08 -5.29,-4.26c-0.19,-0.41 -0.36,-0.81 -0.32,-1.8c-0.81,-2.23 -1.55,-4.49 -2.45,-6.69c-0.81,-1.96 -6.61,-4.39 -8.56,-3.48c-2.8,1.28 -5.27,3.07 -5.69,6.26c-0.32,2.48 3.28,7.82 5.77,9.34c0.69,0.93 1.39,1.86 1.7,3.36c0.87,0.57 1.74,1.14 3,1.93c0.23,0.37 0.45,0.73 0.68,1.64c2.19,1.82 4.37,3.63 7.01,5.72c5.45,3.42 10.81,6.98 16.39,10.21c3.09,1.8 6.53,3.03 10.27,4.68c0.34,0.02 0.67,0.05 1.24,0.56c3.12,1.44 6.24,2.87 9.87,4.52c0.94,0.07 1.88,0.13 3.02,0.73c3.44,3.44 7.85,4.42 13.16,4.55c0.53,0.03 1.06,0.06 1.85,0.57c5.66,3.61 12.04,4.44 19.3,4.45c0.85,-0.1 1.68,-0.2 3.16,-0.08c1.35,-0.01 2.69,-0.02 4.73,0.2c5.26,0.2 10.09,-0.57 13.48,-5.43c0,0 0.28,-0.21 0.84,-0.06c1.26,-1.69 2.51,-3.37 4,-5.44c0.03,-0.29 0.07,-0.57 0.51,-1.27c1.14,-3.83 2.25,-7.65 -0.19,-11.91c-0.07,-0.31 -0.15,-0.63 -0.07,-1.49c-1.39,-1.98 -0.86,-5.45 -4.77,-5.56c0,0 -0.1,-0.02 -0.02,-0.59c-0.59,-1.22 -0.94,-2.61 -1.81,-3.6c-1.02,-1.17 -2.41,-2.08 -3.75,-2.95c-1.84,-1.22 -3.79,-2.28 -5.85,-3.84c-0.08,-0.14 -0.16,-0.27 0,-0.89c-1.61,-0.93 -3.21,-1.87 -5.36,-3.09c-1.84,0.4 -3.69,0.79 -6.13,1.21c-4.03,2.82 -3.67,5.79 1.08,8.5c0,0 0.03,0.05 0.2,0.53c3.75,3.4 7.55,6.78 11.26,10.23c1.56,1.46 2.95,3.08 4.49,5.23c-0.02,1.61 -0.05,3.22 -0.58,5.05c-4.95,2.83 -10.14,3.98 -15.92,2.63c-4.58,-1.08 -9.27,-1.8 -13.92,-2.61c-0.97,-0.17 -2.01,-0.02 -3.54,-0.09c-0.53,-0.05 -1.06,-0.09 -1.86,-0.58c-0.79,-0.68 -1.45,-1.62 -2.37,-1.99c-4.95,-1.94 -9.99,-3.63 -14.91,-5.62c-3.38,-1.36 -6.65,-2.99 -9.89,-4.62c-5.19,-2.63 -10.31,-5.36 -15.65,-8.48c-2.72,-1.67 -5.44,-3.34 -8.18,-5.06c0,0 -0.04,-0.03 0.1,-0.6m-22.46,34.57c0.16,-4.55 1.16,-5.33 5.78,-6c2.15,-0.31 5.36,-1.12 6,-2.54c2.38,-5.24 -0.25,-7.8 -6.17,-6.66c-1.43,0.28 -2.87,0.58 -4.32,0.8c-5.91,0.92 -9.87,4.06 -10.8,9.66c-0.59,3.54 -0.27,7.26 0.08,10.86c0.08,0.78 2.04,2.02 3.08,1.97c6.11,-0.24 6.36,-0.66 6.35,-8.09z" fill="#1C77BD" id="svg_6" opacity="1"/>
  <path d="m406.98,314.87c-0.04,0.29 -0.09,0.58 -0.54,1.08c-1.21,0.55 -2.26,0.7 -2.78,1.28c-2.12,2.38 -3.8,5.17 -6.16,7.29c-2.9,2.6 -6.05,5.18 -9.59,6.81c-2.09,0.97 -2.92,1.79 -2.93,3.74c0,0 0.05,0.24 -0.16,0.26c-0.78,0.08 -1.36,0.14 -2.26,0.09c-3.3,0.73 -6.32,1.44 -9.22,2.47c-0.66,0.23 -0.88,1.57 -1.3,2.41c-0.82,0.09 -1.64,0.19 -2.98,0.08c-4.69,0.48 -8.85,1.67 -13.04,1.74c-13.77,0.24 -27.55,0.11 -41.32,0.02c-1.97,-0.01 -3.94,-0.55 -6,-1.04c-0.64,-0.31 -1.21,-0.41 -2.09,-0.53c-0.94,0.05 -1.56,0.13 -2.52,0.17c-1.41,-0.02 -2.5,-0.02 -3.59,-0.01c-0.1,-0.08 -0.21,-0.17 -0.56,-0.6c-1.23,-1.29 -2.07,-2.8 -3.21,-3.06c-4.06,-0.89 -7.77,-2.06 -11.09,-4.71c-1.76,-1.41 -4.55,-1.67 -7.14,-2.48c-0.89,-0.76 -1.52,-1.48 -2.16,-2.48c-0.83,-0.83 -1.64,-1.41 -2.72,-2.06c-0.78,-0.12 -1.31,-0.16 -1.83,-0.21c0,0 -0.06,0.04 -0.13,-0.27c-0.98,-1.81 -1.96,-3.29 -2.79,-4.85c-2.87,-5.38 -7.1,-10.55 -8.15,-16.25c-1.37,-7.36 -0.2,-15.15 -0.06,-22.75c0.02,-0.84 0.3,-1.76 0.73,-2.5c3.09,-5.27 6.25,-10.49 9.39,-15.73c0.15,-0.22 0.31,-0.44 0.79,-0.84c1.53,-1.4 2.73,-2.61 3.94,-3.83c0,0 0.36,-0.08 0.8,-0.15c2.37,-1.31 5.67,-1.15 5.51,-4.53c0.35,-0.15 0.69,-0.3 1.54,-0.41c1.67,-0.6 2.84,-1.23 4.1,-1.86c0.1,-0.01 0.12,-0.19 0.43,-0.17c3,0.21 4.83,-0.81 5.63,-3.32c0.3,-0.01 0.6,-0.01 1.31,0.1c1.28,0.03 2.14,-0.04 3.3,0.01c4.71,-0.62 9.14,-1.22 13.49,-2.2c1.03,-0.23 1.73,-1.79 2.59,-2.73c1.84,-0.11 3.7,-0.23 6.25,-0.24c10.55,0.01 20.38,-0.09 30.23,-0.2c1.32,0.06 2.64,0.11 4.48,0.37c3.12,1.09 5.66,2.4 8.35,2.77c7.5,1.02 14.53,3.17 21.16,6.63c1.48,0.77 3.59,0.73 4.75,1.74c5.8,5.1 11.38,10.43 17.18,15.93c0.73,1.34 1.31,2.43 1.85,3.84c0.11,1.57 0.26,2.82 0.31,4.35c0.23,2.13 0.48,4.04 3.21,3.89c0.11,0.32 0.23,0.63 0.36,1.46c0.03,1.09 0.05,1.67 -0.14,2.5c-0.07,4.92 0.06,9.6 0.15,14.58c0.06,1.12 0.14,1.94 0.21,2.75c-0.12,0.32 -0.24,0.63 -0.77,1.2c-3.88,1.47 -4.21,2.48 -1.89,4.84c-0.1,0.57 -0.2,1.13 -0.59,1.88c-0.52,0.23 -0.75,0.31 -1.25,0.5c-0.56,1.13 -0.83,2.18 -1.1,3.23m-92.55,-50.26c0,0 -0.16,-0.34 -0.02,-0.92c-0.05,-0.59 -0.1,-1.18 0,-2.12c0,0 -0.11,-0.36 0.11,-0.74c-1.62,-1.03 -3.33,-3.04 -4.84,-2.92c-4.97,0.42 -9.89,1.54 -14.78,2.61c-0.61,0.13 -0.93,1.54 -1.92,2.45c-0.71,0.18 -1.43,0.36 -2.48,0.19c-2.87,0.9 -5.79,1.73 -6.79,5.23c0,0 -0.31,0.18 -0.75,0.17c-0.19,0.21 -0.38,0.41 -0.75,1.05c-0.11,0.47 -0.23,0.92 -0.91,1.51c-0.8,0.77 -1.93,1.41 -2.34,2.34c-2.19,4.88 -0.54,11.59 3.7,15.34c0,0 -0.05,0.11 0.05,0.63c1.47,1.37 2.74,3.04 4.44,4.05c4.87,2.9 9.72,6.08 16.44,5.65c0.33,0.02 0.66,0.03 1.42,0.43c5.41,1.94 10.92,3 16.78,2.84c8.97,-0.22 17.95,-0.18 26.93,0c6.49,0.12 12.74,-0.52 19.14,-3.19c0.32,-0.06 0.64,-0.13 1.6,0.03c0.88,-0.08 1.76,-0.15 3.17,-0.02c0.61,-0.49 1.22,-0.98 2.25,-1.6c0.13,-0.05 0.27,-0.11 1.05,0.05c2.26,0.08 4.65,0.34 4.68,-3.26c0.67,-0.18 1.33,-0.36 2.54,-0.32c0.73,-0.46 1.46,-0.92 2.78,-1.49c3.25,-0.61 4.34,-2.81 4.58,-6.19c-0.04,-0.92 -0.09,-1.84 0.12,-3.35c-1.15,-1.12 -2.28,-3.13 -3.46,-3.16c-2.16,-0.06 -4.42,0.89 -6.5,1.74c-1.2,0.49 -2.05,1.7 -3.19,2.39c-2.78,1.68 -5.63,3.25 -9.04,4.94c-0.77,0.05 -1.55,0.11 -3.05,-0.13c-3.77,0.51 -7.53,1.41 -11.31,1.47c-11.92,0.2 -23.86,0.09 -35.79,0.05c-1.31,-0.01 -2.63,-0.34 -3.95,-0.46c-2.84,-0.27 -5.67,-0.5 -9.1,-0.78c-0.77,-0.08 -1.53,-0.15 -2.6,-0.68c-3.37,-1.46 -6.74,-2.91 -10.46,-4.53c-0.24,-0.09 -0.47,-0.21 -0.64,-0.99c0.22,-2.73 0.43,-5.46 0.77,-8.46c0,0 0.18,-0.24 0.81,-0.28c3.32,-0.96 6.7,-1.77 9.93,-2.94c0.98,-0.36 1.54,-1.74 2.89,-2.74c1.41,-0.16 2.82,-0.32 4.63,-0.32c0.14,-0.04 0.28,-0.08 0.77,0.13c1,-1.12 2,-2.23 3.1,-3.7z" fill="#434345" id="svg_7" opacity="1"/>
  <path d="m119.83,304.47c-0.14,-0.05 -0.27,-0.1 -0.59,-0.53c-0.41,-3.95 -3.71,-2.39 -5.62,-3.51c-1.01,-0.6 -1.93,-0.97 -3.01,-1.56c-3.18,-3.45 -6.23,-6.66 -9.22,-9.91c-1.44,-1.57 -2.78,-3.22 -4.21,-5.04c-0.21,-0.57 -0.39,-0.93 -0.52,-1.6c-0.55,-1.87 -1.14,-3.45 -1.6,-5.31c0.25,-1.77 0.44,-3.25 0.45,-4.74c0.02,-4.28 0,-8.56 -0.06,-12.84c-0.02,-1.71 -0.19,-3.43 -0.27,-5.4c0.57,-1.86 1.1,-3.46 1.69,-5.34c0.1,-0.81 0.14,-1.36 0.18,-1.9c0,0 0.23,0.06 0.48,0.23c1.13,-0.81 2.01,-1.79 2.95,-3.03c0.89,-1.34 1.72,-2.43 2.84,-3.54c1.11,-1.05 1.93,-2.09 2.88,-3.33c0.69,-0.76 1.26,-1.31 2.13,-1.88c1.07,-0.45 1.94,-0.77 2.61,-1.31c2.55,-2.04 4.81,-4.47 7.57,-6.17c3.54,-2.18 7.44,-3.89 11.27,-5.62c1.74,-0.79 3.69,-1.17 5.58,-1.65c1.91,-0.48 3.63,-1.05 3.29,-3.43c0.35,-0.1 0.7,-0.2 1.5,-0.35c0.75,-0.07 1.06,-0.08 1.69,0.03c1.01,0.11 1.69,0.11 2.52,0.28c0.59,-0.2 1.03,-0.56 1.72,-1.12c2.8,-0.21 5.94,-2.22 7.27,1.96c0.96,0.89 1.96,1.53 3.09,2.21c0.12,0.05 0.39,-0.02 0.5,0.2c0.67,0.81 1.21,1.41 1.72,2.25c0.01,0.57 0.05,0.9 -0.1,1.39c0.08,2.47 1.54,3.04 3.71,2.56c0,0 0,0.06 -0.07,0.34c1.62,4.52 7.33,9.51 11.18,10.08c0.57,0.36 0.97,0.58 1.38,1.08c-0.02,3.48 2.82,3.37 5.11,4.17c0.19,0.05 0.52,0.24 0.59,0.49c1.95,1.95 3.83,3.64 5.84,5.43c-1.96,1.86 -6.34,0.55 -6.12,4.68c-0.58,0.11 -0.93,0.15 -1.44,-0.03c-4.05,0.66 -7.98,1.41 -11.8,2.51c-0.82,0.24 -1.26,1.7 -2.18,2.67c-1.13,0.14 -1.96,0.21 -2.99,0.05c-3.65,0.43 -7.12,1.72 -10.54,1.59c-9.06,-0.34 -18.06,3.25 -27.15,0.27c-1.42,-0.47 -3.1,-0.21 -4.78,-0.56c-1.46,-0.55 -3.23,-1.47 -4.05,-0.98c-2.05,1.25 -3.81,3.03 -5.28,4.89c-0.18,0.23 2.22,2.26 3.53,3.68c0.91,0.71 1.72,1.19 2.57,1.97c0.97,1.12 1.82,2.54 2.85,2.67c6.07,0.76 12.17,1.6 18.27,1.68c5.16,0.06 10.32,-1.01 15.49,-1.31c2.54,-0.15 4.07,-0.98 4.87,-3.42c0.85,-0.18 1.41,-0.28 2.27,-0.29c0.92,0.08 1.54,0.08 2.38,0.26c2.27,0.18 4.83,1.27 5.58,-2.06c0.48,-0.16 0.75,-0.23 1.27,-0.15c1.55,0.16 2.84,0.16 4.45,0.18c1.18,-0.96 2.05,-1.96 3.2,-3.02c1.02,-0.15 1.76,-0.24 2.84,-0.18c6.11,0.44 9.95,-3.83 14.91,-5.46c1.79,-0.59 3.35,-1.78 4.69,-2.51c1.38,0.47 2.67,0.89 3.94,1.35c2.63,0.98 5.58,1.54 7.78,3.08c3.63,2.54 7.46,3.66 12.06,3.49c0.48,0.05 0.76,0.11 1.14,0.42c1.23,2.06 2.36,3.84 3.5,5.85c-0.07,0.47 -0.15,0.74 -0.54,0.99c-3.89,0.36 -3.26,3.2 -3.94,5.58c-0.36,1.05 -0.59,1.87 -0.81,2.7c0,0 0.1,0.05 -0.14,-0.02c-0.23,-0.08 -0.6,0.02 -0.78,-0.15c-3.37,0.2 -4.32,2.29 -4.78,5.09c-1.97,1.81 -3.73,3.47 -5.78,5.14c-3.26,1.18 -6.7,1.75 -7.74,5.33c-0.86,0.3 -1.72,0.6 -2.76,1.06c-0.18,0.16 -0.37,0.15 -0.62,0.08c-2.59,1.3 -4.93,2.66 -7.28,4.02c-0.57,0.06 -1.14,0.11 -2.16,0.06c-1.72,0.22 -3.03,0.44 -4.24,0.9c-3.22,1.22 -6.3,2.89 -9.62,3.73c-4.2,1.07 -8.56,1.99 -12.88,2.12c-13.01,0.43 -26.11,2.33 -38.97,-1.47c-1.43,-0.43 -3.12,-0.08 -4.69,-0.1z" fill="#424244" id="svg_8" opacity="1"/>
  <path d="m393.99,170.2c0.54,0.08 1.09,0.16 2.01,0.51c1.52,1.03 2.58,2 3.83,2.54c4.69,2.06 7.89,5.3 9.2,10.18c-0.03,4.39 0.16,8.6 0.3,13.1c-1.71,6.77 -6.66,10.88 -11.75,14.89c-2.29,1.81 -4.69,3.5 -7.03,5.24c-1.02,0.13 -2.05,0.26 -3.65,0.34c-0.99,0.08 -1.39,0.19 -2.09,0.24c-4.64,0.38 -8.98,1.09 -13.33,1.19c-2.43,0.07 -4.88,-0.85 -7.57,-1.47c-3.77,-2.51 -8.1,-4.3 -10.62,-7.42c-3.14,-3.9 -3.84,-9.15 -2.8,-14.11c0.67,-3.22 1.59,-6.73 3.57,-9.28c3.1,-3.98 7.2,-7.26 10.88,-10.84c0.28,-0.05 0.57,-0.09 1.35,-0.1c2.87,-2.04 7.36,-0.88 8.59,-4.71c1.58,-0.1 3.15,-0.21 5.29,-0.16c3.91,0.05 7.24,-0.05 10.9,-0.07c1.19,0.02 2.07,-0.02 2.94,-0.08z" fill="#444446" id="svg_9" opacity="1"/>
  <path d="m223.32,319.71c1.07,0.08 2.14,0.18 3.5,0.66c0.73,4.16 3.67,3.3 6.17,3.3c0.01,0.02 0.06,0.03 0.01,0.25c0.45,0.43 0.93,0.63 1.71,0.86c0.85,0.04 1.41,0.04 1.98,0.03c0.64,0.51 1.27,1.02 1.72,1.87c0.23,0.74 0.66,1.14 1.25,1.64c0.36,0.26 0.53,0.44 0.63,0.93c0.54,0.55 1.12,0.83 1.99,1.19c3.83,5.89 5.3,11.93 3.94,18.71c-0.79,3.94 -7.21,10.8 -11.13,11.87c-0.59,0.23 -1.04,0.61 -1.47,1.02c0.02,0.02 -0.02,-0.02 -0.36,-0.01c-7.59,0.28 -14.83,0.76 -22.08,0.74c-3.26,-0.01 -6.52,-0.99 -10.03,-1.57c-0.9,-0.24 -1.55,-0.44 -2.2,-0.93c-0.06,-2.91 -2.11,-2.73 -4.06,-3.03c-0.6,-0.56 -1.07,-0.92 -1.55,-1.57c-1.1,-1.1 -2.18,-1.92 -3.37,-2.95c-0.55,-0.86 -0.99,-1.5 -1.44,-2.47c-0.01,-6.72 -0.01,-13.13 0.17,-19.7c0.76,-0.96 1.35,-1.73 2.24,-2.38c1.03,-0.83 1.76,-1.77 2.72,-2.78c0.77,-0.4 1.32,-0.71 2.19,-0.99c2.59,-1.45 7.15,0.37 7.21,-4.27c0.56,-0.1 1.12,-0.2 2.23,-0.24c0.96,0.07 1.36,0.08 1.96,0.29c1.41,0.01 2.62,-0.18 4.2,-0.39c2.54,0.01 4.71,0.02 7.03,0.25c1.13,0.12 2.11,0.02 3.39,-0.08c0.68,-0.08 1.07,-0.16 1.46,-0.25z" fill="#424244" id="svg_10" opacity="1"/>
  <path d="m124.16,150.26c0.06,0.11 0.11,0.23 0.15,0.77c1.87,3.68 3.76,6.92 5.65,10.41c0.1,0.54 0.21,0.84 0.19,1.36c-0.1,0.55 -0.07,0.88 -0.18,1.51c-0.06,0.95 0.02,1.59 0.04,2.48c0.02,0.57 0.1,0.89 0.06,1.42c-0.12,0.53 -0.13,0.85 -0.31,1.38c-1.8,2.33 -3.43,4.45 -5.06,6.56c0,0 0.03,0.07 -0.3,0.12c-10.6,3.55 -20.12,3.05 -28.43,-4.48c-0.85,-0.77 -2.23,-1.01 -3.37,-1.5c-0.31,-0.55 -0.6,-1.11 -0.87,-2.18c-3.42,-7.18 -4.79,-13.91 -0.39,-20.92c0.14,-0.42 0.16,-0.67 0.19,-0.92c0.56,-0.53 1.11,-1.06 2.19,-1.61c1.59,-0.46 2.64,-0.89 4.04,-1.31c2.84,-0.32 5.34,-0.67 8.14,-0.92c0.92,0.09 1.54,0.08 2.31,0.3c1.91,0.73 3.65,1.22 5.58,1.76c0.18,0.06 0.53,-0.08 0.53,-0.08c0.31,0.07 0.61,0.15 1.27,0.47c3.09,1.96 5.83,3.68 8.58,5.39z" fill="#464648" id="svg_11" opacity="1"/>
 </g>
</svg>