<?xml version="1.0"?>
<svg width="512" height="512" xmlns="http://www.w3.org/2000/svg" xmlns:svg="http://www.w3.org/2000/svg" enable-background="new 0 0 512 512" version="1.1" xml:space="preserve">
 <!-- Created with SVG-edit - https://github.com/SVG-Edit/svgedit-->

 <g class="layer">
  <title>Layer 1</title>
  <!-- Created with SVG-edit - https://github.com/SVG-Edit/svgedit-->
  <path d="m318.78,229.88c-0.6,0.07 -1.22,0.14 -2.51,0.11c-2.84,0 -5.21,-0.49 -7.11,0.31c-8.7,3.63 -18.26,4.93 -26,11.23c-4.18,3.4 -9.13,5.72 -13.55,8.8c-1.1,0.77 -1.51,2.65 -2.23,4.01c0,0 0.15,0.11 -0.25,0.1c-2.17,2.12 -3.96,4.28 -5.75,6.42c0,0 0.01,0.05 -0.34,0.02c-1.85,0.05 -3.36,0.12 -5.03,-0.02c-1.21,-0.13 -2.23,-0.06 -3.6,-0.02c-1,0.05 -1.67,0.14 -2.33,0.25c-1.43,-0.11 -2.86,-0.22 -4.72,-0.65c-5.37,-2 -10.28,-3.67 -15.55,-5.5c-1.33,-0.13 -2.32,-0.1 -3.31,-0.06c-0.59,-0.13 -1.19,-0.28 -2.12,-0.74c-3.56,-1.85 -6.77,-3.36 -10.21,-5.03c-1.78,-0.43 -3.33,-0.72 -4.88,-1.34c-0.79,-4.18 -3.84,-3.34 -6.46,-4.01c-2.2,-1.25 -4.26,-2.17 -6.32,-3.43c-0.94,-0.99 -1.88,-1.68 -2.85,-2.67c-0.93,-0.68 -1.82,-1.03 -2.98,-1.39c-0.61,-0.05 -0.97,-0.06 -1.34,-0.3c-0.01,-0.22 -0.13,-0.65 0.2,-0.78c3.84,-0.79 7.52,-0.95 10.82,-2.21c9.63,-3.67 11.55,-15.76 8.52,-25.48c-0.23,-0.74 -1.84,-1.39 -2.82,-1.41c-6.08,-0.08 -7.17,1.15 -7.16,7.54c0,1.22 -0.15,2.46 0.02,3.64c0.64,4.31 -1.82,5.63 -5.17,6.08c-1.14,0.14 -2.31,0.05 -3.46,0.06c-2.54,0.05 -4.41,0.64 -4.62,4.03c-0.05,0.95 -2.02,1.79 -3.4,2.65c-1.32,-0.67 -2.38,-1.26 -3.35,-1.97c-1.72,-1.26 -3.42,-2.61 -5.14,-4.27c-0.56,-3.97 -2.52,-5.93 -6.04,-6.09c0,0 -0.12,0.12 -0.06,-0.29c-0.6,-3.48 -1.94,-5.8 -5.42,-6.15c-0.11,-0.19 -0.36,-0.56 -0.26,-0.87c-1.98,-3.32 -4.05,-6.32 -6.14,-9.6c-0.12,-0.64 -0.23,-0.99 -0.37,-1.69c-1.62,-3.86 -3.82,-7.21 -4.64,-10.93c-2.43,-10.86 -4.62,-21.81 -0.96,-32.94c0.43,-1.31 -0.04,-2.95 -0.02,-4.71c0.11,-0.64 0.14,-1.01 0.42,-1.57c1.9,-4.01 3.56,-7.85 5.34,-11.9c0.32,-0.68 0.53,-1.16 1.09,-1.62c3.43,0.06 3.29,-1.93 2.76,-4.17c0,0 -0.1,-0.23 0.24,-0.34c0.83,-1.01 1.33,-1.92 1.96,-2.89c0.12,-0.07 0.38,-0.18 0.72,-0.11c1.26,-0.49 2.25,-0.92 3.07,-1.61c3.6,-2.97 7.17,-5.99 10.7,-9.06c1.6,-1.39 3.06,-2.95 4.59,-4.43c0,0 -0.04,-0.28 0.17,-0.28c0.63,0.05 1.03,0.1 1.67,0.37c4.06,-0.6 7.89,-1.62 11.76,-2.19c3.93,-0.58 7.96,-0.53 11.88,-1.15c0.89,-0.13 1.56,-1.88 2.33,-2.89c0.86,-0.06 1.72,-0.13 3,0.19c1.55,1.19 2.61,2.53 3.84,2.74c7.7,1.38 15.46,2.37 23.16,3.77c3.04,0.55 5.97,1.81 9.29,2.78c1.81,0.35 3.29,0.67 4.83,1.23c0.65,0.37 1.22,0.49 2.04,0.66c0.59,0.05 0.93,0.06 1.62,0.11c1.88,0.41 3.41,0.75 4.94,1.41c0.06,0.89 0.12,1.49 0.29,2.35c0.88,0.61 1.67,0.96 2.79,1.38c2.02,0.53 3.7,0.99 5.68,1.5c1.1,0.17 1.9,0.32 2.68,0.81c0.69,1.34 1.19,2.71 2.12,3.28c5.2,3.2 10.58,6.08 15.71,9.38c1.88,1.21 2.54,4.52 5.83,3.7c0.87,0.75 1.58,1.26 2.31,2.12c0.38,1.25 0.53,2.38 1.15,3.01c5.91,5.88 12.28,11.3 15.99,19.28c0.52,1.1 2.46,1.46 3.74,2.17c0.17,0.38 0.34,0.75 0.56,1.77c0.51,1.81 0.96,3.01 1.37,4.58c-0.28,3.89 0.31,6.93 4.01,8.15c0.11,0.64 0.23,1.28 0.29,2.54c-0.06,1.08 -0.06,1.53 -0.3,2.16c-0.02,0.98 0.18,1.77 0.4,2.84c0.03,0.6 0.05,0.95 -0.03,1.74c-0.04,6.11 0.02,11.8 0.09,17.75c-0.04,0.6 -0.06,0.95 -0.31,1.41c-0.14,0.65 -0.05,1.19 0.03,2.11c0.12,1.09 0.25,1.81 0.37,2.53c-0.1,0.37 -0.19,0.73 -0.72,1.38c-3.9,0.87 -3.07,3.58 -3.01,6.24c-0.38,1.22 -0.7,2.13 -1.2,2.85c-0.91,0.95 -1.63,2.07 -2.37,3.2m-115.65,-69.25c-0.86,-2.73 -2.17,-4.89 -5.7,-5.11c-0.2,-0.49 -0.39,-0.97 -0.34,-2.16c-0.87,-2.67 -1.67,-5.38 -2.64,-8.02c-0.87,-2.35 -7.13,-5.26 -9.23,-4.17c-3.02,1.53 -5.68,3.68 -6.13,7.5c-0.34,2.97 3.54,9.37 6.22,11.19c0.74,1.11 1.5,2.23 1.83,4.03c0.94,0.68 1.88,1.37 3.23,2.31c0.25,0.44 0.49,0.87 0.73,1.97c2.36,2.18 4.71,4.35 7.56,6.85c5.88,4.1 11.65,8.36 17.67,12.24c3.33,2.16 7.04,3.63 11.07,5.61c0.37,0.02 0.72,0.06 1.34,0.67c3.36,1.73 6.73,3.44 10.64,5.42c1.01,0.08 2.03,0.16 3.26,0.87c3.71,4.12 8.46,5.3 14.19,5.45c0.57,0.04 1.14,0.07 1.99,0.68c6.1,4.33 12.98,5.32 20.81,5.33c0.92,-0.12 1.81,-0.24 3.41,-0.1c1.46,-0.01 2.9,-0.02 5.1,0.24c5.67,0.24 10.88,-0.68 14.53,-6.51c0,0 0.3,-0.25 0.91,-0.07c1.36,-2.03 2.71,-4.04 4.31,-6.52c0.03,-0.35 0.08,-0.68 0.55,-1.52c1.23,-4.59 2.43,-9.17 -0.2,-14.27c-0.08,-0.37 -0.16,-0.75 -0.08,-1.79c-1.5,-2.37 -0.93,-6.53 -5.14,-6.66c0,0 -0.11,-0.02 -0.02,-0.71c-0.64,-1.46 -1.01,-3.13 -1.95,-4.31c-1.1,-1.4 -2.6,-2.49 -4.04,-3.54c-1.98,-1.46 -4.09,-2.73 -6.31,-4.6c-0.09,-0.17 -0.17,-0.32 0,-1.07c-1.74,-1.11 -3.46,-2.24 -5.78,-3.7c-1.98,0.48 -3.98,0.95 -6.61,1.45c-4.34,3.38 -3.96,6.94 1.16,10.19c0,0 0.03,0.06 0.22,0.64c4.04,4.07 8.14,8.13 12.14,12.26c1.68,1.75 3.18,3.69 4.84,6.27c-0.02,1.93 -0.05,3.86 -0.63,6.05c-5.34,3.39 -10.93,4.77 -17.16,3.15c-4.94,-1.29 -9.99,-2.16 -15.01,-3.13c-1.05,-0.2 -2.17,-0.02 -3.82,-0.11c-0.57,-0.06 -1.14,-0.11 -2.01,-0.7c-0.85,-0.81 -1.56,-1.94 -2.55,-2.38c-5.34,-2.32 -10.77,-4.35 -16.07,-6.73c-3.64,-1.63 -7.17,-3.58 -10.66,-5.54c-5.59,-3.15 -11.11,-6.42 -16.87,-10.16c-2.93,-2 -5.86,-4 -8.82,-6.06c0,0 -0.04,-0.04 0.11,-0.72m-24.21,41.43c0.17,-5.45 1.25,-6.39 6.23,-7.19c2.32,-0.37 5.78,-1.34 6.47,-3.04c2.57,-6.28 -0.27,-9.35 -6.65,-7.98c-1.54,0.34 -3.09,0.7 -4.66,0.96c-6.37,1.1 -10.64,4.87 -11.64,11.58c-0.64,4.24 -0.29,8.7 0.09,13.01c0.09,0.93 2.2,2.42 3.32,2.36c6.59,-0.29 6.86,-0.79 6.85,-9.69z" fill="#00ff00" id="svg_14"/>
  <path d="m419.64,328.91c-0.04,0.35 -0.1,0.7 -0.58,1.29c-1.3,0.66 -2.44,0.84 -3,1.53c-2.29,2.85 -4.1,6.2 -6.64,8.74c-3.13,3.12 -6.52,6.21 -10.34,8.16c-2.25,1.16 -3.15,2.15 -3.16,4.48c0,0 0.05,0.29 -0.17,0.31c-0.84,0.1 -1.47,0.17 -2.44,0.11c-3.56,0.87 -6.81,1.73 -9.94,2.96c-0.71,0.28 -0.95,1.88 -1.4,2.89c-0.88,0.11 -1.77,0.23 -3.21,0.1c-5.06,0.58 -9.54,2 -14.06,2.09c-14.84,0.29 -29.7,0.13 -44.54,0.02c-2.12,-0.01 -4.25,-0.66 -6.47,-1.25c-0.69,-0.37 -1.3,-0.49 -2.25,-0.64c-1.01,0.06 -1.68,0.16 -2.72,0.2c-1.52,-0.02 -2.7,-0.02 -3.87,-0.01c-0.11,-0.1 -0.23,-0.2 -0.6,-0.72c-1.33,-1.55 -2.23,-3.36 -3.46,-3.67c-4.38,-1.07 -8.38,-2.47 -11.96,-5.64c-1.9,-1.69 -4.9,-2 -7.7,-2.97c-0.96,-0.91 -1.64,-1.77 -2.33,-2.97c-0.89,-0.99 -1.77,-1.69 -2.93,-2.47c-0.84,-0.14 -1.41,-0.19 -1.97,-0.25c0,0 -0.06,0.05 -0.14,-0.32c-1.06,-2.17 -2.11,-3.94 -3.01,-5.81c-3.09,-6.45 -7.65,-12.64 -8.79,-19.47c-1.48,-8.82 -0.22,-18.16 -0.06,-27.26c0.02,-1.01 0.32,-2.11 0.79,-3c3.33,-6.32 6.74,-12.57 10.12,-18.85c0.16,-0.26 0.33,-0.53 0.85,-1.01c1.65,-1.68 2.94,-3.13 4.25,-4.59c0,0 0.39,-0.1 0.86,-0.18c2.55,-1.57 6.11,-1.38 5.94,-5.43c0.38,-0.18 0.74,-0.36 1.66,-0.49c1.8,-0.72 3.06,-1.47 4.42,-2.23c0.11,-0.01 0.13,-0.23 0.46,-0.2c3.23,0.25 5.21,-0.97 6.07,-3.98c0.32,-0.01 0.65,-0.01 1.41,0.12c1.38,0.04 2.31,-0.05 3.56,0.01c5.08,-0.74 9.85,-1.46 14.54,-2.64c1.11,-0.28 1.86,-2.15 2.79,-3.27c1.98,-0.13 3.99,-0.28 6.74,-0.29c11.37,0.01 21.97,-0.11 32.59,-0.24c1.42,0.07 2.85,0.13 4.83,0.44c3.36,1.31 6.1,2.88 9,3.32c8.09,1.22 15.66,3.8 22.81,7.95c1.6,0.92 3.87,0.87 5.12,2.09c6.25,6.11 12.27,12.5 18.52,19.09c0.79,1.61 1.41,2.91 1.99,4.6c0.12,1.88 0.28,3.38 0.33,5.21c0.25,2.55 0.52,4.84 3.46,4.66c0.12,0.38 0.25,0.75 0.39,1.75c0.03,1.31 0.05,2 -0.15,3c-0.08,5.9 0.06,11.5 0.16,17.47c0.06,1.34 0.15,2.32 0.23,3.3c-0.13,0.38 -0.26,0.75 -0.83,1.44c-4.18,1.76 -4.54,2.97 -2.04,5.8c-0.11,0.68 -0.22,1.35 -0.64,2.25c-0.56,0.28 -0.81,0.37 -1.35,0.6c-0.6,1.35 -0.89,2.61 -1.19,3.87m-99.77,-60.23c0,0 -0.17,-0.41 -0.02,-1.1c-0.05,-0.71 -0.11,-1.41 0,-2.54c0,0 -0.12,-0.43 0.12,-0.89c-1.75,-1.23 -3.59,-3.64 -5.22,-3.5c-5.36,0.5 -10.66,1.85 -15.93,3.13c-0.66,0.16 -1,1.85 -2.07,2.94c-0.77,0.22 -1.54,0.43 -2.67,0.23c-3.09,1.08 -6.24,2.07 -7.32,6.27c0,0 -0.33,0.22 -0.81,0.2c-0.2,0.25 -0.41,0.49 -0.81,1.26c-0.12,0.56 -0.25,1.1 -0.98,1.81c-0.86,0.92 -2.08,1.69 -2.52,2.8c-2.36,5.85 -0.58,13.89 3.99,18.38c0,0 -0.05,0.13 0.05,0.75c1.58,1.64 2.95,3.64 4.79,4.85c5.25,3.48 10.48,7.29 17.72,6.77c0.36,0.02 0.71,0.04 1.53,0.52c5.83,2.32 11.77,3.6 18.09,3.4c9.67,-0.26 19.35,-0.22 29.03,0c7,0.14 13.73,-0.62 20.63,-3.82c0.34,-0.07 0.69,-0.16 1.72,0.04c0.95,-0.1 1.9,-0.18 3.42,-0.02c0.66,-0.59 1.32,-1.17 2.43,-1.92c0.14,-0.06 0.29,-0.13 1.13,0.06c2.44,0.1 5.01,0.41 5.05,-3.91c0.72,-0.22 1.43,-0.43 2.74,-0.38c0.79,-0.55 1.57,-1.1 3,-1.79c3.5,-0.73 4.68,-3.37 4.94,-7.42c-0.04,-1.1 -0.1,-2.21 0.13,-4.01c-1.24,-1.34 -2.46,-3.75 -3.73,-3.79c-2.33,-0.07 -4.76,1.07 -7.01,2.09c-1.29,0.59 -2.21,2.04 -3.44,2.86c-3,2.01 -6.07,3.89 -9.75,5.92c-0.83,0.06 -1.67,0.13 -3.29,-0.16c-4.06,0.61 -8.12,1.69 -12.19,1.76c-12.85,0.24 -25.72,0.11 -38.58,0.06c-1.41,-0.01 -2.84,-0.41 -4.26,-0.55c-3.06,-0.32 -6.11,-0.6 -9.81,-0.93c-0.83,-0.1 -1.65,-0.18 -2.8,-0.81c-3.63,-1.75 -7.27,-3.49 -11.28,-5.43c-0.26,-0.11 -0.51,-0.25 -0.69,-1.19c0.24,-3.27 0.46,-6.54 0.83,-10.14c0,0 0.19,-0.29 0.87,-0.34c3.58,-1.15 7.22,-2.12 10.7,-3.52c1.06,-0.43 1.66,-2.09 3.12,-3.28c1.52,-0.19 3.04,-0.38 4.99,-0.38c0.15,-0.05 0.3,-0.1 0.83,0.16c1.08,-1.34 2.16,-2.67 3.34,-4.43l-0.01,0z" fill="#434345" id="svg_13"/>
  <path d="m110.09,316.45c-0.15,-0.06 -0.29,-0.12 -0.64,-0.64c-0.44,-4.73 -4,-2.86 -6.06,-4.21c-1.09,-0.72 -2.08,-1.16 -3.24,-1.87c-3.43,-4.13 -6.72,-7.98 -9.94,-11.88c-1.55,-1.88 -3,-3.86 -4.54,-6.04c-0.23,-0.68 -0.42,-1.11 -0.56,-1.92c-0.59,-2.24 -1.23,-4.13 -1.72,-6.36c0.27,-2.12 0.47,-3.89 0.49,-5.68c0.02,-5.13 0,-10.26 -0.06,-15.39c-0.02,-2.05 -0.2,-4.11 -0.29,-6.47c0.61,-2.23 1.19,-4.15 1.82,-6.4c0.11,-0.97 0.15,-1.63 0.19,-2.28c0,0 0.25,0.07 0.52,0.28c1.22,-0.97 2.17,-2.15 3.18,-3.63c0.96,-1.61 1.85,-2.91 3.06,-4.24c1.2,-1.26 2.08,-2.5 3.1,-3.99c0.74,-0.91 1.36,-1.57 2.3,-2.25c1.15,-0.54 2.09,-0.92 2.81,-1.57c2.75,-2.44 5.19,-5.36 8.16,-7.39c3.82,-2.61 8.02,-4.66 12.15,-6.73c1.88,-0.95 3.98,-1.4 6.02,-1.98c2.06,-0.58 3.91,-1.26 3.55,-4.11c0.38,-0.12 0.75,-0.24 1.62,-0.42c0.81,-0.08 1.14,-0.1 1.82,0.04c1.09,0.13 1.82,0.13 2.72,0.34c0.64,-0.24 1.11,-0.67 1.85,-1.34c3.02,-0.25 6.4,-2.66 7.84,2.35c1.03,1.07 2.11,1.83 3.33,2.65c0.13,0.06 0.42,-0.02 0.54,0.24c0.72,0.97 1.3,1.69 1.85,2.7c0.01,0.68 0.05,1.08 -0.11,1.67c0.09,2.96 1.66,3.64 4,3.07c0,0 0,0.07 -0.08,0.41c1.75,5.42 7.9,11.4 12.05,12.08c0.61,0.43 1.05,0.7 1.49,1.29c-0.02,4.17 3.04,4.04 5.51,5c0.2,0.06 0.56,0.29 0.64,0.59c2.1,2.34 4.13,4.36 6.3,6.51c-2.11,2.23 -6.83,0.66 -6.6,5.61c-0.63,0.13 -1,0.18 -1.55,-0.04c-4.37,0.79 -8.6,1.69 -12.72,3.01c-0.88,0.29 -1.36,2.04 -2.35,3.2c-1.22,0.17 -2.11,0.25 -3.22,0.06c-3.93,0.52 -7.68,2.06 -11.36,1.91c-9.77,-0.41 -19.47,3.89 -29.27,0.32c-1.53,-0.56 -3.34,-0.25 -5.15,-0.67c-1.57,-0.66 -3.48,-1.76 -4.37,-1.17c-2.21,1.5 -4.11,3.63 -5.69,5.86c-0.19,0.28 2.39,2.71 3.81,4.41c0.98,0.85 1.85,1.43 2.77,2.36c1.05,1.34 1.96,3.04 3.07,3.2c6.54,0.91 13.12,1.92 19.7,2.01c5.56,0.07 11.13,-1.21 16.7,-1.57c2.74,-0.18 4.39,-1.17 5.25,-4.1c0.92,-0.22 1.52,-0.34 2.45,-0.35c0.99,0.1 1.66,0.1 2.57,0.31c2.45,0.22 5.21,1.52 6.02,-2.47c0.52,-0.19 0.81,-0.28 1.37,-0.18c1.67,0.19 3.06,0.19 4.8,0.22c1.27,-1.15 2.21,-2.35 3.45,-3.62c1.1,-0.18 1.9,-0.29 3.06,-0.22c6.59,0.53 10.73,-4.59 16.07,-6.54c1.93,-0.71 3.61,-2.13 5.06,-3.01c1.49,0.56 2.88,1.07 4.25,1.62c2.84,1.17 6.02,1.85 8.39,3.69c3.91,3.04 8.04,4.39 13,4.18c0.52,0.06 0.82,0.13 1.23,0.5c1.33,2.47 2.54,4.6 3.77,7.01c-0.08,0.56 -0.16,0.89 -0.58,1.19c-4.19,0.43 -3.51,3.83 -4.25,6.69c-0.39,1.26 -0.64,2.24 -0.87,3.24c0,0 0.11,0.06 -0.15,-0.02c-0.25,-0.1 -0.65,0.02 -0.84,-0.18c-3.63,0.24 -4.66,2.74 -5.15,6.1c-2.12,2.17 -4.02,4.16 -6.23,6.16c-3.51,1.41 -7.22,2.1 -8.34,6.39c-0.93,0.36 -1.85,0.72 -2.98,1.27c-0.19,0.19 -0.4,0.18 -0.67,0.1c-2.79,1.56 -5.31,3.19 -7.85,4.82c-0.61,0.07 -1.23,0.13 -2.33,0.07c-1.85,0.26 -3.27,0.53 -4.57,1.08c-3.47,1.46 -6.79,3.46 -10.37,4.47c-4.53,1.28 -9.23,2.38 -13.88,2.54c-14.03,0.52 -28.15,2.79 -42.01,-1.76c-1.54,-0.52 -3.36,-0.1 -5.06,-0.12l0,0.04z" fill="#424244" id="svg_12"/>
  <path d="m405.64,155.54c0.58,0.1 1.18,0.19 2.17,0.61c1.64,1.23 2.78,2.4 4.13,3.04c5.06,2.47 8.51,6.35 9.92,12.2c-0.03,5.26 0.17,10.31 0.32,15.7c-1.84,8.11 -7.18,13.04 -12.67,17.84c-2.47,2.17 -5.06,4.19 -7.58,6.28c-1.1,0.16 -2.21,0.31 -3.93,0.41c-1.07,0.1 -1.5,0.23 -2.25,0.29c-5,0.46 -9.68,1.31 -14.37,1.43c-2.62,0.08 -5.26,-1.02 -8.16,-1.76c-4.06,-3.01 -8.73,-5.15 -11.45,-8.89c-3.38,-4.67 -4.14,-10.97 -3.02,-16.91c0.72,-3.86 1.71,-8.07 3.85,-11.12c3.34,-4.77 7.76,-8.7 11.73,-12.99c0.3,-0.06 0.61,-0.11 1.46,-0.12c3.09,-2.44 7.93,-1.05 9.26,-5.64c1.7,-0.12 3.4,-0.25 5.7,-0.19c4.22,0.06 7.8,-0.06 11.75,-0.08c1.28,0.02 2.23,-0.02 3.17,-0.1l-0.02,0.01z" fill="#444446" id="svg_11"/>
  <path d="m221.65,334.71c1.15,0.1 2.31,0.22 3.77,0.79c0.79,4.99 3.96,3.95 6.65,3.95c0.01,0.02 0.06,0.04 0.01,0.3c0.49,0.52 1,0.75 1.84,1.03c0.92,0.05 1.52,0.05 2.13,0.04c0.69,0.61 1.37,1.22 1.85,2.24c0.25,0.89 0.71,1.37 1.35,1.97c0.39,0.31 0.57,0.53 0.68,1.11c0.58,0.66 1.21,0.99 2.15,1.43c4.13,7.06 5.71,14.3 4.25,22.42c-0.85,4.72 -7.77,12.94 -12,14.22c-0.64,0.28 -1.12,0.73 -1.58,1.22c0.02,0.02 -0.02,-0.02 -0.39,-0.01c-8.18,0.34 -15.99,0.91 -23.8,0.89c-3.51,-0.01 -7.03,-1.19 -10.81,-1.88c-0.97,-0.29 -1.67,-0.53 -2.37,-1.11c-0.06,-3.49 -2.27,-3.27 -4.38,-3.63c-0.65,-0.67 -1.15,-1.1 -1.67,-1.88c-1.19,-1.32 -2.35,-2.3 -3.63,-3.54c-0.59,-1.03 -1.07,-1.8 -1.55,-2.96c-0.01,-8.05 -0.01,-15.73 0.18,-23.61c0.82,-1.15 1.46,-2.07 2.41,-2.85c1.11,-0.99 1.9,-2.12 2.93,-3.33c0.83,-0.48 1.42,-0.85 2.36,-1.19c2.79,-1.74 7.71,0.44 7.77,-5.12c0.6,-0.12 1.21,-0.24 2.4,-0.29c1.03,0.08 1.47,0.1 2.11,0.35c1.52,0.01 2.82,-0.22 4.53,-0.47c2.74,0.01 5.08,0.02 7.58,0.3c1.22,0.14 2.27,0.02 3.65,-0.1c0.73,-0.1 1.15,-0.19 1.57,-0.3l-0.01,0z" fill="#424244" id="svg_10"/>
  <path d="m114.76,131.65c0.06,0.13 0.12,0.28 0.16,0.92c2.02,4.41 4.05,8.29 6.09,12.48c0.11,0.65 0.23,1.01 0.2,1.63c-0.11,0.66 -0.08,1.05 -0.19,1.81c-0.06,1.14 0.02,1.91 0.04,2.97c0.02,0.68 0.11,1.07 0.06,1.7c-0.13,0.64 -0.14,1.02 -0.33,1.65c-1.94,2.79 -3.7,5.33 -5.45,7.86c0,0 0.03,0.08 -0.32,0.14c-11.43,4.25 -21.69,3.66 -30.65,-5.37c-0.92,-0.92 -2.4,-1.21 -3.63,-1.8c-0.33,-0.66 -0.65,-1.33 -0.94,-2.61c-3.69,-8.6 -5.16,-16.67 -0.42,-25.07c0.15,-0.5 0.17,-0.8 0.2,-1.1c0.6,-0.64 1.2,-1.27 2.36,-1.93c1.71,-0.55 2.85,-1.07 4.36,-1.57c3.06,-0.38 5.76,-0.8 8.78,-1.1c0.99,0.11 1.66,0.1 2.49,0.36c2.06,0.87 3.93,1.46 6.02,2.11c0.19,0.07 0.57,-0.1 0.57,-0.1c0.33,0.08 0.66,0.18 1.37,0.56c3.33,2.35 6.28,4.41 9.25,6.46l-0.01,-0.01z" fill="#464648" id="svg_9"/>
 </g>
</svg>