<?xml version="1.0"?>
<svg width="512" height="512" xmlns="http://www.w3.org/2000/svg" xmlns:svg="http://www.w3.org/2000/svg" xmlns:xlink="http://www.w3.org/1999/xlink" enable-background="new 0 0 512 512" version="1.1" xml:space="preserve">
 <!-- Created with SVG-edit - https://github.com/SVG-Edit/svgedit-->

 <g class="layer">
  <title>Layer 1</title>
  <!-- Created with SVG-edit - https://github.com/SVG-Edit/svgedit-->
  <defs>
   <symbol class="svg-icon" height="1em" id="svg_21" viewBox="0 0 1024 1024" width="1em" xmlns="http://www.w3.org/2000/svg">
    <path d="m619.8,277c0,4.6 -0.1,9.1 -0.3,13.7c-39.9,57.4 -106.2,94.9 -181.4,94.9c-82.6,0 -154.6,-45.4 -192.4,-112.6c68.6,-77.8 172.6,-161 257.2,-161c19.2,0 37.4,4.3 53.9,13.8c46.2,26.6 63,84.7 63,151.2z" fill="#9AE6DF" id="svg_26" opacity="0.5"/>
    <path d="m374.1,929.2c-24.6,0 -48.7,-5.6 -71.3,-16.8c-40.5,-20 -74,-57.4 -87.4,-97.7c-25,-75 10.9,-148.2 12.4,-151.3c4.3,-8.5 14.6,-12 23.1,-7.7c8.5,4.3 12,14.6 7.7,23.1c-0.4,0.8 -30.9,63.9 -10.6,125c10.5,31.4 37.9,61.9 69.9,77.7c31.6,15.6 66.8,17.4 102.1,5.2c21.3,-7.4 41.3,-20.5 59.2,-39c24.6,-25.4 68.8,-73.4 107.7,-118.7c35.8,-41.8 74.5,-68.2 114.9,-78.5c39.1,-10 78.6,-3.9 114.2,17.4c18.5,11.1 33.5,29.9 42.4,53.1c8.7,22.7 10.7,47.7 5.6,70.3c-10.4,46.2 -47.2,75.8 -101.2,81.2c-9.5,0.9 -17.9,-6 -18.9,-15.4c-0.9,-9.5 6,-17.9 15.4,-18.9c38.8,-3.9 64,-23.2 71,-54.4c7.3,-32.6 -7.1,-71.3 -32.1,-86.3c-59.2,-35.5 -124.9,-16.3 -185.2,54c-39.5,46.1 -83.2,93.6 -109.1,120.3c-21.7,22.4 -46.2,38.5 -72.7,47.6c-19,6.5 -38.2,9.8 -57.1,9.8z" fill="#2B354A" id="svg_25"/>
    <path d="m290.1,692.7c-18.6,0 -36.5,-4.4 -52.6,-13.7c-59.1,-34.1 -73.7,-122 -34,-204.6c4.1,-8.6 14.4,-12.2 23,-8.1s12.2,14.4 8.1,23c-15.7,32.5 -21.9,67.1 -17.5,97.4c4.1,28.6 17.5,50.7 37.6,62.3c20.1,11.6 46,12.1 72.8,1.4c28.4,-11.3 55.3,-34 75.6,-63.8c5.4,-7.9 16.1,-9.9 24,-4.5c7.9,5.4 9.9,16.1 4.5,24c-37.5,55.1 -91.9,86.6 -141.5,86.6z" fill="#5ECEC2" id="svg_24"/>
    <path d="m461.9,624.3c-26.4,0 -52.2,-9.1 -72.9,-26.2l-60.8,-50c-6.6,-5.5 -14.3,-10 -22.8,-13.3l-73.7,-27.6c-22.5,-8.4 -41.5,-23.4 -54.8,-43.1c-12.9,-19.1 -19.7,-41.4 -19.7,-64.5c0,-20 5.3,-39.8 15.4,-57.2c14.1,-24.4 35.5,-53.1 60.2,-81c38.6,-43.8 83.3,-83.8 125.8,-112.5c53.4,-35.9 101.9,-54.1 144.4,-54.1c22.9,0 44,5.4 62.5,16.1c25.4,14.7 44.3,38 56.2,69.4c10.2,26.6 15.3,59.2 15.3,96.7c0,4.7 -0.1,9.4 -0.3,14l0,0.2c-1.9,59 -15.2,116 -26.1,153.4c-13.6,47 -31.6,91.6 -49.4,122.4c-17,29.3 -45.8,49.6 -79.1,55.5c-6.6,1.2 -13.5,1.8 -20.2,1.8zm-111.6,-102.7l60.7,49.9c18.2,15 42,21.2 65.2,17.1c23.3,-4.2 43.5,-18.4 55.4,-38.9c32,-55.5 67.7,-165.4 70.8,-259.6l0,-0.1c0.1,-4.5 0.3,-8.7 0.3,-13c0,-47.8 -9.4,-110.3 -54.3,-136.2c-13.2,-7.6 -28.5,-11.5 -45.3,-11.5c-35,0 -78.2,16.7 -125,48.4c-40.2,27.2 -82.5,65.1 -119.3,106.8c-23.3,26.2 -43.2,53 -56.2,75.5c-7.2,12.3 -10.8,25.8 -10.8,39.9c0,33.9 20.5,63.4 52.1,75.3l73.9,27.6c11.9,4.5 22.9,10.8 32.5,18.8z" fill="#2B354A" id="svg_23"/>
    <path d="m334.7,299.3c-3.9,0 -7.8,-1.3 -11,-4c-7.3,-6.1 -8.3,-17 -2.2,-24.3c3,-3.6 73.3,-87.3 133.2,-102.2c9.2,-2.3 18.6,3.3 20.9,12.5c2.3,9.2 -3.3,18.6 -12.5,20.9c-40.8,10.2 -96.9,69 -115.1,90.9c-3.4,4.1 -8.3,6.2 -13.3,6.2z" fill="#5ECEC2" id="svg_22"/>
   </symbol>
  </defs>
  <use id="svg_20" transform="matrix(0.377069 0 0 0.374665 80.3904 87.0706)" x="0" xlink:href="#svg_21" y="0"/>
  <path d="m314.1,190.84c0,1.73 -0.05,3.41 -0.12,5.13c-15.04,21.5 -40.06,35.57 -68.39,35.57c-31.14,0 -58.29,-17.01 -72.56,-42.19c25.88,-29.14 65.08,-60.31 96.98,-60.31c7.23,0 14.11,1.61 20.32,5.18c17.42,9.97 23.75,31.74 23.75,56.65l0.02,-0.02z" fill="#82ce82" id="svg_19" opacity="0.5"/>
  <path d="m221.46,435.22c-9.27,0 -18.37,-2.09 -26.87,-6.28c-15.27,-7.5 -27.89,-21.5 -32.97,-36.6c-9.43,-28.11 4.1,-55.52 4.68,-56.7c1.62,-3.18 5.51,-4.49 8.71,-2.88c3.2,1.61 4.52,5.48 2.9,8.66c-0.16,0.3 -11.65,23.94 -4.01,46.84c3.96,11.76 14.29,23.18 26.36,29.12c11.91,5.85 25.18,6.51 38.5,1.96c8.04,-2.76 15.57,-7.69 22.33,-14.62c9.27,-9.51 25.95,-27.51 40.61,-44.47c13.51,-15.65 28.1,-25.55 43.32,-29.42c14.73,-3.75 29.63,-1.45 43.07,6.51c6.97,4.17 12.63,11.21 15.99,19.89c3.29,8.49 4.03,17.86 2.11,26.33c-3.92,17.31 -17.79,28.41 -38.16,30.43c-3.59,0.35 -6.74,-2.26 -7.14,-5.78c-0.35,-3.57 2.27,-6.7 5.81,-7.09c14.64,-1.45 24.14,-8.7 26.78,-20.37c2.76,-12.22 -2.69,-26.7 -12.09,-32.34c-22.33,-13.31 -47.1,-6.1 -69.83,20.23c-14.9,17.26 -31.37,35.06 -41.14,45.07c-8.18,8.4 -17.42,14.43 -27.41,17.84c-7.16,2.44 -14.41,3.68 -21.52,3.68l-0.05,-0.02z" fill="#2B354A" id="svg_18"/>
  <path d="m189.79,346.59c-7.02,0 -13.76,-1.66 -19.83,-5.13c-22.29,-12.78 -27.8,-45.72 -12.81,-76.65c1.55,-3.22 5.42,-4.58 8.66,-3.04s4.61,5.39 3.06,8.61c-5.93,12.18 -8.25,25.14 -6.6,36.49c1.55,10.7 6.6,18.99 14.18,23.34c7.58,4.35 17.35,4.53 27.45,0.53c10.7,-4.24 20.85,-12.73 28.5,-23.89c2.04,-2.97 6.07,-3.71 9.06,-1.68c2.99,2.03 3.73,6.03 1.69,9c-14.13,20.65 -34.66,32.46 -53.35,32.46l0,-0.02z" fill="#00ff00" id="svg_17"/>
  <path d="m254.56,320.97c-9.96,0 -19.69,-3.41 -27.5,-9.81l-22.94,-18.74c-2.48,-2.07 -5.4,-3.75 -8.6,-4.97l-27.8,-10.34c-8.48,-3.15 -15.64,-8.77 -20.67,-16.14c-4.87,-7.16 -7.44,-15.52 -7.44,-24.17c0,-7.5 1.99,-14.92 5.81,-21.43c5.31,-9.14 13.39,-19.89 22.7,-30.34c14.55,-16.41 31.41,-31.4 47.45,-42.15c20.13,-13.44 38.43,-20.28 54.44,-20.28c8.64,0 16.59,2.03 23.56,6.03c9.57,5.5 16.7,14.23 21.2,26.01c3.85,9.97 5.77,22.19 5.77,36.23c0,1.75 -0.05,3.52 -0.12,5.25l0,0.07c-0.72,22.1 -5.72,43.46 -9.85,57.48c-5.12,17.61 -11.91,34.32 -18.63,45.85c-6.42,10.98 -17.26,18.58 -29.82,20.79c-2.48,0.46 -5.1,0.67 -7.62,0.67l0.02,-0.02zm-42.07,-38.49l22.89,18.69c6.86,5.62 15.85,7.94 24.58,6.4c8.78,-1.57 16.4,-6.88 20.9,-14.57c12.07,-20.79 25.53,-61.97 26.69,-97.26l0,-0.05c0.05,-1.68 0.12,-3.27 0.12,-4.88c0,-17.91 -3.54,-41.32 -20.48,-51.03c-4.98,-2.85 -10.75,-4.3 -17.07,-4.3c-13.21,0 -29.49,6.26 -47.15,18.14c-15.15,10.2 -31.11,24.4 -44.99,40.01c-8.78,9.81 -16.29,19.87 -21.2,28.29c-2.71,4.6 -4.08,9.67 -4.08,14.94c0,12.71 7.74,23.76 19.65,28.22l27.87,10.34c4.49,1.68 8.64,4.05 12.26,7.04l0.02,0.02z" fill="#2B354A" id="svg_16"/>
  <path d="m206.61,199.2c-1.46,0 -2.94,-0.48 -4.15,-1.5c-2.76,-2.28 -3.13,-6.38 -0.83,-9.12c1.14,-1.36 27.64,-32.71 50.23,-38.28c3.48,-0.85 7.02,1.24 7.88,4.67c0.86,3.45 -1.25,6.97 -4.7,7.83c-15.38,3.82 -36.53,25.85 -43.39,34.05c-1.27,1.54 -3.13,2.32 -5,2.32l-0.02,0.02z" fill="#00ff00" id="svg_15"/>
 </g>
</svg>