<?xml version="1.0"?>
<svg width="500" height="500" xmlns="http://www.w3.org/2000/svg" xmlns:svg="http://www.w3.org/2000/svg" xmlns:xlink="http://www.w3.org/1999/xlink" preserveAspectRatio="xMidYMid meet" version="1.0">
 <!-- Created with SVG-edit - https://github.com/SVG-Edit/svgedit-->
 <defs>
  <symbol class="svg-icon" height="1em" id="svg_1" viewBox="0 0 1024 1024" width="1em" xmlns="http://www.w3.org/2000/svg">
   <path d="m619.8,277c0,4.6 -0.1,9.1 -0.3,13.7c-39.9,57.4 -106.2,94.9 -181.4,94.9c-82.6,0 -154.6,-45.4 -192.4,-112.6c68.6,-77.8 172.6,-161 257.2,-161c19.2,0 37.4,4.3 53.9,13.8c46.2,26.6 63,84.7 63,151.2z" fill="#9AE6DF" id="svg_3" opacity="0.5"/>
   <path d="m374.1,929.2c-24.6,0 -48.7,-5.6 -71.3,-16.8c-40.5,-20 -74,-57.4 -87.4,-97.7c-25,-75 10.9,-148.2 12.4,-151.3c4.3,-8.5 14.6,-12 23.1,-7.7c8.5,4.3 12,14.6 7.7,23.1c-0.4,0.8 -30.9,63.9 -10.6,125c10.5,31.4 37.9,61.9 69.9,77.7c31.6,15.6 66.8,17.4 102.1,5.2c21.3,-7.4 41.3,-20.5 59.2,-39c24.6,-25.4 68.8,-73.4 107.7,-118.7c35.8,-41.8 74.5,-68.2 114.9,-78.5c39.1,-10 78.6,-3.9 114.2,17.4c18.5,11.1 33.5,29.9 42.4,53.1c8.7,22.7 10.7,47.7 5.6,70.3c-10.4,46.2 -47.2,75.8 -101.2,81.2c-9.5,0.9 -17.9,-6 -18.9,-15.4c-0.9,-9.5 6,-17.9 15.4,-18.9c38.8,-3.9 64,-23.2 71,-54.4c7.3,-32.6 -7.1,-71.3 -32.1,-86.3c-59.2,-35.5 -124.9,-16.3 -185.2,54c-39.5,46.1 -83.2,93.6 -109.1,120.3c-21.7,22.4 -46.2,38.5 -72.7,47.6c-19,6.5 -38.2,9.8 -57.1,9.8z" fill="#2B354A" id="svg_4"/>
   <path d="m290.1,692.7c-18.6,0 -36.5,-4.4 -52.6,-13.7c-59.1,-34.1 -73.7,-122 -34,-204.6c4.1,-8.6 14.4,-12.2 23,-8.1s12.2,14.4 8.1,23c-15.7,32.5 -21.9,67.1 -17.5,97.4c4.1,28.6 17.5,50.7 37.6,62.3c20.1,11.6 46,12.1 72.8,1.4c28.4,-11.3 55.3,-34 75.6,-63.8c5.4,-7.9 16.1,-9.9 24,-4.5c7.9,5.4 9.9,16.1 4.5,24c-37.5,55.1 -91.9,86.6 -141.5,86.6z" fill="#5ECEC2" id="svg_5"/>
   <path d="m461.9,624.3c-26.4,0 -52.2,-9.1 -72.9,-26.2l-60.8,-50c-6.6,-5.5 -14.3,-10 -22.8,-13.3l-73.7,-27.6c-22.5,-8.4 -41.5,-23.4 -54.8,-43.1c-12.9,-19.1 -19.7,-41.4 -19.7,-64.5c0,-20 5.3,-39.8 15.4,-57.2c14.1,-24.4 35.5,-53.1 60.2,-81c38.6,-43.8 83.3,-83.8 125.8,-112.5c53.4,-35.9 101.9,-54.1 144.4,-54.1c22.9,0 44,5.4 62.5,16.1c25.4,14.7 44.3,38 56.2,69.4c10.2,26.6 15.3,59.2 15.3,96.7c0,4.7 -0.1,9.4 -0.3,14l0,0.2c-1.9,59 -15.2,116 -26.1,153.4c-13.6,47 -31.6,91.6 -49.4,122.4c-17,29.3 -45.8,49.6 -79.1,55.5c-6.6,1.2 -13.5,1.8 -20.2,1.8zm-111.6,-102.7l60.7,49.9c18.2,15 42,21.2 65.2,17.1c23.3,-4.2 43.5,-18.4 55.4,-38.9c32,-55.5 67.7,-165.4 70.8,-259.6l0,-0.1c0.1,-4.5 0.3,-8.7 0.3,-13c0,-47.8 -9.4,-110.3 -54.3,-136.2c-13.2,-7.6 -28.5,-11.5 -45.3,-11.5c-35,0 -78.2,16.7 -125,48.4c-40.2,27.2 -82.5,65.1 -119.3,106.8c-23.3,26.2 -43.2,53 -56.2,75.5c-7.2,12.3 -10.8,25.8 -10.8,39.9c0,33.9 20.5,63.4 52.1,75.3l73.9,27.6c11.9,4.5 22.9,10.8 32.5,18.8z" fill="#2B354A" id="svg_6"/>
   <path d="m334.7,299.3c-3.9,0 -7.8,-1.3 -11,-4c-7.3,-6.1 -8.3,-17 -2.2,-24.3c3,-3.6 73.3,-87.3 133.2,-102.2c9.2,-2.3 18.6,3.3 20.9,12.5c2.3,9.2 -3.3,18.6 -12.5,20.9c-40.8,10.2 -96.9,69 -115.1,90.9c-3.4,4.1 -8.3,6.2 -13.3,6.2z" fill="#5ECEC2" id="svg_7"/>
  </symbol>
 </defs>
 <g class="layer">
  <title>Layer 1</title>
  <use id="svg_2" transform="matrix(0.16276 0 0 0.16276 0 0)" x="0" xlink:href="#svg_1" y="0"/>
  <path d="m100.88,45.08c0,0.75 -0.02,1.48 -0.05,2.23c-6.49,9.34 -17.29,15.45 -29.52,15.45c-13.44,0 -25.16,-7.39 -31.32,-18.33c11.17,-12.66 28.09,-26.2 41.86,-26.2c3.12,0 6.09,0.7 8.77,2.25c7.52,4.33 10.25,13.79 10.25,24.61z" fill="#82ce82" id="svg_11" opacity="0.5"/>
  <path d="m60.89,151.24c-4,0 -7.93,-0.91 -11.6,-2.73c-6.59,-3.26 -12.04,-9.34 -14.23,-15.9c-4.07,-12.21 1.77,-24.12 2.02,-24.63c0.7,-1.38 2.38,-1.95 3.76,-1.25c1.38,0.7 1.95,2.38 1.25,3.76c-0.07,0.13 -5.03,10.4 -1.73,20.35c1.71,5.11 6.17,10.07 11.38,12.65c5.14,2.54 10.87,2.83 16.62,0.85c3.47,-1.2 6.72,-3.34 9.64,-6.35c4,-4.13 11.2,-11.95 17.53,-19.32c5.83,-6.8 12.13,-11.1 18.7,-12.78c6.36,-1.63 12.79,-0.63 18.59,2.83c3.01,1.81 5.45,4.87 6.9,8.64c1.42,3.69 1.74,7.76 0.91,11.44c-1.69,7.52 -7.68,12.34 -16.47,13.22c-1.55,0.15 -2.91,-0.98 -3.08,-2.51c-0.15,-1.55 0.98,-2.91 2.51,-3.08c6.32,-0.63 10.42,-3.78 11.56,-8.85c1.19,-5.31 -1.16,-11.6 -5.22,-14.05c-9.64,-5.78 -20.33,-2.65 -30.14,8.79c-6.43,7.5 -13.54,15.23 -17.76,19.58c-3.53,3.65 -7.52,6.27 -11.83,7.75c-3.09,1.06 -6.22,1.6 -9.29,1.6z" fill="#2B354A" id="svg_12"/>
  <path d="m47.22,112.74c-3.03,0 -5.94,-0.72 -8.56,-2.23c-9.62,-5.55 -12,-19.86 -5.53,-33.3c0.67,-1.4 2.34,-1.99 3.74,-1.32s1.99,2.34 1.32,3.74c-2.56,5.29 -3.56,10.92 -2.85,15.85c0.67,4.65 2.85,8.25 6.12,10.14c3.27,1.89 7.49,1.97 11.85,0.23c4.62,-1.84 9,-5.53 12.3,-10.38c0.88,-1.29 2.62,-1.61 3.91,-0.73c1.29,0.88 1.61,2.62 0.73,3.91c-6.1,8.97 -14.96,14.1 -23.03,14.1z" fill="#00ff00" id="svg_13"/>
  <path d="m75.18,101.61c-4.3,0 -8.5,-1.48 -11.87,-4.26l-9.9,-8.14c-1.07,-0.9 -2.33,-1.63 -3.71,-2.16l-12,-4.49c-3.66,-1.37 -6.75,-3.81 -8.92,-7.01c-2.1,-3.11 -3.21,-6.74 -3.21,-10.5c0,-3.26 0.86,-6.48 2.51,-9.31c2.29,-3.97 5.78,-8.64 9.8,-13.18c6.28,-7.13 13.56,-13.64 20.48,-18.31c8.69,-5.84 16.59,-8.81 23.5,-8.81c3.73,0 7.16,0.88 10.17,2.62c4.13,2.39 7.21,6.18 9.15,11.3c1.66,4.33 2.49,9.64 2.49,15.74c0,0.76 -0.02,1.53 -0.05,2.28l0,0.03c-0.31,9.6 -2.47,18.88 -4.25,24.97c-2.21,7.65 -5.14,14.91 -8.04,19.92c-2.77,4.77 -7.45,8.07 -12.87,9.03c-1.07,0.2 -2.2,0.29 -3.29,0.29zm-18.16,-16.72l9.88,8.12c2.96,2.44 6.84,3.45 10.61,2.78c3.79,-0.68 7.08,-2.99 9.02,-6.33c5.21,-9.03 11.02,-26.92 11.52,-42.25l0,-0.02c0.02,-0.73 0.05,-1.42 0.05,-2.12c0,-7.78 -1.53,-17.95 -8.84,-22.17c-2.15,-1.24 -4.64,-1.87 -7.37,-1.87c-5.7,0 -12.73,2.72 -20.35,7.88c-6.54,4.43 -13.43,10.6 -19.42,17.38c-3.79,4.26 -7.03,8.63 -9.15,12.29c-1.17,2 -1.76,4.2 -1.76,6.49c0,5.52 3.34,10.32 8.48,12.26l12.03,4.49c1.94,0.73 3.73,1.76 5.29,3.06z" fill="#2B354A" id="svg_14"/>
  <path d="m54.48,48.71c-0.63,0 -1.27,-0.21 -1.79,-0.65c-1.19,-0.99 -1.35,-2.77 -0.36,-3.96c0.49,-0.59 11.93,-14.21 21.68,-16.63c1.5,-0.37 3.03,0.54 3.4,2.03c0.37,1.5 -0.54,3.03 -2.03,3.4c-6.64,1.66 -15.77,11.23 -18.73,14.79c-0.55,0.67 -1.35,1.01 -2.16,1.01z" fill="#00ff00" id="svg_15"/>
 </g>
</svg>