<?xml version="1.0"?>
<svg width="500" height="500" xmlns="http://www.w3.org/2000/svg" xmlns:svg="http://www.w3.org/2000/svg" preserveAspectRatio="xMidYMid meet" version="1.0">
 <!-- Created with SVG-edit - https://github.com/SVG-Edit/svgedit-->

 <g class="layer">
  <title>Layer 1</title>
  <path d="m146.54,30.45l37.01,0l10.21,1.37l12.76,5.48l8.93,2.74l14.04,8.23l10.21,6.85l6.38,6.85l7.66,6.85l10.21,13.71l3.83,4.11l6.38,13.71l6.38,16.45l2.55,6.85l3.83,23.3l0,31.53l-5.11,27.42l-6.38,17.82l-6.38,10.97l-8.93,15.08l-5.11,5.48l-2.55,4.11l-2.55,0l-2.55,5.48l-17.87,20.56l-11.49,12.34l-5.11,6.85l-2.55,0l-1.28,5.48l-2.55,0l-2.55,5.48l-3.83,6.85l-6.38,12.34l-10.21,21.93l-5.11,12.34l-3.83,6.85l-2.55,8.23l-2.55,0l-2.55,6.85l-8.93,12.34l-14.04,10.97l-15.32,8.23l-10.21,1.37l-22.97,0l-8.93,-1.37l-20.42,-10.97l-15.32,-15.08l-8.93,-13.71l-6.38,-26.05l0,-10.97l6.38,-6.85l6.38,-1.37l7.66,8.23l1.28,17.82l3.83,10.97l7.66,10.97l2.55,5.48l6.38,1.37l5.11,5.48l17.87,5.48l14.04,0l12.76,-4.11l12.76,-8.23l3.83,-1.37l1.28,-5.48l5.11,-4.11l1.28,-4.11l2.55,0l2.55,-6.85l6.38,-16.45l8.93,-19.19l5.11,-10.97l8.93,-16.45l8.93,-12.34l6.38,-6.85l1.28,-4.11l5.11,-1.37l2.55,-6.85l6.38,-2.74l1.28,-5.48l6.38,-6.85l6.38,-5.48l14.04,-19.19l7.66,-10.97l7.66,-16.45l6.38,-23.3l1.28,-10.97l0,-20.56l-2.55,-16.45l-6.38,-20.56l-8.93,-17.82l-6.38,-8.23l0,-2.74l-3.83,-1.37l-6.38,-6.85l-7.66,-6.85l-11.49,-8.23l-14.04,-6.85l-22.97,-5.48l-24.25,0l-22.97,5.48l-7.66,4.11l-12.76,6.85l-6.38,5.48l-2.55,0l-1.28,4.11l-5.11,1.37l-2.55,6.85l-5.11,4.11l-1.28,4.11l-5.11,5.48l-5.11,10.97l-5.11,6.85l-8.93,0l0,-2.74l-3.83,-1.37l-1.28,-8.23l3.83,-9.6l2.55,-2.74l2.55,-6.85l2.55,0l2.55,-6.85l6.38,-8.23l2.55,0l2.55,-5.48l5.11,-2.74l0,-2.74l12.76,-9.6l2.55,-2.74l12.76,-5.48l2.55,-2.74l17.87,-5.48l11.49,-2.74z" fill="#000000" id="svg_4"/>
  <path d="m151.65,85.28l25.53,0l10.21,2.74l14.04,6.85l0,2.74l5.11,2.74l3.83,2.74l0,2.74l2.55,0l0,2.74l3.83,1.37l7.66,10.97l6.38,17.82l1.28,6.85l0,13.71l-1.28,4.11l-2.55,1.37l-10.21,0l-3.83,-5.48l-6.38,-26.05l-10.21,-13.71l-10.21,-8.23l-15.32,-5.48l-15.32,0l-16.59,5.48l-3.83,1.37l-1.28,4.11l-3.83,1.37l-7.66,9.6l-1.28,5.48l29.36,0l20.42,8.23l15.32,12.34l8.93,12.34l6.38,12.34l5.11,20.56l0,20.56l-5.11,23.3l-6.38,10.97l-1.28,4.11l-6.38,6.85l-11.49,9.6l-12.76,6.85l-16.59,4.11l-6.38,4.11l-3.83,0l-2.55,6.85l-3.83,6.85l-3.83,13.71l-6.38,12.34l-7.66,6.85l-11.49,4.11l-15.32,0l-12.76,-6.85l-8.93,-10.97l-3.83,-12.34l0,-12.34l5.11,-15.08l6.38,-5.48l8.93,1.37l3.83,4.11l0,9.6l-3.83,5.48l-1.28,8.23l2.55,6.85l6.38,5.48l2.55,1.37l7.66,0l7.66,-6.85l6.38,-17.82l3.83,-9.6l6.38,-10.97l14.04,-8.23l19.15,-5.48l12.76,-6.85l6.38,-5.48l7.66,-13.71l3.83,-12.34l0,-26.05l-5.11,-13.71l-5.11,-8.23l-6.38,-8.23l-11.49,-6.85l-11.49,-4.11l-5.11,-1.37l-11.49,0l-8.93,2.74l-6.38,0l0,12.34l3.83,12.34l2.55,6.85l15.32,0l6.38,4.11l7.66,9.6l2.55,9.6l-1.28,12.34l-3.83,9.6l-8.93,8.23l-2.55,1.37l-15.32,0l-3.83,-6.85l1.28,-8.23l3.83,-4.11l7.66,-2.74l2.55,-2.74l1.28,-6.85l-5.11,-2.74l-6.38,1.37l-3.83,1.37l-6.38,-4.11l-5.11,-4.11l-5.11,-10.97l-2.55,-4.11l-3.83,-15.08l0,-30.16l3.83,-15.08l8.93,-15.08l8.93,-10.97l3.83,0l1.28,-4.11l20.42,-10.97l7.66,-1.37z" fill="#00ff00" id="svg_5"/>
  <path d="m386.5,133.26l8.93,0l3.83,5.48l-2.55,5.48l-3.83,4.11l-12.76,2.74l-16.59,5.48l-20.42,4.11l-5.11,-6.85l2.55,-5.48l17.87,-6.85l21.7,-5.48l6.38,-2.74z" fill="#00ff00" id="svg_6"/>
  <path d="m335.44,208.66l93.18,0l2.55,2.74l0,9.6l-2.55,1.37l-93.18,0l-3.83,-4.11l1.28,-6.85l2.55,-2.74z" fill="#00ff00" id="svg_7"/>
  <path d="m312.47,263.5l10.21,0l19.15,5.48l12.76,4.11l11.49,2.74l17.87,5.48l10.21,2.74l5.11,5.48l-2.55,6.85l-1.28,1.37l-8.93,0l-20.42,-6.85l-11.49,-2.74l-17.87,-5.48l-15.32,-4.11l-10.21,-5.48l-1.28,-5.48l2.55,-4.11z" fill="#00ff00" id="svg_8"/>
 </g>
</svg>