<?xml version="1.0"?>
<svg width="500" height="500" xmlns="http://www.w3.org/2000/svg" xmlns:svg="http://www.w3.org/2000/svg" preserveAspectRatio="xMidYMid meet" version="1.0">
 <!-- Created with SVG-edit - https://github.com/SVG-Edit/svgedit-->

 <g class="layer">
  <title>Layer 1</title>
  <path d="m209.24,8.37l13.06,0l1.87,26.35l2.8,12.16l3.73,9.12l5.6,7.1l2.8,3.04l7.46,7.1l4.66,3.04l5.6,3.04l0.93,2.03l5.6,2.03l6.53,5.07l6.53,3.04l6.53,5.07l8.4,5.07l2.8,3.04l5.6,2.03l4.66,5.07l5.6,4.05l10.26,9.12l1.87,4.05l3.73,2.03l2.8,2.03l0.93,3.04l6.53,6.08l4.66,8.11l2.8,3.04l1.87,5.07l1.87,2.03l0.93,7.1l-13.99,0l-3.73,-4.05l-4.66,-10.14l-3.73,-4.05l-1.87,-4.05l-5.6,-5.07l-2.8,-3.04l-8.4,-7.1l-3.73,-2.03l-2.8,-3.04l-10.26,-7.1l-3.73,-3.04l-4.66,-2.03l-2.8,-3.04l-3.73,-2.03l0,-2.03l-5.6,-1.01l-8.4,-6.08l-7.46,-4.05l-6.53,-4.05l-4.66,-4.05l-2.8,-1.01l-2.8,-3.04l-1.87,-1.01l0,-2.03l-2.8,-1.01l-4.66,-6.08l-2.8,-3.04l-4.66,-6.08l-1.87,0l-0.93,3.04l-4.66,5.07l-4.66,5.07l-7.46,7.1l-6.53,6.08l-5.6,1.01l0,2.03l-7.46,5.07l-6.53,3.04l-7.46,5.07l-6.53,3.04l-3.73,2.03l0,2.03l-7.46,4.05l-5.6,5.07l-4.66,3.04l-3.73,4.05l-2.8,1.01l-4.66,5.07l-6.53,6.08l-4.66,6.08l-4.66,5.07l-1.87,0l-0.93,5.07l-4.66,5.07l-1.87,5.07l-1.87,1.01l-11.19,0l-1.87,-1.01l1.87,-9.12l3.73,-6.08l1.87,0l1.87,-7.1l4.66,-4.05l1.87,-4.05l4.66,-3.04l2.8,-5.07l4.66,-3.04l1.87,-4.05l5.6,-3.04l4.66,-5.07l3.73,-2.03l0.93,-2.03l4.66,-3.04l8.4,-5.07l1.87,-3.04l6.53,-3.04l2.8,-2.03l2.8,0l0.93,-3.04l6.53,-1.01l0.93,-3.04l13.99,-8.11l12.13,-9.12l3.73,-4.05l3.73,-4.05l4.66,-7.1l3.73,-9.12l2.8,-36.49z" fill="#00ff00" id="svg_4"/>
  <path d="m198.04,98.59l6.53,6.08l3.73,2.03l4.66,5.07l4.66,4.05l0,2.03l3.73,2.03l0,2.03l2.8,1.01l4.66,6.08l2.8,6.08l3.73,2.03l7.46,-3.04l7.46,-4.05l20.52,-5.07l7.46,1.01l0.93,2.03l3.73,2.03l-0.93,2.03l-13.99,3.04l-14.93,4.05l-12.13,6.08l-5.6,3.04l-5.6,1.01l-3.73,-6.08l-1.87,-5.07l-2.8,-3.04l-1.87,-5.07l-4.66,-3.04l-0.93,-4.05l-5.6,-2.03l-4.66,-6.08l-4.66,-3.04l-9.33,-7.1l4.66,-5.07l3.73,-1.01z" fill="#000000" id="svg_5"/>
  <path d="m170.06,114.8l3.73,1.01l4.66,3.04l0,2.03l5.6,1.01l4.66,5.07l4.66,3.04l3.73,5.07l4.66,5.07l4.66,5.07l6.53,19.26l0.93,5.07l0,23.31l-2.8,6.08l-6.53,4.05l-11.19,1.01l-0.93,1.01l-5.6,0l-1.87,-3.04l0.93,-5.07l7.46,-2.03l9.33,-1.01l1.87,-2.03l0,-19.26l-1.87,-12.16l-6.53,-14.19l-4.66,-5.07l-4.66,-4.05l-5.6,-5.07l-4.66,-3.04l-4.66,-2.03l-2.8,-3.04l-4.66,-3.04l0.93,-3.04l4.66,-3.04z" fill="#000000" id="svg_6"/>
  <path d="m162.59,132.03l5.6,1.01l5.6,4.05l-1.87,4.05l-3.73,3.04l-4.66,2.03l-4.66,3.04l-1.87,0l-0.93,3.04l-4.66,3.04l-4.66,5.07l-3.73,4.05l-2.8,5.07l-3.73,8.11l-0.93,6.08l0,10.14l1.87,2.03l6.53,-4.05l1.87,1.01l0,2.03l3.73,2.03l-0.93,7.1l-4.66,8.11l-0.93,3.04l0,26.35l3.73,10.14l0,2.03l1.87,0l2.8,7.1l6.53,8.11l4.66,5.07l4.66,4.05l4.66,6.08l5.6,5.07l6.53,8.11l9.33,10.14l5.6,5.07l4.66,5.07l4.66,5.07l5.6,3.04l2.8,3.04l6.53,3.04l11.19,0l7.46,-4.05l1.87,-3.04l5.6,-1.01l1.87,-5.07l3.73,-3.04l1.87,0l1.87,-6.08l4.66,-5.07l2.8,-6.08l4.66,-8.11l1.87,-7.1l2.8,-6.08l2.8,-11.15l0,-23.31l-3.73,-12.16l-1.87,-3.04l0,-5.07l9.33,-14.19l2.8,-5.07l0.93,-6.08l0,-11.15l-1.87,-8.11l-1.87,-2.03l0.93,-6.08l9.33,-1.01l4.66,8.11l2.8,14.19l-1.87,10.14l-2.8,9.12l-3.73,9.12l-3.73,4.05l0,6.08l3.73,14.19l0.93,14.19l-2.8,16.22l-4.66,18.24l-1.87,1.01l-3.73,9.12l-0.93,5.07l-2.8,0l-1.87,4.05l-2.8,6.08l-2.8,3.04l-4.66,6.08l-7.46,7.1l-4.66,2.03l-0.93,3.04l-14.93,8.11l-13.99,0l-14.93,-8.11l-2.8,-3.04l-10.26,-8.11l-4.66,-5.07l-4.66,-6.08l-5.6,-5.07l-4.66,-5.07l-3.73,-5.07l-2.8,-2.03l0,-2.03l-2.8,-1.01l-4.66,-5.07l0,-2.03l-2.8,-1.01l-4.66,-5.07l-2.8,-3.04l-4.66,-5.07l0,-2.03l-1.87,0l-4.66,-9.12l0,-2.03l-2.8,-1.01l-1.87,-7.1l-3.73,-9.12l-0.93,-2.03l-0.93,-18.24l0,-9.12l-2.8,-7.1l-3.73,-11.15l0,-14.19l4.66,-14.19l3.73,-8.11l1.87,0l1.87,-4.05l1.87,-4.05l5.6,-5.07l1.87,-3.04l5.6,-3.04l4.66,-4.05l9.33,-5.07z" fill="#000000" id="svg_7"/>
  <path d="m282.93,148.25l17.72,0l6.53,1.01l4.66,4.05l2.8,6.08l-7.46,0l-6.53,-2.03l-20.52,0l-3.73,2.03l-12.13,2.03l-7.46,4.05l-13.06,7.1l-0.93,34.46l5.6,1.01l5.6,5.07l5.6,3.04l1.87,3.04l-0.93,4.05l-2.8,1.01l-4.66,0l-0.93,17.23l-1.87,12.16l0,19.26l1.87,14.19l0,7.1l-1.87,6.08l-2.8,1.01l-3.73,-1.01l-0.93,-16.22l-1.87,-2.03l-4.66,10.14l-5.6,11.15l-2.8,5.07l-5.6,-1.01l0,-7.1l2.8,-4.05l4.66,-12.16l5.6,-11.15l2.8,-11.15l-8.4,5.07l-0.93,2.03l-6.53,3.04l-5.6,3.04l-3.73,2.03l-8.4,0l-0.93,-1.01l0,-5.07l14.93,-8.11l9.33,-5.07l4.66,-4.05l2.8,0l0.93,-4.05l4.66,-4.05l1.87,0l0.93,-8.11l0,-9.12l-2.8,-11.15l-4.66,-4.05l-2.8,-6.08l0,-13.18l0.93,-6.08l0,-18.24l5.6,-5.07l3.73,-4.05l6.53,-2.03l6.53,-3.04l0.93,-2.03l14.93,-4.05l10.26,-1.01z" fill="#000000" id="svg_8"/>
  <path d="m61.84,183.73l48.51,1.01l4.66,5.07l1.87,3.04l0,6.08l-1.87,0l-1.87,5.07l-2.8,2.03l-34.52,1.01l-1.87,1.01l-0.93,5.07l4.66,3.04l18.66,1.01l12.13,0l4.66,2.03l3.73,4.05l0,7.1l-3.73,7.1l-36.38,1.01l-2.8,1.01l-1.87,6.08l3.73,2.03l1.87,1.01l31.72,1.01l3.73,1.01l3.73,7.1l-0.93,6.08l-2.8,5.07l-55.97,0l-7.46,-11.15l-1.87,-9.12l-6.53,-8.11l-27.99,-1.01l-1.87,-2.03l0,-19.26l1.87,-3.04l25.19,-1.01l4.66,-3.04l4.66,-6.08l3.73,-13.18l4.66,-4.05l1.87,-3.04l3.73,-1.01z" fill="#00ff00" id="svg_9"/>
  <path d="m319.32,183.73l52.24,0l6.53,8.11l1.87,7.1l3.73,8.11l2.8,3.04l1.87,3.04l2.8,1.01l25.19,1.01l1.87,2.03l0,21.29l-0.93,1.01l-27.99,1.01l-2.8,3.04l-0.93,2.03l-2.8,0l-2.8,9.12l-1.87,7.1l-4.66,4.05l-1.87,0l0,2.03l-2.8,1.01l-49.44,0l-3.73,-2.03l-2.8,-6.08l1.87,-8.11l2.8,-3.04l2.8,-1.01l32.65,-1.01l3.73,-2.03l0,-7.1l-37.32,-1.01l-4.66,-4.05l-1.87,-6.08l2.8,-9.12l4.66,-2.03l31.72,-1.01l4.66,-1.01l0,-7.1l-11.19,-2.03l-25.19,0l-5.6,-4.05l-1.87,-9.12l2.8,-6.08l3.73,-2.03z" fill="#00ff00" id="svg_10"/>
  <path d="m84.23,285.09l10.26,0l3.73,2.03l5.6,12.16l2.8,2.03l2.8,5.07l4.66,5.07l3.73,4.05l4.66,5.07l5.6,4.05l4.66,5.07l5.6,4.05l6.53,5.07l3.73,1.01l4.66,5.07l6.53,3.04l0,2.03l4.66,2.03l7.46,4.05l0,2.03l5.6,2.03l7.46,4.05l8.4,6.08l2.8,1.01l0,2.03l3.73,2.03l3.73,3.04l2.8,1.01l3.73,6.08l4.66,5.07l5.6,-1.01l1.87,-4.05l7.46,-8.11l5.6,-4.05l0.93,-2.03l5.6,-2.03l2.8,-3.04l12.13,-7.1l5.6,-4.05l7.46,-4.05l1.87,0l0.93,-3.04l5.6,-2.03l0.93,-2.03l4.66,-3.04l9.33,-6.08l2.8,-3.04l4.66,-3.04l3.73,-2.03l0,-2.03l3.73,-1.01l0,-2.03l10.26,-9.12l4.66,-7.1l4.66,-5.07l2.8,-6.08l5.6,-9.12l13.99,0l0,7.1l-2.8,3.04l-3.73,8.11l-1.87,4.05l-4.66,5.07l-0.93,3.04l-5.6,5.07l-4.66,5.07l-4.66,6.08l-5.6,4.05l-1.87,3.04l-4.66,2.03l-4.66,5.07l-3.73,2.03l-2.8,3.04l-4.66,4.05l-6.53,3.04l-4.66,4.05l-10.26,6.08l-12.13,7.1l-1.87,0l0,2.03l-6.53,3.04l-7.46,6.08l-6.53,5.07l-2.8,3.04l-4.66,5.07l-4.66,11.15l-1.87,12.16l-0.93,22.3l-0.93,3.04l-7.46,1.01l-3.73,-3.04l-0.93,-3.04l-0.93,-20.27l-1.87,-15.2l-2.8,-6.08l-3.73,-4.05l-0.93,-3.04l-2.8,-1.01l-4.66,-6.08l-5.6,-2.03l-4.66,-5.07l-9.33,-5.07l-2.8,-3.04l-7.46,-3.04l-4.66,-3.04l-0.93,-2.03l-6.53,-2.03l-2.8,-3.04l-3.73,-2.03l0,-2.03l-4.66,-1.01l-6.53,-6.08l-4.66,-3.04l-13.06,-11.15l0,-2.03l-4.66,-2.03l-3.73,-5.07l-5.6,-5.07l-0.93,-4.05l-3.73,-2.03l-6.53,-11.15l0,-2.03l-2.8,-1.01l-0.93,-7.1l-1.87,0l0,-6.08l0.93,-1.01z" fill="#00ff00" id="svg_11"/>
 </g>
</svg>