<?xml version="1.0"?>
<svg width="500" height="500" xmlns="http://www.w3.org/2000/svg" xmlns:svg="http://www.w3.org/2000/svg" preserveAspectRatio="xMidYMid meet" version="1.0">
 <!-- Created with SVG-edit - https://github.com/SVG-Edit/svgedit-->

 <g class="layer">
  <title>Layer 1</title>
  <path d="m211.79,332.68c-16.57,6.43 -32.66,13.52 -49.2,18.91c-14.35,4.69 -29.2,7.48 -43.85,11.02c-2.01,0.49 -4.12,0.44 -6.81,0.69c9.99,13.97 21.05,25.12 36.84,26.84c10.03,1.1 20.28,-0.43 30.43,-0.47c9.54,-0.03 19.07,0.42 28.6,0.52c14.56,0.16 29.35,3.78 43.37,-3.96c7.2,-3.98 13.64,-8.86 18.82,-15.87c5.45,-7.38 11.76,-14.01 16.81,-21.68c6.59,-10.03 12.87,-20.43 18.23,-31.31c4.88,-9.9 8.39,-20.65 12.43,-31.05c1.49,-3.83 4.57,-5.7 8.11,-4.66c3.13,0.92 5.28,4.63 3.91,8.48c-4.37,12.21 -8.34,24.72 -13.99,36.19c-5.95,12.07 -13.69,23.03 -20.55,34.55c-0.52,0.87 -0.71,2.78 -0.21,3.47c2.46,3.46 5.2,6.67 7.64,9.72c12.3,-13.72 24.38,-27.2 37.21,-41.51c-1.9,-1.85 -4.13,-3.83 -6.15,-6.06c-2.96,-3.27 -3.21,-7.79 -0.78,-10.86c2.23,-2.82 5.64,-3.14 9,-0.01c4.2,3.92 8.15,8.2 11.92,12.63c2.49,2.92 2.01,7.49 -0.63,10.45c-15.02,16.78 -30.05,33.56 -45.1,50.32c-3.43,3.82 -6.51,3.81 -9.95,-0.02c-4.33,-4.81 -8.61,-9.7 -13.18,-14.88c-2.22,2.67 -4.21,5.06 -6.19,7.44c-8.3,10.01 -18.22,17.09 -29.99,20.96c-9.21,3.03 -18.49,3.69 -28.01,2.28c-4.91,-0.74 -9.92,-0.86 -14.89,-0.95c-8.68,-0.14 -17.38,-0.25 -26.06,0.02c-7.57,0.24 -15.13,1.55 -22.68,1.48c-20.8,-0.17 -37.61,-9.8 -50.82,-27.65c-3.24,-4.38 -6.9,-8.37 -10.33,-12.49c-14.6,-0.41 -29.4,-0.43 -42.98,-8.31c-5.99,-3.47 -10.8,-8.42 -13.72,-15.39c-9.98,-23.91 -20.12,-47.74 -29.81,-71.8c-3.04,-7.55 -2.24,-15.78 -0.3,-23.71c2.78,-11.34 8.32,-20.99 14.92,-29.96c2.56,-3.48 6.56,-4.33 9.12,-2.05c3.06,2.71 3.44,7.32 0.83,11.1c-5.26,7.61 -10.38,15.34 -12.57,24.81c-2.55,11.03 -0.69,19.72 9.18,25.1c6.84,3.73 14.09,5.32 21.58,5.66c5.67,0.26 11.43,0.64 17.04,-0.07c13.28,-1.69 26.65,-3.18 39.71,-6.23c31.48,-7.37 61.46,-19.89 90.65,-34.85c24.24,-12.42 47.64,-26.52 69.75,-43.21c14.2,-10.73 27.78,-22.35 40.19,-35.68c8.91,-9.56 17.29,-19.54 23.36,-31.54c2.69,-5.32 4.54,-11.44 5.64,-17.46c1.49,-8.07 -4.2,-17.51 -12.21,-20.6c-5.57,-2.13 -11.49,-3.25 -17.32,-4.49c-3.15,-0.66 -6.15,-3.68 -6.2,-7.08c-0.05,-3.45 2.94,-7.43 6.14,-7.12c15.6,1.55 30.57,5.07 39.12,21.96c4.02,7.95 7.1,16.51 10.55,24.82c4.4,10.57 8.73,21.17 13.1,31.75c2.24,5.42 4.95,10.66 6.66,16.28c3.29,10.73 2.01,21.34 -2.16,31.55c-4.9,11.99 -11.89,22.31 -19.92,31.92c-21.47,25.69 -46.88,45.71 -73.82,63.34c-14.9,9.75 -30.46,18.27 -45.93,26.91c-7.87,4.4 -16.17,7.87 -24.56,11.83m-4.84,-81.16c-0.44,0.26 -0.88,0.54 -1.34,0.77c-21.05,10.67 -42.47,20.29 -64.69,27.49c-10.71,3.47 -21.52,6.7 -32.43,9.23c-10.65,2.49 -21.47,4.2 -32.27,5.76c-5.9,0.85 -11.94,1.21 -17.87,0.8c-8.47,-0.59 -16.89,-2.09 -25.58,-3.24c0.5,1.38 1.02,3.02 1.68,4.6c4.52,10.83 9.42,21.48 13.48,32.51c2.99,8.12 7.44,13.96 14.92,16.76c6.54,2.46 13.15,4.54 20.57,3.75c-1.12,-2.44 -2.15,-4.31 -2.87,-6.34c-1.45,-4.06 -0.26,-7.5 3.08,-9.41c2.87,-1.65 6.26,-0.46 8.23,3.06c1.77,3.17 3.6,6.35 5.03,9.72c1.08,2.55 2.52,3.57 4.95,3.22c7.13,-1.01 14.28,-1.85 21.39,-3.01c4.11,-0.67 8.16,-1.83 12.52,-2.84c-1.28,-2.38 -2.4,-4.2 -3.31,-6.15c-1.91,-4.11 -1.09,-7.86 2.02,-9.76c3.26,-2 6.82,-0.95 9.06,2.75c1.93,3.2 3.79,6.46 5.82,9.91c9.86,-3.3 19.55,-6.54 29.74,-9.95c-1.77,-3.65 -3.14,-6.56 -4.56,-9.41c-2.25,-4.51 -1.49,-8.99 1.94,-11.2c3.02,-1.95 7.05,-0.03 9.3,4.35c1.91,3.7 3.89,7.35 5.98,11.27c9.62,-4.35 18.89,-8.54 28.47,-12.87c-1.94,-3.72 -3.61,-6.93 -5.3,-10.12c-2.36,-4.44 -2.02,-8.72 1.12,-10.57c3.14,-1.85 7.35,-2.16 10.05,3.47c1.34,2.81 3.14,5.37 4.35,8.23c1.03,2.44 2.33,2.49 4.14,1.52c3.71,-1.98 7.44,-3.88 11.1,-5.97c4.48,-2.56 8.89,-5.27 13.47,-8c-1.93,-3.32 -3.59,-6.08 -5.14,-8.91c-2.1,-3.83 -1.35,-8.78 1.53,-10.73c3.9,-2.64 7.14,-1.57 9.64,3.15c1.64,3.08 3.35,6.12 5.3,9.69c8.76,-5.98 17.29,-11.8 25.95,-17.72c-2.04,-3.7 -3.99,-6.9 -5.63,-10.28c-2,-4.11 -1.08,-8.14 2.06,-10.26c3.13,-2.11 6.47,-1.01 8.88,2.98c1.79,2.96 3.53,5.95 5.44,9.2c7.2,-6.27 14.12,-12.31 21.05,-18.34c2.21,-1.92 3.38,-3.82 1.07,-6.8c-1.53,-1.96 -2.61,-4.38 -3.78,-6.66c-2.05,-3.99 -1.36,-8.07 1.65,-10.33c3.26,-2.44 6.69,-1.51 9.27,2.6c1.54,2.44 2.99,4.96 4.86,8.09c4.82,-6.2 9.38,-11.89 13.69,-17.79c0.59,-0.8 0.38,-2.94 -0.15,-4.04c-1.6,-3.28 -3.56,-6.34 -5.35,-9.5c-2.28,-4.04 -1.6,-8.74 1.57,-11.05c2.8,-2.04 6.96,-0.64 9.26,3.13c1.12,1.83 2.21,3.68 3.43,5.71c4.1,-9.09 4.53,-17.72 0.51,-26.66c-4.25,-9.43 -8.11,-19.06 -12.12,-28.62c-1.4,-3.32 -2.72,-6.66 -4.29,-10.53c-0.75,1.36 -1.19,2.01 -1.49,2.74c-5.48,13.14 -13.49,24.31 -22.69,34.3c-8.1,8.8 -16.66,17.1 -25.41,25.09c-16.86,15.41 -35.23,28.39 -54.3,40.1c-11.97,7.36 -24.32,13.96 -37.03,21.12z" fill="#000000" id="svg_6" opacity="1"/>
  <path d="m213.31,132.47c-0.86,-10.2 0.27,-19.95 5.27,-28.8c1.04,-1.83 2.18,-3.57 3.38,-5.5c10.24,3.08 20.6,5.79 30.72,9.34c11.73,4.14 22.65,10.36 32.52,18.68c7.57,6.38 14.74,13.2 19.52,22.81c-29.57,29.91 -62.29,54.59 -98.33,73.5c-41.38,21.72 -83.9,39.66 -130.71,45.19c-1.45,-11.65 -3.51,-22.86 -4.1,-34.18c-0.86,-16.5 -1.25,-33.1 -0.72,-49.61c0.41,-13.33 5.08,-25.59 11.89,-36.55c8.82,-14.17 21.08,-23.64 34.97,-30.72c4,-2.03 7.62,0.26 11.32,1.16c6.86,1.67 13.66,3.65 20.84,5.86c-0.9,5.02 0.7,8.5 3.71,11.27c-3.6,-0.51 -5.99,1.23 -7.03,4.42c-1.05,3.21 0.46,5.92 2.9,7.79c13.36,10.23 28.18,16.12 44.34,16.08c7.66,-0.02 15.59,-1.78 22.89,-4.47c7.35,-2.7 14.17,-7.29 21.01,-11.5c3.81,-2.34 4.88,-6.76 2.36,-9.75c-1.41,-1.67 -4.29,-1.81 -6.35,-2.84c4.37,-4.2 5.15,-7.75 2.61,-11.18c-2.52,-3.38 -5.58,-2.94 -10.17,0.57c-4.09,3.12 -8.55,5.63 -12.85,8.4m-96.12,23.79c0.41,-0.97 1.21,-1.97 1.15,-2.91c-0.14,-2.59 0.08,-5.89 -1.23,-7.49c-1.18,-1.45 -4.59,-2.08 -6.34,-1.26c-8.94,4.22 -15.26,11.6 -18.1,22.06c-0.57,2.1 0.17,5.54 1.49,7.1c1.04,1.22 4.13,1.19 5.96,0.5c7.88,-2.96 13.06,-9.47 17.07,-18z" fill="#00ff00" id="svg_7" opacity="1"/>
  <path d="m213.01,132.49c4.59,-2.8 9.06,-5.3 13.15,-8.42c4.59,-3.51 7.65,-3.95 10.17,-0.57c2.54,3.42 1.76,6.97 -2.73,11.44c-4.71,3.46 -8.94,6.91 -13.6,9.35c-12.27,6.44 -25.26,7.64 -38.48,4.9c-10.23,-2.13 -19.69,-6.43 -27.61,-14.27c-3.32,-2.75 -4.92,-6.22 -3.71,-11.2c4.84,-4.17 6.78,-3.88 11.52,0.19c7.49,6.44 15.9,10.58 25.35,11.91c2.57,-10.63 -0.18,-17.32 -9.35,-20.07c-9.54,-2.85 -19.33,-4.75 -29.07,-6.61c-14.31,-2.74 -28.69,-5.24 -41.93,-12.27c-16.95,-9.01 -28.13,-23.43 -31.48,-44.47c-0.91,-5.7 -1.3,-11.54 -1.49,-17.33c-0.22,-6.75 4.04,-9.78 9.67,-7.19c9.66,4.43 19.79,6.67 30.14,6.52c7.01,-0.11 13.98,-2.04 21,-2.77c18.93,-1.94 37.04,0.07 51.19,16.35c8.77,10.11 12.99,22.76 14.23,37.51c1.63,-2.03 3.03,-3.57 4.22,-5.31c9.01,-13.06 20.87,-21.58 34.6,-27.13c4.78,-1.94 8.34,-0.43 9.77,4.1c1.37,4.34 -0.71,8.01 -6.08,9.95c-9.71,3.49 -18.13,9.41 -24.93,17.67c-10.95,13.3 -17.26,28.95 -17.06,47.38c0.02,1.09 0.15,2.18 0.28,3.91c4.16,-1.23 8.06,-2.38 12.25,-3.55m-71.48,-39.32c15.29,3.47 31.07,4.19 46.56,11.19c-0.41,-7.67 -0.41,-14.35 -1.21,-20.91c-1.7,-13.89 -7.45,-25.27 -18.54,-32.39c-10.29,-6.61 -21.71,-6.3 -33.07,-5.21c-8.64,0.82 -17.25,2.67 -25.86,2.65c-7.29,-0.03 -14.59,-2.07 -22.11,-3.25c0,1.18 -0.2,2.45 0.03,3.62c3.05,15.04 10.41,26.41 22.78,33.65c9.69,5.67 20.13,8.47 31.42,10.66z" fill="#000000" id="svg_8" opacity="1"/>
  <path d="m223.05,341c27.22,-13.1 53.38,-27.85 79.18,-45.67c-0.76,2.15 -1.16,3.48 -1.68,4.76c-6.02,14.74 -13.46,28.54 -22.26,41.4c-2.68,3.92 -5.52,7.74 -8.56,11.31c-4.75,5.59 -9.55,11.16 -14.67,16.33c-5.85,5.91 -13.18,9.22 -20.85,9.34c-13,0.2 -26.02,-1.08 -39.04,-1.4c-6.32,-0.15 -12.64,0.49 -18.97,0.75c-7.82,0.3 -15.65,1.04 -23.45,0.7c-5.36,-0.23 -10.56,-2.34 -15.52,-6c11.98,-3.63 23.64,-6.52 34.91,-10.71c16.59,-6.17 32.9,-13.27 49.33,-19.98c0.45,-0.18 0.85,-0.54 1.57,-0.81z" fill="#00ff00" id="svg_9" opacity="1"/>
  <path d="m46.66,217.92c0,-10.04 -0.02,-19.67 0,-29.29c0.06,-22.01 6.69,-41.64 18.28,-59.08c4.69,-7.04 10.68,-13.06 16.36,-19.22c3.77,-4.1 7.56,-3.81 10.38,0.05c2.75,3.76 1.7,7.58 -2.31,11.32c-12.89,12.04 -22.23,26.78 -26.98,44.99c-2.32,8.88 -3.22,17.87 -3.02,27.11c0.21,10.04 -0.29,20.09 0.14,30.12c0.38,9.1 1.45,18.18 2.49,27.24c0.56,4.74 -1.22,8.31 -5.3,9.26c-3.3,0.76 -6.59,-2.04 -7.02,-6.57c-1.13,-11.82 -2.03,-23.67 -3.02,-35.93z" fill="#000000" id="svg_10" opacity="1"/>
  <path d="m252.67,91.54c-0.91,-7.89 2.9,-11.12 9.84,-8.56c13.65,5.05 26.29,12.33 37.59,22.25c5.16,4.53 9.92,9.65 14.71,14.68c3.44,3.61 3.56,7.28 0.74,10.54c-2.6,3.02 -6.59,2.99 -9.59,-0.44c-10.55,-12.02 -22.64,-21.56 -36.39,-28.42c-3.95,-1.98 -8.1,-3.48 -12,-5.57c-1.77,-0.95 -3.17,-2.79 -4.89,-4.5z" fill="#000000" id="svg_11" opacity="1"/>
  <path d="m173.47,75.69c0.98,3.88 1.91,7.43 3.02,11.65c-15.78,-3.22 -30.58,-5.97 -45.27,-9.35c-8.82,-2.03 -17.14,-5.89 -24.16,-12.49c-1.16,-1.08 -1.88,-2.74 -3.46,-5.14c2.55,0.44 4.13,1.08 5.65,0.93c8.92,-0.88 17.81,-2.13 26.73,-2.87c9.77,-0.8 19.73,-1.96 28.5,4.66c4.02,3.04 7.07,7.18 8.99,12.61z" fill="#00ff00" id="svg_16" opacity="1"/>
 </g>
</svg>