<?xml version="1.0"?>
<svg width="500" height="500" xmlns="http://www.w3.org/2000/svg" xmlns:svg="http://www.w3.org/2000/svg" preserveAspectRatio="xMidYMid meet" version="1.0">
 <!-- Created with SVG-edit - https://github.com/SVG-Edit/svgedit-->

 <g class="layer">
  <title>Layer 1</title>
  <path d="m57.26,12.12c-2.24,1.05 -5.43,2.34 -7.08,3.04c-1.65,0.58 -3.78,1.52 -4.72,2.1c-0.94,0.58 -2.71,1.4 -3.78,1.75c-1.18,0.47 -2.12,1.17 -2.12,1.75c0,0.58 -0.71,1.05 -1.53,1.05c-4.48,0 -20.17,16.37 -24.42,25.37c-3.54,7.6 -3.66,8.18 -3.19,21.86c0.35,13.68 3.07,27.47 7.43,37.53c0.71,1.87 2.12,5.85 2.83,8.77c0.83,2.92 2.12,6.78 3.07,8.77c4.48,10.4 4.95,24.67 1.77,53.43c-1.3,10.99 -1.3,16.37 -0.12,28.06c2.36,23.97 3.07,28.17 5.78,35.31c1.3,3.86 2.48,7.72 2.48,8.77c0,1.05 1.3,4.44 2.95,7.72c1.53,3.16 2.95,6.55 2.95,7.25c0,2.22 12.86,28.06 17.34,35.07c5.9,9.24 16.16,18.82 21.12,19.76c5.9,1.05 13.21,-1.4 17.81,-5.96c3.78,-3.74 3.89,-4.09 3.89,-13.68c0,-5.49 -0.24,-10.17 -0.47,-10.4c-0.24,-0.23 -3.42,-0.23 -7.08,-0.12c-6.25,0.47 -6.61,0.58 -6.61,3.51c0,5.73 -2.36,11.92 -4.48,11.92c-4.25,0 -7.31,-1.52 -7.31,-3.51c0,-1.17 -5.07,-11.81 -11.21,-23.85c-6.13,-11.92 -11.21,-22.45 -11.21,-23.38c0,-0.82 -1.3,-4.56 -2.95,-8.18c-1.65,-3.62 -2.95,-7.95 -2.95,-9.59c0,-1.64 -0.47,-3.86 -1.06,-4.91c-4.01,-7.37 -6.49,-48.87 -3.66,-60.44c1.89,-7.83 2.71,-28.76 1.42,-35.07c-0.71,-3.27 -1.89,-8.42 -2.48,-11.57c-0.71,-3.16 -1.77,-6.31 -2.24,-7.01c-0.59,-0.7 -1.65,-3.62 -2.48,-6.55c-0.94,-2.92 -2.71,-9 -4.25,-13.44c-1.42,-4.56 -3.54,-13.21 -4.72,-19.41c-1.89,-10.76 -1.89,-11.69 0.12,-18.71c1.89,-7.01 8.85,-18.59 11.09,-18.59c0.59,0 2.01,-1.05 3.19,-2.22c3.19,-3.39 15.45,-9.59 22.53,-11.34c11.33,-2.92 22.65,-1.99 38.58,3.27c3.89,1.29 8.97,2.69 11.21,3.27c2.24,0.58 7.31,1.99 11.21,3.04c9.32,2.69 24.54,2.69 36.57,0c5.19,-1.17 12.15,-2.57 15.34,-3.16c3.3,-0.47 9.32,-1.75 13.57,-2.69c4.25,-1.05 10.62,-2.1 14.27,-2.57c7.43,-0.82 19.11,1.17 21.59,3.74c0.94,0.94 2.12,1.64 2.71,1.64c1.53,0 9.79,9.82 9.79,11.81c0,1.05 0.83,3.86 1.77,6.08c2.12,5.03 2.36,28.76 0.47,37.06c-0.71,2.92 -1.65,8.42 -2.12,12.28c-0.59,3.86 -2.12,10.29 -3.54,14.26c-1.3,3.97 -2.48,8.53 -2.48,10.17c0,1.64 -0.47,3.27 -1.18,3.62c-0.59,0.35 -1.18,1.52 -1.18,2.57c0,0.94 -0.71,3.39 -1.65,5.38c-3.19,7.37 -4.48,19.87 -3.07,29.69c1.65,11.57 1.77,11.92 4.6,23.15c4.25,16.83 2.83,54.25 -2.36,59.51c-0.59,0.7 -1.06,2.22 -1.06,3.51c0,2.57 -9.32,22.1 -10.85,22.68c-0.47,0.23 -0.94,1.17 -0.94,1.99c0,0.82 -1.3,3.16 -2.95,5.03c-1.65,1.99 -2.95,3.97 -2.95,4.56c0,1.4 -12.98,14.38 -14.39,14.38c-0.71,0 -0.94,-1.99 -0.59,-5.03c0.35,-2.69 1.18,-9.7 1.89,-15.43c0.59,-5.85 1.77,-16.02 2.6,-22.8c1.89,-16.6 -0.24,-42.55 -4.25,-52.02c-0.83,-1.99 -2.36,-6.2 -3.3,-9.35c-3.42,-10.99 -10.74,-22.8 -20.29,-32.5c-2.95,-3.04 -5.66,-5.49 -6.13,-5.49c-0.35,0 -2.36,-1.29 -4.36,-2.69c-9.44,-7.13 -32.44,-7.13 -40.11,0c-1.65,1.52 -3.3,2.69 -3.78,2.69c-1.3,0 -9.91,9 -9.91,10.4c0,0.7 -0.47,1.29 -1.18,1.29c-0.94,0 -4.13,4.79 -9.32,14.03c-3.54,6.2 -8.61,20.34 -10.15,28.06c-0.47,2.22 -1.3,4.56 -1.77,5.26c-1.65,2.22 -3.89,36.94 -3.07,47.23c1.3,16.13 0.94,15.43 9.44,15.08c7.2,-0.35 7.2,-0.35 6.96,-3.86c-2.01,-33.67 -1.77,-38.81 2.6,-58.92c6.25,-28.64 24.42,-52.73 39.76,-52.73c4.95,0 15.22,4.91 19.94,9.7c4.13,3.97 12.86,15.43 12.86,16.72c0,0.47 1.06,3.04 2.36,5.73c2.6,5.26 4.95,12.98 7.67,25.14c3.19,13.8 1.53,47.7 -2.95,64.3c-0.71,2.22 -1.18,7.83 -1.18,12.39c0,9.7 2.71,14.96 9.44,18.12c3.42,1.64 4.72,1.75 8.26,0.47c6.49,-2.34 10.74,-4.79 12.51,-7.48c1.06,-1.4 2.6,-2.46 3.54,-2.46c0.94,0 1.65,-0.47 1.65,-1.17c0,-0.58 2.71,-4.44 6.02,-8.42c3.3,-4.09 6.72,-9 7.67,-10.87c0.83,-1.99 3.78,-7.37 6.37,-12.16c2.6,-4.68 4.72,-9.47 4.72,-10.64c0,-1.05 0.35,-2.34 0.83,-2.81c2.12,-1.99 4.95,-12.04 7.43,-25.84c1.42,-7.83 1.3,-26.07 0,-36.24c-2.48,-17.65 -3.3,-22.33 -4.6,-25.49c-3.19,-8.07 -2.83,-20.58 0.83,-31.8c4.36,-13.21 7.43,-23.73 7.31,-25.95c0,-1.4 0.47,-3.74 1.06,-5.26c3.89,-9.94 5.19,-20.58 5.19,-41.15c-0.12,-20.46 -0.12,-21.39 -3.19,-27.24c-1.65,-3.39 -3.07,-6.9 -3.07,-7.72c0,-2.22 -11.68,-14.15 -15.93,-16.37c-7.67,-3.86 -13.09,-4.68 -27.25,-3.86c-15.34,0.7 -23.24,1.87 -34.09,4.79c-13.33,3.51 -31.14,5.38 -39.52,3.97c-9.32,-1.4 -19.82,-4.44 -20.76,-5.85c-0.35,-0.58 -1.89,-1.05 -3.42,-1.05c-1.53,0 -6.61,-1.29 -11.44,-2.92c-7.31,-2.46 -10.74,-2.92 -22.18,-2.81c-9.67,0 -14.75,0.58 -17.7,1.87z" id="svg_5"/>
  <path d="m69.53,61.22c-2.71,1.64 -5.78,4.91 -6.96,7.25c-1.06,2.34 -2.48,5.14 -3.07,6.2c-1.42,2.81 -1.3,16.95 0.12,17.89c0.71,0.35 1.18,1.75 1.18,2.92c0,2.57 3.07,12.39 4.72,15.43c4.95,8.89 6.13,35.66 2.24,52.96c-3.66,16.6 -4.25,19.29 -5.66,28.64c-0.83,4.79 -2.01,11.46 -2.71,14.73c-0.71,3.27 -0.94,7.72 -0.59,9.94c0.35,2.22 1.3,7.37 1.89,11.57c0.71,4.21 1.89,9.7 2.71,12.28c1.42,4.44 1.53,3.74 2.12,-11.34c0.35,-10.52 1.06,-16.48 2.12,-17.54c0.71,-0.7 1.42,-3.62 1.42,-6.43c0,-5.96 1.89,-14.85 4.25,-19.41c0.94,-1.87 1.65,-4.21 1.65,-5.26c0,-2.69 2.71,-10.05 6.37,-17.42c1.65,-3.39 3.07,-6.66 3.07,-7.37c0,-0.58 0.47,-1.17 1.06,-1.17c0.59,0 1.53,-1.52 2.24,-3.27c0.59,-1.87 1.89,-4.09 2.83,-5.03c0.94,-0.94 2.24,-2.57 2.83,-3.74c1.65,-2.81 13.57,-14.85 14.75,-14.85c0.59,0 2.12,-1.05 3.42,-2.34c1.3,-1.29 3.78,-2.69 5.54,-3.04c1.77,-0.47 3.89,-1.52 4.72,-2.34c3.54,-3.51 26.66,-3.39 33.27,0c1.65,0.94 4.72,2.34 6.84,3.04c2.01,0.82 4.01,2.1 4.36,3.04c0.35,0.94 1.3,1.64 2.12,1.64c1.89,0 14.86,13.68 15.81,16.6c0.35,1.17 0.94,2.1 1.42,2.1c0.83,0 8.73,14.73 13.21,24.78c1.42,2.92 2.83,7.48 3.19,9.94c0.35,2.46 1.18,4.79 1.89,5.14c1.3,0.94 3.07,8.42 4.01,17.42c0.35,3.51 1.18,7.01 1.77,7.83c0.59,0.7 1.3,5.14 1.65,9.94c0.83,10.99 1.42,14.03 2.83,13.21c2.95,-1.75 0.59,-37.29 -2.95,-45.59c-1.89,-4.44 -4.13,-13.8 -4.13,-17.42c0,-1.64 -0.47,-3.04 -1.18,-3.27c-3.19,-1.05 -6.02,-30.51 -3.54,-38.81c0.71,-2.69 1.89,-6.43 2.6,-8.3c4.72,-13.21 6.96,-48.87 3.3,-52.49c-0.59,-0.58 -1.18,-1.99 -1.18,-3.04c0,-3.74 -11.09,-6.43 -19.47,-4.56c-3.19,0.7 -7.67,1.52 -9.67,1.87c-2.12,0.35 -3.89,1.05 -3.89,1.52c0,1.29 -10.97,4.68 -14.98,4.68c-1.89,0 -4.01,0.58 -4.84,1.4c-0.83,0.82 -4.72,1.4 -9.08,1.4c-4.36,0 -8.26,-0.58 -9.08,-1.4c-0.83,-0.82 -3.07,-1.4 -4.95,-1.4c-4.25,0 -12.03,-2.57 -13.92,-4.44c-0.83,-0.82 -2.36,-1.4 -3.66,-1.4c-2.95,0 -13.68,-3.51 -14.51,-4.79c-0.35,-0.58 -6.02,-1.05 -12.62,-0.94c-10.85,0 -12.51,0.35 -16.87,3.04z" fill="#00ff00" id="svg_6"/>
 </g>
</svg>