<?xml version="1.0"?>
<svg width="500" height="500" xmlns="http://www.w3.org/2000/svg" xmlns:svg="http://www.w3.org/2000/svg" preserveAspectRatio="xMidYMid meet" version="1.0">
 <!-- Created with SVG-edit - https://github.com/SVG-Edit/svgedit-->

 <g class="layer">
  <title>Layer 1</title>
  <path d="m211.02,17.2l16.66,0l22.91,3.2l15.62,3.2l12.5,5.34l7.29,2.13l6.25,4.27l7.29,3.2l10.42,6.4l4.17,4.27l5.21,2.13l4.17,5.34l5.21,5.34l5.21,5.34l5.21,4.27l4.17,7.47l6.25,9.6l3.12,4.27l2.08,6.4l3.12,6.4l2.08,6.4l6.25,23.47l0,41.61l-4.17,18.14l-3.12,12.8l-5.21,10.67l-2.08,6.4l-4.17,6.4l-3.12,7.47l-2.08,5.34l-2.08,0l-2.08,7.47l-5.21,9.6l-6.25,11.74l-2.08,6.4l-4.17,11.74l-2.08,19.21l2.08,18.14l5.21,11.74l2.08,7.47l5.21,9.6l2.08,5.34l5.21,9.6l5.21,7.47l4.17,8.54l0,2.13l3.12,1.07l2.08,5.34l1.04,1.07l0,8.54l-3.12,4.27l-7.29,1.07l-5.21,-2.13l-3.12,-6.4l-8.33,-13.87l0,-2.13l-2.08,0l-5.21,-10.67l-2.08,-2.13l-4.17,-10.67l-2.08,-2.13l-5.21,-13.87l-2.08,-4.27l-2.08,-8.54l-4.17,-14.94l0,-22.41l5.21,-17.07l2.08,-7.47l5.21,-11.74l6.25,-11.74l2.08,-5.34l5.21,-9.6l6.25,-11.74l2.08,-5.34l4.17,-7.47l3.12,-10.67l4.17,-12.8l2.08,-19.21l0,-22.41l-3.12,-21.34l-5.21,-13.87l0,-4.27l-2.08,0l-3.12,-6.4l-5.21,-8.54l0,-2.13l-2.08,0l-3.12,-5.34l-9.37,-10.67l-3.12,-2.13l0,-2.13l-4.17,-2.13l-9.37,-7.47l-6.25,-3.2l-6.25,-4.27l-6.25,-2.13l-8.33,-4.27l-10.42,-2.13l-9.37,-3.2l-12.5,-2.13l-38.54,0l-16.66,4.27l-11.46,3.2l-6.25,3.2l-2.08,0l0,2.13l-6.25,2.13l-6.25,2.13l0,2.13l-6.25,3.2l-5.21,4.27l-3.12,0l0,2.13l-5.21,2.13l-1.04,3.2l-4.17,3.2l-2.08,0l-2.08,4.27l-5.21,5.34l-9.37,10.67l-4.17,6.4l-2.08,4.27l-2.08,0l-3.12,9.6l-5.21,10.67l-4.17,14.94l-1.04,9.6l0,10.67l1.04,13.87l-2.08,7.47l-3.12,9.6l-8.33,16.01l-3.12,4.27l-1.04,4.27l-3.12,3.2l-4.17,9.6l-3.12,3.2l-4.17,8.54l-4.17,6.4l0,4.27l10.42,3.2l15.62,3.2l6.25,5.34l0,8.54l-4.17,9.6l-1.04,4.27l14.58,2.13l5.21,2.13l3.12,3.2l1.04,5.34l-3.12,5.34l-2.08,2.13l-12.5,0l3.12,8.54l-1.04,12.8l-2.08,6.4l0,13.87l10.42,6.4l23.96,6.4l25,3.2l19.79,4.27l7.29,2.13l5.21,5.34l5.21,5.34l0,2.13l3.12,1.07l3.12,6.4l4.17,6.4l4.17,11.74l-1.04,7.47l-4.17,3.2l-9.37,-1.07l-2.08,-1.07l-5.21,-12.8l-2.08,-2.13l-2.08,-5.34l-7.29,-8.54l-6.25,-3.2l-23.96,-3.2l-20.83,-4.27l-12.5,-2.13l-12.5,-5.34l-5.21,-2.13l-10.42,-7.47l-4.17,-7.47l-2.08,-8.54l1.04,-10.67l2.08,-8.54l-1.04,-5.34l-9.37,-6.4l0,-8.54l2.08,-2.13l-1.04,-5.34l-2.08,-4.27l1.04,-7.47l3.12,-6.4l0,-5.34l-12.5,-2.13l-11.46,-6.4l-4.17,-7.47l-1.04,-9.6l5.21,-13.87l5.21,-7.47l3.12,-6.4l4.17,-6.4l1.04,-4.27l3.12,-3.2l3.12,-5.34l1.04,-4.27l3.12,-3.2l5.21,-10.67l3.12,-5.34l0,-33.08l2.08,-17.07l4.17,-9.6l3.12,-8.54l7.29,-13.87l4.17,-5.34l2.08,-5.34l4.17,-4.27l8.33,-10.67l5.21,-5.34l12.5,-10.67l2.08,0l1.04,-3.2l6.25,-4.27l4.17,-3.2l3.12,0l0,-2.13l5.21,-2.13l1.04,-2.13l12.5,-5.34l2.08,-2.13l10.42,-3.2l6.25,-3.2l28.12,-5.34l8.33,-1.07z" fill="#000000" id="svg_4"/>
  <path d="m161.03,124.97l7.29,2.13l2.08,4.27l0,7.47l-3.12,3.2l-4.17,2.13l-5.21,0l-5.21,-4.27l-1.04,-6.4l3.12,-6.4l6.25,-2.13z" fill="#00ff00" id="svg_5"/>
  <path d="m201.65,139.91l9.37,1.07l3.12,5.34l-1.04,7.47l-5.21,4.27l-6.25,0l-5.21,-4.27l-1.04,-5.34l2.08,-7.47l4.17,-1.07z" fill="#00ff00" id="svg_6"/>
  <path d="m170.4,159.11l6.25,0l1.04,3.2l2.08,0l-2.08,6.4l-2.08,2.13l-5.21,-1.07l-3.12,-2.13l0,-5.34l3.12,-3.2z" fill="#00ff00" id="svg_7"/>
  <path d="m256.85,175.12l17.71,0l9.37,3.2l4.17,3.2l3.12,1.07l4.17,6.4l3.12,2.13l2.08,5.34l3.12,8.54l1.04,3.2l0,13.87l-6.25,16.01l-5.21,5.34l-7.29,8.54l-6.25,7.47l-2.08,6.4l-2.08,0l-2.08,6.4l-3.12,6.4l-4.17,2.13l-3.12,3.2l-3.12,2.13l-18.75,0l-10.42,-7.47l-5.21,-10.67l-1.04,-8.54l6.25,-7.47l6.25,0l6.25,7.47l3.12,7.47l6.25,1.07l5.21,-5.34l1.04,-4.27l2.08,0l2.08,-6.4l3.12,-6.4l3.12,-1.07l2.08,-5.34l6.25,-5.34l6.25,-8.54l1.04,-3.2l0,-13.87l-3.12,-7.47l-3.12,-2.13l0,-2.13l-9.37,-3.2l-10.42,1.07l-6.25,3.2l-8.33,11.74l-8.33,0l-5.21,-5.34l0,-7.47l8.33,-11.74l5.21,-3.2l1.04,-2.13l6.25,-3.2l5.21,-1.07z" fill="#000000" id="svg_8"/>
  <path d="m114.16,177.25l14.58,4.27l7.29,1.07l7.29,3.2l12.5,3.2l4.17,5.34l0,7.47l-4.17,4.27l-13.54,3.2l-18.75,1.07l-4.17,-5.34l-2.08,-8.54l-7.29,-1.07l-4.17,-4.27l0,-8.54l4.17,-4.27l4.17,-1.07z" fill="#000000" id="svg_9"/>
  <path d="m199.56,202.86l9.37,0l2.08,1.07l2.08,4.27l0,7.47l-3.12,4.27l-8.33,1.07l-4.17,-2.13l-2.08,-4.27l0,-6.4l2.08,-4.27l2.08,-1.07z" fill="#00ff00" id="svg_10"/>
  <path d="m188.11,244.47l8.33,0l4.17,4.27l1.04,5.34l-2.08,5.34l-2.08,0l-1.04,3.2l-7.29,0l-5.21,-4.27l0,-10.67l4.17,-3.2z" fill="#00ff00" id="svg_11"/>
  <path d="m148.53,256.21l5.21,1.07l4.17,2.13l1.04,9.6l-4.17,5.34l-6.25,1.07l-5.21,-2.13l-2.08,-5.34l1.04,-7.47l1.04,-2.13l5.21,-2.13z" fill="#00ff00" id="svg_12"/>
  <path d="m170.4,277.55l6.25,0l5.21,3.2l1.04,2.13l0,7.47l-3.12,3.2l-3.12,2.13l-6.25,0l-6.25,-5.34l0,-7.47l4.17,-4.27l2.08,-1.07z" fill="#00ff00" id="svg_13"/>
  <path d="m129.78,289.29l6.25,1.07l1.04,2.13l0,7.47l-7.29,1.07l-3.12,-1.07l-1.04,-6.4l4.17,-4.27z" fill="#00ff00" id="svg_14"/>
  <path d="m194.35,294.62l7.29,0l8.33,7.47l0,10.67l-7.29,7.47l-10.42,0l-7.29,-8.54l0,-7.47l3.12,-5.34l3.12,-3.2l3.12,-1.07z" fill="#00ff00" id="svg_15"/>
  <path d="m150.61,310.63l8.33,0l4.17,3.2l1.04,7.47l-3.12,6.4l-8.33,1.07l-5.21,-3.2l-2.08,-6.4l2.08,-5.34l3.12,-3.2z" fill="#00ff00" id="svg_16"/>
 </g>
</svg>