<?xml version="1.0"?>
<svg width="500" height="500" xmlns="http://www.w3.org/2000/svg" xmlns:svg="http://www.w3.org/2000/svg" preserveAspectRatio="xMidYMid meet" version="1.0">
 <!-- Created with SVG-edit - https://github.com/SVG-Edit/svgedit-->

 <g class="layer">
  <title>Layer 1</title>
  <path d="m236.47,59.64c-12,2.81 -13.3,3.49 -21.26,9.11c-9.65,6.97 -14.74,14.62 -18.91,28.56l-3.39,11.69l2.74,11.13c4.43,17.32 5.35,20.02 8.87,25.75c1.83,2.92 3.26,5.74 3.26,6.18c0,2.25 11.35,14.39 16.17,17.43c8.09,4.95 11.22,6.18 19.43,7.76c7.96,1.46 12,0.9 23.08,-3.15c4.56,-1.8 19.56,-13.49 19.56,-15.29c0,-0.56 1.3,-2.47 3,-4.27c3.78,-4.05 9.78,-17.21 12.13,-26.99c2.22,-9.56 2.35,-25.86 0,-34.07c-1.96,-6.86 -7.43,-16.08 -12,-20.13c-1.7,-1.46 -3.13,-3.15 -3.13,-3.6c0,-0.56 -0.65,-1.01 -1.57,-1.01c-0.78,0 -2.87,-1.12 -4.56,-2.47c-3.39,-2.7 -9,-4.61 -21,-7.08c-10.04,-2.02 -11.74,-2.02 -22.43,0.45zm27.78,16.76c14.09,6.52 21.78,18.33 21.65,33.4c0,7.98 -2.61,19.79 -4.83,22.27c-0.65,0.79 -1.7,2.92 -2.22,4.95c-0.39,2.02 -2.22,5.4 -4.04,7.65c-1.7,2.25 -3.13,4.5 -3.13,4.95c0,0.56 -2.87,3.26 -6.26,5.96c-4.56,3.6 -7.96,5.4 -11.61,5.96c-7.3,1.01 -14.35,-0.34 -17.08,-3.26c-1.17,-1.35 -3.26,-2.81 -4.56,-3.26c-1.17,-0.34 -2.87,-2.02 -3.52,-3.6c-0.65,-1.57 -1.7,-2.81 -2.22,-2.81c-0.65,0 -2.09,-2.14 -3.52,-4.84c-1.3,-2.59 -3,-5.62 -3.65,-6.86c-5.87,-9.78 -7.69,-35.2 -3,-44.31c1.3,-2.59 2.87,-4.72 3.26,-4.72c0.52,0 1.57,-1.12 2.22,-2.59c0.78,-1.46 4.56,-4.5 8.48,-6.75c6.65,-3.94 7.43,-4.05 18.39,-4.16c8.48,0 12.52,0.56 15.65,2.02z" id="svg_5"/>
  <path d="m202.56,179.96c-4.7,1.12 -17.22,6.41 -29.87,12.71c-6,2.92 -11.22,5.4 -11.61,5.4c-0.78,0 -7.56,4.72 -16.56,11.69c-6.65,5.06 -15,14.17 -15,16.31c0,0.56 -1.7,5.74 -3.78,11.47c-3.91,10.8 -9,31.37 -10.04,40.37c-0.39,2.81 -1.43,11.69 -2.48,19.9c-3.13,23.95 -2.22,100.31 1.43,114.7c0.52,2.25 1.3,2.59 7.56,2.59c9.65,0 10.17,-0.79 8.35,-13.61c-0.91,-6.3 -1.57,-28 -1.57,-53.86c0,-34.86 0.39,-45.54 2.22,-55.1c1.17,-6.52 2.74,-15.41 3.52,-19.68c1.83,-9.9 5.09,-22.94 6.52,-25.86c0.65,-1.24 1.43,-3.82 1.83,-5.62c1.17,-6.3 6.52,-14.96 11.74,-19.12c5.61,-4.5 17.22,-11.81 18.65,-11.81c0.65,0 3,-1.24 5.09,-2.81c1.96,-1.46 5.35,-3.04 7.3,-3.37c1.96,-0.45 3.65,-1.12 3.65,-1.57c0,-1.01 4.56,-2.92 12,-5.29l4.96,-1.46l8.61,7.31c4.7,3.94 9.13,7.2 9.52,7.2c0.52,0 2.35,1.24 4.04,2.81c1.7,1.57 3.65,2.81 4.3,2.81c0.65,0 3.39,1.46 6.13,3.37c3.91,2.59 6.26,3.37 10.82,3.37c3.52,0 6.39,-0.56 7.04,-1.46c0.52,-0.79 4.17,-3.15 7.96,-5.17c3.65,-2.02 6.78,-4.16 6.78,-4.72c0,-0.56 0.78,-1.01 1.83,-1.01c0.91,0 5.35,-3.04 9.78,-6.86c7.69,-6.52 8.35,-6.86 12.91,-6.07c2.61,0.34 6.65,1.69 8.74,2.81c2.22,1.24 6.65,3.26 10.04,4.5c3.39,1.35 6.39,3.15 6.78,4.05c0.39,0.9 1.7,1.57 3,1.57c2.35,0.11 7.3,3.26 18.39,11.81c7.56,5.85 14.61,18.89 14.61,27.1c0,2.02 0.52,3.94 1.17,4.27c2.09,1.12 5.87,22.49 9.91,55.78c1.83,15.07 1.96,21.37 0.65,46.1c-0.78,15.74 -1.96,35.2 -2.74,43.07c-0.78,7.98 -1.04,14.73 -0.65,15.18c0.91,0.79 17.35,0.9 18.26,0.22c0.26,-0.34 1.3,-19.23 2.22,-42.06c1.3,-33.17 1.3,-45.88 0,-63.53c-0.91,-12.14 -2.09,-23.84 -2.74,-25.98c-0.65,-2.14 -2.09,-9 -3.26,-15.18c-1.96,-10.8 -3.39,-16.42 -5.87,-23.61c-0.65,-1.91 -1.83,-5.62 -2.61,-8.43c-2.61,-8.88 -8.22,-17.21 -16.04,-23.73c-4.17,-3.6 -8.22,-6.75 -9.13,-7.08c-2.35,-1.01 -14.22,-8.1 -16.82,-10.12c-1.3,-1.01 -3,-1.8 -3.78,-1.8c-0.91,0 -4.43,-1.57 -7.96,-3.37c-3.39,-1.91 -6.78,-3.37 -7.43,-3.37c-1.57,0 -9.78,-3.6 -10.56,-4.61c-0.39,-0.56 -4.04,-1.24 -8.09,-1.69c-6.65,-0.67 -7.56,-0.45 -9.78,1.8c-4.56,5.06 -14.22,13.04 -21.78,18.33c-10.82,7.53 -12.39,7.42 -24.52,-1.01c-10.3,-7.2 -13.95,-10.23 -18.78,-15.63c-3.52,-4.05 -6.91,-4.72 -14.87,-2.92z" id="svg_6"/>
  <path d="m162.13,331.32l0,82.65l87.12,-0.22l86.99,-0.34l0.26,-79.84c0.26,-43.97 0,-80.96 -0.39,-82.43l-0.78,-2.47l-86.6,0l-86.6,0l0,82.65zm92.6,-73.43c1.43,1.35 2.61,3.6 2.61,5.06c0,2.59 0.13,2.59 16.04,2.59c18.65,0.11 20.48,0.79 20.48,7.65c0,5.74 -0.13,5.74 -20.87,6.18l-15,0.22l0,3.94l0,3.94l24.52,0.22c29.6,0.22 32.21,0.79 32.21,7.42c0,7.2 -0.91,7.42 -30.91,7.53l-26.47,0l0,3.94l0,3.94l31.56,0.22l31.56,0.34l1.57,2.7c1.7,2.92 0.39,8.88 -2.35,10.46c-0.91,0.45 -15.39,0.9 -31.95,0.9l-30.39,0l0,3.94l0,3.94l27.13,0c19.3,0 27.52,0.34 28.69,1.35c2.35,2.02 1.96,10.68 -0.52,11.47c-1.17,0.34 -14.09,0.67 -28.69,0.67l-26.74,0l0.39,4.05l0.39,4.05l20.35,-0.11c16.82,-0.22 20.61,0.11 22.04,1.57c0.91,0.9 2.35,1.69 3.26,1.69c1.96,0 3.26,5.06 3.26,12.82c-0.13,16.53 -7.69,25.41 -21.78,25.41c-6.91,0 -14.74,-2.59 -14.74,-4.95c0,-1.01 -0.78,-1.8 -1.7,-1.8c-1.04,0 -2.48,-2.14 -3.39,-4.84c-0.91,-2.59 -2.48,-6.07 -3.52,-7.76c-1.04,-1.57 -1.83,-3.71 -1.83,-4.72c0,-1.01 -0.52,-1.8 -1.3,-1.8c-0.65,0 -1.43,5.29 -1.57,12.03c-0.39,11.92 -0.39,11.92 -4.3,13.83c-2.87,1.35 -4.43,1.57 -6.78,0.67c-3.78,-1.57 -4.3,-3.6 -4.3,-16.08c0,-9.67 -0.13,-10.23 -2.61,-9.67c-1.96,0.45 -2.61,1.57 -2.61,4.16c0,4.84 -3.13,12.03 -5.74,13.27c-1.17,0.56 -2.09,1.69 -2.09,2.47c0,2.92 -8.87,5.51 -17.08,4.95c-6.65,-0.45 -8.22,-1.01 -11.87,-4.39c-6.39,-5.62 -7.56,-9 -7.56,-20.47c0,-11.13 0.26,-11.69 5.22,-14.62c2.61,-1.57 6.52,-1.91 23.74,-1.91l20.61,0l0,-3.94l0,-3.94l-28.04,0c-23.08,0 -28.04,-0.22 -28.04,-1.57c0,-0.9 -0.91,-1.8 -1.96,-2.25c-2.74,-0.9 -2.48,-3.26 1.04,-6.63l3,-3.04l27,0l27,0l0,-3.94l0,-3.94l-30.65,0l-30.78,0l-3.13,-2.92c-4.04,-3.71 -4.04,-5.62 -0.26,-9c2.87,-2.7 3,-2.7 33.91,-2.7l30.91,0l0,-3.94l0,-3.94l-26.74,0l-26.61,0l-3.39,-3.04c-4.43,-4.16 -4.17,-5.96 1.3,-9.22c4.43,-2.59 5.48,-2.7 27.52,-2.7c12.65,0 24.13,-0.22 25.43,-0.45c3.13,-0.79 3.39,-6.52 0.39,-7.53c-1.17,-0.34 -8.74,-0.67 -16.82,-0.67c-14.48,0 -14.87,-0.11 -17.48,-2.92c-2.74,-3.04 -2.74,-3.04 -0.13,-6.52l2.48,-3.49l17.08,-0.34c16.69,-0.34 16.95,-0.34 16.95,-2.81c0,-3.26 4.43,-7.53 7.83,-7.53c1.43,0 3.65,1.12 5.22,2.47z" fill="#00ff00" id="svg_7"/>
  <path d="m213.38,369.78c-5.48,0.45 -5.61,0.56 -5.61,4.61c0.13,4.95 2.48,8.1 6.26,8.1c1.7,0 2.87,-1.01 3.39,-2.81c0.52,-1.57 1.43,-2.81 2.09,-2.81c0.78,0 1.3,-1.8 1.3,-3.94c0,-2.14 -0.39,-3.82 -0.91,-3.71c-0.65,0.11 -3.52,0.34 -6.52,0.56z" fill="#00ff00" id="svg_8"/>
  <path d="m277.55,371.8c0.52,1.24 1.17,3.6 1.57,5.29c0.78,3.71 3.39,5.74 6.52,5.17c1.7,-0.22 2.48,-1.8 3.13,-5.74c0.39,-3.04 0.13,-5.74 -0.52,-6.07c-0.65,-0.34 -3.52,-0.67 -6.39,-0.79c-4.56,-0.11 -4.96,0.11 -4.3,2.14z" fill="#00ff00" id="svg_9"/>
 </g>
</svg>