<?xml version="1.0"?>
<svg width="500" height="500" xmlns="http://www.w3.org/2000/svg" xmlns:svg="http://www.w3.org/2000/svg" preserveAspectRatio="xMidYMid meet" version="1.0">
 <!-- Created with SVG-edit - https://github.com/SVG-Edit/svgedit-->
 <g class="layer">
  <title>Layer 1</title>
  <path d="m342.1,281.35c0,0 -0.13,0.31 -0.3,0.46c-0.17,0.15 -0.46,0.21 -0.68,0.21c-1.03,1.76 -1.84,3.54 -2.8,5.49c-0.51,1.71 -0.86,3.23 -1.43,4.77c-2.69,0.66 -2.71,2.95 -2.69,5.58c-0.4,1.78 -0.7,3.31 -0.99,4.86c-0.08,0.29 -0.15,0.59 -0.38,1.07c-0.15,0.18 -0.45,0.17 -0.58,0.01c-2.17,1.1 -4,6.76 -3.39,10.18c-0.01,1.08 -0.01,1.87 -0.01,2.65c-0.06,0.77 -0.12,1.54 -0.28,2.58c-0.1,0.27 -0.31,0.38 -0.51,0.39c-0.85,0.74 -1.5,1.47 -2.41,2.2c-0.67,0.41 -1.46,0.81 -1.46,1.22c-0.08,6.56 -0.05,13.13 -0.05,20.32c0.9,-0.86 1.33,-1.27 1.91,-1.52c0.92,1.58 1.69,2.97 2.47,4.37c0.07,0.3 0.14,0.61 0.22,1.41c0.02,1.06 0.04,1.62 -0.1,2.36c0.53,4.46 0.63,9.09 4.26,11.63c0,0 0.15,0.3 0.15,0.71c0.06,1.16 0.12,1.91 0.12,2.94c0.57,2.81 1.1,5.38 1.94,7.79c0.28,0.81 1.35,1.19 2.17,2c0.29,1.48 0.47,2.74 0.59,4.24c0.12,0.88 0.31,1.52 0.25,2.22c-0.48,2.62 -0.9,5.16 -0.94,7.71c-0.1,6.31 -1.14,7.59 -6.19,7.78c-1.15,0.04 -2.27,0.98 -3.6,1.38c-0.9,-0.25 -1.6,-0.38 -2.45,-0.62c-0.45,-0.53 -0.74,-0.95 -0.99,-1.66c-0.51,-2.16 -0.92,-4.13 -1.69,-5.86c-0.42,-0.95 -1.45,-1.49 -2.2,-2.22c-0.09,-0.29 -0.18,-0.57 -0.28,-1.34c-0.05,-1.22 -0.1,-1.96 -0.07,-2.99c-0.51,-2.31 -0.94,-4.43 -1.72,-6.32c-0.35,-0.85 -1.41,-1.26 -2.2,-2.15c-0.17,-1.43 -0.28,-2.58 -0.3,-4.01c-0.58,-2.47 -1.11,-4.76 -1.97,-6.83c-0.48,-1.15 -1.55,-1.92 -2.35,-2.87c-0.07,-0.29 -0.14,-0.59 -0.2,-1.39c-0.12,-1.06 -0.24,-1.62 -0.28,-2.38c0.09,-0.5 0.1,-0.8 0.16,-1.41c-0.71,-5.39 -1.43,-10.5 -2.32,-15.56c-0.14,-0.79 -1.11,-1.36 -1.7,-2.03c-0.06,-0.52 -0.12,-1.05 -0.12,-2.17c-0.01,-4.13 -0.08,-7.68 -0.16,-11.23c0.07,-0.99 0.13,-1.98 0.46,-3.28c0.9,-1.81 1.84,-3.22 2.13,-4.82c0.71,-3.92 1.12,-7.93 1.69,-12.19c0.04,-1.27 0.04,-2.25 0.04,-3.24c0,0 0.13,-0.3 0.4,-0.49c2.54,-1.94 3.13,-4.67 3.23,-7.96c0.62,-1.92 0.92,-3.76 1.62,-5.33c2.18,-4.86 4.56,-9.58 6.77,-14.44c2.29,-5.05 4.53,-10.14 6.67,-15.29c2.15,-5.15 4.56,-10.21 6.1,-15.64c2.24,-7.87 4.53,-15.89 4.59,-24.35c0.06,-7.42 0.29,-15.09 -1.04,-22.21c-1.31,-7.03 -1.69,-14.6 -5.51,-20.89c-2.94,-4.85 -4.73,-10.76 -7.64,-15.65c-2.14,-3.6 -5.25,-6.31 -7.95,-9.69c-0.96,-1.13 -1.9,-1.99 -2.87,-2.99c-0.04,-0.13 -0.14,-0.39 -0.14,-0.63c-0.41,-0.49 -0.81,-0.74 -1.43,-1.08c-0.67,-0.06 -1.12,-0.04 -1.57,-0.01c-0.37,-0.34 -0.75,-0.67 -1.26,-1.37c-0.2,-0.6 -0.28,-0.85 -0.4,-1.33c-1.06,-0.94 -2.08,-1.62 -3.28,-2.42c-0.45,-0.1 -0.71,-0.11 -0.97,-0.12c-0.4,-0.13 -0.8,-0.25 -1.34,-0.52c-0.14,-0.14 -0.14,-0.41 -0.04,-0.58c-0.24,-2.65 -1.59,-2.59 -3.29,-2.15c-0.45,-0.04 -0.71,-0.05 -1.05,-0.28c-0.52,-0.44 -0.95,-0.69 -1.56,-1.07c-1.23,-0.54 -2.29,-0.93 -3.54,-1.44c-2.97,-1.31 -5.75,-2.48 -8.52,-3.69c-0.9,-0.39 -1.75,-0.91 -2.5,-1.58c0.76,-0.54 1.38,-0.87 2.6,-1.51c-1.97,-0.55 -3.25,-1.15 -4.55,-1.2c-2.31,-0.09 -4.75,-0.47 -6.61,2.25c-0.3,0.14 -0.42,0.28 -0.7,0.49c-0.46,0.08 -0.72,0.17 -0.98,0.26c-4.56,-0.04 -9.12,-0.1 -14.13,-0.18c-0.73,-0.04 -1,-0.07 -1.41,-0.24c-0.65,-0.23 -1.15,-0.3 -1.71,-0.67c-2.32,-0.67 -4.58,-1.12 -6.86,-1.31c-0.21,-0.02 -0.52,1.56 -0.93,2.61c-4.23,1.75 -8.3,3.31 -12.6,4.86c-0.65,0.13 -1.08,0.26 -1.72,0.3c-1.76,0.58 -3.39,1.08 -4.85,1.96c-1.19,0.71 -2.19,1.89 -3.51,2.89c-4.32,2.11 -8.66,3.68 -12.41,6.45c-5.23,3.85 -10.19,8.33 -14.96,13.03c-7.05,6.95 -12.85,15.33 -16.89,25.66c0.07,0.34 0.14,0.46 0.21,0.57c0.01,0.15 0.01,0.29 -0.27,0.6c-0.8,1.37 -1.31,2.57 -1.84,4.01c-0.08,0.54 -0.14,0.84 -0.39,1.22c-0.54,1.33 -0.89,2.6 -1.27,4.18c-0.08,1.99 -0.13,3.67 -0.17,5.34c-0.11,1.3 -0.23,2.6 -0.6,4.21c-0.94,1.78 -1.61,3.24 -2.46,4.51c-0.36,-1.9 -0.54,-3.59 -0.72,-5.29c-0.3,0.01 -0.61,0.01 -0.91,0.03c0,1.47 0.01,2.95 -0.01,4.43c-0.03,3.87 -1.71,6 -4.88,6.15c-1.28,0.07 -2.6,-0.2 -3.83,0.1c-0.72,0.17 -1.31,1.16 -2.17,1.84c-2.95,-0.2 -2.26,-3.76 -3.57,-5.64c-0.16,-0.91 -0.39,-1.55 -0.6,-2.5c0.01,-1.83 0,-3.32 0.2,-4.99c0.24,-1.37 0.27,-2.59 0.31,-4.04c0.12,-1.7 0.21,-3.15 0.51,-4.66c0.36,-0.6 0.51,-1.16 0.7,-2.03c-0.36,-5.59 2.01,-9.81 3.53,-14.36c0.71,-2.11 1.21,-4.38 2.19,-6.28c2.28,-4.43 4.62,-8.85 7.26,-12.95c3.27,-5.1 6.6,-10.22 10.41,-14.67c3.54,-4.14 7.75,-7.38 11.62,-11.12c1.21,-1.16 2.23,-2.64 3.56,-3.99c0.95,-0.38 1.72,-0.65 2.39,-1.11c4.5,-3.11 8.82,-6.73 13.52,-9.27c5.09,-2.75 10.48,-4.66 15.81,-6.66c6.38,-2.39 12.72,-4.62 19.43,-5.76c10.87,-1.86 21.59,-2.27 32.41,-0.26c3.42,0.64 6.99,0.55 10.24,1.79c5.65,2.14 11.11,5.05 16.63,7.68c2.09,0.99 4.3,1.8 6.16,3.26c3.75,2.95 7.42,6.11 10.9,9.52c3.94,3.86 7.99,7.69 11.34,12.26c3.61,4.94 6.51,10.69 9.63,16.16c1.22,2.15 2.49,4.38 3.23,6.81c1.92,6.32 3.82,12.68 5.24,19.19c1.42,6.53 2.92,13.22 3.18,19.92c0.37,9.67 1.15,19.46 -1.47,29.06c-1.78,6.49 -1.86,13.58 -4.56,19.85c-1.19,2.78 -1.49,6.17 -2.19,9.28c0,0 -0.1,0.29 -0.31,0.49c-1.47,3.18 -2.73,6.15 -4.04,9.31c-0.04,0.46 -0.04,0.74 -0.02,1.01c0,0 0.02,0.13 -0.19,0.15c-1.53,2.73 -2.83,5.45 -4.23,8.42c-0.05,0.6 -0.01,0.95 0.02,1.3l0.04,0.04z" fill="#61666C" id="svg_6"/>
  <path d="m156.18,270.39c0,0 -0.12,0.32 -0.39,0.47c-1.65,2.45 -3.17,4.64 -4.34,7.1c-0.24,0.51 0.67,2.64 1.3,2.85c2.19,0.72 4.48,0.93 6.73,1.33c0.22,0.04 0.43,0.09 0.87,0.4c1.8,1.76 3.37,3.26 4.94,4.75c0,0 0.07,-0.06 0.1,0.26c2.42,6.56 1.41,13 0.56,19.34c-0.41,3.1 0.34,3.56 2.43,2.59c2.79,-0.01 5.59,-0.01 8.92,-0.01c1.55,0.14 2.57,0.26 3.65,0.54c0.39,0.11 0.74,0.07 1.24,-0.01c0.26,-0.01 0.36,0 0.47,0.32c0.64,0.83 1.26,1.78 1.91,1.81c6.33,0.35 12.66,0.75 18.99,0.75c6.63,-0.01 13.25,-0.38 19.87,-0.78c0.7,-0.04 1.34,-1.38 2.16,-2.16c0.45,-0.21 0.74,-0.38 1.02,-0.54c0.77,0.05 1.54,0.1 2.65,0.38c1.47,0.94 2.54,1.87 3.73,2.34c4.59,1.8 9.19,3.48 12.84,7.71c0.34,0.39 1.1,0.23 1.66,0.32c0.45,0.24 0.89,0.47 1.51,1.02c0.33,0.66 0.48,1.01 0.68,1.61c0.86,1.08 1.67,1.92 2.64,2.81c0.36,0.09 0.57,0.11 0.78,0.14c0.28,0.34 0.56,0.67 0.79,1.38c0.74,2.45 1.12,5.04 3.7,4.77c0.05,0.13 0.1,0.25 0.13,0.83c0.07,1.03 0.01,1.73 0.25,2.2c3.23,6.29 6.6,12.46 9.72,18.84c2.94,6.02 5.64,12.21 8.39,18.37c2,4.49 3.89,9.04 5.85,13.55c1.24,2.85 2.95,5.52 3.67,8.55c2.17,9.21 -1.66,15.7 -8.9,15.94c-4.94,0.17 -7.32,-4.73 -9.52,-8.94c-2.3,-4.37 -3.6,-9.53 -5.61,-14.17c-2.67,-6.12 -5.6,-12.07 -8.38,-18.35c-1.26,-2.33 -2.55,-4.4 -3.86,-6.73c-0.46,-1.3 -0.9,-2.33 -1.34,-3.63c-0.99,-1.78 -1.97,-3.29 -3.07,-4.88c-0.12,-0.08 -0.37,-0.11 -0.37,-0.11c0,0 -0.09,0.07 -0.02,-0.23c-0.01,-0.82 -0.08,-1.34 -0.14,-2.11c-0.55,-0.87 -1.11,-1.48 -1.76,-2.21c-0.22,-0.24 -0.33,-0.41 -0.48,-0.83c-2.08,-3.23 -4.11,-6.21 -5.92,-9.22c0.64,-0.38 1.05,-0.74 1.45,-1.09c-1.15,-1.12 -2.18,-2.56 -3.48,-3.26c-1.12,-0.6 -2.37,-0.1 -2.42,2.04c-1.28,-0.94 -2.35,-1.86 -3.28,-3c0.96,-0.55 1.78,-0.87 2.61,-1.19c-2.02,-0.29 -4.2,-2.55 -5.92,0.69c-1.14,-0.46 -2.04,-0.94 -2.69,-1.47c0.91,-0.55 1.56,-1.02 2.22,-1.5c-0.78,-0.52 -1.57,-1.52 -2.34,-1.5c-6.99,0.12 -13.97,0.6 -20.95,0.6c-6.69,0.01 -13.38,-0.5 -20.07,-0.6c-0.96,-0.01 -1.93,0.95 -2.89,1.46c0.13,0.54 0.26,1.08 0.39,1.61c3.52,0 7.05,0 10.47,0.28c-1.03,0.53 -1.95,0.97 -2.88,1c-3.35,0.13 -6.72,-0.06 -10.06,0.24c-1.5,0.13 -2.94,1.16 -4.08,1.64c0.44,2.67 0.72,4.41 0.76,6.22c-0.3,5.82 -0.34,11.57 -0.36,17.32c0,0.13 0.31,0.26 0.37,0.6c-2.72,3.46 -5.53,6.22 -9.72,5.89c-0.42,-0.04 -0.67,-0.05 -1.03,-0.27c-2.01,-2.1 -3.9,-3.99 -5.55,-5.94c0.49,-3.66 0.8,-7.26 0.94,-10.87c0.01,-0.24 -1.18,-0.55 -1.97,-0.99c-1.02,-2.64 -1.22,-5.69 -3.9,-6.53c0,0 -0.11,-0.27 -0.12,-0.65c-0.19,-0.99 -0.37,-1.62 -0.58,-2.51c-1.27,-3.79 -2.5,-7.31 -3.71,-11.07c0.06,-0.55 0.09,-0.85 0.36,-1.18c0.7,-0.65 1.49,-1.24 1.54,-1.92c0.21,-3.22 0.2,-6.46 0.3,-9.69c0.09,-2.68 0.29,-5.36 0.29,-8.03c0.01,-0.73 -0.49,-2.02 -0.84,-2.06c-0.59,-0.07 -1.25,0.63 -2.04,0.82c-2.7,-1.65 -5.26,-3.12 -7.99,-4.71c-0.45,-0.13 -0.72,-0.13 -0.99,-0.15c0,0 0.05,-0.01 -0.04,-0.24c-0.41,-0.36 -0.73,-0.49 -1.09,-0.61c-0.04,0.02 0.04,0.01 0.02,-0.26c-0.64,-0.96 -1.27,-1.66 -2.04,-2.46c-0.34,-0.14 -0.55,-0.18 -0.76,-0.24c-0.1,-0.49 -0.19,-0.99 -0.31,-1.99c-0.43,-2.34 -0.83,-4.16 -0.99,-6.06c0.36,-3.87 0.48,-7.67 0.55,-11.47c0,-0.1 -0.52,-0.23 -0.81,-0.64c1.06,-3.51 2.16,-6.71 3.17,-9.95c0.61,-1.96 1.08,-3.99 1.62,-5.98c0.22,-0.32 0.43,-0.66 0.87,-1.23c1.84,-2.74 3.42,-5.25 5.05,-7.72c2.63,-3.97 5.52,-7.71 7.89,-11.91c2.21,-3.93 4.94,-5.49 8.66,-5.07c0.85,0.09 1.72,-0.21 2.59,-0.34c0.22,0.04 0.44,0.07 0.91,0.35c1.09,1.58 2.04,2.83 2.75,4.27c2.67,5.35 3.84,7.53 1.91,10.82c-3.74,6.39 -7.54,12.73 -11.23,19.16c-0.45,0.77 -0.42,1.97 -0.61,2.97l0,0.01z" fill="#00ff00" id="svg_7"/>
  <path d="m226.92,381.15c0.03,0.25 0.06,0.5 0.1,1.16c0.05,0.72 0.1,1.03 0.14,1.62c1.55,2.95 0.97,7.24 4.17,8.65c0.02,0.31 0.04,0.62 -0.04,1.3c1.43,4.43 2.97,8.49 4.5,12.55c0.02,0.41 0.05,0.83 0.11,1.72c0.07,2.2 0.1,3.9 0.12,5.62c0,0 -0.03,-0.12 -0.25,-0.01c-5.42,8.59 -7.49,9.34 -15.26,5.65c-0.51,-0.24 -1.14,-0.1 -1.71,-0.15c-0.23,-0.38 -0.45,-0.75 -0.66,-1.58c-0.02,-1.02 -0.07,-1.57 -0.05,-2.39c-0.53,-2.18 -0.99,-4.18 -1.78,-5.95c-0.36,-0.78 -1.4,-1.08 -2.24,-1.61c-0.11,-0.01 -0.29,0.13 -0.29,0.13c-0.04,-0.3 -0.08,-0.61 -0.11,-1.44c-0.07,-1.5 -0.15,-2.49 -0.22,-3.76c-0.99,-2.05 -0.32,-5.25 -3.13,-5.67c-0.46,-0.19 -0.77,-0.33 -1.08,-0.47c-0.05,-0.29 -0.1,-0.58 -0.18,-1.35c-0.87,-1.53 -1.71,-2.59 -2.59,-3.87c-1.37,-1.24 -2.63,-2.38 -4.01,-3.18c-1.19,-0.69 -2.51,-1.01 -3.7,-1.74c-0.27,-0.83 -0.6,-1.89 -0.96,-1.9c-3.6,-0.13 -7.2,-0.15 -10.8,0c-0.48,0.02 -0.92,1.11 -1.57,1.8c-0.85,-0.01 -1.52,-0.11 -2.21,-0.49c-1.65,-2.89 -3.28,-5.52 -4.99,-8.46c-0.12,-2.46 -0.17,-4.62 -0.21,-6.78c0,0 0.02,0.05 0.23,-0.01c1.6,-2.01 2.99,-3.96 4.39,-5.63c0.63,0.89 1.2,1.89 1.9,2.04c1.03,0.24 2.15,-0.24 3.22,-0.21c3.71,0.1 7.42,0.43 11.12,0.35c1.22,-0.02 3.17,0.61 3.56,-2.34c0.5,-0.22 0.78,-0.35 1.07,-0.47c1.18,0.11 2.35,0.22 3.81,0.65c0.94,1.03 1.5,2.14 2.25,2.37c2.75,0.87 5.56,1.46 8.52,2.22c0.59,0.3 1.03,0.52 1.45,1.04c-0.04,2.69 1.34,2.81 2.82,3.09c0.46,0.83 0.84,1.44 1.23,2.34c0.33,2.51 -0.12,5.45 3.02,5.19c0.1,0.02 0.29,-0.03 0.29,-0.03l0.02,0z" fill="#61666C" id="svg_8"/>
  <path d="m280.24,284.32c-0.04,-0.33 -0.07,-0.66 0.16,-1.26c0.99,-1.13 1.84,-1.89 2.45,-2.87c1.75,-2.84 3.4,-5.77 5.11,-8.64c1.14,-1.92 2.32,-3.81 3.68,-5.78c1.5,-2.45 2.79,-4.82 4.27,-7.27c0.68,-1.86 1.18,-3.63 1.72,-5.65c-0.05,-1.25 -0.13,-2.25 -0.07,-3.45c-0.18,-3.89 -0.51,-7.6 -3.86,-9.64c-3.1,-6.66 -11.09,-8.58 -15.38,-5.61c-1.49,1.03 -3.15,1.5 -3.2,4.11c0,0 -0.21,0.04 -0.48,0.12c-0.55,0.29 -0.83,0.5 -1.31,0.76c-0.77,1.07 -1.33,2.08 -1.97,3.32c-0.31,0.76 -0.55,1.3 -1.02,1.87c-0.43,0.07 -0.65,0.07 -0.81,0.19c-2.21,1.77 -4.59,2.55 -6.76,0.3c-2.37,-2.46 -2.45,-5.74 -0.96,-8.93c1.46,-3.09 3.13,-6.03 4.71,-9.02c0,0 -0.07,-0.1 0.18,-0.11c4.09,-3.05 7.96,-6.17 12.64,-6.67c9.56,-1.02 18.01,1.5 23.88,11.96c0.94,1.66 2.22,3.03 3.35,4.53c0.02,0.27 0.05,0.54 -0.01,1.21c1.81,8.59 2.42,16.77 -0.09,24.96c-0.15,0.49 0.1,1.16 0.17,1.75c-0.08,0.31 -0.16,0.61 -0.49,1.15c-1.2,2.05 -2.15,3.87 -3.09,5.7c-0.41,0.8 -0.81,1.6 -1.54,2.53c-0.71,0.88 -1.11,1.64 -1.51,2.4c0,0 -0.17,0.25 -0.45,0.35c-0.93,1.09 -1.6,2.08 -2.46,3.1c-0.91,0.99 -1.63,1.92 -2.54,2.92c-0.48,0.97 -0.74,1.89 -1.01,2.8c-0.18,0.59 -0.37,1.19 -0.65,1.94c-0.1,0.16 -0.23,0.13 -0.4,0.04c-1.22,2.06 -2.26,4.2 -3.38,6.61c-0.07,0.83 -0.07,1.38 -0.07,1.94c-0.12,0.64 -0.24,1.27 -0.7,2.07c-0.93,0.28 -1.52,0.4 -2.16,0.2c-1.4,-2.21 -2.76,-4.12 -4.11,-6.02c3.13,-4.16 2.99,-4.99 -1.31,-7.65c-0.17,-0.1 -0.36,-0.21 -0.53,-0.31l0,0.05z" fill="#00ff00" id="svg_10"/>
  <path d="m280.19,284.24c0.23,0.18 0.42,0.29 0.59,0.39c4.3,2.66 4.44,3.48 1.31,7.65c1.35,1.9 2.71,3.81 4.06,6.25c-0.45,1.72 -0.9,2.91 -1.39,4.26c-0.12,0.37 -0.12,0.59 -0.04,0.8c-0.38,0.22 -0.75,0.45 -1.53,0.67c-1,-0.02 -1.6,-0.04 -2.47,-0.07c-0.98,-0.04 -1.69,-0.07 -2.4,-0.36c-0.11,-1.19 -0.21,-2.11 -0.36,-3.36c1.36,0.11 2.48,0.2 3.6,0.29c-0.8,-1.08 -1.6,-2.15 -2.4,-3.23c1.5,-0.21 2.99,-0.43 4.14,-0.59c-2.61,-2.63 -5.01,-2.07 -6.75,2.44c-0.23,0.6 -1.28,0.84 -1.99,1.03c-3.36,0.92 -5.15,-2.98 -7.89,-4.11c-2.16,-0.89 -3.05,-0.38 -4.13,2.76c2.47,0.27 4.44,0.48 6.66,0.72c0.2,1.06 0.51,2.69 0.56,4.32c-1.47,0.01 -2.67,0.01 -3.98,-0.15c-0.43,-0.06 -0.78,0.05 -1.34,0.17c-0.87,-0.73 -1.52,-1.47 -2.03,-2.35c-0.22,-0.5 -0.59,-0.86 -1.06,-1.27c-0.24,-0.16 -0.32,-0.31 -0.33,-0.82c-0.61,-1.97 0.06,-4.97 -2.8,-4.71c-0.14,-2.28 -0.27,-4.23 -0.29,-6.17c-0.04,-6.21 1.43,-7.66 6.51,-6.84c1.77,0.28 2.45,1.22 2.11,3.69c0.42,2.6 0.84,4.88 1.41,7.1c0.06,0.24 0.99,0.13 1.71,0.19c0.64,0.27 1.1,0.51 1.55,1.07c-0.2,2.55 0.89,2.72 2.31,2.77c1.91,0.06 1.9,-1.4 2,-3.15c0.64,-0.31 1.11,-0.5 1.7,-0.49c0.61,-0.51 1.09,-1.22 1.55,-2.03c-0.04,-0.09 0.02,-0.29 0.26,-0.32c0.48,-0.86 0.72,-1.69 0.96,-2.82c-0.01,-1.49 -0.02,-2.68 -0.02,-3.87c0,0 0.17,0.05 0.23,0.14m-17.67,3.07c0.24,0.01 0.47,0.01 0.71,0.01c0,-0.13 0.01,-0.35 0,-0.35c-0.23,-0.02 -0.47,-0.02 -0.71,0.34m-1,5.43c0.17,-0.2 0.34,-0.41 0.51,-0.6c-0.07,-0.09 -0.19,-0.26 -0.19,-0.25c-0.18,0.19 -0.35,0.39 -0.32,0.85z" fill="#00ff00" id="svg_15"/>
 </g>
</svg>