<?xml version="1.0"?>
<svg width="500" height="500" xmlns="http://www.w3.org/2000/svg" xmlns:svg="http://www.w3.org/2000/svg" preserveAspectRatio="xMidYMid meet" version="1.0">
 <!-- Created with SVG-edit - https://github.com/SVG-Edit/svgedit-->

 <g class="layer">
  <title>Layer 1</title>
  <path d="m71.49,287.45c0,-17.92 0,-35.84 0.27,-53.94c0.55,-0.59 1,-0.98 1.06,-1.42c0.99,-7.37 1.89,-14.74 2.87,-22.1c2.63,-19.5 7.09,-38.36 15.8,-55.58c5.07,-10.02 11.68,-18.44 20.72,-24.11c11.35,-7.13 23.45,-7.35 35.43,-3.78c14.47,4.3 25.08,14.04 29.81,31.21c4.09,14.85 8.48,29.69 15.41,43.19c3.6,7.01 8.23,13.35 12.46,20.25c0.37,0.83 0.6,1.47 0.99,1.94c12.04,14.94 26.19,25 44.62,25.48c-0.05,26.64 -0.1,52.91 -0.41,79.18c-4.93,1.58 -10,2.28 -14.15,4.9c-11.42,7.2 -18.64,19.1 -24.98,31.72c-0.33,0.65 -0.29,1.53 -0.65,2.45c-4.21,10.34 -8.57,20.37 -12.08,30.78c-2.83,8.39 -6.85,15.76 -13.06,20.88c-14.1,11.63 -29.87,13.71 -46.44,8.56c-13.86,-4.3 -23.34,-15.26 -31.16,-28.22c-10.41,-17.24 -17.58,-36.38 -23.86,-55.94c-5.62,-17.51 -9.74,-35.48 -11.31,-54.14c-0.04,-0.47 -0.87,-0.87 -1.33,-1.3m75.4,-82.39c6.76,-5.93 5.66,-17.11 -2.09,-20.74c-8.3,-3.89 -16.14,-2.22 -23.05,3.76c-7.3,6.31 -10.1,15.33 -8.62,25.49c0.55,3.74 2.52,7.86 4.95,10.45c3.75,4.02 8.52,3.31 12.52,-0.17c3.66,-3.18 4.69,-7.66 3.56,-12.85c-0.82,-3.77 0.31,-4.58 3.63,-4.38c2.86,0.18 5.78,-0.78 9.1,-1.57m-15.23,58.39c-1.92,-6.58 -4.93,-9.58 -9.71,-9.7c-5.35,-0.14 -9.5,2.51 -10.7,8.14c-0.96,4.55 -1.62,9.68 -0.74,14.13c3.13,15.72 13.93,23.23 28.13,20.86c7.48,-1.25 11.54,-8.91 9.22,-16.38c-1.82,-5.84 -6.81,-9 -12.24,-7.74c-3.94,0.91 -4.96,-0.26 -4.19,-4.69c0.22,-1.3 0.2,-2.64 0.22,-4.63m58.69,49.01c10.61,-6.31 15.29,-19.13 11.68,-31.97c-1.91,-6.77 -7.11,-10.41 -12.58,-8.77c-5.92,1.77 -8.9,7.57 -7.62,14.78c0.69,3.85 -0.53,5.29 -3.81,4.54c-6.55,-1.51 -11.66,1.96 -13.11,8.9c-1.27,6.06 2.22,12.13 8.03,14.3c5.86,2.19 11.46,1.46 17.4,-1.78m-23.14,28.52c-5.26,-3.35 -10.8,-3.83 -16.53,-2.1c-12.71,3.85 -20.42,20.34 -16.03,34.28c1.53,4.86 4.25,8.38 8.98,8.83c7.63,0.74 12.27,-5.79 11.12,-15.35c-0.45,-3.74 0.6,-4.91 3.76,-4.19c5.5,1.27 10.57,-1.33 12.66,-6.49c1.94,-4.77 0.52,-10.76 -3.95,-14.97z" fill="#aef9ae" id="svg_6" opacity="1"/>
  <path d="m250.79,327.76c0.04,-26.27 0.09,-52.54 0.13,-79.25c0,-0.44 -0.06,-0.56 0.25,-0.52c15.81,0 28.62,-7.21 39.5,-19.38c2.12,-2.38 3.95,-5.11 6.13,-7.8c2.84,-4.06 5.67,-7.86 8.05,-11.98c7.91,-13.71 13.02,-28.91 17.53,-44.39c2.38,-8.17 4.41,-16.55 9.69,-23.07c11.82,-14.62 27.08,-18.52 43.48,-16.4c13.75,1.77 23.87,11.2 31.7,23.97c6.63,10.79 10.79,22.85 13.93,35.39c3.88,15.46 6.44,31.23 7.82,47.24c0.06,0.78 0.88,1.46 1.35,2.19c0,17.65 0,35.31 -0.28,53.17c-0.56,0.88 -1,1.53 -1.09,2.24c-0.54,4.55 -0.54,9.25 -1.57,13.64c-3.5,14.91 -6.6,30.05 -11.28,44.48c-6.68,20.65 -14.37,40.85 -26.8,58.21c-7.24,10.12 -15.71,18.41 -26.64,21.87c-12.26,3.89 -24.83,3.53 -36.78,-2.45c-11.38,-5.69 -18.97,-15.26 -23.28,-28.84c-3.2,-10.09 -7.79,-19.59 -11.75,-29.65c-5.07,-12.84 -12.43,-23.3 -22.09,-31.57c-5.24,-4.49 -11.12,-7.19 -17.9,-6.65c-0.04,-0.14 -0.11,-0.42 -0.11,-0.42m66.53,-55.98c-12.16,-4.3 -23.75,3.61 -27.88,13.32c-2.71,6.35 -1.37,12.94 3.5,16.46c4.82,3.49 10.35,2.14 14.17,-3.44c3.25,-4.75 3.32,-4.74 6.53,0.35c3,4.77 8.3,6.27 13.07,3.75c3.51,-1.86 7.23,-7.75 5.61,-13.6c-2.34,-8.43 -7.52,-13.48 -14.99,-16.84m72.96,26.18c0.5,-4.59 1.51,-9.17 1.42,-13.74c-0.17,-8.64 -4.93,-13.82 -11.73,-13.63c-6.24,0.18 -10.9,6.97 -9.65,14.06c0.89,5.02 0.35,5.73 -3.86,5.22c-0.46,-0.06 -0.93,-0.05 -1.4,-0.06c-6.57,-0.23 -10.6,3.35 -11.64,10.34c-0.81,5.46 2.68,11.01 8.22,13.07c11.25,4.16 22.9,-1.85 28.65,-15.26m-39.69,84.8c3.41,-2.97 5.17,-6.85 4.42,-11.78c-0.85,-5.59 -0.22,-6.36 4.8,-5.26c4.08,0.89 8.44,-1.64 10.81,-6.29c2.14,-4.19 1.68,-9.29 -1.11,-12.97c-5.03,-6.64 -11.82,-6.47 -18.13,-4.76c-12.89,3.49 -19.63,15.64 -17.61,31.23c1.39,10.81 9.62,14.69 16.82,9.83m14.19,-188.34c-2.8,3.01 -3.58,6.77 -3.01,10.97c0.68,4.96 0.02,5.76 -4.16,4.77c-5.41,-1.28 -11.28,2.97 -12.61,9.1c-1.23,5.67 2.08,12.55 7.32,14.16c8.72,2.69 16.86,1.56 23.7,-5.99c7.09,-7.82 9.02,-17.16 6.15,-27.79c-2.36,-8.75 -10.91,-11.52 -17.38,-5.23z" fill="#7efc7e" id="svg_7" opacity="1" transform="matrix(1 0 0 1 0 0)"/>
  <path d="m305.96,71.8c1.15,0.81 1.89,1.76 2.8,2.4c11.01,7.71 11.81,20.99 5.4,32.48c-4.29,7.68 -8.03,15.84 -11.3,24.15c-1.56,3.98 -1.83,8.79 -2.07,13.25c-0.3,5.59 -2.49,10.09 -5.31,14.87c-0.94,0.84 -1.64,1.31 -2.22,1.92c-6.44,6.75 -14.16,9.2 -22.7,8.67c-6.56,-0.4 -13.11,-1 -19.66,-1.52c0.01,0 -0.01,0 0,-0.38c0.01,-23.34 0.01,-46.3 0.24,-69.38c1.49,-1.11 3.11,-1.83 3.89,-3.17c1.73,-2.97 3.01,-6.29 4.53,-9.43c2.43,-5.01 5.17,-9.68 9.97,-12.19c0.46,-0.24 0.68,-1.1 1.01,-1.67c11.7,0 23.4,0 35.42,0z" fill="#191919" id="svg_12" opacity="1"/>
  <path d="m250.91,98.39c0.01,22.95 0.01,45.91 -0.31,69.25c-6.66,0.89 -13,1.43 -19.35,1.92c-9.88,0.76 -18.16,-3.22 -25.08,-11.17c-4.16,-5.32 -5.5,-11.92 -5.61,-18.66c-0.11,-7.23 -2.66,-13.27 -5.59,-19.26c-3.02,-6.17 -6.06,-12.34 -9.28,-18.38c-5.26,-9.88 -0.61,-25.08 9.6,-28.88c0.28,-0.1 0.45,-0.59 0.46,-1.15c11.49,-0.25 23.19,-0.25 35,-0.01c6.47,4.09 10.22,10.33 13.31,17.56c1.46,3.41 2.54,7.94 6.83,8.79z" fill="#666666" id="svg_13" opacity="1"/>
  <path d="m223.91,482.25c-0.54,-0.52 -0.66,-1.4 -0.98,-1.52c-11.17,-4.09 -16.65,-16.05 -16.14,-27.43c0.33,-7.44 0.42,-14.96 1.55,-22.26c0.57,-3.66 3.2,-6.91 5.37,-10.41c4.79,3.31 9.07,6.85 14.56,7.11c7.54,0.35 15.09,0.55 22.64,1.19c0.01,18.03 0.01,35.67 0.01,53.33c-8.89,0 -17.79,0 -27.01,0z" fill="#FFF5F5" id="svg_14" opacity="1"/>
  <path d="m251.25,482.25c-0.33,-17.65 -0.33,-35.3 -0.33,-53.34c0.01,-0.38 0.04,-0.42 0.36,-0.4c5.9,0.01 11.47,0.11 17.05,-0.02c5.4,-0.12 10.55,-1.52 15.26,-4.65c1.57,-1.04 3.06,-2.25 4.59,-3.38c4.72,5.52 6.95,12.22 6.87,19.85c-0.07,6.71 -0.04,13.47 -0.76,20.11c-1.09,10.17 -6.86,16.32 -14.78,20.22c-0.59,0.29 -1.11,0.73 -1.46,1.35c-8.68,0.26 -17.58,0.26 -26.8,0.26z" fill="#666666" id="svg_15" opacity="1"/>
  <path d="m213,369.19c-0.54,-0.77 -1.09,-1.54 -1.84,-2.41c-0.08,-0.87 -0.11,-1.76 0.22,-2.41c6.34,-12.63 13.56,-24.52 24.98,-31.72c4.15,-2.61 9.22,-3.32 14.15,-4.9c0.27,0 0.34,0.29 0.37,0.8c0.03,17.09 0.01,33.67 -0.32,50.26c-3.13,0.02 -5.92,-0.02 -8.73,0.02c-10.12,0.14 -20.12,-0.14 -27.83,-9.39c-0.2,-0.24 -0.66,-0.18 -1,-0.26z" fill="#FFF5F5" id="svg_17" opacity="1"/>
  <path d="m205.32,221.16c0.15,-6.67 1.6,-12.59 5.6,-17.78c0.97,0.26 1.56,0.47 1.95,0.92c5.5,6.31 12.23,8.78 19.91,8.62c6.05,-0.13 12.1,-0.02 18.15,0.35c-0.02,11.81 -0.04,23.24 -0.06,34.67c0,0 0.06,0.12 0.06,0.19c-18.42,-0.04 -32.57,-10.09 -44.61,-25.04c-0.39,-0.47 -0.62,-1.11 -0.99,-1.94z" fill="#666666" id="svg_18" opacity="1"/>
  <path d="m146.67,205.24c-3.11,0.62 -6.02,1.57 -8.88,1.39c-3.32,-0.2 -4.45,0.61 -3.63,4.38c1.13,5.19 0.1,9.67 -3.56,12.85c-4,3.48 -8.77,4.19 -12.52,0.17c-2.43,-2.6 -4.4,-6.71 -4.95,-10.45c-1.48,-10.17 1.32,-19.18 8.62,-25.49c6.91,-5.98 14.75,-7.65 23.05,-3.76c7.75,3.63 8.85,14.81 1.86,20.92z" fill="#00ff00" id="svg_19" opacity="1"/>
  <path d="m131.7,263.79c-0.06,1.65 -0.04,2.99 -0.26,4.29c-0.76,4.43 0.25,5.6 4.19,4.69c5.43,-1.27 10.42,1.89 12.24,7.74c2.32,7.46 -1.75,15.13 -9.22,16.38c-14.19,2.37 -25,-5.14 -28.13,-20.86c-0.88,-4.44 -0.22,-9.58 0.74,-14.13c1.19,-5.64 5.35,-8.28 10.7,-8.14c4.79,0.12 7.79,3.12 9.75,10.04z" fill="#00ff00" id="svg_20" opacity="1"/>
  <path d="m190.12,312.61c-5.71,3.09 -11.31,3.82 -17.17,1.64c-5.81,-2.17 -9.3,-8.24 -8.03,-14.3c1.45,-6.93 6.57,-10.41 13.11,-8.9c3.28,0.75 4.49,-0.69 3.81,-4.54c-1.28,-7.22 1.7,-13.01 7.62,-14.78c5.47,-1.64 10.67,2 12.58,8.77c3.61,12.84 -1.07,25.66 -11.92,32.11z" fill="#00ff00" id="svg_21" opacity="1"/>
  <path d="m167.44,341.13c4.24,4.07 5.66,10.06 3.72,14.83c-2.09,5.16 -7.16,7.76 -12.66,6.49c-3.15,-0.72 -4.21,0.46 -3.76,4.19c1.15,9.56 -3.5,16.09 -11.12,15.35c-4.73,-0.45 -7.45,-3.97 -8.98,-8.83c-4.39,-13.94 3.32,-30.43 16.03,-34.28c5.73,-1.73 11.28,-1.25 16.77,2.24z" fill="#00ff00" id="svg_22" opacity="1"/>
  <path d="m250.88,378.8c0.01,-16.57 0.03,-33.15 0.04,-50.1c6.75,-1.06 12.62,1.64 17.87,6.13c9.66,8.27 17.03,18.73 22.09,31.57c-0.67,0.96 -1.35,1.62 -2.28,2.57c-1.25,1.17 -2.14,2.31 -3.25,2.9c-4.02,2.16 -7.99,5.24 -12.23,5.92c-7.3,1.16 -14.78,0.79 -22.2,1.04c-0.01,-0.01 -0.03,-0.03 -0.03,-0.03z" fill="#666666" id="svg_23" opacity="1"/>
  <path d="m251.17,247.98c-0.29,-11.47 -0.27,-22.9 -0.25,-34.71c0,-0.38 0,-0.37 0.33,-0.38c6.7,0 13.08,0.03 19.45,-0.01c6.74,-0.05 12.65,-2.58 17.64,-7.86c0.72,-0.77 1.72,-1.19 2.59,-1.78c4.07,4.71 5.28,10.64 5.61,17.31c-1.91,2.93 -3.74,5.66 -5.87,8.04c-10.89,12.18 -23.69,19.38 -39.5,19.38z" fill="#191919" id="svg_24" opacity="1"/>
  <path d="m317.58,271.91c7.21,3.21 12.39,8.27 14.73,16.7c1.63,5.85 -2.1,11.74 -5.61,13.6c-4.77,2.52 -10.07,1.02 -13.07,-3.75c-3.21,-5.09 -3.28,-5.1 -6.53,-0.35c-3.82,5.58 -9.36,6.93 -14.17,3.44c-4.87,-3.52 -6.2,-10.11 -3.5,-16.46c4.14,-9.71 15.72,-17.61 28.14,-13.18z" fill="#00ff00" id="svg_25" opacity="1"/>
  <path d="m390.18,298.24c-5.65,13.12 -17.3,19.14 -28.55,14.98c-5.54,-2.06 -9.03,-7.61 -8.22,-13.07c1.04,-6.99 5.07,-10.57 11.64,-10.34c0.47,0.02 0.94,0.01 1.4,0.06c4.21,0.51 4.75,-0.2 3.86,-5.22c-1.25,-7.09 3.41,-13.88 9.65,-14.06c6.8,-0.19 11.56,4.99 11.73,13.63c0.09,4.57 -0.91,9.16 -1.52,14.02z" fill="#00ff00" id="svg_26" opacity="1"/>
  <path d="m350.36,382.9c-6.97,4.72 -15.2,0.84 -16.59,-9.97c-2.01,-15.59 4.72,-27.75 17.61,-31.23c6.3,-1.71 13.1,-1.88 18.13,4.76c2.79,3.68 3.26,8.78 1.11,12.97c-2.37,4.64 -6.73,7.17 -10.81,6.29c-5.03,-1.1 -5.65,-0.33 -4.8,5.26c0.74,4.94 -1.01,8.81 -4.65,11.93z" fill="#00ff00" id="svg_27" opacity="1"/>
  <path d="m364.98,194.21c6.28,-6.08 14.83,-3.32 17.19,5.44c2.87,10.63 0.94,19.96 -6.15,27.79c-6.85,7.55 -14.99,8.68 -23.7,5.99c-5.24,-1.61 -8.54,-8.49 -7.32,-14.16c1.32,-6.13 7.2,-10.38 12.61,-9.1c4.18,0.99 4.84,0.19 4.16,-4.77c-0.57,-4.2 0.21,-7.96 3.2,-11.18z" fill="#00ff00" id="svg_28" opacity="1"/>
  <path d="m212.78,369.29c0.57,-0.02 1.03,-0.08 1.23,0.16c7.71,9.25 17.71,9.53 27.83,9.39c2.8,-0.04 5.6,-0.01 8.73,-0.02c0.32,-0.02 0.34,0.01 0.35,0.39c0.02,16.69 0.03,33 0.04,49.29c0,0 -0.03,0.03 -0.04,0.04c-7.56,-0.25 -15.1,-0.45 -22.65,-0.8c-5.5,-0.26 -9.78,-3.8 -14.34,-7.22c-6.04,-6.68 -7.67,-14.92 -7.15,-23.92c0.35,-6.09 0.48,-12.27 1.5,-18.22c0.55,-3.19 2.79,-6 4.49,-9.08z" fill="#666666" id="svg_29" opacity="1"/>
  <path d="m251.28,428.52c-0.34,-16.31 -0.34,-32.62 -0.36,-49.3c7.42,-0.64 14.9,-0.26 22.2,-1.43c4.24,-0.67 8.21,-3.76 12.23,-5.92c1.11,-0.59 2,-1.73 3.24,-2.65c4.35,3.67 6.07,9.11 6.32,14.49c0.4,8.37 0.18,16.92 -0.94,25.18c-0.53,3.92 -3.74,7.38 -5.78,11.3c-1.55,1.39 -3.04,2.61 -4.61,3.65c-4.71,3.13 -9.86,4.53 -15.26,4.65c-5.57,0.13 -11.14,0.02 -17.05,0.02z" fill="#191919" id="svg_30" opacity="1"/>
  <path d="m250.92,212.89c-6.05,0 -12.1,-0.1 -18.15,0.02c-7.67,0.16 -14.4,-2.31 -19.91,-8.62c-0.39,-0.45 -0.97,-0.67 -1.72,-1.03c-4.28,-6.08 -6.22,-12.83 -5.82,-20.52c0.41,-7.88 0.5,-15.78 0.79,-24.01c6.97,7.6 15.25,11.58 25.13,10.82c6.34,-0.49 12.69,-1.03 19.34,-1.55c0.31,0 0.32,0 0.32,0.38c0,15.09 0.01,29.8 0.01,44.51c0,0 0,-0.01 0,-0.01z" fill="#FFF5F5" id="svg_31" opacity="1"/>
  <path d="m251.25,212.89c-0.33,-14.7 -0.34,-29.41 -0.34,-44.49c6.55,0.14 13.1,0.74 19.66,1.14c8.54,0.53 16.25,-1.92 22.7,-8.67c0.58,-0.62 1.28,-1.08 2.17,-1.64c0.51,9.47 1.01,18.97 0.97,28.46c-0.03,5.64 -2.05,10.73 -5.43,15.28c-0.9,0.86 -1.9,1.28 -2.62,2.05c-4.99,5.27 -10.9,7.81 -17.64,7.86c-6.37,0.04 -12.75,0.01 -19.45,0.01z" fill="#666666" id="svg_32" opacity="1"/>
 </g>
</svg>