<?xml version="1.0"?>
<svg width="500" height="500" xmlns="http://www.w3.org/2000/svg" xmlns:svg="http://www.w3.org/2000/svg" preserveAspectRatio="xMidYMid meet" version="1.0">
 <!-- Created with SVG-edit - https://github.com/SVG-Edit/svgedit-->

 <g class="layer">
  <title>Layer 1</title>
  <path d="m169.41,19.06l21.92,0l14.19,2.04l15.47,7.15l10.32,7.15l7.74,8.17l7.74,13.28l1.29,2.04l2.58,27.58l2.58,50.06l0,25.54l-3.87,1.02l-11.61,-2.04l-7.74,-3.06l-1.29,-17.37l-6.45,2.04l-2.58,4.09l-7.74,4.09l-2.58,3.06l-16.76,5.11l-10.32,2.04l-7.74,0l-14.19,-4.09l-10.32,-4.09l-10.32,-7.15l0,-2.04l-3.87,-1.02l-1.29,-2.04l-2.58,0l-1.29,5.11l0,8.17l-2.58,4.09l-14.19,4.09l-6.45,0l-1.29,-1.02l0,-18.39l1.29,-58.23l2.58,-17.37l2.58,-9.19l3.87,-8.17l1.29,-3.06l2.58,0l2.58,-5.11l3.87,-6.13l6.45,-3.06l3.87,-4.09l7.74,-3.06l12.9,-5.11l11.61,-1.02zm2.58,18.39l-9.03,2.04l-9.03,3.06l-6.45,5.11l0,2.04l-2.58,0l-9.03,12.26l-1.29,4.09l0,14.3l3.87,1.02l16.76,-2.04l10.32,-4.09l7.74,-3.06l9.03,-5.11l0,-2.04l5.16,-1.02l3.87,-3.06l1.29,-3.06l5.16,-4.09l5.16,-7.15l1.29,-3.06l-11.61,-5.11l-5.16,-1.02l-15.47,0zm45.14,18.39l-5.16,1.02l-5.16,7.15l1.29,4.09l2.58,4.09l9.03,5.11l1.29,2.04l3.87,-1.02l1.29,-7.15l-2.58,-7.15l-3.87,-8.17l-2.58,0zm-24.5,19.41l-6.45,4.09l-3.87,1.02l-1.29,2.04l-6.45,2.04l0,2.04l-11.61,2.04l-11.61,3.06l-15.47,3.06l1.29,7.15l3.87,8.17l6.45,12.26l5.16,4.09l2.58,5.11l6.45,3.06l6.45,5.11l5.16,1.02l11.61,0l7.74,-2.04l12.9,-9.19l5.16,-5.11l3.87,-7.15l5.16,-7.15l2.58,-11.24l1.29,-4.09l-6.45,-5.11l-7.74,-3.06l-2.58,0l-1.29,-3.06l-5.16,-4.09l-2.58,0l-2.58,-4.09l-2.58,0z" fill="#000000" id="svg_4"/>
  <path d="m130.72,173.32l5.16,1.02l5.16,7.15l0,2.04l3.87,1.02l6.45,5.11l15.47,6.13l10.32,2.04l10.32,-1.02l11.61,-3.06l9.03,-4.09l2.58,0l2.58,-4.09l6.45,-5.11l2.58,-5.11l6.45,-2.04l2.58,2.04l7.74,2.04l-1.29,6.13l-7.74,9.19l-14.19,9.19l-6.45,2.04l0,2.04l-16.76,4.09l-3.87,2.04l-1.29,24.52l-9.03,1.02l-6.45,-2.04l0,-24.52l-11.61,-3.06l-9.03,-2.04l-6.45,-3.06l-1.29,-2.04l-7.74,-3.06l-5.16,-5.11l-3.87,-2.04l-1.29,-6.13l-2.58,0l-2.58,-6.13l10.32,-5.11z" fill="#00ff00" id="svg_5"/>
  <path d="m93.32,185.58l5.16,0l6.45,16.34l2.58,6.13l3.87,7.15l7.74,11.24l1.29,3.06l5.16,2.04l2.58,4.09l10.32,7.15l10.32,5.11l6.45,3.06l18.05,2.04l20.63,-1.02l10.32,-2.04l10.32,-5.11l6.45,-3.06l7.74,-5.11l6.45,-7.15l2.58,-1.02l2.58,-6.13l3.87,-3.06l3.87,-6.13l2.58,-6.13l5.16,-10.22l2.58,-11.24l7.74,1.02l6.45,4.09l10.32,3.06l10.32,5.11l20.63,2.04l21.92,6.13l7.74,4.09l0,2.04l7.74,2.04l5.16,6.13l5.16,5.11l9.03,15.32l1.29,7.15l0,23.5l-1.29,8.17l-2.58,2.04l-2.58,7.15l-5.16,9.19l-3.87,5.11l-2.58,2.04l0,2.04l7.74,1.02l12.9,4.09l6.45,4.09l0,2.04l5.16,1.02l0,2.04l3.87,1.02l9.03,8.17l9.03,10.22l7.74,12.26l3.87,7.15l5.16,10.22l2.58,3.06l3.87,13.28l3.87,13.28l1.29,1.02l3.87,25.54l1.29,5.11l1.29,20.43l-2.58,2.04l-20.63,0l-1.29,-2.04l-1.29,-16.34l-5.16,-25.54l-2.58,-8.17l-2.58,-11.24l-5.16,-12.26l-3.87,-9.19l-5.16,-8.17l-7.74,-12.26l-3.87,-3.06l-2.58,-4.09l-6.45,-4.09l-1.29,-4.09l-7.74,-2.04l-3.87,-3.06l-9.03,-2.04l-12.9,2.04l-9.03,4.09l-21.92,3.06l-11.61,0l-21.92,-3.06l-11.61,-5.11l-16.76,0l-7.74,4.09l-6.45,2.04l-2.58,5.11l-6.45,5.11l-2.58,4.09l-3.87,3.06l-6.45,10.22l-5.16,8.17l-3.87,9.19l-6.45,16.34l-2.58,12.26l-2.58,8.17l-3.87,22.47l-1.29,15.32l-1.29,1.02l-130.25,0l-1.29,-3.06l2.58,-11.24l6.45,-17.37l1.29,-14.3l-2.58,-14.3l-5.16,-16.34l-1.29,-3.06l-2.58,-17.37l-6.45,-25.54l-3.87,-36.78l0,-33.71l3.87,-25.54l7.74,-15.32l3.87,-7.15l9.03,-10.22l9.03,-7.15l5.16,-2.04l1.29,-2.04l9.03,-3.06l6.45,-2.04l0,-2.04zm-10.32,29.63l-5.16,4.09l0,3.06l-3.87,1.02l-5.16,8.17l-2.58,8.17l-3.87,13.28l-1.29,8.17l0,34.73l3.87,27.58l2.58,8.17l2.58,21.45l2.58,3.06l5.16,1.02l2.58,-18.39l3.87,-13.28l3.87,-21.45l0,-6.13l-7.74,-7.15l-5.16,-13.28l0,-12.26l6.45,-20.43l3.87,-9.19l2.58,-10.22l0,-10.22l-5.16,0zm220.52,5.11l-7.74,2.04l-9.03,10.22l0,7.15l5.16,4.09l9.03,0l5.16,-10.22l7.74,0l-1.29,11.24l-6.45,6.13l-19.34,0l-7.74,-5.11l-1.29,-2.04l0,-17.37l-5.16,0l-6.45,5.11l-5.16,5.11l-2.58,1.02l-6.45,16.34l0,11.24l2.58,9.19l2.58,6.13l3.87,8.17l5.16,5.11l9.03,8.17l5.16,3.06l5.16,0l1.29,3.06l6.45,1.02l14.19,0l7.74,-2.04l0,-2.04l9.03,-1.02l6.45,-6.13l3.87,-3.06l3.87,-5.11l5.16,-7.15l1.29,-7.15l2.58,-3.06l1.29,-5.11l0,-14.3l-6.45,-15.32l-3.87,-1.02l-2.58,-4.09l-6.45,-5.11l-9.03,-5.11l-16.76,-2.04z" fill="#000000" id="svg_6"/>
  <path d="m297.07,362.31l7.74,0l9.03,3.06l2.58,6.13l0,7.15l-3.87,7.15l-7.74,2.04l-9.03,0l-9.03,-3.06l-3.87,-12.26l3.87,-7.15l10.32,-3.06z" fill="#00ff00" id="svg_7"/>
  <path d="m362.84,379.68l7.74,3.06l3.87,11.24l3.87,16.34l2.58,13.28l2.58,23.5l0,7.15l-2.58,1.02l-10.32,0l-2.58,-1.02l-3.87,-26.56l-1.29,-3.06l-2.58,-21.45l-3.87,-16.34l3.87,-5.11l2.58,-2.04z" fill="#000000" id="svg_8"/>
  <path d="m236.46,379.68l7.74,5.11l-1.29,11.24l-2.58,7.15l-2.58,19.41l-2.58,11.24l-2.58,19.41l-3.87,2.04l-9.03,0l-2.58,-1.02l1.29,-14.3l2.58,-27.58l3.87,-12.26l5.16,-17.37l6.45,-3.06z" fill="#000000" id="svg_9"/>
  <path d="m291.92,405.21l10.32,0l11.61,2.04l2.58,7.15l-1.29,9.19l-1.29,3.06l-14.19,2.04l-7.74,-2.04l-5.16,-2.04l-2.58,-5.11l1.29,-9.19l6.45,-5.11z" fill="#00ff00" id="svg_10"/>
 </g>
</svg>