<?xml version="1.0"?>
<svg width="500" height="500" xmlns="http://www.w3.org/2000/svg" xmlns:svg="http://www.w3.org/2000/svg" preserveAspectRatio="xMidYMid meet" version="1.0">
 <!-- Created with SVG-edit - https://github.com/SVG-Edit/svgedit-->

 <g class="layer">
  <title>Layer 1</title>
  <path d="m373.52,33.46l13.91,0l9.63,2.3l10.7,6.91l7.49,8.06l3.21,5.76l2.14,1.15l3.21,13.82l0,16.13l-3.21,12.67l-7.49,10.37l-2.14,0l-2.14,4.61l-75.94,81.79l-2.14,0l-2.14,4.61l-98.41,105.99l-3.21,2.3l-8.56,0l-18.18,-4.61l-17.11,-5.76l-9.63,-2.3l-19.25,-5.76l-8.56,-2.3l-4.28,-2.3l-1.07,-2.3l0,-10.37l4.28,-5.76l5.35,-5.76l5.35,-5.76l5.35,-4.61l5.35,-6.91l2.14,0l2.14,-4.61l5.35,-5.76l6.42,-5.76l4.28,-5.76l5.35,-5.76l5.35,-5.76l5.35,-4.61l5.35,-6.91l5.35,-5.76l5.35,-5.76l5.35,-4.61l5.35,-6.91l5.35,-5.76l5.35,-5.76l5.35,-4.61l4.28,-5.76l5.35,-5.76l5.35,-5.76l5.35,-4.61l5.35,-6.91l5.35,-5.76l4.28,-2.3l2.14,-4.61l5.35,-5.76l4.28,-4.61l2.14,0l2.14,-4.61l5.35,-5.76l6.42,-5.76l4.28,-5.76l5.35,-5.76l5.35,-5.76l5.35,-4.61l5.35,-6.91l5.35,-5.76l4.28,-2.3l2.14,-4.61l5.35,-5.76l5.35,-4.61l9.63,-6.91l7.49,-1.15zm6.42,18.43l-7.49,2.3l-8.56,5.76l-3.21,3.46l-3.21,3.46l-4.28,4.61l-3.21,3.46l-5.35,5.76l-5.35,5.76l-3.21,3.46l-5.35,5.76l-5.35,5.76l-3.21,3.46l-5.35,5.76l-5.35,5.76l-3.21,3.46l-4.28,4.61l-3.21,3.46l-3.21,3.46l-3.21,3.46l-4.28,4.61l-3.21,3.46l-5.35,5.76l-5.35,5.76l-3.21,3.46l-5.35,5.76l-5.35,5.76l-3.21,3.46l-5.35,5.76l-5.35,5.76l-3.21,3.46l-4.28,4.61l-3.21,3.46l-2.14,3.46l-3.21,1.15l-3.21,5.76l-5.35,4.61l-5.35,5.76l-5.35,5.76l-3.21,3.46l-5.35,5.76l-5.35,5.76l-3.21,3.46l-5.35,5.76l-5.35,5.76l-3.21,3.46l-4.28,4.61l-3.21,3.46l-3.21,3.46l-3.21,3.46l1.07,5.76l10.7,2.3l13.91,4.61l10.7,2.3l14.97,4.61l5.35,-4.61l0,-2.3l4.28,-2.3l5.35,-5.76l4.28,-4.61l0,-2.3l4.28,-2.3l5.35,-5.76l4.28,-4.61l0,-2.3l4.28,-2.3l3.21,-3.46l0,-2.3l4.28,-2.3l2.14,-4.61l4.28,-2.3l3.21,-3.46l0,-2.3l4.28,-2.3l5.35,-5.76l4.28,-4.61l0,-2.3l4.28,-2.3l5.35,-5.76l4.28,-4.61l0,-2.3l4.28,-2.3l5.35,-5.76l4.28,-4.61l0,-2.3l4.28,-2.3l3.21,-3.46l0,-2.3l4.28,-2.3l2.14,-4.61l4.28,-2.3l3.21,-3.46l0,-2.3l4.28,-2.3l5.35,-5.76l4.28,-4.61l0,-2.3l4.28,-2.3l5.35,-5.76l4.28,-4.61l0,-2.3l4.28,-2.3l5.35,-5.76l4.28,-4.61l0,-2.3l4.28,-2.3l3.21,-3.46l0,-2.3l4.28,-2.3l5.35,-5.76l7.49,-9.22l3.21,-9.22l0,-8.06l-4.28,-10.37l-2.14,0l-1.07,-4.61l-7.49,-4.61l-8.56,-3.46l-3.21,0z" fill="#000000" id="svg_4"/>
  <path d="m269.77,170.55l10.7,0l13.91,4.61l1.07,1.15l9.63,2.3l1.07,3.46l2.14,0l-1.07,5.76l-3.21,2.3l-9.63,-1.15l-19.25,-4.61l-7.49,-4.61l0,-6.91l2.14,-2.3z" fill="#000000" id="svg_5"/>
  <path d="m253.72,188.98l7.49,0l12.84,3.46l7.49,2.3l6.42,2.3l2.14,3.46l0,5.76l-3.21,2.3l-12.84,-1.15l-8.56,-3.46l-11.77,-3.46l-3.21,-4.61l2.14,-5.76l1.07,-1.15z" fill="#000000" id="svg_6"/>
  <path d="m236.61,207.41l8.56,0l7.49,1.15l8.56,3.46l10.7,3.46l2.14,6.91l-4.28,4.61l-9.63,-1.15l-7.49,-2.3l-7.49,-2.3l-8.56,-3.46l-3.21,-3.46l1.07,-5.76l2.14,-1.15z" fill="#000000" id="svg_7"/>
  <path d="m222.7,223.54l16.04,5.76l12.84,2.3l5.35,6.91l-3.21,6.91l-8.56,0l-8.56,-3.46l-17.11,-4.61l-2.14,-3.46l1.07,-8.06l4.28,-2.3z" fill="#000000" id="svg_8"/>
  <path d="m203.45,243.13l7.49,1.15l12.84,2.3l8.56,3.46l6.42,3.46l0,8.06l-4.28,2.3l-9.63,-2.3l-9.63,-2.3l-10.7,-3.46l-4.28,-3.46l0,-5.76l3.21,-3.46z" fill="#000000" id="svg_9"/>
  <path d="m133.92,305.34l13.91,1.15l6.42,3.46l0,4.61l-5.35,4.61l-2.14,3.46l-2.14,0l-1.07,3.46l-2.14,0l-2.14,4.61l-3.21,3.46l-2.14,0l-1.07,3.46l-2.14,0l-2.14,4.61l-7.49,6.91l-4.28,5.76l-5.35,5.76l-5.35,5.76l-11.77,12.67l-2.14,0l-2.14,4.61l-1.07,1.15l0,5.76l3.21,3.46l5.35,0l6.42,-5.76l5.35,-6.91l5.35,-5.76l5.35,-5.76l5.35,-4.61l4.28,-5.76l5.35,-5.76l5.35,-5.76l6.42,-5.76l4.28,-5.76l5.35,-5.76l5.35,-5.76l5.35,-4.61l4.28,-5.76l5.35,1.15l14.97,4.61l7.49,1.15l1.07,2.3l-3.21,5.76l-5.35,5.76l-6.42,5.76l-1.07,2.3l-2.14,0l0,2.3l-5.35,5.76l-5.35,5.76l-7.49,6.91l-7.49,9.22l-5.35,4.61l-5.35,6.91l-2.14,0l-2.14,4.61l-14.97,16.13l-11.77,10.37l-2.14,0l-1.07,3.46l-6.42,1.15l0,2.3l-10.7,4.61l-14.97,3.46l-10.7,1.15l-47.06,1.15l-1.07,-5.76l5.35,-4.61l5.35,-5.76l4.28,-5.76l3.21,-3.46l2.14,0l2.14,-4.61l2.14,0l1.07,-3.46l2.14,0l2.14,-4.61l37.44,-40.32l5.35,-5.76l3.21,-4.61l2.14,0l1.07,-3.46l2.14,0l2.14,-4.61l2.14,0l1.07,-3.46l2.14,0l2.14,-4.61l9.63,-10.37l2.14,0l2.14,-4.61l8.56,-8.06z" fill="#00ff00" id="svg_10"/>
  <path d="m144.62,419.39l234.25,0l0,12.67l-242.81,0l-2.14,-3.46l5.35,-3.46l2.14,-4.61l3.21,-1.15z" fill="#000000" id="svg_11"/>
 </g>
</svg>