<?xml version="1.0"?>
<svg width="500" height="500" xmlns="http://www.w3.org/2000/svg" xmlns:svg="http://www.w3.org/2000/svg" preserveAspectRatio="xMidYMid meet" version="1.0">
 <!-- Created with SVG-edit - https://github.com/SVG-Edit/svgedit-->

 <g class="layer">
  <title>Layer 1</title>
  <path d="m358.14,125.54c-0.05,-0.54 -0.09,-1.07 -0.12,-2.14c-1.88,-3.48 -3.78,-6.44 -5.63,-9.66c-1.21,-1.3 -2.47,-2.34 -3.96,-3.47c-0.76,-0.35 -1.3,-0.62 -1.86,-1.17c-2.31,-1.59 -4.61,-2.92 -7.18,-4.27c-1.05,-0.02 -1.82,-0.01 -2.57,0c-0.43,-0.1 -0.86,-0.21 -1.5,-0.68c-1.7,-1.18 -3.21,-1.99 -4.51,-3c1.43,-0.44 2.67,-0.68 3.91,-0.93c-0.03,-0.19 -0.06,-0.39 -0.09,-0.58c-7.74,0 -15.5,0 -24.3,0c1.9,0.91 2.75,1.32 3.46,1.94c-1.81,1.09 -3.47,1.98 -5.35,2.89c-0.49,0.12 -0.77,0.19 -1.33,0.18c-2.81,-0.03 -3.52,1.61 -3.82,3.67c-0.17,1.12 -0.5,2.21 -0.95,3.13c-0.44,-1.39 -0.68,-2.59 -0.92,-3.78c-1.04,1.93 -1.66,3.86 -1.69,5.8c-0.01,0.62 1.48,1.28 2.47,1.94c0.17,0.02 0.51,-0.05 0.44,0.2c-0.23,0.76 -0.39,1.26 -0.76,1.86c-0.86,1.12 -1.51,2.13 -2.2,3.08c-0.04,-0.06 0.02,0.06 -0.26,0.02c-1.08,0.73 -1.89,1.49 -2.77,2.21c-0.06,-0.04 0.05,0.07 -0.26,0.01c-3.14,-0.14 -5.63,0.39 -6.72,3.37c-1.25,0.04 -2.5,0.07 -4.08,-0.2c-3.43,-1.73 -6.51,-3.14 -9.82,-4.63c-0.67,-0.17 -1.12,-0.27 -1.57,-0.37c0,0 -0.3,0.19 -0.15,-0.15c0.02,-0.8 -0.12,-1.26 -0.23,-2c-0.55,-2.45 -1.13,-4.63 -1.63,-7.16c0.03,-2.28 -0.02,-4.21 -0.06,-6.41c0.61,-2.19 1.19,-4.1 1.88,-6.18c0.3,-0.29 0.52,-0.42 1.01,-0.55c2.64,-0.53 4.8,-1.26 5.32,-4.23c5.13,-0.26 9.92,-0.43 14.71,-0.59c0.17,-0.01 0.33,-0.01 1.03,-0.04c2.46,-0.71 4.38,-1.38 6.61,-1.98c2.28,-0.37 4.93,0.21 5.11,-2.94c0.64,-0.15 1.26,-0.29 2.41,-0.41c1.32,0.01 2.13,0 2.93,0.15c0,0.15 0.06,0.46 0.12,0.74c6.53,2.09 13.05,2.69 19.63,0.95c0.35,-0.1 0.48,-0.98 0.98,-1.62c0.86,-0.21 1.44,-0.29 2.03,-0.38c0.36,0.12 0.73,0.26 1.37,0.69c3.34,1.37 6.39,2.43 9.66,3.66c1.44,0.5 2.65,0.82 3.87,1.15c0.12,0.22 0.3,0.37 0.75,0.76c2.24,1.79 4.28,3.25 6.51,4.81c0.53,0.31 0.88,0.54 1.23,1.02c1.28,1.3 2.55,2.34 3.92,3.6c0.53,0.81 1.01,1.36 1.36,1.97c2.4,4.08 4.76,8.17 7.06,12.52c0.79,1.2 1.66,2.13 2.62,3.37c0.64,6.57 1.62,12.82 1.66,19.09c0.04,5.16 -1.04,10.34 -1.85,15.62c-1.25,2.56 -2.25,5.02 -3.45,7.68c-0.54,1.55 -0.89,2.91 -1.25,4.27c-0.1,0.29 -0.2,0.59 -0.57,1.11c-0.61,0.43 -0.93,0.63 -1.52,0.87c-1.1,1.51 -1.93,2.98 -2.93,4.61c-0.27,0.56 -0.39,0.96 -0.51,1.37c-0.08,0.3 -0.17,0.61 -0.42,1.07c-0.17,0.15 -0.41,0.29 -0.67,0.32c-1.09,1.02 -1.91,2 -2.99,3.07c-0.68,1.15 -1.1,2.2 -1.53,3.26c-0.28,0.52 -0.56,1.04 -1.29,1.63c-1.78,1.83 -3.12,3.58 -4.45,5.34c0,0 -0.18,0.21 -0.49,0.32c-0.77,0.26 -1.23,0.4 -1.94,0.59c-1.08,1.21 -1.91,2.38 -2.83,3.74c-0.3,0.56 -0.53,0.92 -1.01,1.31c-1.31,1.24 -2.35,2.45 -3.49,3.83c-0.23,0.55 -0.36,0.93 -0.49,1.29c-0.12,0.08 -0.23,0.16 -0.78,0.41c-1.72,1.76 -3.02,3.36 -4.31,4.96c-0.45,0.42 -0.92,0.84 -1.69,1.56c-1.71,1.66 -3.1,3.02 -4.65,4.48c-0.35,0.26 -0.48,0.47 -0.81,0.82c-1.16,-0.13 -2.22,-0.13 -2.93,-0.63c-3.65,-2.59 -4.7,-2.17 -6.22,1.97c-1.72,4.7 -3.8,9.28 -5.88,13.91c-0.17,0 -0.48,0.12 -0.69,0.15c-0.33,0.25 -0.47,0.47 -0.61,0.7c-0.02,0.02 -0.04,0.07 -0.27,0.16c-4.03,3.76 -7.82,7.43 -11.9,11.1c-1.88,-1.18 -3.46,-2.38 -5.02,-3.58c0.05,-0.02 -0.04,0.02 -0.02,-0.25c-2.18,-3.59 -4.33,-4.33 -6.93,-2.64c-2.49,1.62 -2.48,3.6 0.11,6.76c1.08,1.32 2.34,2.52 3.3,3.91c0.27,0.4 -0.23,1.3 -0.56,1.97c-0.42,-0.02 -0.67,-0.02 -1.2,-0.11c-1.44,1.09 -3.12,2.08 -3.6,3.47c-1.04,3 -1.97,4.89 -6,3.84c-4.09,-1.07 -5.78,0.95 -5.14,4.94c0.2,1.25 -0.1,2.57 -0.21,3.83c-0.04,-0.04 0.01,0.06 -0.29,0.01c-1.78,-0.61 -3.21,-1.48 -4.73,-1.65c-1.41,-0.16 -3.38,-0.04 -4.23,0.79c-0.85,0.83 -0.99,2.78 -0.73,4.1c0.24,1.19 1.46,2.18 2.25,3.53c0.06,0.59 0.13,0.94 0.03,1.45c-0.61,0.29 -1.05,0.4 -1.52,0.26c-2.02,-0.87 -4.02,-1.48 -6.28,-2.09c-0.58,0.01 -0.92,0.02 -1.38,-0.12c-0.6,0.17 -1.07,0.49 -1.82,0.84c-1.01,0.59 -1.74,1.16 -2.73,1.77c-1.69,1.67 -3.14,3.31 -4.82,4.99c-0.73,1.26 -1.2,2.45 -1.98,3.65c-0.69,0.03 -1.08,0.06 -1.67,-0.07c-1.77,-1.56 -3.34,-2.98 -4.92,-4.67c-0.77,-2.87 -2.39,-4.35 -5.54,-4.21c-0.57,-0.79 -0.95,-1.45 -1.34,-2.37c-0.55,-0.52 -1.08,-0.81 -1.57,-1.12c0.04,-0.04 -0.03,0.04 -0.03,-0.23c-0.56,-0.53 -1.12,-0.79 -1.89,-1.09c-0.46,-0.13 -0.72,-0.23 -1.01,-0.59c-1.63,-1.67 -3.24,-3.09 -5.07,-4.61c-2.47,-1.87 -4.7,-3.64 -6.93,-5.41c0,0 -0.14,0.14 -0.13,-0.18c-4.91,-4.85 -9.81,-9.39 -14.75,-13.9c-3.14,-2.87 -6.35,-5.68 -9.51,-8.79c-0.98,-1.09 -1.97,-1.91 -3.06,-2.95c-0.79,-0.81 -1.49,-1.4 -2.2,-2.25c-1.04,-1.04 -2.06,-1.82 -3.19,-2.81c-1.05,-1.04 -2,-1.87 -2.9,-2.98c-0.95,-1.12 -1.92,-1.95 -2.98,-3.02c-0.81,-0.79 -1.53,-1.37 -2.25,-2.22c0.17,-2.43 -1.25,-2.73 -3.05,-2.94c-0.9,-0.98 -1.7,-1.73 -2.45,-2.75c-0.03,-2.09 -0.68,-3.19 -2.95,-2.53c-0.82,-0.93 -1.52,-1.69 -2.21,-2.72c-0.99,-1.12 -1.98,-1.98 -3.12,-2.95c-0.41,-0.35 -0.67,-0.59 -0.93,-0.84c-0.04,-0.12 -0.08,-0.24 -0.2,-0.79c-1.71,-2.39 -3.33,-4.35 -4.94,-6.31c-4.27,-5.21 -8.49,-10.45 -12.83,-15.61c-4.43,-5.27 -8.34,-10.84 -11.18,-17.11c-1.18,-2.59 -2.67,-5.06 -4.03,-7.83c0.05,-0.56 0.1,-0.87 0.4,-1.31c1.1,-1.04 2.65,-1.95 2.68,-2.89c0.2,-7.93 0.09,-15.86 0.17,-23.78c0.02,-2.23 -0.66,-3.55 -3.25,-3.58c-0.08,-0.49 -0.08,-0.78 0.05,-1.31c1.76,-3.66 3.38,-7.07 5.07,-10.72c0.21,-0.73 0.35,-1.21 0.76,-1.7c1.44,-1.73 2.61,-3.44 3.77,-5.27c-0.01,-0.12 -0.2,-0.24 -0.2,-0.24c0.42,-0.21 0.85,-0.41 1.67,-0.86c2.22,-1.9 4.05,-3.54 5.82,-5.22c-0.05,-0.03 0.06,-0.01 0.33,-0.04c1.71,-1.09 3.15,-2.13 4.68,-3.36c0.26,-0.57 0.42,-0.95 0.58,-1.34c0.25,-0.07 0.51,-0.12 1.16,-0.09c4.56,-1.3 9.2,-1.7 12.33,-5.27c0.98,-0.1 1.97,-0.2 3.46,-0.31c0.86,0.12 1.23,0.25 1.6,0.62c0.93,0.9 1.85,2.12 2.76,2.12c5.28,-0.03 10.56,-0.26 15.84,-0.63c0.88,-0.06 1.69,-1.12 2.78,-1.82c0.6,-0.21 0.95,-0.29 1.3,-0.38c0.94,0.15 1.88,0.29 3,0.7c0.33,0.7 0.36,1.43 0.64,1.53c3.99,1.45 8.01,2.84 12.05,4.17c0.24,0.08 0.73,-0.51 1.1,-0.79c0,0 0.02,-0.12 0.28,-0.07c1.28,-0.02 2.31,-0.1 3.56,0c2.09,0.07 3.95,-0.01 6.11,-0.08c1.08,-0.01 1.86,-0.03 2.65,-0.06c0.4,0.14 0.79,0.27 1.37,0.77c1.94,1.7 3.71,3.06 5.56,4.47c0.07,0.07 0.26,0.01 0.26,0.01c0,0 0.1,0.1 0.12,0.4c0.43,1.19 0.84,2.08 1.2,3.18c-0.04,0.52 -0.05,0.82 -0.11,1.4c-2.37,3.76 -2.13,8.96 0.61,10.75c0.32,0.04 0.45,0.06 0.44,0.32c-0.76,1.95 -1.41,3.65 -2.05,5.35c0,0 -0.02,0.08 -0.31,0.15c-2.27,1.12 -4.25,2.16 -6.38,2.99c-1.58,0.62 -3,1.45 -4.74,2.31c-1.35,0.03 -2.4,0.02 -3.49,-0.24c-1.89,-0.97 -3.74,-1.67 -5.86,-2.38c-3.88,-1.61 -6.92,-3.72 -7.6,-7.9c-0.34,-2.14 -0.66,-4.28 -1.1,-6.41c-0.47,-2.28 -0.81,-4.79 -4.52,-3.91c-0.18,-0.01 -0.5,0.16 -0.5,0.16c0,0 -0.25,-0.21 -0.53,-0.45c-1.57,-1.12 -2.86,-1.99 -4.01,-3.09c0.73,-0.68 1.32,-1.12 2.23,-1.8c-8.57,0 -16.56,0 -25.22,0c1.59,0.95 2.5,1.5 3.23,2.22c-1.43,1.07 -2.68,1.97 -3.95,2.86c0,0 -0.37,0.08 -0.82,0.06c-1.5,0.27 -2.54,0.57 -3.86,0.94c-2.39,0.79 -5.23,0.59 -5.5,3.96c-0.97,0.46 -1.76,0.8 -2.79,1.21c-0.87,0.78 -1.49,1.49 -2.29,2.37c-0.74,0.93 -1.29,1.71 -2.1,2.42c-1.29,1.59 -2.31,3.25 -3.49,5.15c-0.17,0.76 -0.2,1.3 -0.22,1.83c-0.09,0.35 -0.17,0.71 -0.43,1.38c-0.23,0.47 -0.29,0.61 -0.61,0.83c-2.65,1.21 -2.95,3.11 -2.34,5.57c-0.08,0.53 -0.09,0.84 -0.36,1.31c-0.26,1.56 -0.29,2.95 -0.38,4.64c-0.02,1.98 0.02,3.64 -0.05,5.6c0.15,1.6 0.42,2.9 0.67,4.44c0.04,0.54 0.09,0.84 0.05,1.44c-0.14,2.61 -0.14,4.9 2.76,6.11c1.75,3.82 3.05,7.62 5.26,10.82c4.55,6.57 9.54,12.85 14.47,19.18c0.68,0.88 1.97,1.32 2.98,1.95c0.01,-0.01 -0.02,-0.01 0.02,0.25c2,2.09 3.97,3.91 5.97,5.7c0.04,-0.03 -0.06,-0.01 -0.04,0.24c1.59,1.67 3.15,3.08 4.86,4.67c0.39,0.4 0.63,0.61 0.84,1.07c1.66,1.55 3.36,2.85 5.06,4.15c0.13,0.21 0.28,0.38 0.57,0.91c1.62,1.72 3.13,3.07 4.73,4.54c0.22,0.27 0.39,0.4 0.61,0.74c1.82,1.82 3.58,3.39 5.36,4.92c0.01,-0.03 -0.05,-0.01 0.01,0.24c1.84,1.73 3.63,3.21 5.42,4.69c0,0 0.21,0.18 0.37,0.49c4.81,5.35 10.22,9.31 16.97,11.65c2.59,3.4 6.1,4.41 10.33,4.52c1.29,0.14 2.28,0.21 3.28,0.27c0.53,0.08 1.06,0.15 1.9,0.5c0.82,1.01 1.34,1.76 1.68,2.72c-2.4,0.84 -4.67,1.34 -6.81,2.16c-0.64,0.25 -0.92,1.39 -1.47,2.33c-0.45,0.84 -1.22,1.87 -1.09,2c2.44,2.25 3.36,6.29 7.9,6.33c0.45,0.26 0.71,0.51 0.93,1.04c0.37,3.05 1.8,4.58 5.04,4.21c0.44,0.3 0.7,0.53 0.96,1.04c0.18,3.06 2.04,3.65 4.61,3.67c0.57,0.54 0.99,0.93 1.44,1.59c0.67,3.48 3.08,3.56 5.73,3.42c2.5,-0.15 2.65,-1.73 2.79,-3.67c0.78,-0.59 1.37,-1.06 2.25,-1.5c3.03,0.05 4.5,-1.09 4.31,-4.03c0.26,-0.3 0.47,-0.39 0.99,-0.39c2.71,-0.78 5.45,-1.29 4.98,-4.92c0.42,-0.29 0.75,-0.43 1.37,-0.47c2.77,-2.04 5.23,-4.19 8.1,-6.68c-1.34,-0.76 -2.34,-1.33 -3.34,-2.17c-2.31,-3.51 -5.98,-3.06 -9.2,-3.79c1.14,-1.2 2.18,-2.17 3.22,-3.14c0.76,-0.13 1.51,-0.26 2.81,-0.33c1.35,-0.01 2.15,-0.08 3.24,-0.05c3.12,-0.81 5.97,-1.62 8.73,-2.69c0.57,-0.21 0.76,-1.36 1.35,-2.21c1.26,-0.37 2.31,-0.62 3.61,-0.82c1.89,-1.48 5.37,-0.93 5.4,-4.42c0.01,-0.17 -0.19,-0.46 -0.19,-0.46c0.66,-0.13 1.32,-0.27 2.38,-0.59c0.73,-0.46 1.04,-0.73 1.65,-1.01c2.47,-0.4 4.45,-1.01 4.15,-3.8c0,0 0.09,-0.28 0.42,-0.41c2.37,-1.76 4.48,-3.3 6.41,-5.03c4.98,-4.5 10.01,-8.95 14.78,-13.65c4.58,-4.53 8.92,-9.29 13.25,-14.06c5.13,-5.67 10.18,-11.43 15.15,-17.24c0.63,-0.73 0.54,-2.03 0.84,-3.25c0.26,-0.51 0.48,-0.82 0.88,-0.99c1.02,-1.51 1.87,-3.17 2.76,-4.8c0.05,0.04 -0.04,-0.04 0.24,-0.04c0.67,-1.04 1.07,-2.07 1.54,-3.38c-0.02,-0.79 -0.1,-1.3 -0.17,-1.81c0.14,-0.32 0.27,-0.63 0.77,-1.18c1.24,-1.67 2.11,-3.11 3.21,-4.52c0.48,1.36 0.71,2.67 1.07,4.69c1.56,-4.55 1.33,-6.16 -0.82,-7.97c-0.26,-5.46 -0.24,-10.7 -0.7,-15.89c-0.12,-1.31 -1.78,-2.48 -2.86,-3.78c-0.12,-0.07 -0.39,0.04 -0.39,0.04z" fill="#000000" id="svg_6" opacity="1"/>
  <path d="m287.23,386.68c-0.6,0.49 -1.19,0.98 -2.13,1.71c-1.47,1.43 -2.61,2.62 -3.75,3.82c-0.39,0.15 -0.78,0.32 -1.57,0.65c-2.24,1.62 -4.08,3.06 -6.24,4.52c-3.12,0.77 -5.94,1.52 -8.77,1.96c-2,-3.72 -4.64,-1.29 -7.04,-1.06c1.88,0.54 3.77,1.08 5.47,1.81c-9.19,4.72 -17.97,1.65 -26.73,-0.62c-2.25,-0.58 -4.62,-1.28 -6.51,-2.53c-8.06,-5.3 -15.46,-11.32 -18.94,-20.58c-1.39,-3.69 -2.34,-7.52 -3.19,-11.3c2.27,-1.86 2.47,-11.38 0.57,-13.12c-0.15,-0.14 -0.48,-0.1 -0.83,-0.39c-0.02,-1.93 0.05,-3.61 0.36,-5.39c1.49,-2.8 2.76,-5.48 4.21,-8.29c0.51,-0.57 0.86,-1.02 1.51,-1.43c5.15,-0.32 5.56,-1.04 4.52,-7.53c-0.06,-0.29 -0.13,-0.4 -0.08,-0.68c0.51,-0.57 0.92,-0.97 1.58,-1.37c1.82,-0.44 3.38,-0.88 4.98,-1.05c1.34,2.59 3.4,2.28 5.2,1.32c2.03,-1.08 2.01,-2.77 0.73,-4.66c-0.49,-0.71 -0.33,-1.84 -0.45,-2.79c0.01,-0.01 0.02,-0.02 0.33,-0.01c3.42,-0.27 6.52,-0.56 9.61,-0.84c5.27,-0.48 6.95,-2.89 5.44,-7.57c-0.37,-1.15 -0.29,-2.42 -0.42,-3.64c0.3,-0.13 0.61,-0.26 0.91,-0.39c1.07,1.16 2.18,2.28 3.18,3.48c1.54,1.83 3.16,1.6 4.92,0.37c1.93,-1.35 1.97,-3.03 0.79,-4.78c-1.42,-2.13 -3.13,-4.08 -4.45,-6.26c-1.47,-2.41 -2.67,-4.99 -3.92,-7.79c0.02,-0.72 -0.02,-1.14 -0.03,-1.81c0.57,-1.25 1.13,-2.23 1.88,-3.28c0.55,-0.27 0.92,-0.47 1.43,-0.49c0.75,0.35 1.35,0.54 2.06,0.76c0.13,0.04 0.39,0 0.4,0.24c0.1,0.55 0.19,0.86 0.27,1.44c1.51,2.03 3.04,3.8 4.65,5.69c0.09,0.11 0.25,0.35 0.16,0.65c0.39,4.2 0.95,8.09 1.35,11.99c0.19,1.81 -0.27,3.75 0.23,5.44c0.36,1.18 1.85,2.03 3.13,3.08c1.08,0.05 1.87,0.04 2.65,0.03c0.36,0.05 0.71,0.1 1.49,0.32c0.87,0.15 1.32,0.1 1.76,0.07c0,0 -0.02,0.06 -0.04,0.36c2,1.33 4.02,2.37 6.16,3.63c1.54,0.62 2.94,0.99 4.34,1.37c0.45,0.36 0.88,0.71 1.48,1.58c0.29,0.67 0.44,0.83 0.56,0.97c-0.02,-0.02 -0.07,-0.09 -0.06,0.07c0.02,0.16 0.2,0.41 0.25,0.65c0.8,0.79 1.55,1.33 2.54,1.95c0.56,0.06 0.88,0.04 1.2,0.02c0.33,0.28 0.65,0.57 0.98,1.28c0.94,1.83 1.88,3.24 2.82,4.92c0.76,1.04 1.52,1.79 2.36,2.81c1.12,2.92 2.15,5.57 3.12,8.53c0.66,1.43 1.39,2.56 2.24,3.86c0.31,0.29 0.52,0.43 0.73,0.56c0.02,0.53 0.04,1.06 -0.05,2.12c-0.18,1.14 -0.26,1.73 -0.63,2.34c-1.98,1.72 -2.37,8.51 -0.82,10.07c0.2,0.2 0.71,0.11 1.16,0.44c0.2,0.87 0.31,1.46 0.42,2.04c-0.09,0.53 -0.17,1.05 -0.64,1.82c-1.09,1.98 -1.81,3.7 -2.52,5.71c0.05,0.83 0.1,1.39 0.02,2.1c-0.16,0.41 -0.21,0.67 -0.49,1c-0.6,0.66 -0.95,1.25 -1.47,2.06c-0.48,1.28 -0.8,2.33 -1.38,3.42c-1.22,1.5 -2.19,2.96 -3.16,4.5c-0.02,0.07 0.12,0.14 0.12,0.14m-12.71,-46.88c0,0 -0.25,-0.01 -0.33,-0.43c-0.08,-0.27 -0.17,-0.54 -0.3,-1.31c-5.89,-6.32 -13.11,-9.84 -22,-9.61c-4.44,0.11 -8.55,0.44 -12.73,3.08c-3.33,2.11 -7.4,3 -9.31,6.96c0,0 -0.05,0.03 -0.56,0.15c-1.82,2.51 -3.68,4.99 -5.45,7.54c-1.18,1.7 -2.23,3.48 -3.77,4.77c-0.71,0.28 -2.03,0.54 -2.03,0.83c-0.08,4.49 -0.05,8.98 0.11,13.47c0.02,0.61 0.82,1.2 1.57,2.21c0.33,-1.29 0.51,-1.98 1.2,-2.5c0.82,1.39 1.85,2.7 2.41,4.18c1.25,3.29 2.06,6.81 6.38,8.22c0,0 0.17,0.29 0,0.59c0,0 0.02,0.35 -0.2,0.67c0.45,0.33 0.89,0.66 1.57,1.45c0.92,0.35 1.85,0.71 3.05,1.22c0,0 0.29,0.14 0.38,0.65c0.72,2.79 2.92,3.32 5.88,3.75c1.32,0.24 2.65,0.48 4.61,0.85c1.71,0.1 3.41,0.18 5.47,0.65c1.48,-0.12 2.96,-0.26 5.02,-0.32c0.77,-0.09 1.54,-0.18 2.91,-0.01c4.02,0.41 7.06,-1.72 9.91,-3.95c2.78,-2.17 5.55,-4.47 7.83,-7.11c1.57,-1.81 2.28,-4.3 3.54,-7.05c0.11,-0.98 0.2,-1.95 0.67,-3.02c0.18,-0.17 0.31,-0.37 0.86,-0.65c0.6,-0.24 1.19,-0.48 2.17,-0.43c0.33,0.55 0.67,1.1 1.08,1.79c2.33,-3.69 2.07,-14.11 -0.44,-16.52c-0.18,1.33 -0.33,2.48 -0.95,3.42c-0.8,-0.73 -1.61,-1.46 -2.52,-2.54c-0.08,-0.26 -0.26,-0.41 -0.57,-0.99c-0.18,-0.72 -0.37,-1.44 -0.29,-2.65c-0.06,-0.35 -0.11,-0.71 0,-1.52c-0.4,-0.41 -0.8,-0.82 -1.34,-1.54c-0.14,-0.19 -0.31,-0.34 -0.61,-0.98c-1.01,-1.07 -2.01,-2.13 -3.22,-3.35m-30.53,57.62c-1.48,0.07 -2.96,0.13 -4.45,0.19c0.03,0.3 0.05,0.59 0.08,0.89c2.93,0 5.85,0 8.78,0c0.01,-0.29 0.02,-0.59 0.04,-0.9c-1.26,-0.06 -2.51,-0.12 -4.44,-0.18z" fill="#000000" id="svg_7" opacity="1"/>
  <path d="m268.76,351.84c0.01,0.31 0.02,0.62 -0.01,1.51c-0.21,5.66 0.78,10.75 -3.06,15.43c-3.6,4.41 -13.56,8.73 -18.54,6.4c-6.81,-3.19 -12.3,-7.41 -12.6,-15.92c-0.36,-10.25 6.29,-16.81 16,-17.68c8.41,-0.75 13.81,4.01 18.2,10.26z" fill="#307CC4" id="svg_282" opacity="1"/>
  <ellipse cx="252.5" cy="358" fill="#000000" id="svg_289" rx="44.5" ry="43"/>
  <ellipse cx="252.5" cy="358.5" fill="#ffffff" id="svg_290" rx="28.5" ry="27.5"/>
  <ellipse cx="252" cy="358" fill="#00ff00" id="svg_291" rx="16" ry="16"/>
  <path d="m255,261c0,1.61 0,2 0,2.42c0,0.45 0,1.17 0,1.43c-0.01,0.55 -0.02,0.84 -0.11,1.49c-0.05,0.36 -0.21,1.17 -0.33,1.62c-0.12,0.48 -0.26,0.97 -0.42,1.48c-0.16,0.52 -0.32,1.04 -0.49,1.56c-0.16,0.51 -0.48,1.48 -0.63,1.93c-0.14,0.42 -0.26,0.82 -0.39,1.2c-0.12,0.36 -0.22,0.71 -0.33,1.04c-0.1,0.32 -0.3,0.93 -0.4,1.22c-0.2,0.58 -0.3,0.85 -0.5,1.4c-0.1,0.26 -0.4,1.02 -0.6,1.5c-0.19,0.45 -0.39,0.85 -0.63,1.51c-0.12,0.34 -0.17,0.9 -0.17,1.36c0,0.53 0,0.98 0,1.43c0,0.46 0,0.96 0,1.5c0,0.45 0,0.96 0,1.38c0,0.45 0,1.02 0,1.4c0,0.53 0,1 0,1.51c0,0.46 -0.04,0.97 0,1.45c0.04,0.48 0.4,0.89 0.72,1.36c0.3,0.46 0.28,0.98 0.28,1.44c0,0.51 0.03,0.89 0.28,1.41c0.2,0.41 0.49,0.83 0.63,1.38c0.12,0.45 0.01,1.05 0.09,1.51c0.08,0.49 0.76,0.78 0.98,1.31c0.17,0.42 0.02,0.9 0.02,1.41c0,0.41 0,0.89 0,1.41c0,0.41 0,0.85 0,1.57c0,0.25 0,0.76 0.04,1.26c0.04,0.48 0.17,1.15 0.32,1.54c0.13,0.36 0.42,0.83 0.56,1.37c0.12,0.47 0.09,1.02 0.09,1.45c0,0.54 0,0.96 0,1.45c0,0.41 0,0.95 0,1.38l0,0.54l0,0.52" fill="none" id="svg_295" stroke="#000000" stroke-width="9"/>
  <path d="m253,270c1.22,-0.88 2.21,-1.12 2.64,-1.7c0.56,-0.76 1.09,-1.11 1.96,-1.33c0.86,-0.22 1.65,-0.76 2.4,-1.13c0.76,-0.37 1.56,-0.51 2.39,-0.84c0.79,-0.32 1.41,-0.63 2.17,-1.03c0.76,-0.4 1.14,-1.19 1.6,-1.96c0.43,-0.72 1.37,-0.93 2.13,-1.35c0.84,-0.46 1.67,-0.86 2.3,-1.22c0.85,-0.49 1.28,-1.02 1.84,-1.83c0.47,-0.68 1.16,-1.2 1.86,-1.9c0.5,-0.5 1.22,-1.15 2,-1.65c0.7,-0.45 1.19,-1.16 1.76,-1.7c0.58,-0.55 1.4,-1.19 1.66,-1.87c0.37,-0.95 0.46,-1.83 0.83,-2.5c0.56,-1.02 1.09,-1.6 1.67,-2.14c0.76,-0.71 1.35,-1.14 2.13,-1.47c0.99,-0.42 1.81,-0.72 2.46,-1.08c0.8,-0.44 1.12,-1.23 1.81,-1.85c0.66,-0.58 1.27,-1.15 2,-1.43c0.89,-0.34 1.59,-0.49 2.22,-1.18c0.55,-0.6 0.91,-1.44 1.6,-1.8c0.77,-0.39 1.71,-0.4 2.36,-0.75c0.85,-0.45 1.72,-0.74 2.5,-1.23c0.7,-0.44 1.12,-1.14 1.76,-1.7c0.6,-0.53 1.19,-1.15 2.05,-1.35c0.84,-0.2 1.25,-0.95 1.9,-1.5c0.61,-0.52 1.38,-0.96 2.2,-1.42c0.7,-0.4 0.55,-1.47 1.16,-2.03c0.58,-0.53 1.5,-0.8 2.03,-1.45c0.6,-0.74 0.9,-1.66 1.26,-2.3c0.46,-0.82 1.13,-1.3 1.35,-2.1c0.24,-0.88 0.93,-0.81 1.72,-1.28c0.8,-0.49 1.07,-1.3 1.29,-2.11c0.21,-0.8 0.94,-1.38 1.61,-1.83c0.74,-0.5 1.48,-0.9 1.95,-1.57c0.56,-0.81 0.89,-1.54 1.52,-2.12c0.65,-0.59 0.95,-1.42 1.62,-1.93c0.68,-0.52 1.32,-0.97 1.73,-1.75l0.76,-0.53l0.75,-0.44" fill="none" id="svg_296" stroke="#000000" stroke-width="12"/>
  <path d="m231,237c1.8,0 2.39,-0.31 3.17,-0.83c0.71,-0.47 1.63,-0.14 2.53,-0.17c0.94,-0.03 1.35,-0.86 2.3,-1c0.79,-0.12 1.7,0 2.6,0c0.9,0 1.8,0 2.7,0c0.9,0 1.83,-0.15 2.5,0.09c0.89,0.31 1.6,0.9 2.5,0.91c0.9,0.02 1.45,0.63 2.22,0.98c0.8,0.36 1.78,0.02 2.68,0.02c0.9,0 1.8,0 2.6,0c0.9,0 1.8,0 2.7,0c0.9,0 1.8,0 2.7,0c0.9,0 1.8,0 2.6,0l0.9,0l0.9,0l0.9,0" fill="none" id="svg_297" stroke="#000000" stroke-width="5"/>
  <path d="m136,153c0,-1 0,-1.8 0,-2.67c0,-0.87 0,-1.83 0,-2.56c0,-1.11 0,-1.93 0,-2.77c0,-0.98 0,-1.8 0,-2.7c0,-0.9 0,-1.8 0,-2.7c0,-0.9 0,-1.8 0,-2.7c0,-0.9 0,-1.7 0,-2.6c0,-0.9 0,-1.8 0,-2.7c0,-0.9 0,-1.8 0,-2.7c0,-0.9 0,-1.7 0,-2.6c0,-0.9 0,-1.8 0,-2.7c0,-0.9 0,-1.8 0,-2.7c0,-0.9 0,-1.7 0.09,-2.61l0.39,-0.31l-0.53,-0.63" fill="#000000" id="svg_298" stroke="#000000" stroke-width="14"/>
 </g>
</svg>