<?xml version="1.0"?>
<svg width="500" height="500" xmlns="http://www.w3.org/2000/svg" xmlns:svg="http://www.w3.org/2000/svg" preserveAspectRatio="xMidYMid meet" version="1.0">
 <!-- Created with SVG-edit - https://github.com/SVG-Edit/svgedit-->

 <g class="layer">
  <title>Layer 1</title>
  <path d="m236.67,25.02l17.51,0l16.16,4.47l10.77,7.82l5.39,5.58l4.04,7.82l1.35,6.7l0,12.29l-1.35,7.82l-5.39,8.94l-2.69,0l0,2.23l-9.43,3.35l-10.77,3.35l-6.73,5.58l-4.04,1.12l-13.47,0l-12.12,-2.23l0,-2.23l-8.08,-2.23l0,-2.23l-5.39,-2.23l-8.08,-8.94l-4.04,-5.58l0,-25.69l9.43,-13.4l10.77,-7.82l16.16,-4.47z" fill="#000000" id="svg_4"/>
  <path d="m158.56,74.16l12.12,0l12.12,5.58l2.69,5.58l5.39,5.58l5.39,8.94l4.04,4.47l6.73,10.05l8.08,11.17l6.73,10.05l4.04,2.23l2.69,5.58l6.73,7.82l4.04,6.7l5.39,5.58l8.08,2.23l4.04,3.35l13.47,6.7l10.77,4.47l0,2.23l6.73,2.23l8.08,3.35l0,2.23l6.73,1.12l6.73,5.58l2.69,2.23l0,15.64l-8.08,7.82l-9.43,2.23l-6.73,0l-9.43,-3.35l-9.43,-5.58l-6.73,-2.23l-10.77,-5.58l-9.43,-5.58l-8.08,-2.23l0,-2.23l-6.73,-2.23l-8.08,-3.35l-10.77,-6.7l-6.73,-10.05l-6.73,-10.05l-2.69,-1.12l-1.35,-6.7l-2.69,0l-2.69,-4.47l-5.39,1.12l-10.77,16.75l-5.39,10.05l-6.73,13.4l-5.39,14.52l-2.69,6.7l-1.35,11.17l-2.69,5.58l-2.69,14.52l0,7.82l5.39,10.05l5.39,14.52l4.04,7.82l5.39,14.52l4.04,10.05l5.39,11.17l2.69,6.7l4.04,14.52l0,25.69l-2.69,30.16l-1.35,23.46l-1.35,7.82l-5.39,5.58l-8.08,3.35l-10.77,1.12l-13.47,-2.23l-5.39,-2.23l-6.73,-11.17l2.69,-31.28l2.69,-31.28l0,-16.75l-6.73,-13.4l-4.04,-10.05l-4.04,-7.82l-5.39,-17.87l-4.04,-4.47l-1.35,-6.7l-6.73,-2.23l0,11.17l-2.69,1.12l-33.67,-7.82l-5.39,-4.47l1.35,-34.63l-6.73,2.23l-2.69,2.23l-5.39,0l0,-7.82l4.04,-23.46l5.39,-15.64l4.04,-14.52l8.08,-20.11l6.73,-12.29l4.04,-7.82l10.77,-15.64l8.08,-11.17l8.08,-10.05l4.04,-3.35l8.08,-7.82l6.73,-5.58l6.73,-5.58l9.43,-6.7l12.12,-7.82l10.77,-4.47z" fill="#000000" id="svg_5"/>
  <path d="m336.33,210.43l9.43,1.12l1.35,3.35l8.08,1.12l5.39,4.47l10.77,7.82l6.73,5.58l0,2.23l4.04,1.12l6.73,10.05l5.39,11.17l2.69,12.29l1.35,94.94l9.43,2.23l12.12,7.82l5.39,5.58l6.73,13.4l1.35,4.47l0,7.82l-6.73,14.52l-5.39,6.7l-12.12,8.94l-10.77,3.35l-16.16,1.12l-9.43,-1.12l-12.12,-4.47l-5.39,-3.35l0,-2.23l-5.39,-2.23l-6.73,-7.82l-4.04,-6.7l0,-22.34l9.43,-13.4l6.73,-5.58l9.43,-5.58l8.08,-1.12l0,-34.63l-2.69,-1.12l-61.95,1.12l-2.69,6.7l-2.69,16.75l-5.39,17.87l-2.69,15.64l-5.39,17.87l-4.04,18.99l-4.04,14.52l-4.04,2.23l-17.51,0l-2.69,-3.35l2.69,-7.82l1.35,-11.17l5.39,-16.75l5.39,-23.46l5.39,-20.11l1.35,-11.17l5.39,-17.87l4.04,-18.99l5.39,-16.75l2.69,-16.75l5.39,-17.87l2.69,-11.17l6.73,-7.82l6.73,-11.17l9.43,-13.4l4.04,-4.47l5.39,-1.12zm5.39,24.57l-4.04,3.35l-8.08,12.29l-5.39,7.82l-2.69,8.94l-2.69,16.75l-5.39,16.75l-1.35,6.7l4.04,2.23l56.56,0l1.35,-2.23l0,-36.86l-2.69,-10.05l-9.43,-13.4l-6.73,-6.7l-4.04,-3.35l-5.39,-2.23l-4.04,0zm39.06,147.44l-6.73,2.23l-8.08,4.47l-5.39,11.17l2.69,10.05l2.69,5.58l5.39,2.23l4.04,3.35l4.04,1.12l12.12,0l8.08,-3.35l0,-2.23l5.39,-2.23l2.69,-3.35l1.35,-12.29l-2.69,-7.82l-12.12,-7.82l-4.04,-1.12l-9.43,0z" fill="#00ff00" id="svg_6"/>
  <path d="m56.2,299.79l13.47,2.23l25.59,5.58l5.39,1.12l4.04,7.82l2.69,20.11l0,18.99l-2.69,16.75l-6.73,21.22l-2.69,15.64l-2.69,6.7l-5.39,17.87l-6.73,4.47l-4.04,2.23l-13.47,1.12l-9.43,-1.12l-8.08,-3.35l-5.39,-8.94l0,-8.94l4.04,-17.87l5.39,-20.11l2.69,-8.94l1.35,-10.05l4.04,-11.17l0,-18.99l10.77,-5.58l-1.35,-4.47l-12.12,-12.29l-1.35,-7.82l2.69,-2.23z" fill="#000000" id="svg_7"/>
 </g>
</svg>