<?xml version="1.0"?>
<svg width="500" height="500" xmlns="http://www.w3.org/2000/svg" xmlns:svg="http://www.w3.org/2000/svg" preserveAspectRatio="xMidYMid meet" version="1.0">
 <!-- Created with SVG-edit - https://github.com/SVG-Edit/svgedit-->

 <g class="layer">
  <title>Layer 1</title>
  <path d="m221.95,32.64l10.7,0l13.91,1.1l24.61,8.83l7.49,4.41l8.56,3.31l8.56,4.41l16.05,6.62l17.12,2.21l36.39,-1.1l18.19,0l12.84,1.1l10.7,5.52l6.42,2.21l4.28,4.41l5.35,4.41l6.42,9.93l5.35,9.93l3.21,17.65l0,12.14l-4.28,23.17l-5.35,9.93l-1.07,4.41l-5.35,5.52l-5.35,5.52l-7.49,6.62l-9.63,5.52l-11.77,2.21l-10.7,0l-12.84,-3.31l-6.42,-5.52l-5.35,-5.52l-4.28,-5.52l-2.14,-5.52l-5.35,-8.83l-2.14,-5.52l-3.21,-5.52l0,-2.21l7.49,-5.52l4.28,0l1.07,4.41l6.42,2.21l7.49,3.31l8.56,2.21l16.05,2.21l2.14,1.1l10.7,0l10.7,-5.52l6.42,-12.14l2.14,-7.72l0,-13.24l-3.21,-11.03l-6.42,-11.03l-6.42,-5.52l-7.49,-3.31l-4.28,-2.21l-6.42,-1.1l-17.12,0l-11.77,2.21l-10.7,3.31l-7.49,6.62l-3.21,5.52l-2.14,7.72l0,7.72l2.14,11.03l0,5.52l-7.49,2.21l-7.49,0l0,9.93l6.42,1.1l0,19.86l-3.21,11.03l-4.28,16.55l-5.35,8.83l-3.21,5.52l-6.42,8.83l-4.28,4.41l-2.14,0l-1.07,4.41l-4.28,5.52l-4.28,16.55l-1.07,52.95l-3.21,17.65l-2.14,6.62l-7.49,12.14l-1.07,1.1l0,39.72l4.28,19.86l8.56,17.65l0,7.72l-5.35,5.52l-5.35,1.1l-5.35,-3.31l-4.28,-6.62l-3.21,-5.52l-5.35,-19.86l-2.14,-4.41l-1.07,-13.24l0,-45.23l2.14,-5.52l4.28,-3.31l2.14,-5.52l2.14,0l2.14,-11.03l1.07,-3.31l1.07,-61.78l2.14,-8.83l6.42,-14.34l5.35,-6.62l2.14,-4.41l5.35,-4.41l1.07,-3.31l5.35,-5.52l4.28,-9.93l3.21,-7.72l2.14,-20.96l2.14,-22.06l1.07,-14.34l2.14,-11.03l1.07,-8.83l3.21,-2.21l8.56,0l-1.07,-8.83l-7.49,-4.41l-10.7,-2.21l-9.63,-3.31l-11.77,-5.52l-14.98,-7.72l-14.98,-6.62l-21.4,-4.41l-9.63,0l-20.33,4.41l-13.91,6.62l-6.42,2.21l-10.7,5.52l-10.7,5.52l-7.49,2.21l-13.91,4.41l1.07,7.72l4.28,9.93l2.14,22.06l3.21,36.41l3.21,15.44l2.14,7.72l7.49,14.34l6.42,7.72l5.35,5.52l7.49,11.03l5.35,17.65l1.07,3.31l1.07,60.68l2.14,8.83l3.21,6.62l3.21,5.52l4.28,3.31l1.07,3.31l0,46.33l-4.28,19.86l-4.28,14.34l-7.49,13.24l-5.35,4.41l-6.42,-1.1l-5.35,-6.62l1.07,-7.72l6.42,-13.24l3.21,-9.93l2.14,-14.34l0,-37.51l-2.14,-5.52l-2.14,-1.1l-3.21,-6.62l-3.21,-8.83l-3.21,-20.96l-1.07,-45.23l-2.14,-15.44l-3.21,-6.62l-2.14,-1.1l-2.14,-5.52l-3.21,-2.21l0,-2.21l-2.14,0l-1.07,-3.31l-5.35,-5.52l-5.35,-9.93l-2.14,-1.1l-6.42,-22.06l-1.07,-1.1l-2.14,-33.1l-5.35,0l-2.14,5.52l-2.14,0l-2.14,4.41l-8.56,17.65l-4.28,6.62l-2.14,0l-2.14,5.52l-10.7,8.83l-9.63,3.31l-13.91,0l-13.91,-3.31l-11.77,-8.83l-5.35,-5.52l-6.42,-8.83l-6.42,-12.14l-3.21,-12.14l-1.07,-7.72l0,-19.86l4.28,-19.86l4.28,-5.52l6.42,-9.93l11.77,-8.83l12.84,-5.52l1.07,-1.1l12.84,-1.1l18.19,0l24.61,1.1l14.98,0l11.77,-1.1l11.77,-4.41l9.63,-4.41l9.63,-5.52l10.7,-4.41l6.42,-3.31l13.91,-4.41l5.35,-2.21l13.91,-1.1zm-150.9,48.54l-7.49,2.21l-9.63,3.31l-4.28,3.31l0,2.21l-5.35,2.21l-2.14,5.52l-2.14,1.1l-3.21,7.72l-1.07,5.52l0,18.75l4.28,11.03l7.49,8.83l7.49,3.31l10.7,0l6.42,-2.21l20.33,-2.21l8.56,-3.31l0,-2.21l5.35,-2.21l5.35,-5.52l4.28,-5.52l7.49,-12.14l0,-18.75l-5.35,-8.83l-2.14,0l-2.14,-4.41l-5.35,-3.31l-8.56,-3.31l-8.56,-1.1l-20.33,0z" fill="#000000" id="svg_4"/>
  <path d="m280.81,88.91l12.84,0l3.21,1.1l1.07,9.93l-3.21,5.52l-4.28,3.31l-6.42,12.14l-1.07,31.99l-2.14,9.93l-3.21,11.03l-4.28,9.93l-3.21,6.62l-3.21,6.62l-5.35,5.52l-7.49,11.03l-5.35,11.03l-1.07,3.31l0,81.64l2.14,4.41l0,5.52l-4.28,3.31l-5.35,-1.1l-4.28,-5.52l-1.07,-5.52l0,-83.84l2.14,-8.83l4.28,-9.93l2.14,-3.31l2.14,0l2.14,-6.62l4.28,-4.41l2.14,-4.41l3.21,-3.31l5.35,-11.03l4.28,-9.93l1.07,-9.93l1.07,-26.48l3.21,-15.44l2.14,-7.72l0,-2.21l-21.4,4.41l-51.37,0l-17.12,-3.31l-3.21,0l1.07,8.83l2.14,5.52l2.14,35.3l4.28,17.65l5.35,11.03l3.21,5.52l0,2.21l3.21,1.1l1.07,5.52l4.28,2.21l8.56,13.24l3.21,11.03l1.07,9.93l0,73.91l-3.21,11.03l-3.21,3.31l-4.28,1.1l-5.35,-4.41l1.07,-6.62l2.14,-6.62l-1.07,-77.22l-2.14,-7.72l-6.42,-11.03l-3.21,-3.31l-4.28,-6.62l-2.14,-1.1l-5.35,-11.03l-5.35,-11.03l-4.28,-13.24l-1.07,-31.99l-2.14,-11.03l-5.35,-11.03l-10.7,-8.83l-1.07,-5.52l4.28,-4.41l22.47,0l12.84,2.21l28.89,2.21l10.7,0l28.89,-2.21l19.26,-3.31z" fill="#00ff00" id="svg_5"/>
 </g>
</svg>