<?xml version="1.0"?>
<svg width="500" height="500" xmlns="http://www.w3.org/2000/svg" xmlns:svg="http://www.w3.org/2000/svg" preserveAspectRatio="xMidYMid meet" version="1.0">
 <!-- Created with SVG-edit - https://github.com/SVG-Edit/svgedit-->

 <g class="layer">
  <title>Layer 1</title>
  <path d="m129.53,29.72l5.78,2.26l7.22,6.77l0,3.39l4.33,1.13l11.55,13.54l4.33,5.64l8.66,10.16l2.89,9.03l1.44,3.39l0,10.16l-5.78,13.54l-10.11,9.03l-17.33,5.64l-4.33,1.13l-13,0l-13,-3.39l0,-2.26l-8.66,-1.13l-5.78,-5.64l-4.33,-3.39l-4.33,-7.9l-1.44,-5.64l0,-9.03l5.78,-14.67l8.66,-11.28l4.33,-5.64l5.78,-5.64l4.33,-5.64l4.33,-3.39l2.89,-5.64l5.78,-4.51z" fill="#00ff00" id="svg_4"/>
  <path d="m285.47,43.26l4.33,1.13l8.66,7.9l2.89,4.51l5.78,4.51l1.44,4.51l2.89,0l7.22,7.9l4.33,5.64l4.33,3.39l1.44,5.64l2.89,0l7.22,10.16l8.66,11.28l4.33,7.9l4.33,7.9l1.44,5.64l0,16.93l-1.44,7.9l-2.89,0l-1.44,5.64l-1.44,2.26l-2.89,0l-1.44,6.77l-7.22,5.64l-4.33,3.39l-10.11,6.77l-25.99,6.77l-15.88,1.13l-23.1,-4.51l-10.11,-3.39l-4.33,-3.39l-8.66,-4.51l-14.44,-15.8l-5.78,-16.93l0,-12.41l5.78,-15.8l7.22,-10.16l2.89,-5.64l7.22,-9.03l2.89,-4.51l2.89,0l2.89,-5.64l8.66,-10.16l8.66,-9.03l5.78,-6.77l2.89,0l2.89,-4.51l5.78,-6.77l2.89,-2.26zm8.66,32.72l-7.22,2.26l-5.78,6.77l-1.44,3.39l0,16.93l14.44,0l1.44,-16.93l18.77,0l1.44,-1.13l0,-9.03l-10.11,-2.26l-11.55,0zm33.21,32.72l-1.44,14.67l-1.44,2.26l-18.77,1.13l-1.44,2.26l0,6.77l5.78,2.26l20.22,0l7.22,-4.51l4.33,-7.9l1.44,-11.28l-1.44,-4.51l-2.89,-1.13l-11.55,0z" fill="#00ff00" id="svg_5"/>
  <path d="m172.84,168.51l7.22,1.13l5.78,6.77l0,2.26l4.33,1.13l5.78,6.77l4.33,3.39l4.33,5.64l14.44,14.67l8.66,9.03l13,14.67l4.33,5.64l4.33,2.26l2.89,5.64l8.66,10.16l5.78,6.77l7.22,10.16l0,3.39l4.33,1.13l4.33,7.9l4.33,6.77l4.33,10.16l7.22,14.67l1.44,19.18l-1.44,16.93l-5.78,13.54l-5.78,10.16l-10.11,12.41l-7.22,6.77l-4.33,3.39l-5.78,4.51l-1.44,2.26l-8.66,3.39l-7.22,4.51l-14.44,5.64l-5.78,2.26l-11.55,2.26l-20.22,3.39l-15.88,1.13l-27.43,-3.39l-7.22,-2.26l-13,-2.26l-20.22,-9.03l-7.22,-4.51l-4.33,-1.13l-5.78,-5.64l-5.78,-4.51l-7.22,-5.64l-2.89,-6.77l-2.89,0l-5.78,-6.77l-7.22,-15.8l-2.89,-6.77l-1.44,-12.41l0,-14.67l2.89,-15.8l7.22,-12.41l2.89,-6.77l7.22,-11.28l7.22,-10.16l5.78,-9.03l10.11,-11.28l5.78,-6.77l4.33,-5.64l4.33,-3.39l7.22,-10.16l4.33,-1.13l2.89,-6.77l5.78,-4.51l2.89,-4.51l2.89,0l2.89,-4.51l8.66,-10.16l2.89,0l2.89,-6.77l5.78,-3.39l4.33,-5.64l8.66,-10.16zm-89.52,155.71l-5.78,5.64l-2.89,9.03l4.33,16.93l7.22,13.54l13,15.8l7.22,5.64l7.22,2.26l1.44,3.39l13,5.64l13,5.64l28.88,4.51l11.55,-1.13l0,-2.26l5.78,-1.13l2.89,-3.39l0,-6.77l-2.89,-4.51l-7.22,-3.39l-21.66,-2.26l-7.22,-2.26l-10.11,-2.26l-7.22,-2.26l-1.44,-3.39l-7.22,-3.39l-4.33,-4.51l-2.89,0l-2.89,-4.51l-10.11,-19.18l-1.44,-14.67l-5.78,-5.64l-2.89,-1.13l-11.55,0z" fill="#00ff00" id="svg_6"/>
 </g>
</svg>