<?xml version="1.0"?>
<svg width="500" height="500" xmlns="http://www.w3.org/2000/svg" xmlns:svg="http://www.w3.org/2000/svg" preserveAspectRatio="xMidYMid meet" version="1.0">
 <!-- Created with SVG-edit - https://github.com/SVG-Edit/svgedit-->

 <g class="layer">
  <title>Layer 1</title>
  <path d="m216.82,174.91c19.64,-0.89 29.25,-12.54 37.49,-25.2c5.84,-8.95 9.02,-18.84 10.83,-28.87c3.49,-19.28 -1.67,-36.49 -20.39,-49.14c-13.09,-8.84 -39.43,-8.78 -51.7,-2.49c-16.16,8.29 -24,20.06 -25.82,35.06c-2.03,16.75 3.08,32.32 12.49,47.16c4.96,7.82 11.3,14.08 19.75,19.37c5.28,3.3 11.04,3.08 16.71,4.12" fill="none" id="svg_5" opacity="1" stroke="#000000" stroke-linecap="round" stroke-linejoin="round" stroke-width="15"/>
  <path d="m266.52,263.24c-65.41,1.07 -130.84,0.31 -196.25,0.5c-2.56,0.01 -5.07,0.24 -7.7,-0.67c-3.08,-1.06 -7.82,2.54 -6.07,4.27c3.33,3.29 0.83,6.33 0.85,9.28c0.24,43.54 0.17,87.07 0.17,130.61c-0.01,6.98 1.04,13.99 -1.21,20.89c-0.25,0.78 0.4,1.77 0.62,2.67c4.63,1.89 9.21,-0.52 13.98,-0.33c6.45,0.25 13.24,0.59 19.78,-1.17c3.34,-0.89 6.44,1.63 10.16,1.62c85.8,-0.15 171.62,-0.12 257.42,-0.12c6.16,0 12.32,0 18.54,0c1.24,-1.11 0.54,-2.51 0.54,-3.75c0.05,-26.58 0.05,-53.18 0.03,-79.76c0,-1.83 0.6,-3.81 -1.26,-5.35" fill="none" id="svg_6" opacity="1" stroke="#00ff00" stroke-linecap="round" stroke-linejoin="round" stroke-width="4"/>
  <path d="m331.52,288.13c4.08,1.61 3.38,5.21 3.63,7.77c2.15,21.02 5.71,41.96 4.74,63.15c-0.66,14.3 -2,28.56 -3.19,42.83c-0.2,2.46 -2.63,2.32 -3.91,3.47" fill="none" id="svg_7" opacity="1" stroke="#000000" stroke-linecap="round" stroke-linejoin="round" stroke-width="16"/>
  <path d="m99.58,289.2c-2.59,7.25 -3.38,14.82 -4.24,22.24c-1.61,13.85 -2.7,27.82 -2.56,41.73c0.17,15.71 2.05,31.4 2.85,47.11c0.14,2.74 1.31,4.11 3.95,5.09" fill="none" id="svg_8" opacity="1" stroke="#000000" stroke-linecap="round" stroke-linejoin="round" stroke-width="16"/>
  <path d="m376.12,332.29c1.98,-1.72 1.25,-3.89 1.25,-5.89c0.04,-19.81 0.01,-39.61 0.05,-59.42c0,-1.72 -0.23,-3.33 -1.43,-4.98c-11.2,3.59 -22.81,1.03 -34.28,1.2c-16.77,0.25 -33.57,-0.59 -50.34,0.3" fill="none" id="svg_9" opacity="1" stroke="#00ff00" stroke-linecap="round" stroke-linejoin="round" stroke-width="3" transform="matrix(1 0 0 1 0 0)"/>
  <path d="m321.96,237.81c-6.87,-2.93 -10.37,-8.88 -16.41,-12.75c-13.3,-8.53 -27.06,-16.43 -41.61,-23.33c-6.45,-3.06 -11.13,-2.26 -16.48,2.66c-6.81,6.24 -12.81,13.03 -20.29,18.84c-6.07,4.71 -15.74,4.66 -21.38,0.03c-7.79,-6.37 -15.28,-12.96 -21.88,-20.12c-3.53,-3.84 -7.23,-3.88 -10.97,-2.41c-8.51,3.34 -16.94,6.98 -24.85,11.22c-8.79,4.71 -17.52,9.71 -24.84,16.03c-5.81,5.01 -11.27,10.28 -18.57,13.84" fill="none" id="svg_10" opacity="1" stroke="#000000" stroke-linecap="round" stroke-linejoin="round" stroke-width="15"/>
  <path d="m290.1,333.9c-3.61,0.18 -7.23,0.51 -10.83,0.51c-43.55,0.03 -87.08,0.02 -130.62,0.02" fill="none" id="svg_11" opacity="1" stroke="#00ff00" stroke-linecap="round" stroke-linejoin="round" stroke-width="8"/>
  <path d="m371.02,269.13c0,3.39 -0.06,6.78 0.01,10.17c0.33,16.59 -0.74,33.2 0.57,49.78c0.13,1.69 0.34,3.17 1.96,4.28" fill="none" id="svg_12" opacity="1" stroke="#00ff00" stroke-linecap="round" stroke-linejoin="round" stroke-width="3"/>
  <path d="m207.26,357.45c-1.2,1.11 -2.6,1.87 -4.46,1.6c-8.04,-1.19 -16.36,-1.33 -24.16,-0.28c-14.44,1.93 -29.04,0.55 -43.38,2.7" fill="none" id="svg_13" opacity="1" stroke="#00ff00" stroke-linecap="round" stroke-linejoin="round" stroke-width="5"/>
  <path d="m373.57,340.86c-2.74,2.66 -2.52,5.93 -2.52,9.1c-0.05,17.48 -0.48,34.99 0.17,52.46c0.33,9.3 0.36,18.55 -0.19,27.84" fill="none" id="svg_14" opacity="1" stroke="#00ff00" stroke-linecap="round" stroke-linejoin="round" stroke-width="3"/>
  <path d="m274.17,309.27c-8.75,-1.25 -17.4,0.76 -26.12,0.86c-2.7,0.03 -5.94,0.56 -8.92,0.7c-7.85,0.39 -15.52,1.28 -23.58,4.85c0,5.73 0,11.97 0,18.22" fill="none" id="svg_15" opacity="1" stroke="#00ff00" stroke-linecap="round" stroke-linejoin="round" stroke-width="8"/>
  <path d="m268.43,358.52c-5.85,-2.62 -11.9,-0.47 -17.84,-0.45c-7.65,0.02 -15.29,0.6 -22.94,1c-2.04,0.11 -3.77,-0.26 -5.1,-1.62" fill="none" id="svg_16" opacity="1" stroke="#00ff00" stroke-linecap="round" stroke-linejoin="round" stroke-width="5"/>
  <path d="m204.72,307.67c-4.63,1.1 -9.8,-0.67 -13.93,0.73c-8.74,2.99 -17.46,1.38 -26.21,1.39c-1.77,0 -4.04,0.73 -4.78,-1.58" fill="none" id="svg_17" opacity="1" stroke="#00ff00" stroke-linecap="round" stroke-linejoin="round" stroke-width="6"/>
  <path d="m216.18,380.47c-12.87,0.87 -25.55,2.87 -38.23,4.82" fill="none" id="svg_18" opacity="1" stroke="#00ff00" stroke-linecap="round" stroke-linejoin="round" stroke-width="8"/>
  <path d="m217.46,379.93c9.98,1.42 19.98,2.79 29.94,4.35c1.59,0.25 2.98,1.36 4.47,2.08" fill="none" id="svg_19" opacity="1" stroke="#00ff00" stroke-linecap="round" stroke-linejoin="round" stroke-width="8"/>
  <path d="m215.55,334.97c1.31,10.51 0.31,21.06 0.64,31.58c0.25,8.03 -0.56,16.08 0.64,24.09" fill="none" id="svg_20" opacity="1" stroke="#00ff00" stroke-linecap="round" stroke-linejoin="round" stroke-width="8"/>
  <path d="m212.36,306.6c0.42,5.4 -3.49,7.15 -8.92,6.88c-6.16,-0.3 -12.48,1.34 -18.48,-1" fill="none" id="svg_21" opacity="1" stroke="#00ff00" stroke-linecap="round" stroke-linejoin="round" stroke-width="3"/>
  <path d="m296.47,361.2c-8.5,-0.35 -16.99,-0.72 -25.49,-1.07" fill="none" id="svg_22" opacity="1" stroke="#00ff00" stroke-linecap="round" stroke-linejoin="round" stroke-width="7"/>
  <path d="m110.41,285.19c-2.63,0.27 -5.68,-0.91 -7.65,1.61" fill="none" id="svg_23" opacity="1" stroke="#000000" stroke-linecap="round" stroke-linejoin="round" stroke-width="3"/>
  <path d="m268.43,361.73c-1.54,0.88 -3.06,1.84 -5.1,1.61" fill="none" id="svg_24" opacity="1" stroke="#00ff00" stroke-linecap="round" stroke-linejoin="round" stroke-width="2"/>
 </g>
</svg>