<?xml version="1.0"?>
<svg width="500" height="500" xmlns="http://www.w3.org/2000/svg" xmlns:svg="http://www.w3.org/2000/svg" preserveAspectRatio="xMidYMid meet" version="1.0">
 <!-- Created with SVG-edit - https://github.com/SVG-Edit/svgedit-->

 <g class="layer">
  <title>Layer 1</title>
  <path d="m175.61,167.5c0.08,-6.13 0.15,-12.26 0.23,-18.91c0,-0.79 0,-1.05 0.24,-1.42c1.32,-2.23 2.23,-4.43 3.51,-6.44c2.43,-3.85 5.07,-7.57 7.89,-11.37c0.91,-0.7 1.56,-1.38 2.49,-2.09c9.81,-5.66 20.4,-5.56 31.13,-5.44c19.3,0.22 38.6,0.15 57.9,0.01c7.36,-0.04 14.36,0.53 21.04,4.02c9.34,4.89 14.42,12.68 16.38,21.81c1.41,6.56 0.24,13.6 0.38,20.42c0.05,2.12 -0.97,2.94 -2.97,2.89c-5.85,-0.15 -11.69,-0.39 -17.54,-0.93c-0.08,-6.45 -0.13,-12.55 -0.13,-18.89c0.05,-0.59 0.04,-0.92 0.19,-1.37c0,-0.53 -0.16,-0.93 -0.32,-1.55c-0.19,-0.57 -0.38,-0.94 -0.6,-1.56c-1.56,-1.57 -3.08,-2.89 -4.8,-4.4c-1.11,-0.31 -2.02,-0.43 -2.92,-0.6c0.02,-0.05 0.03,-0.15 -0.07,-0.4c-1.62,-0.7 -3.14,-1.53 -4.65,-1.55c-12.61,-0.1 -25.22,-0.07 -37.82,-0.07c-11.33,0 -22.66,-0.05 -33.98,0.08c-1.47,0.01 -2.92,0.97 -4.63,1.51c-0.79,0.1 -1.32,0.18 -2.11,0.18c-5.3,2.04 -7.77,5.1 -7.44,8.94c-0.1,0.74 -0.15,1.23 -0.45,1.93c-0.15,6.15 -0.05,12.12 -0.28,18.17c-7.05,-0.04 -13.77,-0.18 -20.48,-0.59c-0.05,-0.97 -0.11,-1.68 -0.18,-2.4m107.4,-30.77c-25.48,0 -50.95,0 -76.42,0c0.01,0.33 0.01,0.66 0.02,0.99c26.54,0 53.1,0 79.64,0c0.01,-0.23 0.02,-0.46 0.03,-0.7c-0.85,-0.1 -1.71,-0.2 -3.26,-0.29z" fill="#307CBE" id="svg_15" opacity="1"/>
  <path d="m118.49,185.59c0.33,-0.18 0.63,-0.26 1.14,-0.38c0.79,0.07 1.36,0.18 2.43,0.35c1.93,-0.46 3.35,-0.97 4.77,-1.49c33.71,0.03 67.41,0.07 101.55,0.38c5.48,6.44 13.35,6.2 16.86,-0.23c3.42,-0.01 6.84,-0.03 10.65,0.29c0.55,0.79 0.77,1.25 0.87,1.71c1.76,8.37 0.45,10 -8.53,10.56c-2.91,0.19 -5.03,0.88 -4.61,4.3c0.26,2.12 0.04,4.28 -0.3,6.5c-1.92,0.14 -3.5,0.21 -5.35,0.26c-0.65,0.42 -1.04,0.85 -1.44,1.3c-0.01,0.02 0.04,0.04 -0.2,-0.05c-1.14,0.19 -2.04,0.47 -3.23,0.78c-1.08,0.1 -1.87,0.16 -2.98,0.14c-1.45,0.02 -2.57,0.13 -3.99,0.18c-3.36,1.35 -6.28,3.22 -9.52,4.04c-7.86,1.99 -13.15,7.44 -18.69,12.22c-4.36,3.75 -7.39,8.88 -10.79,13.53c-0.88,1.2 -0.93,2.93 -1.54,4.62c-0.82,0.78 -1.87,1.27 -2.05,1.96c-1.95,7.73 -4.81,15.43 -5.29,23.26c-0.39,6.23 2.1,12.62 3.42,18.93c0.45,2.12 0.84,4.4 1.94,6.25c2.78,4.68 5.82,9.23 9.03,13.67c1.14,1.57 3.06,2.65 4.64,3.95c0.03,-0.01 0.02,0.05 0.05,0.31c0.71,1.4 1.12,2.84 2.13,3.6c3.72,2.84 7.46,5.73 11.54,8.07c4.14,2.38 8.51,4.65 13.1,6.05c5.67,1.73 11.64,2.66 17.54,3.63c2.73,0.45 5.63,0.48 8.39,0.18c4.68,-0.52 9.44,-1.05 13.91,-2.35c3.39,-0.97 7.66,-0.91 9.9,-4.67c0.56,-0.12 0.89,-0.18 1.36,-0.18c0.15,0.07 0.48,0.11 0.66,0.24c0.87,-0.27 1.57,-0.67 2.52,-1.1c1.14,-0.51 2.01,-1.01 3.12,-1.59c0.59,-0.77 0.93,-1.45 1.47,-2.24c0.5,-0.18 0.8,-0.23 1.35,-0.3c1.24,-0.51 2.23,-1.03 3.41,-1.4c1.11,-0.74 2.01,-1.63 3.12,-2.69c6.35,-3.52 9.97,-9.05 13.8,-14.32c1.26,-1.75 1.46,-4.18 2.16,-6.44c0.03,-0.15 0.15,-0.42 0.47,-0.39c4.63,-2.31 3.78,-6.54 4.59,-10.46c-0.06,-1.1 -0.13,-1.9 -0.13,-2.97c0.16,-1.01 0.26,-1.75 0.63,-2.56c1.04,-1.36 2.41,-2.62 2.49,-3.95c0.27,-4.51 0.28,-9.04 -0.03,-13.54c-0.08,-1.1 -1.77,-2.1 -2.78,-3.44c-0.17,-1.26 -0.28,-2.23 -0.29,-3.47c0.1,-0.85 0.1,-1.42 0.29,-2.17c-0.46,-2.43 -1.43,-4.67 -1.67,-6.97c-0.24,-2.29 -1.29,-3.21 -3.61,-3.29c-0.07,0.01 -0.21,0.01 -0.17,-0.27c-0.05,-1.01 -0.15,-1.74 -0.05,-2.62c-0.45,-0.78 -1.09,-1.43 -1.8,-2.21c-0.06,-0.14 -0.18,-0.42 -0.11,-0.7c-0.96,-1.35 -2.01,-2.42 -3.01,-3.52c0.04,-0.02 -0.03,0.04 0.01,-0.23c-0.96,-2.79 -1.83,-5.43 -5.46,-5.95c-1.61,-1.54 -3.16,-2.82 -4.73,-4.37c-0.55,-1.16 -0.84,-2.35 -1.64,-2.87c-8.14,-5.41 -16.44,-10.54 -26.53,-12.44c1.84,-2.83 3.99,-5.25 5.42,-8c2.78,-5.35 2.86,-11.08 1.61,-16.84c31.65,-0.02 63.3,-0.04 95.44,0.18c2.29,0.51 4.08,0.78 5.88,1.05c0.78,0.07 1.56,0.14 2.64,0.19c2.23,1.47 4.19,2.94 6.11,4.48c3.21,2.57 4.84,6.03 5.81,10.2c-0.36,1.57 -0.62,2.64 -0.62,3.71c-0.02,30.75 -0.02,61.51 -0.02,92.26c0,13.88 -0.02,27.76 0.04,41.65c0.01,1.37 0.6,2.73 0.92,4.09c-1.03,9.28 -9.63,16.89 -21.54,16.84c-40.21,-0.14 -80.42,-0.05 -120.64,-0.05c-38.38,0 -76.77,-0.12 -115.15,0.09c-9.15,0.04 -15.66,-3.71 -20.42,-10.38c-1.61,-2.25 -1.67,-5.46 -2.09,-8.61c0.7,-1.68 1.34,-3.01 1.34,-4.33c0.07,-17.8 0.05,-35.59 0.05,-53.39c0,-24.98 0.02,-49.97 -0.07,-74.95c-0.01,-1.29 -1.03,-2.57 -1.59,-3.86c1,-5.72 2.77,-11.06 8.62,-14.72c1.47,-0.94 2.39,-1.86 3.31,-2.78c0,0 0.14,-0.18 0.17,-0.29z" fill="#2D79BD" id="svg_43" opacity="1"/>
  <path d="m231.36,283.54c-0.2,-0.13 -0.42,-0.22 -0.84,-0.62c-0.67,-0.84 -1.15,-1.72 -1.65,-1.73c-5.74,-0.1 -11.48,-0.07 -18.12,-0.07c0,-6.15 0,-13.01 0.37,-19.87c5.71,0 11.06,0.11 16.4,-0.07c1.45,-0.05 2.86,-0.98 4.48,-1.66c0.63,-0.75 1.07,-1.34 1.48,-2.2c-0.13,-0.59 -0.23,-0.93 -0.24,-1.59c0.17,-6.18 0.24,-12.04 0.63,-17.91c3.39,-0.05 6.45,-0.06 9.51,-0.15c3.63,-0.1 7.24,-0.36 10.87,-0.39c1.76,-0.01 3.53,0.34 5.32,0.86c0.02,2.54 0.02,4.75 -0.21,7.08c-0.08,0.78 0.07,1.45 0.23,2.45c0.02,3.03 0.03,5.71 -0.19,8.52c0.08,0.78 0.39,1.46 0.89,2.25c0.6,0.27 1.01,0.42 1.3,0.76c-1.05,2.82 1.4,1.94 2.32,1.96c6.06,0.12 12.12,0.07 18.19,0.28c0.05,0.34 0.07,0.49 0.09,0.88c-0.01,0.75 -0.01,1.25 -0.04,2.06c-0.02,1.14 0.01,1.98 0.03,3.1c-0.01,1.25 0,2.21 -0.03,3.5c0.23,2.1 0.49,3.87 0.74,5.94c-0.01,1.33 -0.01,2.34 -0.3,3.47c-6.34,0.07 -12.43,0.17 -18.48,-0.06c-2.32,-0.08 -3.47,0.34 -3.48,2.82c-0.53,1.44 -0.99,2.7 -1.02,3.96c-0.13,5.79 -0.15,11.58 -0.58,17.37c-8.73,-0.03 -17.07,-0.05 -25.51,-0.4c-0.09,-6.11 -0.01,-11.88 -0.2,-17.65c-0.03,-0.99 -1.28,-1.94 -1.96,-2.92z" fill="#3C4652" id="svg_92" opacity="1"/>
 </g>
</svg>