<?xml version="1.0"?>
<svg width="500" height="500" xmlns="http://www.w3.org/2000/svg" xmlns:svg="http://www.w3.org/2000/svg" preserveAspectRatio="xMidYMid meet" version="1.0">
 <!-- Created with SVG-edit - https://github.com/SVG-Edit/svgedit-->

 <g class="layer">
  <title>Layer 1</title>
  <!-- Created with SVG-edit - https://github.com/SVG-Edit/svgedit-->
  <path d="m169.28,149.1c0.08,-6.86 0.16,-13.72 0.24,-21.16c0,-0.88 0,-1.18 0.25,-1.59c1.39,-2.5 2.34,-4.96 3.68,-7.21c2.55,-4.31 5.32,-8.47 8.28,-12.72c0.96,-0.78 1.64,-1.54 2.61,-2.34c10.3,-6.33 21.42,-6.22 32.68,-6.09c20.26,0.25 40.52,0.17 60.79,0.01c7.73,-0.04 15.08,0.59 22.09,4.5c9.81,5.47 15.14,14.19 17.2,24.41c1.48,7.34 0.25,15.22 0.4,22.85c0.05,2.37 -1.02,3.29 -3.12,3.23c-6.14,-0.17 -12.27,-0.44 -18.41,-1.04c-0.08,-7.22 -0.14,-14.04 -0.14,-21.14c0.05,-0.66 0.04,-1.03 0.2,-1.53c0,-0.59 -0.17,-1.04 -0.34,-1.73c-0.2,-0.64 -0.4,-1.05 -0.63,-1.75c-1.64,-1.76 -3.23,-3.23 -5.04,-4.92c-1.17,-0.35 -2.12,-0.48 -3.07,-0.67c0.02,-0.06 0.03,-0.17 -0.07,-0.45c-1.7,-0.78 -3.3,-1.71 -4.88,-1.73c-13.24,-0.11 -26.48,-0.08 -39.7,-0.08c-11.89,0 -23.79,-0.06 -35.67,0.09c-1.54,0.01 -3.07,1.09 -4.86,1.69c-0.83,0.11 -1.39,0.2 -2.22,0.2c-5.56,2.28 -8.16,5.71 -7.81,10c-0.1,0.83 -0.16,1.38 -0.47,2.16c-0.16,6.88 -0.05,13.56 -0.29,20.33c-7.4,-0.04 -14.46,-0.2 -21.5,-0.66c-0.05,-1.09 -0.12,-1.88 -0.19,-2.69m112.75,-34.43c-26.75,0 -53.49,0 -80.23,0c0.01,0.37 0.01,0.74 0.02,1.11c27.86,0 55.75,0 83.61,0c0.01,-0.26 0.02,-0.51 0.03,-0.78c-0.89,-0.11 -1.8,-0.22 -3.42,-0.32l-0.01,0z" fill="#00ff00" id="svg_8"/>
  <path d="m109.31,169.35c0.35,-0.2 0.66,-0.29 1.2,-0.43c0.83,0.08 1.43,0.2 2.55,0.39c2.03,-0.51 3.52,-1.09 5.01,-1.67c35.39,0.03 70.77,0.08 106.61,0.43c5.75,7.21 14.02,6.94 17.7,-0.26c3.59,-0.01 7.18,-0.03 11.18,0.32c0.58,0.88 0.81,1.4 0.91,1.91c1.85,9.37 0.47,11.19 -8.96,11.82c-3.06,0.21 -5.28,0.98 -4.84,4.81c0.27,2.37 0.04,4.79 -0.31,7.27c-2.02,0.16 -3.67,0.24 -5.62,0.29c-0.68,0.47 -1.09,0.95 -1.51,1.45c-0.01,0.02 0.04,0.04 -0.21,-0.06c-1.2,0.21 -2.14,0.53 -3.39,0.87c-1.13,0.11 -1.96,0.18 -3.13,0.16c-1.52,0.02 -2.7,0.15 -4.19,0.2c-3.53,1.51 -6.59,3.6 -9.99,4.52c-8.25,2.23 -13.81,8.33 -19.62,13.68c-4.58,4.2 -7.76,9.94 -11.33,15.14c-0.92,1.34 -0.98,3.28 -1.62,5.17c-0.86,0.87 -1.96,1.42 -2.15,2.19c-2.05,8.65 -5.05,17.27 -5.55,26.03c-0.41,6.97 2.2,14.12 3.59,21.18c0.47,2.37 0.88,4.92 2.04,6.99c2.92,5.24 6.11,10.33 9.48,15.3c1.2,1.76 3.21,2.97 4.87,4.42c0.03,-0.01 0.02,0.06 0.05,0.35c0.75,1.57 1.18,3.18 2.24,4.03c3.91,3.18 7.83,6.41 12.12,9.03c4.35,2.66 8.93,5.2 13.75,6.77c5.95,1.94 12.22,2.98 18.41,4.06c2.87,0.5 5.91,0.54 8.81,0.2c4.91,-0.58 9.91,-1.18 14.6,-2.63c3.56,-1.09 8.04,-1.02 10.39,-5.23c0.59,-0.13 0.93,-0.2 1.43,-0.2c0.16,0.08 0.5,0.12 0.69,0.27c0.91,-0.3 1.65,-0.75 2.65,-1.23c1.2,-0.57 2.11,-1.13 3.28,-1.78c0.62,-0.86 0.98,-1.62 1.54,-2.51c0.52,-0.2 0.84,-0.26 1.42,-0.34c1.3,-0.57 2.34,-1.15 3.58,-1.57c1.17,-0.83 2.11,-1.82 3.28,-3.01c6.67,-3.94 10.47,-10.13 14.49,-16.03c1.32,-1.96 1.53,-4.68 2.27,-7.21c0.03,-0.17 0.16,-0.47 0.49,-0.44c4.86,-2.59 3.97,-7.32 4.82,-11.71c-0.06,-1.23 -0.14,-2.13 -0.14,-3.32c0.17,-1.13 0.27,-1.96 0.66,-2.86c1.09,-1.52 2.53,-2.93 2.61,-4.42c0.28,-5.05 0.29,-10.12 -0.03,-15.15c-0.08,-1.23 -1.86,-2.35 -2.92,-3.85c-0.18,-1.41 -0.29,-2.5 -0.3,-3.88c0.1,-0.95 0.1,-1.59 0.3,-2.43c-0.48,-2.72 -1.5,-5.23 -1.75,-7.8c-0.25,-2.56 -1.35,-3.59 -3.79,-3.68c-0.07,0.01 -0.22,0.01 -0.18,-0.3c-0.05,-1.13 -0.16,-1.95 -0.05,-2.93c-0.47,-0.87 -1.14,-1.6 -1.89,-2.47c-0.06,-0.16 -0.19,-0.47 -0.12,-0.78c-1.01,-1.51 -2.11,-2.71 -3.16,-3.94c0.04,-0.02 -0.03,0.04 0.01,-0.26c-1.01,-3.12 -1.92,-6.08 -5.73,-6.66c-1.69,-1.72 -3.32,-3.16 -4.97,-4.89c-0.58,-1.3 -0.88,-2.63 -1.72,-3.21c-8.55,-6.05 -17.26,-11.79 -27.85,-13.92c1.93,-3.17 4.19,-5.88 5.69,-8.95c2.92,-5.99 3,-12.4 1.69,-18.85c33.23,-0.02 66.45,-0.04 100.2,0.2c2.4,0.57 4.28,0.87 6.17,1.18c0.82,0.08 1.64,0.16 2.77,0.21c2.34,1.65 4.4,3.29 6.41,5.01c3.37,2.88 5.08,6.75 6.1,11.41c-0.38,1.76 -0.65,2.95 -0.65,4.15c-0.02,34.41 -0.02,68.83 -0.02,103.25c0,15.53 -0.02,31.07 0.04,46.61c0.01,1.53 0.63,3.06 0.97,4.58c-1.08,10.38 -10.11,18.9 -22.61,18.85c-42.21,-0.16 -84.43,-0.06 -126.65,-0.06c-40.29,0 -80.6,-0.13 -120.89,0.1c-9.61,0.04 -16.44,-4.15 -21.44,-11.62c-1.69,-2.52 -1.75,-6.11 -2.19,-9.64c0.73,-1.88 1.41,-3.37 1.41,-4.85c0.07,-19.92 0.05,-39.83 0.05,-59.75c0,-27.95 0.02,-55.92 -0.07,-83.87c-0.01,-1.44 -1.08,-2.88 -1.67,-4.32c1.05,-6.4 2.91,-12.38 9.05,-16.47c1.54,-1.05 2.51,-2.08 3.47,-3.11c0,0 0.15,-0.2 0.18,-0.32l-0.01,0.02z" fill="#00ff00" id="svg_7"/>
  <path d="m227.8,278.96c-0.21,-0.15 -0.44,-0.25 -0.88,-0.69c-0.7,-0.94 -1.21,-1.92 -1.73,-1.94c-6.03,-0.11 -12.05,-0.08 -19.02,-0.08c0,-6.88 0,-14.56 0.39,-22.24c5.99,0 11.61,0.12 17.22,-0.08c1.52,-0.06 3,-1.1 4.7,-1.86c0.66,-0.84 1.12,-1.5 1.55,-2.46c-0.14,-0.66 -0.24,-1.04 -0.25,-1.78c0.18,-6.92 0.25,-13.47 0.66,-20.04c3.56,-0.06 6.77,-0.07 9.98,-0.17c3.81,-0.11 7.6,-0.4 11.41,-0.44c1.85,-0.01 3.71,0.38 5.59,0.96c0.02,2.84 0.02,5.32 -0.22,7.92c-0.08,0.87 0.07,1.62 0.24,2.74c0.02,3.39 0.03,6.39 -0.2,9.53c0.08,0.87 0.41,1.63 0.93,2.52c0.63,0.3 1.06,0.47 1.36,0.85c-1.1,3.16 1.47,2.17 2.44,2.19c6.36,0.13 12.72,0.08 19.1,0.31c0.05,0.38 0.07,0.55 0.09,0.98c-0.01,0.84 -0.01,1.4 -0.04,2.31c-0.02,1.28 0.01,2.22 0.03,3.47c-0.01,1.4 0,2.47 -0.03,3.92c0.24,2.35 0.51,4.33 0.78,6.65c-0.01,1.49 -0.01,2.62 -0.31,3.88c-6.66,0.08 -13.05,0.19 -19.4,-0.07c-2.44,-0.09 -3.64,0.38 -3.65,3.16c-0.56,1.61 -1.04,3.02 -1.07,4.43c-0.14,6.48 -0.16,12.96 -0.61,19.44c-9.17,-0.03 -17.92,-0.06 -26.78,-0.45c-0.09,-6.84 -0.01,-13.29 -0.21,-19.75c-0.03,-1.11 -1.34,-2.17 -2.06,-3.27l0,0.03z" fill="#3C4652" id="svg_6"/>
 </g>
</svg>