<?xml version="1.0"?>
<svg width="500" height="500" xmlns="http://www.w3.org/2000/svg" xmlns:svg="http://www.w3.org/2000/svg" preserveAspectRatio="xMidYMid meet" version="1.0">
 <!-- Created with SVG-edit - https://github.com/SVG-Edit/svgedit-->

 <g class="layer">
  <title>Layer 1</title>
  <path d="m253.37,95.02c-11.22,1.4 -25.29,4.1 -28.57,5.4c-1.69,0.7 -5.5,2.1 -8.47,3.1c-2.86,1 -7.3,2.9 -9.84,4.1c-2.54,1.3 -5.19,2.3 -6.03,2.3c-0.85,0 -1.9,0.6 -2.33,1.3c-0.42,0.7 -2.65,2.1 -4.87,3.2c-2.22,1.1 -5.19,3 -6.77,4.2c-1.48,1.3 -3.07,2.3 -3.49,2.3c-1.8,0 -21.59,17.92 -26.35,24.02c-1.48,1.9 -3.39,3.9 -4.02,4.3c-0.74,0.4 -1.38,1.3 -1.38,1.8c0,0.6 -1.16,2.5 -2.54,4.2c-1.38,1.8 -3.28,4.8 -4.13,6.71c-0.95,1.9 -2.33,4.6 -3.17,6.01c-0.85,1.4 -2.43,5 -3.39,8.01c-1.06,3 -2.22,6.01 -2.75,6.51c-1.59,2 -3.17,21.82 -2.43,30.53l0.63,8.71l-4.23,7.41c-5.71,10.01 -11.11,19.02 -15.98,26.42c-7.94,11.91 -12.81,21.72 -12.81,25.52c0,5.91 3.7,11.21 10.05,14.21c3.17,1.6 6.88,2.8 8.15,2.8c4.23,0 7.09,1.1 7.41,2.9c0.21,0.9 -0.74,3.7 -2.01,6.31c-2.96,5.91 -2.96,7.21 -0.32,11.31c1.9,2.9 1.9,3.4 0.53,4.5c-1.59,1.3 -2.22,8.01 -0.74,8.01c0.42,0 2.65,1.5 4.87,3.4l4.23,3.3l-1.9,8.11c-1.69,6.61 -1.8,8.81 -0.74,12.51c1.48,5.91 4.97,11.41 7.62,12.21c1.06,0.4 2.01,1.1 2.01,1.6c0,0.5 0.63,0.9 1.48,0.9c0.74,0 2.01,0.7 2.75,1.5c0.74,0.8 2.22,1.5 3.28,1.5c2.01,0 2.75,0.2 9.21,3.3c2.01,0.9 4.66,1.7 6.14,1.7c1.38,0 6.03,0.7 10.48,1.5c4.34,0.8 11.54,2.2 15.87,3c4.44,0.8 10.05,1.5 12.59,1.5c2.54,0 6.24,0.7 8.36,1.5c4.23,1.7 12.38,9.91 12.38,12.61c0,1.1 0.42,1.9 0.95,1.9c0.53,0 2.01,2.5 3.39,5.51c2.75,6.21 6.14,8.11 11.43,6.41c4.02,-1.3 5.19,-5.61 2.86,-10.01c-0.95,-1.8 -1.69,-4 -1.69,-4.9c0,-1 -0.74,-2.3 -1.59,-3c-0.85,-0.7 -1.59,-1.8 -1.59,-2.5c0,-0.7 -0.74,-1.8 -1.59,-2.5c-0.85,-0.7 -1.59,-1.8 -1.59,-2.5c0,-1.3 -5.5,-6.91 -10.58,-10.81c-4.02,-3.1 -13.76,-5.3 -36.51,-8.21c-12.7,-1.7 -20,-3.1 -22.65,-4.5c-1.16,-0.5 -3.17,-1 -4.44,-1c-1.38,0 -4.97,-1.4 -8.04,-3.2c-5.61,-3.2 -5.61,-3.2 -5.61,-8.31c0,-2.8 0.74,-7.51 1.69,-10.51c1.59,-5 1.59,-9.01 -0.11,-15.21l-0.74,-2.7l5.08,0.5c4.97,0.5 5.29,0.4 7.62,-2.8c2.86,-4.2 2.96,-5.81 0.32,-8.51c-1.9,-1.9 -5.4,-3 -15.66,-4.8l-3.39,-0.6l1.48,-4.6c0.85,-2.5 2.01,-5.1 2.54,-5.61c1.8,-1.7 1.38,-6.61 -0.85,-8.81c-1.38,-1.5 -5.19,-2.7 -12.17,-4c-15.13,-2.8 -17.04,-4.5 -12.06,-10.91c1.06,-1.4 2.96,-4.4 4.23,-6.71c6.98,-12.21 8.36,-14.31 9.31,-14.31c0.63,0 1.06,-0.8 1.06,-1.8c0,-0.9 1.48,-3.7 3.17,-6.21c1.69,-2.5 3.17,-4.8 3.17,-5.3c0,-0.4 1.06,-2.4 2.43,-4.5c4.44,-6.71 5.4,-11.81 5.5,-28.23c0,-12.41 0.42,-16.31 1.9,-19.42c0.95,-2.1 1.8,-4.6 1.8,-5.51c0,-4.2 10.27,-21.22 18.84,-31.13c8.15,-9.41 22.86,-21.42 30.9,-25.22c1.48,-0.7 3.28,-1.8 4.02,-2.5c0.74,-0.7 2.12,-1.3 2.96,-1.3c0.85,0 1.48,-0.5 1.48,-1c0,-0.6 0.63,-1 1.48,-1c0.74,0 4.23,-1.3 7.62,-3c3.39,-1.6 7.09,-3 8.15,-3c1.06,0 2.86,-0.5 4.02,-1.1c6.56,-3.3 14.39,-4.3 33.76,-4.2c20,0 20.95,0.1 39.16,5.1c5.93,1.6 17.25,6.41 24.87,10.51c8.78,4.8 22.22,16.11 28.57,24.22c1.69,2.2 3.7,4.6 4.44,5.3c0.74,0.7 1.38,1.8 1.38,2.3c0,0.5 1.16,2.7 2.65,4.9c1.48,2.2 2.65,4.5 2.65,5.3c0,0.7 0.95,3 2.12,5.1c3.49,6.61 6.98,27.93 6.03,37.23c-1.9,18.72 -3.28,25.02 -6.98,32.93c-0.53,1.1 -1.48,3.9 -2.33,6.31c-0.74,2.3 -1.9,4.7 -2.75,5.3c-0.74,0.6 -1.38,1.7 -1.38,2.4c0,1.4 -3.17,7.81 -4.23,8.51c-0.42,0.3 -1.9,2.7 -3.17,5.51c-1.27,2.7 -2.65,5.2 -3.07,5.51c-0.63,0.5 -4.02,7.11 -9.95,19.02c-3.92,8.11 -9.21,26.32 -9.21,31.83c0,2.7 0.95,8.41 2.22,12.81c1.16,4.3 2.65,9.61 3.17,11.61c0.95,4 4.44,11.51 9.52,20.92c1.69,3.1 3.07,6.41 3.07,7.31c0,0.9 0.53,1.6 1.16,1.6c0.53,0 2.01,1.9 3.07,4.2c1.06,2.4 3.17,5.81 4.66,7.71c1.59,1.9 2.75,4.1 2.75,4.8c0,0.7 0.32,1.3 0.85,1.3c0.42,0 2.12,2.3 3.7,5.1c3.07,5 3.07,5 7.94,4.7c4.23,-0.3 4.97,-0.6 6.14,-3.4c1.16,-2.5 1.06,-3.6 -0.21,-5.91c-0.85,-1.5 -1.48,-3.3 -1.48,-4c0,-0.7 -0.74,-1.8 -1.59,-2.5c-0.74,-0.6 -3.07,-3.7 -4.97,-6.81c-14.39,-23.42 -21.8,-39.74 -23.18,-51.05c-0.95,-7.81 0.21,-21.02 2.33,-25.82c2.86,-6.71 6.88,-15.01 8.25,-17.42c0.53,-0.8 1.8,-3.3 2.86,-5.51c1.16,-2.2 2.65,-4.4 3.39,-4.8c0.63,-0.4 1.27,-1.9 1.27,-3.2c0,-1.4 0.42,-2.5 0.95,-2.5c0.53,0 1.27,-1.1 1.59,-2.5c0.42,-1.4 1.16,-2.5 1.69,-2.5c0.63,0 1.06,-0.5 1.06,-1.1c0,-1.6 4.13,-9.71 5.29,-10.41c0.53,-0.3 1.06,-1.3 1.06,-2.1c0,-0.8 1.16,-3.9 2.54,-6.71c1.38,-2.9 2.86,-6.81 3.28,-8.71c0.42,-1.9 1.16,-4.9 1.59,-6.51c3.92,-12.31 4.34,-16.31 3.92,-31.53c-0.21,-9.91 -0.95,-17.72 -2.12,-21.52c-0.95,-3.3 -2.22,-8.11 -2.86,-10.81c-0.74,-2.6 -2.43,-6.81 -3.81,-9.31c-1.38,-2.5 -2.54,-4.9 -2.54,-5.4c0,-0.5 -1.38,-2.9 -3.17,-5.3c-1.69,-2.5 -3.17,-4.9 -3.17,-5.4c0,-0.5 -1.16,-2 -2.65,-3.3c-1.48,-1.3 -2.65,-2.7 -2.65,-3.2c0,-1.1 -18.73,-18.82 -19.9,-18.82c-0.53,0 -1.8,-0.9 -2.96,-2.1c-1.06,-1.2 -4.13,-3.2 -6.77,-4.5c-15.35,-7.81 -18.84,-9.41 -23.71,-10.91c-2.96,-0.9 -6.77,-2.3 -8.57,-3c-3.6,-1.4 -18.73,-4 -32.81,-5.51c-10.58,-1.1 -11.11,-1.1 -20.11,0.1z" id="svg_7"/>
  <path d="m202.46,184.91c-0.21,0.2 -0.42,1.9 -0.42,3.7l0,3.2l7.51,0.4c8.25,0.3 11.54,-0.9 11.54,-4.3c0,-1 -0.32,-1.9 -0.74,-2c-12.49,-1.1 -17.46,-1.4 -17.89,-1z" fill="#00ff00" id="svg_8"/>
  <path d="m183.52,190.71c-1.16,0.3 -2.54,0.9 -3.07,1.4c-0.63,0.5 -2.12,0.9 -3.49,0.9c-1.38,0 -2.75,0.7 -3.07,1.5c-0.42,0.8 -1.27,1.5 -2.01,1.5c-2.33,0 -3.07,2.2 -1.16,3.2c0.95,0.5 1.69,1.6 1.69,2.3c0,2.1 1.59,1.9 6.35,-1c2.33,-1.4 5.4,-2.5 6.88,-2.5c2.54,0 2.75,-0.3 2.43,-3.7c-0.32,-3.8 -1.06,-4.4 -4.55,-3.6z" fill="#00ff00" id="svg_9"/>
  <path d="m233.79,192.81c0,1 -0.53,2.3 -1.27,3c-1.59,1.5 0.32,3.8 3.92,4.6c1.48,0.4 2.65,1.1 2.65,1.6c0,0.5 1.59,1.6 3.6,2.5c3.39,1.5 3.81,1.5 5.82,-0.2c2.86,-2.3 2.86,-4.5 -0.21,-5.91c-1.27,-0.6 -5.08,-2.5 -8.36,-4.2c-5.4,-2.8 -6.14,-2.9 -6.14,-1.4z" fill="#00ff00" id="svg_10"/>
  <path d="m258.55,212.63c-2.33,2.4 -2.33,7.41 -0.11,7.41c0.53,0 1.59,0.6 2.22,1.4c0.95,1.3 1.69,1.2 4.76,-0.3l3.49,-1.8l-3.28,-3.5c-1.8,-2 -3.28,-4.1 -3.28,-4.7c0,-1.7 -1.38,-1.2 -3.81,1.5z" fill="#00ff00" id="svg_11"/>
  <path d="m297.08,220.74c-2.86,0.2 -5.08,0.8 -5.08,1.3c0,0.5 -1.06,1.2 -2.33,1.6c-5.61,1.7 -14.5,10.81 -15.35,15.81c-0.74,4.3 3.28,8.61 7.73,8.61c2.43,-0.1 3.92,-1.2 7.2,-5.51c2.33,-3 4.87,-5.51 5.82,-5.51c0.95,0 2.65,-0.7 3.7,-1.5c4.76,-3.4 15.24,-0.3 20.21,6.01c2.22,2.7 2.65,4.3 2.65,10.51c0,7.01 -0.21,7.51 -4.23,12.41c-2.33,2.8 -6.14,6.91 -8.36,9.01c-2.33,2.2 -5.29,6.11 -6.67,8.81c-1.27,2.6 -2.75,4.8 -3.07,4.8c-0.42,0 -0.95,1.2 -1.27,2.7c-0.32,1.7 -1.9,3.5 -3.92,4.6c-3.07,1.7 -3.49,1.8 -5.82,0.3c-1.48,-0.9 -2.65,-2.6 -2.65,-3.8c0,-3.6 -4.97,-8.81 -8.47,-8.81c-3.49,0 -8.47,4.9 -8.47,8.31c0.11,4 5.61,12.51 10.27,15.71c4.02,2.7 5.4,3 11.96,3c6.67,0 7.94,-0.3 12.49,-3.3c3.49,-2.1 5.82,-4.6 7.2,-7.51c1.06,-2.4 2.65,-4.8 3.39,-5.4c0.63,-0.6 1.27,-1.9 1.27,-2.8c0,-1 3.17,-5.1 6.98,-9.21c3.81,-4 7.83,-8.31 9,-9.41c1.06,-1.2 2.01,-2.8 2.01,-3.6c0,-0.8 0.42,-1.8 0.85,-2.4c2.12,-2.3 4.66,-11.81 4.23,-15.21c-0.85,-5.91 -6.03,-16.92 -9.31,-20.12c-6.03,-5.71 -12.81,-8.81 -20.11,-9.31c-3.81,-0.3 -9.1,-0.3 -11.85,-0.1z" id="svg_12"/>
  <path d="m167.86,224.84c-3.6,3.7 -0.63,12.21 4.23,12.21c2.96,0 4.23,1.2 4.97,4.6c1.27,5.4 3.7,6.61 11.96,6.21c9.31,-0.6 19.37,-2.7 21.8,-4.6c0.95,-0.8 1.8,-2.7 1.8,-4.2c0,-5.51 -1.59,-6.21 -31.64,-14.41c-7.41,-2.1 -11.01,-2 -13.12,0.2z" id="svg_13"/>
  <path d="m157.28,254.77c-2.01,1.8 -0.85,4 5.29,11.11c1.38,1.5 2.43,3 2.43,3.3c0,2 3.49,1.5 5.71,-0.7l2.43,-2.6l-2.54,-2.6c-4.34,-4.5 -5.29,-5.61 -5.93,-7.51c-0.63,-1.7 -5.93,-2.5 -7.41,-1z" fill="#00ff00" id="svg_14"/>
  <path d="m225.32,266.98c0,1.2 -6.14,4.1 -8.57,4.1c-2.22,0 -3.6,3.8 -2.54,6.91c0.53,1.7 1.06,1.8 4.02,0.9c1.9,-0.6 3.81,-1.5 4.44,-1.9c0.53,-0.5 1.8,-0.9 2.86,-0.9c1.06,0 2.22,-0.7 2.54,-1.5c0.32,-0.8 1.48,-1.7 2.65,-2c2.33,-0.7 2.75,-2.5 0.53,-2.5c-0.85,0 -1.9,-0.9 -2.22,-2c-0.63,-2 -3.7,-2.9 -3.7,-1.1z" fill="#00ff00" id="svg_15" transform="matrix(1 0 0 1 0 0)"/>
  <path d="m184.05,272.59c0,0.9 -0.74,1.8 -1.59,2.1c-2.33,0.9 -2.01,4.4 0.42,4.4c1.16,0 2.22,0.4 2.43,0.8c0.21,0.5 3.49,1.2 7.51,1.5l7.09,0.6l0,-3.3c0,-3 -0.42,-3.4 -3.28,-4c-1.8,-0.3 -4.76,-0.6 -6.46,-0.6c-1.69,0 -3.28,-0.6 -3.6,-1.5c-0.85,-2 -2.54,-1.9 -2.54,0z" fill="#00ff00" id="svg_16"/>
  <path d="m264.27,314.82c-1.69,0.8 -2.96,1.8 -2.96,2.3c0,0.5 -0.95,1.2 -2.12,1.5c-2.65,0.8 -2.65,1.3 0.42,4.9c2.43,2.7 2.54,2.8 4.44,0.9c1.16,-1 3.81,-3.2 6.14,-4.7l4.13,-2.9l-2.54,-1.8c-2.96,-2.2 -3.7,-2.2 -7.51,-0.2z" fill="#00ff00" id="svg_17"/>
  <path d="m242.26,327.84c-1.48,1 -4.87,2.5 -7.51,3.3c-4.66,1.5 -4.76,1.6 -3.92,4.8c1.27,4.5 3.6,4.2 16.51,-2.1c2.33,-1.2 3.17,-2.7 1.38,-2.7c-0.53,0 -1.27,-1.1 -1.59,-2.5c-0.85,-3 -1.48,-3.1 -4.87,-0.8z" fill="#00ff00" id="svg_18"/>
  <path d="m212.62,338.34c-2.01,0.5 -5.93,1.4 -8.68,2c-2.86,0.6 -5.08,1.5 -5.08,1.9c0,0.5 0.53,0.9 1.06,0.9c0.63,0 1.06,1.2 1.06,2.6c0,2.5 0.21,2.6 4.23,2c2.43,-0.3 5.19,-1.1 6.14,-1.6c0.95,-0.5 3.07,-1.1 4.55,-1.4c2.33,-0.5 2.65,-1 2.22,-3.6c-0.53,-3.7 -0.85,-3.9 -5.5,-2.8z" fill="#00ff00" id="svg_19"/>
  <path d="m168.49,343.95c-0.32,0.6 -0.21,2.3 0.11,3.6c0.53,2.2 0.95,2.3 8.78,2.2l8.25,-0.2l0.32,-3.4l0.32,-3.5l-8.68,0c-5.93,0 -8.78,0.4 -9.1,1.3z" fill="#00ff00" id="svg_20"/>
 </g>
</svg>