<?xml version="1.0"?>
<svg width="500" height="500" xmlns="http://www.w3.org/2000/svg" xmlns:svg="http://www.w3.org/2000/svg" preserveAspectRatio="xMidYMid meet" version="1.0">
 <!-- Created with SVG-edit - https://github.com/SVG-Edit/svgedit-->

 <g class="layer">
  <title>Layer 1</title>
  <path d="m94.62,24.19l16.69,0l12.76,5.59l8.83,5.59l10.8,9.78l8.83,15.36l4.91,12.57l1.96,9.78l0,40.5l-1.96,9.78l-2.94,5.59l-8.83,-4.19l-5.89,-2.79l3.93,-20.95l0,-18.16l-3.93,-13.97l-5.89,-12.57l-10.8,-11.17l-14.72,-5.59l-9.82,0l-15.71,5.59l-4.91,4.19l-1.96,0l-0.98,4.19l-4.91,4.19l-4.91,6.98l-2.94,4.19l-0.98,4.19l-3.93,5.59l-4.91,12.57l-2.94,5.59l-1.96,6.98l-1.96,9.78l-1.96,6.98l-2.94,20.95l0,34.92l0.98,13.97l3.93,20.95l0.98,1.4l1.96,13.97l5.89,16.76l2.94,9.78l8.83,18.16l1.96,1.4l2.94,6.98l3.93,2.79l0.98,5.59l4.91,2.79l9.82,8.38l12.76,2.79l12.76,-2.79l13.74,-11.17l1.96,-5.59l4.91,-5.59l2.94,-12.57l0.98,-1.4l0,-20.95l-1.96,0l-0.98,-8.38l-1.96,-1.4l1.96,-5.59l0.98,-2.79l3.93,-1.4l8.83,0l4.91,11.17l1.96,12.57l0,16.76l-3.93,18.16l-3.93,11.17l-3.93,5.59l-4.91,6.98l-3.93,2.79l0,4.19l-6.87,4.19l-6.87,5.59l-11.78,4.19l-17.67,0l-12.76,-4.19l-8.83,-8.38l-4.91,-4.19l0,-2.79l-3.93,-2.79l-4.91,-6.98l-4.91,-5.59l-2.94,-6.98l-3.93,-6.98l-0.98,-4.19l-1.96,-1.4l-2.94,-8.38l-3.93,-11.17l-3.93,-9.78l-4.91,-23.74l-1.96,-5.59l-2.94,-27.93l0,-50.28l2.94,-25.14l2.94,-6.98l2.94,-9.78l0.98,-8.38l2.94,-4.19l5.89,-15.36l3.93,-5.59l1.96,-5.59l4.91,-6.98l2.94,-4.19l4.91,-6.98l11.78,-9.78l2.94,-2.79l12.76,-5.59l5.89,-2.79z" fill="#000000" id="svg_4"/>
  <path d="m304.69,24.19l16.69,0l12.76,5.59l8.83,5.59l7.85,6.98l3.93,2.79l4.91,6.98l2.94,4.19l4.91,6.98l8.83,18.16l3.93,11.17l1.96,1.4l5.89,25.14l1.96,5.59l0.98,15.36l0.98,4.19l0,48.88l-2.94,29.33l-2.94,11.17l-3.93,18.16l-1.96,1.4l-4.91,18.16l-5.89,12.57l-3.93,8.38l-4.91,9.78l-4.91,6.98l-0.98,2.79l-4.91,4.19l-3.93,5.59l-4.91,2.79l-6.87,6.98l-12.76,4.19l-16.69,0l-14.72,-5.59l-7.85,-6.98l-3.93,-2.79l0,-2.79l-3.93,-2.79l-4.91,-6.98l-4.91,-6.98l-5.89,-22.35l-0.98,-5.59l0,-18.16l2.94,-12.57l3.93,-9.78l8.83,0l3.93,1.4l2.94,4.19l0,4.19l-1.96,0l-0.98,8.38l-1.96,4.19l0,18.16l4.91,15.36l4.91,5.59l0.98,4.19l9.82,8.38l7.85,4.19l17.67,0l6.87,-4.19l11.78,-9.78l4.91,-6.98l3.93,-8.38l3.93,-5.59l5.89,-13.97l1.96,-2.79l3.93,-13.97l3.93,-12.57l3.93,-19.55l2.94,-22.35l0,-40.5l-2.94,-18.16l-5.89,-25.14l-3.93,-8.38l-4.91,-12.57l-2.94,-4.19l-3.93,-6.98l-4.91,-6.98l-7.85,-8.38l-4.91,-4.19l-14.72,-5.59l-11.78,0l-13.74,5.59l-10.8,11.17l-5.89,11.17l-3.93,15.36l0,19.55l2.94,13.97l0,5.59l-10.8,6.98l-2.94,0l-3.93,-6.98l-0.98,-9.78l0,-37.71l1.96,-11.17l5.89,-15.36l4.91,-6.98l2.94,-6.98l5.89,-4.19l8.83,-6.98l6.87,-4.19l8.83,-2.79l1.96,-1.4z" fill="#000000" id="svg_5"/>
  <path d="m313.52,103.8l5.89,1.4l1.96,5.59l-0.98,11.17l-4.91,9.78l-1.96,0l-0.98,5.59l-4.91,5.59l-1.96,0l0,2.79l-6.87,6.98l-6.87,4.19l-6.87,5.59l-6.87,1.4l0,2.79l-5.89,2.79l-0.98,2.79l-6.87,2.79l-8.83,8.38l-2.94,0l0,2.79l-1.96,0l-0.98,5.59l-5.89,2.79l-1.96,8.38l-3.93,5.59l-6.87,23.74l-1.96,26.54l0,195.53l-0.98,2.79l-8.83,0l-2.94,-2.79l0,-191.34l1.96,-26.54l4.91,-25.14l5.89,-15.36l7.85,-13.97l4.91,-5.59l2.94,-4.19l2.94,0l-0.98,-8.38l-2.94,-1.4l-4.91,-12.57l0,-6.98l4.91,-5.59l5.89,4.19l2.94,8.38l7.85,5.59l4.91,0l7.85,-4.19l10.8,-8.38l6.87,-4.19l4.91,-5.59l2.94,-1.4l4.91,-8.38l1.96,-1.4l3.93,-9.78l3.93,-8.38z" fill="#00ff00" id="svg_6"/>
  <path d="m100.51,103.8l1.96,0l5.89,12.57l5.89,11.17l2.94,4.19l4.91,4.19l5.89,5.59l9.82,5.59l7.85,5.59l5.89,2.79l6.87,-1.4l5.89,-5.59l3.93,-8.38l5.89,-1.4l2.94,4.19l-0.98,9.78l-3.93,9.78l-2.94,1.4l-0.98,8.38l4.91,1.4l3.93,6.98l4.91,6.98l4.91,6.98l3.93,12.57l2.94,6.98l1.96,16.76l1.96,6.98l0.98,12.57l0.98,203.91l-1.96,2.79l-9.82,0l-0.98,-205.3l-0.98,-15.36l-2.94,-12.57l0,-2.79l-1.96,0l-2.94,-11.17l-1.96,-5.59l-2.94,-2.79l-2.94,-6.98l-7.85,-9.78l-12.76,-11.17l-4.91,-2.79l-5.89,-4.19l-8.83,-5.59l-5.89,-4.19l-7.85,-5.59l-12.76,-13.97l0,-4.19l-2.94,-1.4l-4.91,-11.17l-0.98,-9.78l1.96,-5.59l3.93,-1.4z" fill="#00ff00" id="svg_7"/>
  <path d="m68.12,120.56l5.89,1.4l4.91,9.78l2.94,1.4l2.94,6.98l3.93,2.79l4.91,6.98l13.74,11.17l7.85,4.19l8.83,5.59l8.83,4.19l5.89,4.19l8.83,5.59l4.91,4.19l0,2.79l5.89,1.4l4.91,8.38l4.91,6.98l0.98,4.19l2.94,1.4l0.98,8.38l2.94,1.4l3.93,13.97l0.98,18.16l0.98,198.32l-2.94,2.79l-6.87,0l-1.96,-2.79l-0.98,-202.51l-3.93,-19.55l-1.96,-4.19l0,-4.19l-4.91,-2.79l0,-2.79l-6.87,-2.79l-7.85,0l-8.83,4.19l-7.85,5.59l-2.94,1.4l-0.98,4.19l-4.91,4.19l-2.94,6.98l-4.91,4.19l-5.89,-2.79l-0.98,-1.4l0,-8.38l4.91,-6.98l4.91,-6.98l4.91,-6.98l10.8,-8.38l6.87,-2.79l1.96,0l-0.98,-6.98l-18.65,0l-15.71,5.59l-11.78,5.59l-12.76,11.17l-2.94,2.79l-5.89,-1.4l-0.98,-2.79l0,-8.38l1.96,-4.19l5.89,-4.19l8.83,-6.98l4.91,-2.79l7.85,-5.59l8.83,-1.4l0,-2.79l-3.93,-2.79l-9.82,-6.98l-4.91,-5.59l-4.91,-2.79l-3.93,-6.98l-2.94,-1.4l-3.93,-8.38l-3.93,-4.19l-2.94,-6.98l0,-9.78l2.94,-2.79z" fill="#00ff00" id="svg_8"/>
  <path d="m344.94,120.56l4.91,1.4l0.98,1.4l0,9.78l-1.96,0l-0.98,8.38l-5.89,5.59l-1.96,5.59l-4.91,4.19l-3.93,5.59l-4.91,4.19l-8.83,6.98l-6.87,5.59l-0.98,2.79l8.83,1.4l8.83,5.59l0,2.79l6.87,1.4l6.87,5.59l0,2.79l4.91,2.79l1.96,2.79l0,9.78l-3.93,2.79l-4.91,-1.4l-8.83,-8.38l-6.87,-5.59l-8.83,-2.79l-7.85,-4.19l-8.83,-2.79l-18.65,-1.4l-0.98,8.38l9.82,2.79l6.87,6.98l3.93,1.4l4.91,8.38l2.94,2.79l0,4.19l1.96,0l3.93,6.98l0,6.98l-4.91,4.19l-4.91,-2.79l-2.94,-1.4l-1.96,-6.98l-4.91,-4.19l-4.91,-6.98l-11.78,-6.98l-3.93,-1.4l-7.85,0l-5.89,2.79l-1.96,4.19l-2.94,1.4l-2.94,8.38l-1.96,11.17l-1.96,9.78l-0.98,22.35l0,178.77l-1.96,2.79l-7.85,0l-2.94,-4.19l0.98,-188.54l2.94,-30.73l5.89,-16.76l0.98,-4.19l2.94,-1.4l4.91,-9.78l4.91,-5.59l0.98,-2.79l5.89,-2.79l0.98,-2.79l7.85,-5.59l13.74,-9.78l6.87,-2.79l12.76,-6.98l6.87,-4.19l12.76,-11.17l7.85,-9.78l2.94,-5.59l1.96,0l1.96,-6.98l4.91,-4.19z" fill="#00ff00" id="svg_9"/>
 </g>
</svg>