<?xml version="1.0"?>
<svg width="500" height="500" xmlns="http://www.w3.org/2000/svg" xmlns:svg="http://www.w3.org/2000/svg" preserveAspectRatio="xMidYMid meet" version="1.0">
 <!-- Created with SVG-edit - https://github.com/SVG-Edit/svgedit-->

 <g class="layer">
  <title>Layer 1</title>
  <path d="m209.19,26.22l38.31,0l26.27,5.37l10.94,2.15l17.51,5.37l18.61,4.29l12.04,4.29l13.13,3.22l10.94,5.37l6.57,2.15l8.76,5.37l6.57,2.15l0,2.15l6.57,2.15l5.47,3.22l4.38,4.29l0,2.15l6.57,2.15l4.38,5.37l4.38,2.15l4.38,5.37l5.47,5.37l5.47,4.29l3.28,6.44l4.38,5.37l6.57,16.1l3.28,7.51l6.57,3.22l7.66,6.44l6.57,9.66l3.28,8.58l5.47,16.1l1.09,15.02l-2.19,9.66l-6.57,15.02l-2.19,0l-2.19,4.29l-2.19,0l-1.09,4.29l-6.57,4.29l-1.09,7.51l3.28,1.07l4.38,6.44l1.09,5.37l0,19.32l-2.19,10.73l-5.47,11.8l-2.19,6.44l-4.38,4.29l-3.28,5.37l-5.47,5.37l-6.57,5.37l-2.19,0l-1.09,3.22l-9.85,6.44l-14.23,7.51l-6.57,2.15l-12.04,3.22l-19.7,2.15l1.09,15.02l1.09,3.22l0,8.58l-3.28,5.37l-9.85,2.15l-8.76,2.15l-9.85,0l-2.19,-1.07l0,-2.15l-4.38,-2.15l-4.38,-5.37l-6.57,-5.37l-7.66,-8.58l-6.57,-7.51l-5.47,-5.37l-1.09,-3.22l-4.38,-2.15l-4.38,-5.37l-5.47,-5.37l-2.19,-2.15l-8.76,1.07l-14.23,0l-10.94,-3.22l-6.57,-6.44l-6.57,1.07l-10.94,4.29l-16.42,1.07l-19.7,-3.22l-18.61,-4.29l-4.38,-3.22l-12.04,-6.44l-6.57,-5.37l-2.19,-1.07l-3.28,-5.37l-4.38,-5.37l-4.38,-11.8l-2.19,-3.22l-9.85,3.22l-24.08,3.22l-15.32,-2.15l-8.76,-2.15l-13.13,-8.58l-3.28,-5.37l-3.28,-3.22l-3.28,-4.29l-1.09,-6.44l-6.57,-2.15l-5.47,-6.44l-3.28,-2.15l-3.28,-5.37l0,-2.15l-3.28,-1.07l-5.47,-12.88l-3.28,-7.51l-1.09,-9.66l0,-24.68l1.09,-12.88l3.28,-7.51l6.57,-16.1l4.38,-5.37l3.28,-5.37l4.38,-5.37l2.19,0l1.09,-3.22l12.04,-8.58l4.38,-10.73l4.38,-6.44l3.28,-5.37l9.85,-11.8l5.47,-5.37l2.19,0l0,-2.15l12.04,-7.51l15.32,-7.51l9.85,-3.22l14.23,-4.29l1.09,-1.07l18.61,-2.15l5.47,-5.37l7.66,-1.07l0,-2.15l7.66,-3.22l5.47,-2.15l16.42,-4.29l14.23,-3.22zm5.47,20.39l-21.89,3.22l-10.94,4.29l-9.85,4.29l-15.32,10.73l-7.66,8.58l-5.47,10.73l-3.28,3.22l-6.57,1.07l-5.47,-2.15l0,-2.15l-2.19,-1.07l0,-12.88l-7.66,1.07l-4.38,3.22l-6.57,2.15l-6.57,4.29l0,2.15l-6.57,1.07l-5.47,6.44l-4.38,4.29l-7.66,9.66l1.09,5.37l5.47,3.22l1.09,2.15l0,6.44l-5.47,5.37l-1.09,1.07l-14.23,1.07l-7.66,3.22l-3.28,3.22l0,2.15l-4.38,2.15l-3.28,5.37l-6.57,10.73l-3.28,12.88l-2.19,7.51l0,20.39l5.47,18.24l6.57,8.58l4.38,-1.07l5.47,-4.29l7.66,2.15l4.38,5.37l-2.19,8.58l0,11.8l1.09,2.15l2.19,0l2.19,6.44l6.57,1.07l1.09,3.22l15.32,3.22l17.51,-3.22l14.23,-4.29l8.76,-4.29l6.57,1.07l4.38,4.29l2.19,5.37l3.28,16.1l3.28,5.37l2.19,0l2.19,4.29l9.85,7.51l4.38,0l1.09,3.22l14.23,4.29l27.36,1.07l9.85,-2.15l4.38,-4.29l0,-2.15l5.47,-1.07l2.19,-2.15l7.66,0l5.47,4.29l4.38,9.66l5.47,3.22l8.76,0l14.23,-4.29l8.76,5.37l7.66,8.58l5.47,6.44l4.38,4.29l4.38,-1.07l0,-9.66l2.19,0l1.09,-2.15l8.76,-1.07l13.13,5.37l8.76,3.22l3.28,1.07l19.7,1.07l13.13,-2.15l9.85,-3.22l8.76,-4.29l13.13,-8.58l3.28,-3.22l0,-2.15l4.38,-1.07l3.28,-3.22l3.28,-5.37l5.47,-8.58l4.38,-13.95l0,-13.95l-7.66,-8.58l-15.32,-5.37l-21.89,0l-13.13,2.15l-8.76,2.15l-9.85,2.15l-18.61,6.44l-13.13,6.44l-7.66,2.15l0,2.15l-5.47,1.07l-2.19,1.07l0,2.15l-6.57,1.07l-9.85,6.44l-8.76,5.37l-6.57,0l-6.57,-5.37l0,-6.44l5.47,-5.37l0,-2.15l6.57,-2.15l5.47,-4.29l13.13,-6.44l10.94,-5.37l5.47,-2.15l0,-2.15l10.94,-2.15l12.04,-5.37l24.08,-6.44l8.76,-2.15l15.32,-1.07l31.74,0l7.66,-4.29l0,-2.15l6.57,-2.15l8.76,-9.66l2.19,-10.73l-1.09,-17.17l-3.28,-9.66l-6.57,-9.66l-5.47,-4.29l-2.19,-1.07l-12.04,0l-7.66,4.29l-6.57,5.37l-7.66,1.07l-4.38,-2.15l-1.09,-9.66l1.09,-5.37l4.38,-2.15l3.28,-3.22l0,-2.15l6.57,-1.07l8.76,-4.29l0,-6.44l-8.76,-12.88l-9.85,-10.73l-9.85,-8.58l-2.19,0l-1.09,-3.22l-6.57,-4.29l-3.28,-3.22l-5.47,-1.07l-1.09,-3.22l-7.66,-4.29l-7.66,-3.22l-8.76,-4.29l-7.66,-2.15l-7.66,-3.22l-19.7,-5.37l-19.7,-5.37l-7.66,-1.07l-8.76,-3.22l-14.23,-3.22l-18.61,-2.15l-27.36,0zm98.5,286.52l1.09,3.22l-1.09,-3.22zm2.19,4.29l2.19,4.29l2.19,3.22l3.28,0l1.09,4.29l5.47,4.29l4.38,6.44l4.38,1.07l2.19,4.29l3.28,-3.22l-4.38,-17.17l-9.85,-3.22l-6.57,-3.22l-1.09,-1.07l-6.57,0z" fill="#000000" id="svg_4"/>
  <path d="m257.35,60.56l5.47,1.07l3.28,3.22l-1.09,6.44l-4.38,5.37l-2.19,4.29l-2.19,0l-1.09,9.66l0,12.88l-3.28,2.15l-7.66,-1.07l-16.42,0l-6.57,3.22l-2.19,0l0,2.15l-6.57,3.22l-4.38,2.15l-1.09,3.22l-2.19,0l-2.19,7.51l-6.57,7.51l-6.57,-2.15l-1.09,-1.07l0,-13.95l-5.47,-2.15l-9.85,1.07l-12.04,6.44l-3.28,1.07l-2.19,5.37l-3.28,8.58l2.19,12.88l-4.38,4.29l-7.66,-1.07l-3.28,-7.51l-1.09,-3.22l0,-8.58l3.28,-11.8l6.57,-7.51l3.28,-3.22l12.04,-7.51l12.04,-3.22l12.04,0l9.85,3.22l6.57,-1.07l-1.09,-9.66l-5.47,-4.29l-9.85,-5.37l-3.28,-3.22l0,-6.44l4.38,-3.22l9.85,2.15l5.47,3.22l8.76,6.44l3.28,5.37l3.28,4.29l9.85,-2.15l8.76,-1.07l3.28,0l3.28,-13.95l8.76,-11.8l4.38,-2.15z" fill="#00ff00" id="svg_5"/>
  <path d="m291.28,79.87l7.66,0l5.47,6.44l9.85,5.37l8.76,1.07l9.85,-2.15l13.13,-6.44l6.57,0l3.28,4.29l-2.19,7.51l-7.66,4.29l-5.47,3.22l-10.94,3.22l-16.42,0l-2.19,7.51l-4.38,12.88l-2.19,0l-2.19,5.37l-9.85,9.66l-2.19,3.22l-2.19,0l-2.19,5.37l-4.38,4.29l-5.47,3.22l-7.66,3.22l-14.23,9.66l-7.66,9.66l-3.28,2.15l-19.7,0l-10.94,7.51l-4.38,6.44l-4.38,4.29l-9.85,-1.07l-6.57,-2.15l-9.85,1.07l-6.57,4.29l-6.57,2.15l-2.19,4.29l-4.38,4.29l-2.19,5.37l-4.38,4.29l-3.28,10.73l-4.38,5.37l-5.47,1.07l-4.38,-2.15l-1.09,-2.15l1.09,-9.66l7.66,-15.02l2.19,0l-3.28,-3.22l-21.89,-3.22l-8.76,-3.22l-4.38,-4.29l-3.28,-1.07l-2.19,-5.37l1.09,-7.51l1.09,-2.15l6.57,0l8.76,7.51l7.66,3.22l7.66,1.07l22.98,0l5.47,-6.44l3.28,-7.51l2.19,-6.44l1.09,-1.07l1.09,-13.95l4.38,-6.44l6.57,0l3.28,6.44l0,8.58l-2.19,10.73l0,6.44l16.42,1.07l6.57,-5.37l5.47,-5.37l8.76,-4.29l18.61,-2.15l6.57,-5.37l3.28,-4.29l-1.09,-5.37l-4.38,-8.58l-4.38,-2.15l-1.09,-2.15l-13.13,-2.15l-6.57,-4.29l0,-5.37l5.47,-4.29l8.76,0l13.13,3.22l8.76,7.51l8.76,13.95l5.47,-2.15l8.76,-5.37l4.38,-6.44l5.47,-5.37l5.47,-4.29l2.19,-5.37l2.19,-1.07l2.19,-7.51l0,-10.73l-1.09,-3.22l-4.38,-4.29l-3.28,-4.29l1.09,-7.51l2.19,-1.07z" fill="#00ff00" id="svg_6"/>
  <path d="m373.36,119.58l10.94,2.15l9.85,4.29l3.28,3.22l0,5.37l-2.19,0l-1.09,3.22l-7.66,0l-4.38,-2.15l-19.7,0l0,2.15l-3.28,1.07l-3.28,4.29l-2.19,6.44l0,7.51l4.38,13.95l-1.09,4.29l-3.28,4.29l-5.47,0l-5.47,-7.51l-3.28,-6.44l-1.09,-10.73l-7.66,0l-14.23,4.29l-6.57,6.44l-2.19,0l-1.09,6.44l-2.19,2.15l-1.09,6.44l9.85,7.51l5.47,5.37l4.38,4.29l0,6.44l-7.66,4.29l-7.66,-4.29l-3.28,-5.37l-9.85,-4.29l-7.66,1.07l-3.28,1.07l-9.85,0l-2.19,-3.22l0,-5.37l7.66,-6.44l8.76,-2.15l4.38,-15.02l4.38,-6.44l5.47,-5.37l4.38,-3.22l2.19,0l0,-2.15l6.57,-3.22l7.66,-2.15l16.42,-1.07l6.57,-7.51l3.28,-5.37l10.94,-5.37l5.47,-2.15l7.66,-1.07z" fill="#00ff00" id="svg_7"/>
  <path d="m101.93,137.82l12.04,1.07l10.94,4.29l2.19,4.29l0,5.37l-2.19,4.29l-7.66,0l-3.28,-3.22l-4.38,-2.15l-8.76,0l-7.66,3.22l-5.47,5.37l-3.28,4.29l-5.47,1.07l-4.38,-5.37l0,-5.37l4.38,-6.44l3.28,-3.22l2.19,0l0,-2.15l9.85,-4.29l7.66,-1.07z" fill="#00ff00" id="svg_8"/>
  <path d="m375.55,163.58l5.47,2.15l2.19,4.29l2.19,0l6.57,11.8l3.28,10.73l7.66,2.15l6.57,0l2.19,-5.37l10.94,-7.51l5.47,-1.07l13.13,0l2.19,2.15l1.09,5.37l-2.19,4.29l-13.13,3.22l-6.57,3.22l-3.28,4.29l-3.28,9.66l-3.28,3.22l-5.47,0l-5.47,-5.37l0,-2.15l-5.47,-2.15l-3.28,-1.07l-5.47,1.07l-1.09,5.37l-6.57,4.29l-4.38,4.29l-6.57,1.07l-5.47,-3.22l0,-6.44l5.47,-4.29l3.28,-3.22l5.47,-5.37l0,-13.95l-3.28,-4.29l0,-2.15l-3.28,-1.07l-2.19,-4.29l1.09,-6.44l5.47,-3.22z" fill="#00ff00" id="svg_9"/>
  <path d="m70.2,180.75l7.66,0l3.28,3.22l-1.09,6.44l-1.09,2.15l0,8.58l4.38,6.44l2.19,4.29l21.89,0l2.19,2.15l0,6.44l-2.19,3.22l-7.66,3.22l-13.13,0l-8.76,-4.29l0,-2.15l-4.38,-1.07l-3.28,-3.22l-5.47,-12.88l0,-12.88l5.47,-9.66z" fill="#00ff00" id="svg_10"/>
  <path d="m226.7,204.35l13.13,1.07l10.94,5.37l8.76,5.37l1.09,4.29l4.38,2.15l5.47,8.58l3.28,6.44l0,5.37l-5.47,3.22l-5.47,-1.07l-3.28,-2.15l-2.19,-6.44l-5.47,-6.44l0,-2.15l-6.57,1.07l-3.28,6.44l-5.47,3.22l-4.38,4.29l-10.94,3.22l-7.66,1.07l-3.28,6.44l1.09,3.22l21.89,3.22l10.94,7.51l4.38,6.44l0,6.44l-5.47,3.22l-6.57,-1.07l-4.38,-6.44l-12.04,-4.29l-15.32,0l-7.66,4.29l-4.38,5.37l-6.57,3.22l-5.47,-2.15l-2.19,-6.44l3.28,-5.37l5.47,-4.29l4.38,-6.44l3.28,-5.37l1.09,-10.73l-12.04,-7.51l-3.28,-1.07l-1.09,-6.44l2.19,-4.29l6.57,-1.07l8.76,4.29l6.57,3.22l5.47,1.07l9.85,0l8.76,-4.29l5.47,-5.37l0,-2.15l-5.47,-1.07l-6.57,0l-5.47,-5.37l1.09,-6.44l2.19,-2.15l7.66,-1.07z" fill="#00ff00" id="svg_11"/>
  <path d="m300.03,216.16l6.57,0l8.76,5.37l4.38,7.51l-3.28,6.44l-8.76,0l-4.38,-5.37l-6.57,-3.22l-1.09,-6.44l4.38,-4.29z" fill="#00ff00" id="svg_12"/>
  <path d="m385.4,260.16l14.23,0l9.85,5.37l4.38,4.29l0,5.37l-4.38,4.29l-7.66,-2.15l-4.38,-2.15l-10.94,0l-8.76,4.29l-2.19,5.37l3.28,4.29l2.19,7.51l-1.09,8.58l-2.19,4.29l-7.66,1.07l-3.28,-3.22l0,-8.58l-4.38,-7.51l-7.66,-3.22l-6.57,1.07l-6.57,4.29l-5.47,0l-4.38,-3.22l0,-6.44l5.47,-5.37l2.19,0l0,-2.15l9.85,-2.15l13.13,0l5.47,-4.29l3.28,-3.22l8.76,-4.29l5.47,-2.15z" fill="#00ff00" id="svg_13"/>
 </g>
</svg>