<?xml version="1.0"?>
<svg width="500" height="500" xmlns="http://www.w3.org/2000/svg" xmlns:svg="http://www.w3.org/2000/svg" preserveAspectRatio="xMidYMid meet" version="1.0">
 <!-- Created with SVG-edit - https://github.com/SVG-Edit/svgedit-->

 <g class="layer">
  <title>Layer 1</title>
  <path d="m155.21,11.59c-4.62,0.87 -10.48,1.85 -12.95,2.28c-2.48,0.33 -5.97,1.31 -7.89,2.07c-1.8,0.76 -4.62,1.85 -6.2,2.5c-7.66,2.83 -20.05,8.59 -23.21,10.77c-1.92,1.41 -4.06,2.5 -4.73,2.5c-0.79,0 -1.35,0.44 -1.35,0.87c0,0.54 -1.24,1.52 -2.7,2.18c-3.15,1.41 -17.46,13.05 -22.53,18.38c-1.92,2.07 -4.28,4.57 -5.18,5.66c-2.14,2.28 -10.36,12.94 -12.05,15.88c-3.15,5 -9.69,18.71 -10.7,22.3c-5.29,18.71 -6.53,29.8 -4.28,37.63c1.13,3.7 1.13,5.22 0.11,6.2c-0.68,0.65 -1.24,1.85 -1.24,2.72c0,1.31 -5.86,12.07 -12.62,23.06c-1.24,2.07 -3.15,5.33 -4.17,7.07c-1.01,1.85 -2.93,4.79 -4.28,6.74c-1.46,1.85 -2.59,3.81 -2.59,4.35c0,0.44 -1.24,2.72 -2.82,4.89c-5.75,8.16 -5.63,18.38 0.23,23.71c3.83,3.37 11.49,6.53 16.22,6.53c4.39,0 5.29,2.39 2.93,8.81c-2.25,6.09 -2.37,8.92 -0.56,11.86c1.13,1.63 1.13,2.94 -0.11,5.98c-1.24,3.37 -1.13,4.24 0.45,6.74c1.01,1.52 2.93,3.05 4.06,3.26c3.04,0.76 3.83,5 2.48,13.49c-2.93,17.62 3.15,25.56 24.56,32.3c11.49,3.59 39.43,8.92 46.86,8.92c4.84,0 12.73,2.61 12.73,4.24c0,0.65 1.01,1.31 2.14,1.74c1.24,0.33 2.59,1.74 3.04,3.05c0.45,1.31 1.13,2.61 1.46,2.94c1.8,1.31 4.62,6.63 4.62,8.7c0,1.2 0.34,2.18 0.9,2.18c0.45,0 1.69,1.52 2.7,3.26c2.03,3.37 4.96,4.02 10.81,2.61c3.6,-0.98 3.49,-8.7 -0.34,-14.57c-1.58,-2.39 -2.82,-4.79 -2.82,-5.44c0,-2.07 -9.58,-13.81 -13.52,-16.64c-5.63,-3.81 -19.6,-7.18 -37.17,-9.03c-16.33,-1.63 -32.89,-6.31 -39.31,-11.2c-2.48,-1.85 -2.7,-2.5 -2.03,-8.81c0.34,-3.7 1.13,-7.29 1.8,-7.94c1.58,-1.52 1.69,-14.9 0.11,-14.9c-0.56,0 -1.13,-0.76 -1.13,-1.63c0,-1.2 1.24,-1.63 4.84,-1.63c3.38,0 5.63,-0.65 7.32,-2.18c2.48,-2.28 3.27,-6.96 1.46,-9.57c-0.9,-1.52 -10.25,-4.57 -14.08,-4.57c-4.17,0 -5.29,-1.41 -4.17,-5c2.93,-8.7 3.27,-11.42 2.03,-14.47c-1.13,-3.05 -1.8,-3.37 -12.17,-5.11c-6.08,-1.09 -12.05,-2.72 -13.41,-3.7l-2.48,-1.85l3.38,-5.87c2.93,-5.22 6.2,-10.55 10.7,-17.84c0.79,-1.2 2.7,-4.24 4.51,-6.85c1.69,-2.61 3.04,-5.11 3.04,-5.76c0,-0.54 1.24,-2.94 2.82,-5.33c1.58,-2.39 2.82,-4.79 2.82,-5.33c0,-0.65 1.24,-3.37 2.82,-6.2c2.59,-4.79 2.82,-6.09 2.82,-21.54c0,-9.03 0.56,-18.38 1.24,-20.77c2.48,-8.7 10.25,-24.15 14.31,-28.39c1.35,-1.52 2.48,-3.15 2.48,-3.81c0,-1.74 25.68,-26 27.6,-26c0.9,0 1.69,-0.44 1.69,-0.87c0,-2.07 28.95,-16.42 33.34,-16.53c1.24,0 2.7,-0.44 3.38,-0.98c4.84,-4.24 41.91,-5.98 58.58,-2.72c4.96,0.98 9.46,2.18 10.03,2.61c0.68,0.44 2.82,1.09 4.96,1.52c2.14,0.33 6.53,1.85 9.8,3.37c3.27,1.52 6.2,2.72 6.42,2.72c0.9,0 12.62,7.07 17.12,10.33c3.83,2.83 14.31,12.62 19.15,17.95c3.72,4.13 9.58,13.49 9.58,15.34c0,1.09 0.45,2.07 1.01,2.07c3.04,0 10.14,28.93 10.25,41.33c0,6.85 -2.59,22.95 -4.39,27.52c-0.68,1.74 -1.24,4.13 -1.24,5.44c0,1.31 -1.35,4.79 -2.82,7.83c-1.58,2.94 -2.82,6.2 -2.82,7.18c0,0.87 -0.45,2.07 -1.01,2.72c-0.56,0.54 -4.17,6.85 -8,14.03c-3.83,7.18 -7.43,13.16 -8,13.38c-0.56,0.22 -1.01,0.98 -1.01,1.74c0,0.76 -1.13,3.48 -2.48,6.2c-3.27,6.2 -5.41,11.96 -5.41,14.25c0,2.18 7.55,12.83 9.12,12.83c1.24,0 4.39,-5.87 4.39,-8.27c0,-0.98 1.24,-4.02 2.7,-6.85c1.46,-2.72 3.6,-6.96 4.62,-9.35c1.13,-2.39 2.37,-4.57 2.7,-4.89c0.34,-0.33 1.8,-2.72 3.15,-5.44c1.46,-2.72 3.04,-5.66 3.6,-6.53c1.13,-1.96 4.73,-8.59 5.86,-10.88c4.39,-8.92 6.76,-14.57 8.34,-19.58c1.01,-3.26 2.37,-6.96 2.93,-8.16c1.35,-2.94 4.39,-25.67 4.39,-33.5c0,-13.38 -6.08,-40.57 -10.7,-47.53c-2.37,-3.59 -3.94,-6.85 -3.94,-8.27c0,-0.87 -0.45,-1.52 -1.01,-1.52c-0.56,0 -2.25,-1.85 -3.6,-4.13c-1.46,-2.18 -3.04,-4.24 -3.49,-4.35c-0.45,-0.22 -0.9,-0.98 -0.9,-1.63c0,-1.63 -21.07,-21.21 -23.77,-21.97c-1.13,-0.44 -2.14,-1.2 -2.14,-1.74c0,-0.54 -0.56,-0.98 -1.35,-0.98c-0.68,0 -2.82,-1.09 -4.73,-2.5c-4.28,-2.94 -16.45,-8.37 -27.15,-12.07c-17.69,-5.98 -48.21,-8.59 -64.77,-5.55z" id="svg_5"/>
  <path d="m156.9,53.47c-1.24,0.54 -3.94,0.98 -5.86,0.98c-2.03,0.11 -3.72,0.54 -3.72,1.2c0,1.63 -5.07,3.7 -17.46,7.18c-14.64,4.02 -24.67,10.66 -27.04,17.73c-0.34,1.2 -1.24,2.28 -1.8,2.28c-0.56,0 -1.01,0.76 -1.01,1.63c0,0.87 -1.46,2.28 -3.38,3.26c-1.8,0.98 -3.38,2.18 -3.38,2.83c0,0.65 -1.24,2.72 -2.7,4.57c-2.59,3.48 -3.6,6.74 -4.84,15.88c-0.68,5.55 1.69,16.53 3.83,17.84c0.79,0.44 1.46,1.52 1.46,2.28c0,0.76 1.69,2.83 3.72,4.68c1.92,1.85 4.51,4.68 5.75,6.31c3.38,4.79 8.79,6.31 19.6,5.66c7.1,-0.54 9.24,-0.33 9.24,0.76c0,1.2 5.52,7.07 10.81,11.64c3.72,3.15 23.09,5.44 27.37,3.26c1.8,-0.98 3.15,-0.87 5.97,0.54c1.92,0.98 5.86,1.74 8.56,1.74c4.62,-0.11 5.63,0.33 10.7,5.22c3.15,3.05 6.08,5.44 6.65,5.44c0.45,0 0.9,0.44 0.9,0.98c0,0.54 1.92,2.94 4.28,5.22c3.94,3.92 5.86,6.31 10.59,13.27c3.27,4.57 2.25,27.52 -1.46,34.15c-3.49,6.2 -5.63,49.27 -3.15,62.21c1.58,8.05 7.43,21.97 10.36,24.25c1.46,1.2 7.55,0.87 7.55,-0.44c0,-0.33 -1.24,-2.94 -2.82,-5.87c-1.58,-2.94 -2.82,-6.09 -2.82,-6.85c0,-0.87 -0.79,-2.18 -1.69,-2.94c-0.9,-0.76 -1.69,-2.18 -1.69,-3.26c0,-1.09 -1.24,-5.44 -2.7,-9.68c-2.25,-6.42 -2.48,-8.37 -1.58,-11.75c0.68,-2.28 1.58,-9.79 2.03,-16.64c0.9,-13.16 2.93,-25.78 4.39,-27.74c0.56,-0.54 1.35,-4.24 1.92,-8.16c0.9,-6.63 0.9,-11.42 0.23,-37.09c-0.34,-11.96 0.9,-14.57 7.66,-15.77c2.14,-0.33 4.17,-1.09 4.51,-1.63c0.34,-0.54 1.24,-0.98 2.14,-0.98c1.46,0 5.86,-3.92 11.26,-10.01c4.39,-4.89 7.1,-20.01 4.06,-22.95c-2.14,-2.07 -1.35,-4.35 2.37,-8.16c3.49,-3.48 3.72,-3.92 3.6,-11.96c-0.11,-8.48 -1.35,-12.07 -5.97,-17.4c-1.24,-1.31 -2.7,-2.39 -3.38,-2.39c-1.58,0 -3.49,-3.59 -3.49,-6.42c0,-1.31 -0.45,-2.28 -0.9,-2.28c-0.56,0 -1.92,-1.96 -3.15,-4.35c-1.13,-2.39 -2.7,-4.35 -3.49,-4.35c-0.68,0 -2.25,-1.09 -3.38,-2.5c-2.37,-2.61 -5.52,-4.89 -8.45,-5.76c-1.13,-0.44 -2.03,-1.09 -2.03,-1.52c0,-0.44 -2.37,-1.63 -5.29,-2.72c-3.04,-1.09 -6.2,-2.5 -7.1,-3.26c-1.58,-1.2 -3.94,-1.85 -14.08,-3.48c-1.8,-0.33 -3.94,-1.2 -4.51,-1.96c-2.03,-2.39 -32.89,-4.68 -37.17,-2.72zm32.1,9.14c2.82,1.09 7.1,2.28 9.58,2.83c7.55,1.52 12.95,3.26 12.95,4.35c0,0.65 0.9,1.09 2.14,1.09c4.06,0 8.79,3.15 18.93,12.73c4.39,4.13 6.31,6.96 7.32,10.77c1.13,4.02 2.14,5.33 4.51,6.09c1.8,0.65 3.15,1.74 3.15,2.5c0,0.76 0.68,1.63 1.46,1.96c0.68,0.22 2.03,2.72 2.82,5.33c1.35,4.24 1.24,5.55 -0.23,8.92c-0.9,2.18 -2.48,3.92 -3.38,3.92c-1.01,0 -1.8,0.76 -1.8,1.63c0,1.74 -0.68,1.96 -10.7,2.18c-9.24,0.22 -18.7,1.63 -21.4,3.26c-1.24,0.65 -5.07,2.18 -8.45,3.37c-3.38,1.09 -6.42,2.39 -6.76,2.72c-0.34,0.33 -2.03,1.31 -3.94,2.18c-2.37,1.09 -3.38,2.28 -3.38,4.24c0,2.5 0.45,2.72 4.39,2.61c2.37,-0.11 4.62,-0.65 5.07,-1.31c0.79,-1.31 8.79,-4.57 11.15,-4.57c0.9,0 2.59,-0.65 3.49,-1.41c2.25,-1.85 12.28,-4.02 18.59,-4.02c5.41,0 10.81,2.07 10.81,4.02c0,0.76 0.56,1.41 1.13,1.41c0.68,0 1.13,1.2 1.13,2.61c0,3.26 -3.04,10.44 -4.51,10.44c-0.68,0 -1.13,0.76 -1.13,1.63c0,0.87 -1.01,2.07 -2.37,2.72c-1.24,0.76 -3.27,2.18 -4.51,3.37c-1.13,1.09 -3.49,2.28 -5.18,2.72c-1.8,0.33 -4.17,1.09 -5.41,1.63c-1.24,0.44 -4.51,1.09 -7.32,1.2c-4.28,0.33 -5.18,0.76 -5.41,2.72c-0.23,1.52 0.45,2.94 1.92,3.81c2.7,1.63 3.15,6.09 0.68,6.96c-0.9,0.44 -3.04,-0.98 -5.29,-3.48c-12.73,-14.03 -18.02,-17.84 -24.9,-17.84c-6.53,0 -8.67,-0.87 -8.67,-3.26c0,-3.15 -4.73,-3.7 -6.98,-0.76c-1.69,2.07 -2.93,2.39 -10.81,2.39c-7.89,0 -9.35,-0.33 -13.41,-3.05c-5.41,-3.59 -8.79,-9.14 -7.89,-12.83c0.45,-1.41 2.82,-4.79 5.29,-7.4c4.39,-4.57 4.73,-4.79 9.69,-4.02c4.96,0.65 5.29,0.54 10.59,-4.57c5.75,-5.55 11.26,-7.83 18.7,-7.83c3.94,0 4.73,-0.44 6.53,-3.81c1.24,-2.07 3.15,-4.46 4.51,-5.22c3.6,-2.39 12.95,-3.92 19.38,-3.26c5.07,0.54 5.86,0.33 6.31,-1.63c0.9,-3.15 -0.34,-4.35 -5.41,-5.44c-4.96,-1.09 -18.25,0.33 -20.05,2.07c-0.68,0.54 -1.8,0.98 -2.59,0.98c-0.9,0 -3.72,2.18 -6.42,4.68c-3.94,3.92 -5.97,4.89 -10.25,5.44c-5.75,0.76 -12.17,4.02 -15.77,8.05c-1.58,1.74 -3.6,2.5 -6.42,2.5c-4.51,0 -12.17,2.72 -12.17,4.35c0,0.65 -0.68,1.09 -1.58,1.09c-0.79,0 -2.37,1.74 -3.38,3.81c-1.01,2.07 -2.37,3.81 -2.93,3.81c-0.68,0 -1.13,0.87 -1.13,1.96c0,2.94 -4.62,4.57 -12.5,4.57c-5.75,0 -7.21,-0.44 -9.58,-2.83c-2.25,-2.07 -2.7,-3.37 -2.25,-5.44c1.35,-5 0,-6.85 -4.39,-6.2c-3.72,0.54 -4.06,0.33 -5.63,-3.26c-2.93,-6.74 -1.69,-19.9 2.14,-23.06c0.79,-0.65 1.69,-1.96 2.14,-3.05c0.45,-1.2 1.8,-2.28 3.04,-2.61c1.24,-0.33 3.04,-2.5 4.17,-4.79c1.01,-2.28 2.25,-4.24 2.7,-4.24c0.34,0 1.35,-1.31 2.03,-3.05c1.24,-2.72 5.63,-6.2 12.39,-9.68c1.46,-0.76 4.39,-1.41 6.42,-1.41c2.14,0 3.83,-0.44 3.83,-0.98c0,-0.54 2.14,-1.31 4.84,-1.74c2.59,-0.44 6.98,-1.96 9.69,-3.48c7.55,-4.24 9.8,-4.68 23.21,-4.24c8.45,0.22 13.97,0.87 17.46,2.18z" fill="#00ff00" id="svg_6" stroke="#00ff00" stroke-width="0"/>
  <path d="m245.11,245.66c-0.11,4.68 -0.23,4.24 1.46,16.64c1.24,9.68 3.04,12.51 7.1,11.53c2.7,-0.65 7.32,1.09 10.7,4.02l2.7,2.39l-0.79,-2.72c-0.45,-1.52 -1.13,-3.92 -1.46,-5.44c-0.56,-2.61 -5.07,-13.16 -6.87,-15.99c-4.39,-7.07 -10.03,-14.36 -11.15,-14.47c-0.9,0 -1.58,1.63 -1.69,4.02z" id="svg_7"/>
  <path d="m267.64,289.49c-0.34,3.92 -1.24,7.18 -2.37,8.48c-3.27,3.48 -2.14,7.18 6.53,20.34c2.7,4.13 4.96,7.94 5.07,8.48c0,0.44 1.35,2.28 3.04,4.02c2.14,2.28 3.94,3.26 6.53,3.26c7.21,0 9.58,-7.07 4.51,-13.49c-1.58,-1.96 -2.82,-3.92 -2.82,-4.35c0,-0.54 -1.13,-2.39 -2.48,-4.24c-1.46,-1.96 -3.15,-4.46 -3.83,-5.66c-7.1,-12.94 -9.8,-17.51 -10.7,-18.49c-0.56,-0.54 -1.01,-1.85 -1.01,-2.94c0,-1.09 -0.45,-1.96 -1.01,-1.96c-0.56,0 -1.24,2.94 -1.46,6.53z" id="svg_8"/>
 </g>
</svg>