<?xml version="1.0"?>
<svg width="512" height="512" xmlns="http://www.w3.org/2000/svg" xmlns:svg="http://www.w3.org/2000/svg" enable-background="new 0 0 512 512" version="1.1" xml:space="preserve">
 <g class="layer">
  <title>Layer 1</title>
  <path d="m132.08,433.16c1.99,-0.05 3.99,-0.15 5.98,-0.15c80.99,-0.01 161.97,-0.01 242.95,-0.01c9.86,0 11.99,-2.13 11.99,-12.01c0,-28.99 0,-57.98 0,-86.98c0,-1.82 0,-3.64 0,-6.41c10.88,3.15 21.46,5.71 31.69,9.3c17.71,6.21 35.21,13 52.72,19.78c1.53,0.59 3.43,2.84 3.44,4.33c0.16,39.66 0.1,79.31 0.06,118.97c0,0.14 -0.12,0.28 -0.43,0.95c-29.68,0 -59.61,0 -90.34,-0.26c-10.9,-1.07 -20.98,-1.88 -31.06,-2.69c-9.26,-0.74 -18.53,-1.4 -27.78,-2.22c-13.37,-1.19 -26.73,-2.56 -40.11,-3.71c-13.55,-1.17 -27.15,-1.83 -40.66,-3.29c-22.81,-2.47 -45.47,-6.32 -67.08,-14.08c-17.45,-6.27 -34.27,-14.28 -51.37,-21.52z" fill="#74fc74" id="svg_2" opacity="1" transform="matrix(1 0 0 1 0 0)"/>
  <path d="m131.66,433.09c17.52,7.31 34.34,15.32 51.79,21.59c21.61,7.76 44.27,11.61 67.08,14.08c13.51,1.46 27.11,2.12 40.66,3.29c13.38,1.15 26.74,2.52 40.11,3.71c9.25,0.82 18.52,1.48 27.78,2.22c10.08,0.81 20.16,1.62 30.59,2.64c-3.14,0.27 -6.64,0.37 -10.13,0.37c-113.31,0.01 -226.62,0.01 -339.94,0.01c-1.97,0 -3.95,0 -6.6,0c0,-41.89 0,-83.48 0.31,-125.31c4.5,4.48 8.55,9.33 12.92,13.89c15.94,16.62 33.56,31.29 52.6,44.2c7.12,4.82 14.79,8.84 22.2,13.23c1.98,4.43 5.36,6.48 10.63,6.08z" fill="#26e026" id="svg_3" opacity="1"/>
  <path d="m192.05,369.17c30.79,-0.06 61.58,-0.2 92.37,-0.08c4.89,0.02 8.49,-1.44 11.9,-4.91c13.99,-14.26 28.24,-28.26 42.26,-42.49c2.53,-2.58 4.73,-3.77 8.6,-2.95c9.74,2.05 19.62,3.47 29.8,5.2c0,25.56 0,50.83 -0.53,76.58c-37.02,0.47 -73.51,0.52 -110,0.44c-5.63,-0.01 -11.3,-0.28 -16.88,-0.98c-23.09,-2.89 -42.21,-13.34 -57.52,-30.81z" fill="#FAA6A6" id="svg_4" opacity="1"/>
  <path d="m191.6,369.1c15.76,17.54 34.88,27.99 57.97,30.88c5.58,0.7 11.25,0.97 16.88,0.98c36.49,0.08 72.98,0.03 109.93,0.02c0.46,5.13 0.46,10.26 0.46,15.71c-79.79,0 -159.45,0 -239.48,0c0,-31.74 0,-63.62 0,-96.19c10.47,-1.46 21.13,-2.95 32.21,-3.95c0.77,16.37 6.78,30.29 15.24,43.37c0,2.89 0,5.77 0,9.1c2.53,0 4.43,0 6.79,0.08m-24.35,-16.08c-4.72,0 -9.43,0 -13.86,0c0,5.8 0,10.84 0,15.59c5.44,0 10.48,0 15.99,0c-0.41,-5.45 -0.79,-10.47 -2.13,-15.59z" fill="#E88080" id="svg_5" opacity="1"/>
  <path d="m121.04,426.54c-7.42,-3.92 -15.09,-7.94 -22.21,-12.76c-19.04,-12.91 -36.66,-27.58 -52.6,-44.2c-4.37,-4.56 -8.42,-9.41 -12.86,-14.35c-0.35,-2.46 -1.03,-4.56 2.15,-5.8c27.58,-10.71 55.75,-19.42 85.54,-25.61c0,34.3 0,68.28 -0.02,102.72z" fill="#74fc74" id="svg_6" opacity="1" transform="matrix(1 0 0 1 0 0)"/>
  <path d="m206,93c-18.32,0 -36.15,0 -55.55,0c2.65,-2.01 4.21,-3.29 5.86,-4.42c26.15,-17.88 55.05,-27.23 86.73,-27.52c20.63,-0.19 41.31,-1.05 61.64,3.95c20.13,4.94 38.72,13.14 55.5,25.36c0.76,0.55 1.44,1.2 3.16,2.63c-53.07,0 -104.96,0 -157.34,0z" fill="#00ff00" id="svg_7" opacity="1"/>
  <path d="m242.82,345.97c0.62,-0.76 1.18,-1.59 1.87,-2.28c51.82,-51.83 103.64,-103.66 155.48,-155.48c4.95,-4.95 7.9,-5.35 13.64,-1.38c-1.54,2.56 -2.95,4.64 -4.69,6.39c-24.72,24.78 -49.44,49.55 -74.26,74.23c-3.93,3.92 -7.95,7.49 -7.27,13.86c0.2,1.88 -0.73,3.89 -1.15,5.84c-3.99,18.61 -17.17,30.79 -30.47,42.69c-4.89,4.37 -10.63,8.01 -16.48,11.03c-11.51,5.93 -24.17,5.35 -36.67,5.1z" fill="#E4E4E4" id="svg_8" opacity="1"/>
  <path d="m184.89,359.48c-8.54,-12.64 -14.55,-26.56 -14.9,-42.88c18.41,-1.77 36.81,-3.1 55.73,-4.46c0.08,-1.78 0.2,-4.19 0.34,-6.87c11.17,0 22.25,0 33.87,0c-0.94,1.13 -1.64,2.11 -2.48,2.95c-14,14.02 -27.95,28.09 -42.12,41.94c-1.65,1.6 -4.51,2.61 -6.86,2.72c-7.62,0.33 -15.27,0.12 -23.51,0.12c0,2.19 0,4.12 -0.07,6.48z" fill="#F9A5A5" id="svg_9" opacity="1"/>
  <path d="m392.83,117.06c0.42,7.94 0.42,7.94 -7.5,7.94c-85.76,0 -171.52,0 -257.29,0c-7.07,0 -7.07,0 -6.48,-7.52c90.77,-0.44 181.02,-0.43 271.27,-0.42z" fill="#77D5D8" id="svg_10" opacity="1"/>
  <path d="m392.9,116.62c-90.32,0.43 -180.57,0.42 -271.27,0.43c-0.89,-8.05 -0.89,-8.05 6.97,-8.05c85.8,0 171.61,0 257.41,0c7.02,0 7.02,0 6.89,7.62z" fill="#3B9DAF" id="svg_11" opacity="1"/>
  <path d="m242.51,346.07c12.81,0.15 25.47,0.73 36.98,-5.2c5.85,-3.02 11.59,-6.66 16.48,-11.03c13.3,-11.9 26.48,-24.08 30.47,-42.69c0.42,-1.95 1.35,-3.96 1.15,-5.84c-0.68,-6.37 3.34,-9.94 7.27,-13.86c24.82,-24.68 49.54,-49.45 74.26,-74.23c1.74,-1.75 3.15,-3.83 4.86,-6.08c4.29,4.77 4.06,8.47 -0.94,13.48c-20.45,20.5 -40.93,40.96 -61.41,61.44c-6.58,6.59 -13.41,12.97 -19.63,19.89c-2.11,2.34 -4.17,6.27 -3.74,9.1c2.07,13.72 -3.07,23.51 -13.5,32.22c-9.79,8.19 -18.24,17.97 -27.39,26.94c-1.3,1.27 -3.25,2.65 -4.91,2.67c-15.27,0.2 -30.54,0.12 -46.75,-1.03c2.17,-1.89 4.33,-3.78 6.8,-5.78z" fill="#B7B7B7" id="svg_12" opacity="1"/>
  <path d="m139.95,142.08c-0.13,-0.49 0.03,-0.96 0.19,-0.96c14.03,-0.04 28.06,-0.04 42.4,-0.04c-8.22,8.27 -28.7,10.78 -42.59,1z" fill="#F3DE88" id="svg_13" opacity="1"/>
  <path d="m372.86,142.92c-14.18,7.95 -27.78,7.27 -42.32,-1.49c15.32,0 29.49,0 43.68,0c0.03,0.08 0.16,0.33 0.11,0.38c-0.36,0.34 -0.76,0.63 -1.47,1.11z" fill="#F2DE88" id="svg_14" opacity="1"/>
  <path d="m272.69,140.99c2.12,0 3.78,0 5.56,0c-8.27,9.66 -30.01,9.96 -43.52,0c13.14,0 25.33,0 37.96,0z" fill="#F3DE88" id="svg_15" opacity="1"/>
  <path d="m51.85,180.3c-0.13,0.38 -0.29,0.57 -0.45,0.75c-0.08,-0.27 -0.16,-0.54 -0.23,-0.81c0.21,-0.04 0.42,-0.09 0.68,0.06z" fill="#020100" id="svg_16" opacity="1"/>
  <path d="m411.33,134.99c0.02,-0.42 0.18,-0.71 0.35,-1c-0.07,0.38 -0.14,0.76 -0.35,1z" fill="#020100" id="svg_17" opacity="1"/>
  <path d="m443.71,179.99c-0.11,0.15 -0.23,0.17 -0.34,0.18c0.11,-0.1 0.23,-0.21 0.34,-0.18z" fill="#020100" id="svg_18" opacity="1"/>
  <path d="m448.38,187.2c-0.03,-0.03 0.03,0.03 0,0z" fill="#020100" id="svg_19" opacity="1"/>
  <path d="m438.42,172.78c0.04,-0.02 -0.04,0.02 0,0z" fill="#020100" id="svg_20" opacity="1"/>
  <path d="m433.71,165.99c-0.11,0.15 -0.23,0.17 -0.34,0.18c0.11,-0.1 0.23,-0.21 0.34,-0.18z" fill="#020100" id="svg_21" opacity="1"/>
  <path d="m100.47,138.52c-0.03,-0.04 0.02,0.04 0,0z" fill="#020100" id="svg_22" opacity="1"/>
  <path d="m101.53,136.48c0.02,0.04 -0.02,-0.04 0,0z" fill="#020100" id="svg_23" opacity="1"/>
  <path d="m167.73,353.07c0.86,5.07 1.24,10.09 1.65,15.54c-5.51,0 -10.55,0 -15.99,0c0,-4.75 0,-9.79 0,-15.59c4.43,0 9.14,0 14.34,0.05z" fill="#000000" id="svg_24" opacity="1"/>
  <path d="m206,196c-18.32,0 -36.15,0 -55.55,0c2.65,-2.01 4.21,-3.29 5.86,-4.42c26.15,-17.88 55.05,-27.23 86.73,-27.52c20.63,-0.19 41.31,-1.05 61.64,3.95c20.13,4.94 38.72,13.14 55.5,25.36c0.76,0.55 1.44,1.2 3.16,2.63c-53.07,0 -104.96,0 -157.34,0z" fill="#00ff00" id="svg_25" opacity="1" transform="rotate(179.914 256.895 179.942)"/>
 </g>
</svg>