<?xml version="1.0"?>
<svg width="500" height="500" xmlns="http://www.w3.org/2000/svg" xmlns:svg="http://www.w3.org/2000/svg" preserveAspectRatio="xMidYMid meet" version="1.0">
 <!-- Created with SVG-edit - https://github.com/SVG-Edit/svgedit-->

 <g class="layer">
  <title>Layer 1</title>
  <path d="m212.47,12.69l22.76,0l15.52,3.69l0,2.46l6.21,2.46l8.28,6.14l5.17,6.14l2.07,1.23l3.1,7.37l4.14,6.14l6.21,20.88l1.03,1.23l1.03,19.66l-1.03,19.66l-5.17,13.51l-3.1,7.37l-8.28,13.51l-5.17,11.06l-1.03,3.69l-6.21,-2.46l-3.1,-7.37l-5.17,-7.37l-2.07,-6.14l-5.17,-7.37l-4.14,-9.83l0,-2.46l-3.1,-1.23l-3.1,-8.6l1.03,-6.14l4.14,-11.06l-1.03,-7.37l-2.07,-3.69l0,-3.69l-6.21,-2.46l-10.35,0l-5.17,2.46l-2.07,7.37l-1.03,6.14l7.24,17.2l2.07,1.23l3.1,8.6l9.31,18.43l3.1,3.69l1.03,6.14l2.07,0l4.14,7.37l5.17,9.83l2.07,1.23l1.03,7.37l3.1,1.23l9.31,17.2l2.07,1.23l3.1,7.37l7.24,12.28l2.07,6.14l3.1,1.23l3.1,7.37l4.14,4.91l5.17,11.06l3.1,2.46l3.1,7.37l4.14,4.91l1.03,6.14l2.07,0l4.14,7.37l5.17,9.83l3.1,2.46l1.03,8.6l-5.17,6.14l-3.1,1.23l-2.07,4.91l-2.07,0l-1.03,3.69l-8.28,8.6l-6.21,6.14l-2.07,0l-2.07,4.91l-6.21,2.46l-5.17,-11.06l-3.1,-3.69l-3.1,-6.14l-8.28,-14.74l0,-2.46l-3.1,-1.23l-3.1,-7.37l-5.17,-7.37l0,-3.69l-3.1,-1.23l-8.28,-15.97l-3.1,-2.46l-3.1,-7.37l-6.21,-11.06l-3.1,-6.14l-3.1,-2.46l-2.07,-6.14l-6.21,-9.83l-4.14,-8.6l-3.1,-2.46l-2.07,-6.14l-8.28,-13.51l-1.03,-4.91l-3.1,-1.23l-3.1,-7.37l-7.24,-12.28l-3.1,-6.14l-2.07,-1.23l-3.1,-8.6l-5.17,-8.6l-6.21,-19.66l0,-30.71l2.07,-4.91l2.07,-9.83l4.14,-12.28l5.17,-8.6l1.03,-3.69l6.21,-4.91l3.1,-4.91l5.17,-2.46l8.28,-6.14l15.52,-3.69z" fill="#000000" id="svg_4"/>
  <path d="m29.35,142.91l11.38,0l4.14,7.37l3.1,11.06l2.07,12.28l1.03,1.23l2.07,-4.91l6.21,-1.23l5.17,6.14l2.07,2.46l2.07,12.28l0,6.14l9.31,1.23l4.14,4.91l4.14,20.88l1.03,17.2l0,17.2l-4.14,1.23l-3.1,-3.69l-9.31,-3.69l-9.31,1.23l-5.17,3.69l-7.24,11.06l-3.1,13.51l2.07,13.51l3.1,9.83l2.07,7.37l0,2.46l2.07,0l3.1,6.14l5.17,9.83l4.14,4.91l1.03,4.91l5.17,2.46l3.1,6.14l5.17,2.46l1.03,4.91l5.17,2.46l10.35,8.6l7.24,3.69l0,2.46l6.21,1.23l10.35,4.91l6.21,0l5.17,-2.46l-1.03,-8.6l-4.14,-1.23l-9.31,-4.91l-9.31,-4.91l-5.17,-3.69l0,-2.46l-6.21,-1.23l-5.17,-6.14l-12.42,-12.28l-9.31,-13.51l-4.14,-4.91l-1.03,-7.37l-3.1,-1.23l-1.03,-7.37l-2.07,0l-1.03,-6.14l0,-14.74l3.1,-6.14l6.21,-2.46l10.35,1.23l3.1,1.23l3.1,4.91l0,2.46l4.14,1.23l3.1,7.37l5.17,7.37l7.24,9.83l0,2.46l3.1,1.23l0,2.46l4.14,2.46l12.42,9.83l8.28,3.69l10.35,6.14l7.24,3.69l8.28,4.91l7.24,3.69l8.28,6.14l7.24,4.91l3.1,3.69l4.14,2.46l1.03,6.14l4.14,2.46l3.1,6.14l5.17,11.06l3.1,9.83l4.14,15.97l2.07,3.69l2.07,17.2l3.1,24.57l0,3.69l-1.03,1.23l-80.7,0l-2.07,-2.46l-3.1,-18.43l-3.1,-11.06l-10.35,-11.06l-7.24,-6.14l-4.14,-2.46l0,-2.46l-5.17,-2.46l-8.28,-4.91l-5.17,-4.91l-9.31,-6.14l-4.14,-3.69l-5.17,-3.69l-5.17,-4.91l-3.1,-1.23l-5.17,-6.14l-9.31,-8.6l-4.14,-6.14l-4.14,-6.14l-4.14,-15.97l-3.1,-13.51l-4.14,-41.77l-3.1,-51.6l0,-58.97l3.1,-15.97l3.1,-4.91l1.03,-3.69z" fill="#00ff00" id="svg_5"/>
  <path d="m410.08,144.13l7.24,3.69l4.14,4.91l3.1,14.74l0,74.94l-3.1,45.45l-5.17,44.23l-8.28,24.57l-5.17,6.14l-4.14,4.91l-4.14,1.23l-2.07,4.91l-5.17,3.69l-3.1,3.69l-11.38,8.6l-5.17,4.91l-6.21,3.69l-5.17,4.91l-7.24,3.69l-10.35,8.6l-4.14,2.46l-2.07,3.69l-5.17,2.46l-2.07,4.91l-5.17,3.69l-4.14,18.43l-2.07,9.83l-1.03,1.23l-80.7,0l-2.07,-3.69l3.1,-19.66l2.07,-17.2l4.14,-15.97l3.1,-11.06l8.28,-18.43l8.28,-13.51l13.45,-11.06l8.28,-4.91l8.28,-6.14l6.21,-2.46l8.28,-4.91l12.42,-6.14l4.14,-3.69l7.24,-3.69l6.21,-4.91l6.21,-4.91l2.07,-4.91l5.17,-4.91l2.07,-4.91l4.14,-4.91l7.24,-12.28l6.21,-6.14l3.1,-2.46l11.38,0l5.17,4.91l1.03,3.69l0,17.2l-3.1,8.6l-7.24,14.74l-5.17,7.37l-5.17,6.14l-5.17,6.14l-2.07,2.46l-3.1,0l-2.07,4.91l-2.07,0l-1.03,3.69l-9.31,6.14l-1.03,2.46l-12.42,6.14l-7.24,3.69l-5.17,2.46l-1.03,8.6l3.1,2.46l7.24,0l5.17,-2.46l10.35,-4.91l15.52,-11.06l3.1,-3.69l5.17,-3.69l10.35,-11.06l7.24,-9.83l3.1,-3.69l2.07,-7.37l5.17,-6.14l4.14,-12.28l4.14,-14.74l0,-12.28l-4.14,-11.06l-3.1,-6.14l-6.21,-3.69l-3.1,-2.46l-12.42,0l-7.24,4.91l-3.1,1.23l-2.07,-2.46l1.03,-27.03l4.14,-25.8l3.1,-1.23l1.03,-3.69l9.31,-1.23l2.07,-17.2l7.24,-11.06l6.21,1.23l1.03,6.14l3.1,-3.69l4.14,-22.11l8.28,-8.6z" fill="#00ff00" id="svg_6"/>
  <path d="m186.61,188.36l2.07,2.46l5.17,11.06l3.1,3.69l4.14,8.6l3.1,3.69l3.1,6.14l6.21,11.06l1.03,7.37l-4.14,8.6l-2.07,0l-2.07,6.14l-6.21,11.06l-2.07,1.23l-2.07,7.37l-5.17,6.14l-4.14,7.37l-4.14,6.14l-2.07,7.37l-5.17,4.91l-2.07,6.14l-3.1,3.69l-4.14,7.37l-3.1,0l0,-2.46l-4.14,-1.23l-4.14,-6.14l-13.45,-12.28l-5.17,-7.37l-7.24,-6.14l-1.03,-6.14l3.1,-6.14l4.14,-4.91l3.1,-6.14l10.35,-17.2l4.14,-8.6l4.14,-4.91l3.1,-7.37l2.07,-1.23l1.03,-3.69l2.07,-1.23l2.07,-7.37l5.17,-4.91l2.07,-6.14l3.1,-3.69l4.14,-8.6l1.03,-2.46l4.14,-1.23z" fill="#000000" id="svg_7"/>
 </g>
</svg>