<?xml version="1.0"?>
<svg width="500" height="500" xmlns="http://www.w3.org/2000/svg" xmlns:svg="http://www.w3.org/2000/svg" preserveAspectRatio="xMidYMid meet" version="1.0">
 <!-- Created with SVG-edit - https://github.com/SVG-Edit/svgedit-->

 <g class="layer">
  <title>Layer 1</title>
  <path d="m180.48,66.62c-4.26,0.27 -8.2,0.89 -8.77,1.25c-0.82,0.54 -3.93,1.34 -17.05,4.28c-3.69,0.8 -8.77,2.94 -12.87,5.35c-0.82,0.45 -1.88,0.8 -2.54,0.8c-0.57,0 -3.85,1.52 -7.38,3.48c-3.44,1.87 -6.97,3.66 -7.7,4.02c-1.56,0.54 -3.52,1.78 -6.72,4.28c-1.07,0.89 -2.62,1.61 -3.44,1.61c-0.9,0 -1.56,0.36 -1.56,0.8c0,0.71 -3.28,3.12 -8.2,6.16c-1.15,0.62 -2.87,2.05 -3.85,3.03c-0.98,0.98 -2.54,2.32 -3.44,2.86c-1.48,0.89 -10.41,8.3 -13.19,10.89c-8.61,7.94 -14.59,13.92 -17.78,17.49c-1.64,1.87 -3.36,3.39 -3.85,3.39c-0.49,0 -1.56,1.25 -2.38,2.77c-0.74,1.52 -2.13,2.94 -3.03,3.21c-0.9,0.27 -1.8,1.25 -2.05,2.14c-0.33,0.89 -1.8,2.77 -3.36,4.02c-1.56,1.34 -2.79,2.77 -2.79,3.3c0,0.45 -1.39,2.41 -3.03,4.19c-6.15,6.42 -20.73,25.16 -20.73,26.5c0,0.62 -2.79,7.41 -4.18,10.26c-0.41,0.89 -0.74,4.19 -0.74,7.49c0,10.89 6.39,21.77 14.75,25.16c3.52,1.43 11.31,1.7 13.52,0.45c0.9,-0.54 3.2,-1.25 5.08,-1.61c3.11,-0.54 3.69,-0.36 5.49,1.78c4.18,5 15.24,16.6 21.31,22.31c2.62,2.41 5.9,5.62 7.38,6.96c1.39,1.43 3.52,3.12 4.67,3.75c1.23,0.71 2.38,1.87 2.62,2.68c0.33,0.71 0.98,1.34 1.56,1.34c0.57,0 2.46,1.43 4.18,3.12c1.72,1.7 3.52,3.12 3.93,3.12c0.41,0 2.38,1.25 4.26,2.68c6.47,5.09 12.29,9.01 16.8,11.24c2.46,1.25 5,2.77 5.65,3.48c0.66,0.71 1.8,1.34 2.62,1.34c0.82,0 4.1,1.43 7.38,3.12c3.2,1.7 6.39,3.12 6.97,3.12c1.23,0 7.13,1.87 14.42,4.46c6.31,2.32 27.62,3.84 37.29,2.68c4.1,-0.45 9.51,-0.89 12.13,-0.89c2.62,0 5.57,-0.45 6.56,-1.07c1.64,-0.98 3.44,-1.52 13.69,-4.37c3.44,-0.89 5.9,-1.96 13.03,-5.62c1.56,-0.8 3.36,-1.43 3.93,-1.43c0.66,0 2.13,-0.8 3.28,-1.78c1.15,-0.98 2.54,-1.78 3.11,-1.78c0.57,0 1.48,-0.62 2.05,-1.34c0.57,-0.71 1.64,-1.34 2.38,-1.34c0.74,0 3.11,-1.43 5.33,-3.12c2.21,-1.7 4.43,-3.12 4.84,-3.12c0.49,0 2.38,-1.43 4.34,-3.12c1.88,-1.7 4.02,-3.12 4.75,-3.12c0.66,0 1.72,-0.71 2.29,-1.61c0.57,-0.89 2.21,-2.41 3.52,-3.3c1.39,-0.98 4.18,-3.21 6.23,-5.09c2.13,-1.87 4.02,-3.39 4.26,-3.39c0.25,0 1.72,-1.43 3.28,-3.12c1.56,-1.7 3.44,-3.12 4.1,-3.12c0.74,0 1.56,-0.8 1.8,-1.78c0.33,-0.98 1.56,-2.5 2.7,-3.39c1.23,-0.8 3.36,-2.68 4.75,-4.19c1.48,-1.43 3.11,-3.21 3.69,-3.84c1.56,-1.61 4.1,-4.37 8.69,-9.46c2.13,-2.41 5.16,-5.71 6.64,-7.32l2.7,-2.94l-1.72,-1.87c-4.26,-4.64 -16.88,-0.62 -25.49,8.3c-3.03,3.03 -7.62,7.49 -10.16,9.99c-2.62,2.41 -6.23,5.98 -8.03,7.76c-1.8,1.87 -3.77,3.39 -4.43,3.39c-0.57,0 -1.31,0.62 -1.56,1.34c-0.25,0.71 -1.8,2.23 -3.44,3.3c-1.72,1.07 -3.2,2.23 -3.44,2.59c-0.57,0.89 -6.47,5.26 -7.05,5.26c-0.25,0 -2.13,1.43 -4.18,3.12c-2.05,1.7 -4.1,3.12 -4.51,3.12c-0.33,0 -2.54,1.43 -4.75,3.12c-2.21,1.7 -4.84,3.12 -5.65,3.12c-0.9,0 -2.13,0.54 -2.7,1.16c-1.39,1.52 -7.79,4.73 -10.82,5.53c-1.31,0.27 -4.02,1.78 -5.98,3.21c-2.38,1.78 -4.92,2.86 -7.79,3.21c-2.54,0.27 -4.75,1.07 -5.41,1.96c-1.56,2.14 -38.93,2.14 -44.42,-0.09c-2.05,-0.8 -5.49,-1.7 -7.79,-2.05c-4.59,-0.62 -8.85,-2.05 -14.34,-4.82c-2.05,-0.98 -4.51,-1.87 -5.41,-1.87c-0.98,0 -2.21,-0.62 -2.79,-1.34c-0.57,-0.71 -1.64,-1.34 -2.46,-1.34c-0.74,0 -2.05,-0.8 -2.87,-1.78c-0.82,-0.98 -2.29,-1.78 -3.28,-1.78c-1.07,0 -2.29,-0.62 -2.87,-1.34c-0.57,-0.71 -1.48,-1.34 -2.05,-1.34c-0.49,0 -1.64,-0.8 -2.46,-1.78c-0.82,-0.98 -1.97,-1.78 -2.54,-1.78c-0.57,0 -2.7,-1.43 -4.75,-3.12c-2.13,-1.7 -4.02,-3.12 -4.34,-3.12c-0.25,0 -1.97,-1.34 -3.85,-2.94c-1.88,-1.61 -4.43,-3.66 -5.82,-4.55c-2.62,-1.87 -4.1,-3.12 -8.77,-8.03c-1.64,-1.78 -3.28,-3.21 -3.61,-3.21c-0.82,0 -4.51,-3.84 -18.69,-19.27c-12.54,-13.65 -13.69,-14.36 -20.98,-13.29c-2.79,0.45 -4.18,1.07 -4.51,2.14c-0.25,0.8 -1.72,2.05 -3.28,2.59c-6.06,2.41 -10.16,-3.57 -8.93,-13.03c0.66,-5.62 2.05,-7.94 8.85,-15.52c1.64,-1.78 2.95,-3.66 2.95,-4.02c0,-0.45 2.79,-4.02 6.23,-7.94c13.6,-15.52 24.83,-28.02 25.16,-28.02c0.16,0 3.11,-2.77 6.39,-6.25c3.36,-3.39 6.47,-6.25 7.05,-6.25c0.57,0 1.39,-0.8 1.88,-1.78c0.49,-0.98 2.29,-2.77 3.93,-4.02c1.64,-1.25 5.82,-4.46 9.18,-7.14c3.36,-2.77 7.13,-5.35 8.44,-5.89c1.23,-0.54 2.21,-1.34 2.21,-1.78c0,-0.54 2.13,-1.96 4.75,-3.39c2.7,-1.34 5.9,-3.3 7.13,-4.37c1.23,-1.07 3.77,-2.41 5.65,-3.03c1.8,-0.54 4.18,-1.7 5.08,-2.5c0.98,-0.8 3.93,-2.14 6.56,-3.03c2.7,-0.98 5.98,-2.23 7.29,-2.86c5,-2.32 11.15,-3.93 18.6,-4.91c4.18,-0.45 10.41,-1.25 13.77,-1.7c3.44,-0.36 8.61,-0.36 11.88,0.09c3.2,0.45 9.01,1.16 12.95,1.7c7.62,0.89 15.65,3.12 17.78,5c0.66,0.54 2.95,1.34 5,1.61c2.13,0.36 4.51,1.16 5.33,1.87c0.9,0.71 2.13,1.34 2.87,1.34c0.74,0 1.8,0.54 2.29,1.25c0.57,0.71 2.21,1.61 3.61,1.96c1.48,0.27 3.11,0.98 3.77,1.52c1.39,1.34 4.02,2.94 7.05,4.55c1.39,0.71 4.02,2.5 5.9,4.02c1.97,1.52 3.85,2.77 4.34,2.77c0.41,0 0.82,0.36 0.82,0.8c0,0.45 1.07,1.25 2.38,1.87c1.31,0.54 2.62,1.61 2.87,2.32c0.25,0.71 0.98,1.25 1.56,1.25c0.66,0 2.54,1.43 4.18,3.12c1.72,1.7 3.44,3.12 3.93,3.12c0.49,0 2.05,1.43 3.61,3.12c1.48,1.7 3.03,3.12 3.44,3.12c0.49,0 0.98,0.36 1.15,0.71c0.16,0.45 3.28,3.57 6.88,7.14c10.33,9.81 18.52,18.92 32.86,36.49c1.23,1.52 3.44,4.19 4.75,5.98c8.69,11.42 11.64,13.29 16.31,10.35c2.79,-1.87 2.95,-2.23 2.95,-6.6c0,-4.19 -0.33,-5 -3.28,-8.48c-1.8,-2.05 -3.28,-4.37 -3.28,-5c0,-0.71 -0.66,-1.43 -1.56,-1.78c-0.82,-0.27 -2.21,-1.87 -3.03,-3.57c-0.82,-1.7 -1.97,-3.12 -2.54,-3.12c-0.57,0 -1.31,-0.71 -1.72,-1.52c-0.98,-1.87 -11.23,-13.92 -18.03,-21.15c-11.31,-11.96 -15,-15.7 -15.57,-15.7c-0.33,0 -1.64,-1.16 -3.03,-2.68c-3.44,-3.75 -9.92,-9.81 -10.49,-9.81c-0.25,0 -1.56,-1.07 -2.79,-2.32c-1.23,-1.34 -4.26,-3.66 -6.56,-5.35c-2.38,-1.7 -4.34,-3.39 -4.34,-3.93c0,-0.45 -0.66,-0.89 -1.48,-0.89c-0.82,0 -3.52,-1.61 -5.9,-3.57c-2.38,-1.96 -4.84,-3.57 -5.33,-3.57c-0.49,0 -2.13,-1.16 -3.69,-2.68c-1.56,-1.43 -3.44,-2.59 -4.1,-2.68c-1.31,0 -5.49,-2.14 -9.01,-4.64c-1.15,-0.8 -3.36,-1.7 -4.92,-2.05c-1.56,-0.36 -3.36,-0.98 -4.1,-1.43c-3.52,-1.96 -8.85,-4.37 -9.75,-4.37c-1.07,0 -15.73,-3.66 -21.39,-5.35c-3.77,-1.07 -21.31,-1.7 -31.14,-0.98z" id="svg_6"/>
  <path d="m184.99,100.08c-2.21,0.62 -7.05,1.61 -10.65,2.14c-9.92,1.43 -14.83,2.59 -16.96,4.02c-1.07,0.71 -4.67,2.32 -8.03,3.48c-3.36,1.07 -6.31,2.32 -6.39,2.77c-0.33,0.8 -8.52,5.09 -9.75,5.09c-0.49,0 -2.05,1.16 -3.52,2.68c-1.48,1.43 -3.11,2.68 -3.77,2.68c-0.66,0 -1.8,0.71 -2.62,1.52c-2.54,2.68 -6.64,5.62 -7.79,5.62c-0.57,0 -1.88,1.16 -2.87,2.68c-0.98,1.43 -2.79,2.94 -3.85,3.21c-1.15,0.27 -2.05,0.98 -2.05,1.61c0,0.54 -1.64,2.14 -3.69,3.48c-2.05,1.43 -3.69,2.94 -3.69,3.39c0,0.45 -1.48,1.87 -3.28,3.12c-1.8,1.34 -3.28,2.94 -3.28,3.57c0,0.71 -0.49,1.25 -1.07,1.25c-0.66,0 -2.21,1.43 -3.52,3.12c-1.31,1.7 -2.87,3.12 -3.36,3.12c-0.57,0 -1.07,0.62 -1.07,1.34c0,0.71 -0.33,1.34 -0.66,1.34c-1.15,0 -14.1,14.9 -14.1,16.15c0,0.45 -0.57,0.8 -1.23,0.8c-0.66,0 -1.39,1.07 -1.72,2.41c-0.25,1.43 -0.66,3.03 -0.82,3.66c-0.74,2.68 3.44,8.21 6.23,8.21c1.07,0 7.62,-6.51 18.93,-18.74c9.51,-10.35 18.19,-19 19.26,-19.27c1.07,-0.27 1.97,-1.07 1.97,-1.61c0,-1.07 4.26,-5 5.49,-5c0.41,0 1.15,-0.8 1.72,-1.78c0.49,-0.98 2.38,-2.59 4.18,-3.48c1.8,-0.98 3.36,-2.14 3.52,-2.5c0.49,-1.43 5.57,-4.73 7.05,-4.73c0.9,0 1.8,-0.8 2.05,-1.7c0.25,-0.98 1.39,-1.96 2.95,-2.32c1.39,-0.36 2.54,-0.98 2.54,-1.43c0,-0.45 0.66,-0.8 1.56,-0.8c0.82,0 2.38,-0.71 3.44,-1.7c3.93,-3.21 19.42,-3.03 22.54,0.36c0.66,0.71 2.13,1.34 3.11,1.34c0.98,0 3.03,1.25 4.51,2.86c1.48,1.61 3.44,3.3 4.43,3.84c0.98,0.54 1.88,1.87 2.05,2.94c0.16,1.16 0.82,2.32 1.48,2.59c1.72,0.71 4.43,6.87 4.43,9.99c0,1.43 0.57,3.3 1.31,4.02c2.29,2.5 0.57,15.08 -3.2,23.64c-2.46,5.44 -10.65,14.36 -13.28,14.36c-1.23,0 -2.05,0.54 -2.05,1.34c0,0.71 -1.31,1.61 -3.03,2.14c-10.65,3.03 -10.65,3.03 -17.87,1.43c-4.26,-0.98 -7.46,-2.23 -8.28,-3.3c-0.82,-0.89 -1.97,-1.61 -2.7,-1.61c-1.8,0 -9.92,-9.01 -9.92,-10.97c0,-0.8 -0.41,-1.52 -0.82,-1.52c-0.49,0 -1.56,-1.25 -2.38,-2.68l-1.48,-2.68l-0.82,2.05c-0.49,1.16 -0.82,4.28 -0.66,6.96c0.49,10.8 1.48,21.32 1.97,21.32c0.66,0 5,11.6 5,13.2c0,0.54 0.49,1.34 1.07,1.7c1.31,0.89 4.67,7.14 4.67,8.65c0,0.71 0.74,1.43 1.64,1.7c0.9,0.27 2.21,1.61 3.03,3.03c0.74,1.43 2.54,3.48 4.1,4.55c1.48,1.07 2.7,2.59 2.7,3.3c0,0.71 0.57,1.34 1.31,1.34c0.74,0 2.79,1.34 4.67,2.86c2.95,2.59 9.01,6.07 13.11,7.58c0.74,0.27 1.39,0.8 1.39,1.25c0,0.45 1.07,0.8 2.38,0.8c1.31,0 4.67,0.62 7.38,1.43c9.51,2.59 35.16,0.45 39.09,-3.3c0.9,-0.98 2.46,-1.7 3.36,-1.7c0.9,0 2.13,-0.62 2.7,-1.34c0.57,-0.71 1.88,-1.34 3.03,-1.34c1.07,0 2.13,-0.62 2.38,-1.34c0.33,-0.8 2.05,-2.32 3.93,-3.57c1.8,-1.16 3.85,-2.94 4.43,-4.02c0.57,-0.98 1.56,-1.78 2.21,-1.78c0.66,0 1.23,-0.27 1.23,-0.71c0,-0.36 1.23,-2.05 2.62,-3.75c1.48,-1.7 3.69,-4.82 4.92,-6.96c1.23,-2.05 2.62,-3.75 3.11,-3.75c0.41,0 0.82,-0.71 0.82,-1.61c0,-0.89 0.57,-2.41 1.23,-3.39c0.66,-0.89 1.23,-2.32 1.23,-3.12c0,-0.8 0.74,-2.41 1.56,-3.57c2.79,-3.93 5.08,-23.55 4.02,-35.15c-0.74,-9.01 -2.29,-17.84 -3.11,-18.11c-0.41,-0.18 -1.72,-3.12 -2.95,-6.6c-1.23,-3.48 -2.79,-7.05 -3.52,-7.85c-2.46,-2.86 -4.18,-5.71 -4.18,-6.78c0,-0.54 -0.74,-1.25 -1.64,-1.52c-0.9,-0.27 -1.64,-1.25 -1.64,-2.14c0,-0.89 -0.41,-2.14 -0.98,-2.77c-2.13,-2.32 3.85,-1.07 6.72,1.43c1.56,1.34 4.26,3.21 6.06,4.19c1.72,0.98 3.36,2.5 3.61,3.3c0.16,0.89 0.98,1.61 1.8,1.61c0.82,0 2.79,1.34 4.34,2.86c3.2,3.21 5,4.64 7.79,6.25c0.98,0.54 1.8,1.34 1.8,1.87c0,1.07 3.44,4.1 4.67,4.19c0.49,0 1.23,0.8 1.48,1.78c0.25,0.98 0.9,1.78 1.31,1.78c0.74,0 21.06,21.95 23.68,25.61c4.1,5.71 13.03,4.1 13.11,-2.32c0,-3.12 -2.62,-8.83 -4.26,-9.28c-0.82,-0.27 -2.13,-1.7 -2.87,-3.21c-0.82,-1.52 -1.88,-2.77 -2.38,-2.77c-0.49,0 -1.64,-1.07 -2.46,-2.32c-1.97,-2.94 -2.87,-3.93 -5.57,-6.07c-1.15,-0.89 -2.13,-2.23 -2.13,-2.86c0,-0.71 -0.33,-1.25 -0.66,-1.25c-1.15,0 -5.08,-4.02 -5.08,-5.17c0,-0.62 -0.41,-1.07 -0.82,-1.07c-0.49,0 -2.46,-1.61 -4.43,-3.57c-1.97,-1.96 -3.93,-3.57 -4.51,-3.57c-0.49,0 -0.9,-0.45 -0.9,-0.89c0,-0.54 -0.9,-1.43 -2.05,-1.96c-1.15,-0.54 -2.05,-1.52 -2.05,-2.23c0,-0.62 -0.57,-1.16 -1.23,-1.16c-0.66,0 -1.23,-0.36 -1.23,-0.89c0,-0.45 -0.9,-1.07 -2.05,-1.43c-1.07,-0.27 -2.21,-1.16 -2.46,-1.96c-0.25,-0.89 -1.97,-2.32 -3.77,-3.21c-1.88,-0.89 -3.61,-2.41 -3.77,-3.3c-0.25,-0.98 -0.9,-1.7 -1.56,-1.7c-1.56,0 -7.95,-3.66 -8.77,-5c-0.33,-0.62 -1.64,-1.34 -2.95,-1.7c-1.31,-0.27 -2.87,-1.16 -3.44,-1.87c-0.49,-0.71 -1.64,-1.25 -2.46,-1.25c-0.82,0 -1.8,-0.54 -2.13,-1.16c-0.33,-0.71 -3.44,-2.14 -6.8,-3.39c-3.36,-1.16 -6.39,-2.59 -6.72,-3.12c-0.41,-0.62 -2.62,-1.34 -4.92,-1.7c-2.38,-0.27 -5.08,-0.89 -5.98,-1.34c-1.8,-0.89 -18.28,-3.57 -24.59,-4.1c-2.21,-0.09 -5.9,0.27 -8.2,0.89z" fill="#00ff00" id="svg_7"/>
 </g>
</svg>