<?xml version="1.0"?>
<svg width="500" height="500" xmlns="http://www.w3.org/2000/svg" xmlns:svg="http://www.w3.org/2000/svg" preserveAspectRatio="xMidYMid meet" version="1.0">
 <!-- Created with SVG-edit - https://github.com/SVG-Edit/svgedit-->

 <g class="layer">
  <title>Layer 1</title>
  <path d="m197.73,15.28l8.96,4.38l3.84,3.28l0,2.19l5.12,2.19l8.96,6.56l6.4,5.47l6.4,6.56l6.4,4.38l8.96,8.75l6.4,5.47l12.8,12.03l3.84,3.28l6.4,5.47l5.12,6.56l5.12,4.38l14.08,15.32l3.84,3.28l3.84,5.47l3.84,3.28l3.84,5.47l5.12,5.47l5.12,6.56l0,2.19l2.56,0l7.68,9.85l7.68,9.85l11.52,17.5l5.12,14.22l2.56,5.47l1.28,10.94l1.28,32.82l5.12,59.08l1.28,6.56l2.56,41.57l5.12,39.39l1.28,9.85l0,21.88l-19.2,0l-2.56,-2.19l-3.84,-21.88l-1.28,-24.07l-3.84,-33.92l-2.56,-17.5l-2.56,-45.95l-2.56,-30.63l-1.28,-27.35l-5.12,-24.07l-5.12,-8.75l-6.4,-10.94l-3.84,-3.28l-1.28,-5.47l-2.56,0l-10.24,-13.13l-3.84,-4.38l-3.84,-5.47l-3.84,-3.28l-1.28,-3.28l-3.84,-3.28l-7.68,-8.75l0,-2.19l-5.12,-2.19l-3.84,-5.47l-5.12,-5.47l0,-2.19l-5.12,-2.19l-7.68,-7.66l0,-2.19l-2.56,0l-6.4,-7.66l-6.4,-5.47l-6.4,-5.47l0,-2.19l-2.56,0l-8.96,-8.75l-6.4,-5.47l-7.68,-5.47l-5.12,-5.47l-3.84,-2.19l0,-2.19l-5.12,-2.19l-6.4,-5.47l-7.68,-5.47l-2.56,-5.47l3.84,-1.09l6.4,-6.56l3.84,-3.28z" fill="#00ff00" id="svg_4"/>
  <path d="m115.81,29.5l5.12,1.09l0,2.19l6.4,1.09l3.84,5.47l5.12,2.19l3.84,5.47l5.12,2.19l3.84,5.47l3.84,1.09l1.28,4.38l2.56,0l0,2.19l5.12,1.09l3.84,5.47l5.12,2.19l3.84,5.47l5.12,2.19l3.84,5.47l3.84,1.09l5.12,6.56l3.84,1.09l3.84,5.47l6.4,5.47l6.4,5.47l11.52,12.03l3.84,2.19l0,2.19l2.56,0l10.24,10.94l6.4,5.47l6.4,6.56l6.4,5.47l8.96,8.75l5.12,4.38l2.56,5.47l5.12,4.38l6.4,10.94l1.28,7.66l1.28,1.09l0,14.22l-5.12,13.13l-3.84,7.66l-6.4,5.47l-3.84,3.28l-11.52,6.56l-12.8,1.09l-14.08,-1.09l-15.36,-9.85l-3.84,-3.28l-2.56,-9.85l3.84,-12.03l6.4,-8.75l3.84,-8.75l0,-6.56l-6.4,-13.13l-8.96,-13.13l0,-2.19l-3.84,-1.09l-5.12,-6.56l-3.84,-3.28l-3.84,-5.47l-8.96,-12.03l-5.12,-2.19l-5.12,-4.38l0,-2.19l-3.84,-1.09l-5.12,-5.47l-3.84,-3.28l0,-2.19l-2.56,0l-1.28,-2.19l-3.84,-1.09l-5.12,-6.56l-2.56,-1.09l-3.84,-5.47l-6.4,-2.19l-5.12,-5.47l-3.84,-2.19l0,-2.19l-5.12,-2.19l-17.92,-13.13l-15.36,-12.03l2.56,-4.38l24.32,-20.79z" fill="#000000" id="svg_5"/>
  <path d="m49.25,143.28l6.4,1.09l2.56,1.09l0,2.19l5.12,2.19l7.68,3.28l6.4,4.38l7.68,3.28l7.68,4.38l7.68,3.28l7.68,4.38l11.52,5.47l8.96,3.28l0,2.19l7.68,2.19l10.24,4.38l7.68,4.38l7.68,2.19l15.36,7.66l6.4,5.47l5.12,4.38l6.4,9.85l2.56,5.47l3.84,17.5l0,52.51l2.56,22.97l1.28,4.38l2.56,20.79l5.12,17.5l3.84,16.41l6.4,18.6l2.56,9.85l2.56,9.85l-3.84,3.28l-17.92,-1.09l-5.12,-10.94l-3.84,-9.85l-2.56,-13.13l-6.4,-18.6l-2.56,-14.22l-5.12,-20.79l-1.28,-8.75l-1.28,-22.97l0,-54.7l-3.84,-14.22l-3.84,-5.47l-6.4,-5.47l-2.56,-4.38l-8.96,-2.19l-11.52,-5.47l-12.8,-5.47l0,-2.19l-8.96,-1.09l-1.28,-2.19l-15.36,-6.56l-8.96,-4.38l-11.52,-6.56l-7.68,-3.28l-10.24,-5.47l-6.4,-3.28l-5.12,-3.28l-8.96,-4.38l-3.84,-3.28l-5.12,-1.09l1.28,-6.56l5.12,-1.09l2.56,-4.38l5.12,-3.28z" fill="#00ff00" id="svg_6"/>
  <path d="m297.56,175.01l8.96,1.09l8.96,5.47l6.4,14.22l0,21.88l-5.12,9.85l-2.56,1.09l-8.96,0l-5.12,-4.38l0,-13.13l-2.56,-10.94l-7.68,-16.41l0,-3.28l3.84,-4.38l3.84,-1.09z" fill="#000000" id="svg_7"/>
  <path d="m283.48,252.69l17.92,0l12.8,3.28l11.52,8.75l5.12,12.03l3.84,16.41l1.28,28.45l-1.28,3.28l-10.24,7.66l-3.84,3.28l-2.56,0l-2.56,4.38l-8.96,7.66l-3.84,3.28l-3.84,0l-3.84,-16.41l-6.4,-19.69l-5.12,-7.66l0,-2.19l-3.84,1.09l0,16.41l1.28,19.69l-5.12,4.38l-1.28,3.28l-6.4,3.28l-2.56,4.38l-7.68,0l-1.28,-41.57l-1.28,-16.41l-6.4,-3.28l-7.68,-2.19l-6.4,-3.28l-2.56,-3.28l0,-9.85l6.4,-7.66l11.52,-7.66l19.2,-7.66l14.08,-2.19z" fill="#000000" id="svg_8"/>
  <path d="m333.4,343.49l5.12,0l3.84,42.67l1.28,9.85l0,45.95l-35.84,1.09l-3.84,-3.28l0,-17.5l-1.28,-26.26l-1.28,-10.94l0,-13.13l5.12,-5.47l7.68,-5.47l5.12,-5.47l7.68,-5.47l6.4,-6.56z" fill="#000000" id="svg_9"/>
  <path d="m280.92,363.19l2.56,0l2.56,28.45l3.84,22.97l2.56,12.03l1.28,14.22l-1.28,1.09l-19.2,0l-2.56,-3.28l-3.84,-15.32l-2.56,-26.26l-1.28,-5.47l0,-13.13l3.84,-5.47l5.12,-3.28l2.56,0l1.28,-4.38l5.12,-2.19z" fill="#000000" id="svg_10"/>
 </g>
</svg>