<?xml version="1.0"?>
<svg width="512" height="512" xmlns="http://www.w3.org/2000/svg" xmlns:svg="http://www.w3.org/2000/svg" enable-background="new 0 0 512 512" version="1.1" xml:space="preserve">
 <!-- Created with SVG-edit - https://github.com/SVG-Edit/svgedit-->

 <g class="layer">
  <title>Layer 1</title>
  <!-- Created with SVG-edit - https://github.com/SVG-Edit/svgedit-->
  <path d="m264.75,181.95c-0.01,3.98 0.32,8.04 -0.16,11.95c-0.23,1.88 -2,3.56 -3.75,5.47c-4.08,3.97 -7.46,7.81 -10.87,11.66c-0.34,0.32 -0.67,0.63 -1.56,1.26c-3.47,3.21 -6.52,6.02 -9.32,9.06c-2.01,2.17 -3.71,4.68 -5.55,7.06c-0.33,0.32 -0.66,0.66 -1.52,1.29c-3.47,3.21 -6.52,6 -9.32,9.03c-2.01,2.19 -3.71,4.7 -5.56,7.06c-0.33,0.32 -0.66,0.66 -1.53,1.3c-3.47,3.23 -6.52,6.02 -9.32,9.06c-2.01,2.17 -3.71,4.7 -5.55,7.07c-0.34,0.32 -0.68,0.63 -1.56,1.26c-3.55,3.28 -6.63,6.17 -9.49,9.29c-1.95,2.1 -3.6,4.54 -5.37,6.83c-0.33,0.32 -0.66,0.66 -1.52,1.29c-3.47,3.2 -6.52,6 -9.32,9.05c-2.01,2.17 -3.71,4.7 -5.56,7.06c-0.47,0.62 -0.91,1.23 -1.94,2.16c-3.84,3.84 -7.11,7.39 -10.38,10.94c-0.01,0.43 -0.03,0.86 -0.37,1.73c-0.19,1.01 -0.05,1.6 0.1,2.17c-0.27,2.2 -0.54,4.4 -1.53,6.86c-4.95,3.07 -8.84,0.8 -12.8,-0.67c-0.29,-0.13 -0.58,-0.25 -0.87,-1.01c-3.71,-4.24 -7.41,-7.85 -11.11,-11.47c-0.11,-0.15 -0.23,-0.31 -0.38,-1.09c-3.23,-4.07 -6.6,-7.31 -9.51,-10.95c-2.83,-3.53 -4.12,-2.06 -5.31,1.19c-0.19,0.15 -0.39,0.29 -1.19,0.73c-1.93,1.95 -3.26,3.6 -4.59,5.26c-0.39,0.39 -0.79,0.77 -1.7,1.59c-2.05,2.01 -3.56,3.58 -5.07,5.13c0,0 0.03,0.17 -0.35,0.28c-1.43,1.56 -2.47,3 -3.51,4.45c-0.18,0.13 -0.37,0.27 -1.17,0.56c-1.96,1.91 -3.29,3.65 -4.64,5.39c-0.38,0.39 -0.75,0.77 -1.7,1.51c-2.19,2.3 -3.81,4.24 -5.44,6.19c1.81,1.5 3.64,3 5.45,4.49c0,0 -0.05,0.04 -0.05,0.39c1.91,2.17 3.83,4 5.74,5.82c0,0 0.06,-0.01 0.01,0.39c0.73,1.84 2.18,3.28 2.18,4.71c-0.04,2.76 -0.25,5.96 -1.57,8.16c-1.68,2.82 -4.33,2.64 -6.93,0.13c-3.12,-3.03 -6.68,-5.57 -10.03,-8.32c0,0 -0.01,0.01 0.01,-0.36c-2.05,-3.04 -3.88,-5.98 -6.25,-8.3c-3.18,-3.16 -6.77,-5.84 -10.19,-8.71c0,0 0,0 0,-0.36c-3.07,-3.96 -5.93,-7.77 -9.26,-11.07c-3.07,-3.04 -4.65,-6.63 -2.7,-10.37c2.04,-3.9 5.66,-3.69 9.15,-1.35c0.75,0.5 1.82,0.46 2.75,0.67c0,0 0.06,-0.03 0.01,0.36c1.57,1.85 3.19,3.31 4.81,4.74c0,0 0.05,-0.06 0.04,0.36c2.26,5.96 6.77,8.54 9.83,5.44c4.54,-4.57 8.39,-9.89 12.54,-14.88c0.16,-0.17 0.34,-0.32 1.05,-0.83c5.18,-4.87 9.93,-9.29 14.32,-14.07c0.68,-0.74 0.03,-3.31 -0.57,-4.78c-0.35,-0.88 -1.96,-1.12 -2.74,-1.94c-7.02,-7.48 -14.25,-14.77 -20.78,-22.71c-1.81,-2.2 -2.33,-6.68 -1.65,-9.64c0.35,-1.56 4.56,-2.2 7.08,-3.1c1.25,-0.43 3.03,-0.04 3.88,-0.86c5.41,-5.18 10.71,-10.49 15.86,-15.96c6.36,-6.76 12.45,-13.83 18.84,-20.58c8.07,-8.51 16.43,-16.72 24.45,-25.29c2.58,-2.76 4.5,-6.23 6.73,-9.36c0.19,-0.25 0.42,-0.46 1.2,-0.74c1.24,-0.48 2.1,-0.67 2.62,-1.25c6.28,-6.97 12.38,-14.14 18.81,-20.96c7.75,-8.22 15.79,-16.17 23.7,-24.24c1.04,-0.01 2.09,-0.03 3.71,0.25c4.95,1.95 9.32,3.59 13.7,5.25c0.34,0.07 0.67,0.15 1.41,0.55c2.38,1.35 4.33,2.41 6.32,3.38c3.1,1.53 6.36,2.82 9.36,4.59c2.13,1.26 3.91,3.16 5.87,4.78c0,0 0.11,0.38 0.16,0.9c0.34,1.11 0.51,1.88 0.96,2.24c8.37,6.69 13.66,15.37 16,26.29c0.7,3.25 2.94,6.12 4.47,9.17m-32.84,24.64c0,0 0.14,0.25 0.75,0c2.04,-2.33 4.08,-4.66 5.95,-7.13c0,0 0.11,0.2 0.8,0.24c1.22,-1.49 2.43,-2.97 4.09,-4.88c0.25,-0.32 0.51,-0.65 1.42,-0.86c1.22,-1.57 2.43,-3.11 3.76,-4.9c0,0 -0.06,-0.21 0.42,-0.55c-0.06,-0.79 -0.11,-1.57 -0.06,-3.04c-0.23,-0.86 -0.47,-1.71 -0.6,-3.37c-1.67,-3.8 -3.36,-7.62 -4.98,-12.12c-0.14,-0.43 -0.29,-0.86 -0.23,-2.02c-3.07,-3.31 -6.12,-6.63 -9.57,-9.66c0.14,-0.1 0.28,-0.18 0.34,-0.97c-3.51,-4.26 -6.5,-9.33 -13.3,-9.78c-0.84,-0.07 -1.68,-0.15 -2.8,-0.84c-0.77,-0.29 -1.53,-0.6 -2.33,-0.91c0,0 0.03,-0.01 -0.23,-0.7c-1.19,-0.48 -2.55,-0.69 -3.53,-1.46c-3.4,-2.64 -5.71,-1.8 -8.49,1.46c-5.64,6.61 -11.76,12.74 -17.74,19.01c-8.11,8.5 -16.32,16.89 -24.38,25.44c-10.08,10.7 -20,21.57 -30.11,32.25c-9.64,10.17 -19.5,20.11 -29.06,30.37c-0.87,0.93 -1.09,4.11 -0.33,4.97c4.66,5.18 9.69,9.97 15.94,16.24c3.14,-3.42 5.99,-6.52 9.07,-9.89c-4.48,-5.15 -7.78,-8.93 -11.38,-13.07c1.61,-1.88 3.03,-3.65 4.55,-5.27c4.36,-4.67 9.08,-8.99 13.05,-14.01c2.7,-3.42 4.04,-2.45 6.28,0.17c4.23,4.94 8.68,9.66 13.14,14.36c4.57,4.83 9.32,9.47 13.87,14.34c2.8,3 1.01,5.74 -1.1,7.97c-4.8,5.05 -9.68,10.04 -14.8,14.74c-0.98,0.91 -3.62,1.07 -4.69,0.31c-2.19,-1.56 -3.61,-4.32 -5.79,-5.91c-1.48,-1.09 -5.19,-1.8 -5.37,-1.4c-1.6,3.62 -7.61,4.33 -5.95,9.97c0.05,0.17 0.13,0.32 0.23,0.43c4.94,4.91 9.88,9.82 15.62,15.54c2.65,-3.27 4.83,-6.35 7.39,-9.03c6.47,-6.8 13.19,-13.34 19.64,-20.16c4.45,-4.7 8.5,-9.82 12.96,-14.49c6.36,-6.68 13.01,-13.06 19.38,-19.72c2.39,-2.51 4.35,-5.5 6.93,-8.68c0.24,-0.32 0.49,-0.65 1.39,-0.86c1.22,-1.57 2.43,-3.13 4.05,-5.01c0.37,-0.36 0.73,-0.7 1.76,-0.98c2.91,-3.38 5.83,-6.75 9.12,-10.49c0.34,-0.39 0.67,-0.8 1.71,-1.21c1.11,-1.42 2.24,-2.82 3.17,-4.46l0.03,0.01z" fill="#424D59" id="svg_8"/>
  <path d="m267.49,147.12c-0.79,0.62 -1.56,1.23 -2.69,2.33c-2.53,1.3 -4.54,2.36 -6.27,-0.77c-0.75,-1.35 -2.84,-1.87 -4.32,-2.74c0,0 -0.1,0.18 -0.05,-0.28c-1.22,-1.6 -2.51,-2.72 -3.8,-3.84c0,0 -0.11,0.18 -0.14,-0.25c-0.51,-1.32 -0.87,-2.29 -1.48,-3.07c-2.09,-2.68 -5.98,-5.33 -5.93,-7.93c0.05,-2.89 3.78,-5.61 5.69,-8.57c2.33,-3.6 5.05,-5.25 9.32,-3.91c2.99,0.93 6.23,1.16 7.02,-3.48c0.47,-0.55 0.91,-1.09 1.93,-1.8c1.89,-1.95 3.23,-3.73 4.57,-5.51c0,0 0.01,0 0.35,0.01c1.74,-1.7 3.13,-3.39 4.52,-5.09c0,0 -0.04,-0.03 0.32,-0.06c1.81,-1.67 3.26,-3.31 4.7,-4.95c0.47,-0.53 0.94,-1.08 1.96,-1.77c1.9,-1.95 3.23,-3.73 4.57,-5.51c0,0 -0.01,-0.01 0.34,0c1.72,-1.7 3.09,-3.42 4.46,-5.12c0,0 0.01,0 0.34,-0.04c1.81,-1.68 3.27,-3.31 4.74,-4.94c0.47,-0.55 0.92,-1.08 1.94,-1.8c1.9,-1.95 3.23,-3.73 4.57,-5.51c0,0 0.01,0 0.35,0.01c1.72,-1.7 3.12,-3.41 4.5,-5.11c0,0 -0.03,-0.01 0.33,-0.06c1.81,-1.67 3.26,-3.31 4.71,-4.95c0.47,-0.55 0.92,-1.08 1.95,-1.78c1.91,-1.94 3.26,-3.72 4.6,-5.5c0,0 -0.03,-0.01 0.34,0c1.06,-0.36 2.03,-0.53 2.42,-1.12c2.41,-3.72 5.05,-3.31 8.54,-1.53c2.74,1.42 6.01,1.68 9.05,2.47c0,0 0.01,0.1 0.01,0.46c-4.98,6.07 -9.96,11.78 -14.94,17.51c0,0 -0.11,0.11 -0.43,0.32c-3.17,3.63 -6.03,7.06 -8.88,10.46c-0.76,0.62 -1.52,1.25 -2.64,2.33c-5.56,5.96 -10.78,11.46 -16.01,16.96c0,0 -0.15,0.29 -0.47,0.59c-8.18,8.39 -16.14,16.44 -23.88,24.69c-0.87,0.94 -1.2,3.42 -0.7,4.67c1.61,3.93 0.34,6.86 -2.04,9.66c0,0 -0.03,0.1 -0.34,0.28c-1.27,1.54 -2.23,2.9 -3.19,4.26l0.04,-0.04z" fill="#00ff00" id="svg_7"/>
  <path d="m207.56,164.85c0,0 0.27,0.2 0.6,0.52c1.72,1.37 3.04,2.59 4.56,3.42c4.16,2.26 8.88,3.55 10.59,9.13c1.03,3.31 2.47,6.52 4.1,9.55c1.37,2.55 3.27,4.78 4.94,7.17c-0.03,0.27 -0.05,0.55 -0.33,1.19c-2.5,3.58 -5.14,5.65 -9.13,3.98c-0.52,-0.62 -1.05,-1.23 -1.7,-2.51c-1.44,-1.57 -2.79,-2.52 -4.13,-3.46c-0.38,-0.46 -0.76,-0.91 -1.29,-2.01c-1.56,-1.61 -3.37,-3.7 -4.31,-3.34c-1.71,0.69 -3.27,2.62 -4.1,4.45c-0.28,0.62 1.81,2.47 2.89,4.11c2.12,2.82 3.8,5.88 6.28,7.66c4.71,3.39 2.5,6 -0.67,7.76c-1.44,0.8 -4,-0.65 -6.06,-1.08c0,0 -0.15,0.17 -0.2,-0.27c-2.09,-3.11 -3.91,-4.01 -5.05,0.31c0,0 0.16,0.17 -0.28,0.11c-3.47,2.3 -3.61,4.17 0.38,5.32c1.04,1.47 2.09,2.96 3.23,4.56c-1.08,1.46 -2.09,2.74 -3,4.07c-2.03,2.93 -3.52,3.65 -6.18,0.11c-3.09,-4.14 -7.17,-7.45 -10.95,-11.25c-1.71,1.44 -3.07,2.57 -4.64,4.33c0.63,1.8 1.48,2.97 2.33,4.14c0,0 0.32,0.18 0.58,0.58c2.18,2.61 4,4.94 6.07,7.01c2.42,2.44 2.99,4.71 0.27,7.32c-0.82,0.77 -1.41,1.84 -2.09,2.78c-0.67,-0.11 -1.33,-0.22 -2.41,-0.77c-2.09,-2.06 -3.6,-4.17 -5.57,-5.08c-0.84,-0.38 -3.33,1.47 -3.97,2.88c-1.98,4.33 0.63,6.51 4.13,7.94c1.56,4.63 -2.42,5.89 -5.03,8.63c-1.2,0.32 -1.89,0.35 -2.57,0.36c-0.84,-0.84 -1.68,-1.68 -2.76,-3.09c-1.84,-2.05 -3.43,-3.52 -5.03,-4.99c0,0 -0.18,-0.24 -0.41,-0.62c-1.95,-2.09 -3.67,-3.79 -5.4,-5.48c0,0 0.01,-0.01 -0.04,-0.36c-1.85,-1.99 -3.65,-3.65 -5.45,-5.3c0,0 -0.1,-0.28 -0.23,-0.74c-1.72,-1.91 -3.32,-3.38 -4.92,-4.85c0,0 -0.18,-0.24 -0.41,-0.62c-1.95,-2.09 -3.67,-3.79 -5.41,-5.48c0,0 0.03,-0.04 -0.01,-0.46c-0.04,-1.85 -0.03,-3.28 -0.01,-4.71c0.23,-0.2 0.47,-0.38 1.23,-0.74c1.62,-1.53 2.75,-2.89 3.88,-4.25c0.47,-0.53 0.92,-1.07 1.93,-1.8c1.61,-1.61 2.69,-3 3.76,-4.39c7.03,-7.25 14.1,-14.48 21.09,-21.8c4.5,-4.7 8.89,-9.51 13.87,-14.6c1.32,-1.33 2.09,-2.34 3.07,-3.58c0.43,-0.74 0.67,-1.29 0.91,-1.82c0,0 0.32,0.04 0.82,-0.04c3.78,-4.12 7.03,-0.43 10.6,0.06c0.75,0.07 1.17,0.06 1.61,0.06l0,0.01z" fill="#00ff00" id="svg_6"/>
 </g>
</svg>