<?xml version="1.0"?>
<svg width="500" height="500" xmlns="http://www.w3.org/2000/svg" xmlns:svg="http://www.w3.org/2000/svg" preserveAspectRatio="xMidYMid meet" version="1.0">
 <!-- Created with SVG-edit - https://github.com/SVG-Edit/svgedit-->

 <g class="layer">
  <title>Layer 1</title>
  <path d="m181.27,13.8l27.5,0l24.2,5.23l16.5,8.36l6.6,5.23l5.5,2.09l5.5,6.27l3.3,3.14l0,2.09l4.4,2.09l3.3,3.14l3.3,5.23l4.4,5.23l5.5,10.46l3.3,6.27l5.5,16.73l2.2,5.23l1.1,12.55l0,30.32l-1.1,14.64l-6.6,27.18l-2.2,17.77l-4.4,16.73l-2.2,15.68l-3.3,16.73l-4.4,19.87l-2.2,16.73l-2.2,4.18l-2.2,7.32l-3.3,1.05l-15.4,-9.41l-7.7,-4.18l-4.4,-4.18l-6.6,-3.14l-5.5,-3.14l-1.1,-2.09l-6.6,-2.09l-5.5,-5.23l-6.6,-3.14l-6.6,-5.23l-6.6,-3.14l0,-2.09l-5.5,-2.09l-11,-6.27l0,-2.09l-7.7,-2.09l-3.3,-3.14l-8.8,-4.18l-5.5,-5.23l-6.6,-2.09l-5.5,-5.23l-11,-6.27l-1.1,-3.14l-6.6,-1.05l-1.1,-3.14l-5.5,-2.09l-6.6,-3.14l0,-2.09l-5.5,-2.09l-6.6,-3.14l-4.4,-4.18l-11,-6.27l-3.3,-3.14l-6.6,-3.14l0,-2.09l-5.5,-2.09l-1.1,-5.23l2.2,-4.18l4.4,-23l2.2,-14.64l6.6,-28.23l2.2,-6.27l5.5,-12.55l5.5,-9.41l5.5,-8.36l3.3,-5.23l2.2,-1.05l1.1,-3.14l6.6,-5.23l5.5,-6.27l8.8,-7.32l8.8,-5.23l2.2,0l1.1,-3.14l14.3,-5.23l1.1,-2.09l25.3,-5.23zm0,23l-7.7,2.09l-1.1,1.05l-9.9,2.09l-6.6,3.14l-5.5,3.14l-3.3,1.05l0,2.09l-5.5,2.09l-9.9,8.36l-8.8,10.46l-3.3,6.27l-3.3,4.18l-3.3,12.55l-3.3,7.32l0,31.37l3.3,7.32l4.4,13.59l2.2,3.14l2.2,0l2.2,7.32l5.5,5.23l2.2,3.14l2.2,0l2.2,4.18l5.5,4.18l8.8,6.27l7.7,3.14l8.8,4.18l17.6,3.14l19.8,0l17.6,-3.14l8.8,-4.18l0,-2.09l5.5,0l8.8,-5.23l3.3,-3.14l5.5,-4.18l5.5,-5.23l7.7,-10.46l3.3,-4.18l3.3,-7.32l4.4,-10.46l1.1,-9.41l0,-25.09l-2.2,-10.46l-4.4,-9.41l-4.4,-9.41l-5.5,-6.27l-2.2,-4.18l-5.5,-4.18l-5.5,-5.23l-7.7,-6.27l-6.6,-3.14l-11,-5.23l-9.9,-2.09l-6.6,-2.09l-26.4,0z" fill="#000000" id="svg_4"/>
  <path d="m185.67,45.17l20.9,0l20.9,5.23l9.9,6.27l3.3,1.05l5.5,6.27l6.6,4.18l3.3,5.23l4.4,6.27l4.4,8.36l3.3,8.36l1.1,6.27l-7.7,0l-8.8,-4.18l-8.8,-4.18l-6.6,-4.18l0,-2.09l-5.5,-2.09l-4.4,-5.23l-5.5,-4.18l-6.6,-10.46l-2.2,-2.09l-4.4,-11.5l-4.4,-1.05l-4.4,5.23l-5.5,5.23l-4.4,3.14l-2.2,0l-1.1,3.14l-9.9,6.27l-8.8,5.23l-18.7,4.18l-12.1,1.05l-5.5,-1.05l0,-5.23l7.7,-9.41l5.5,-5.23l2.2,0l2.2,-4.18l2.2,0l0,-2.09l12.1,-6.27l8.8,-3.14l13.2,-3.14z" fill="#000000" id="svg_5"/>
  <path d="m143.87,101.63l4.4,1.05l2.2,1.05l2.2,6.27l4.4,2.09l6.6,0l6.6,-4.18l6.6,1.05l-2.2,6.27l-4.4,4.18l-4.4,2.09l-11,0l-7.7,-4.18l-4.4,-7.32l-2.2,-6.27l3.3,-2.09z" fill="#000000" id="svg_6"/>
  <path d="m217.57,115.22l3.3,1.05l5.5,9.41l7.7,1.05l5.5,-3.14l5.5,-2.09l4.4,4.18l-4.4,5.23l-3.3,3.14l-4.4,1.05l-11,0l-5.5,-2.09l-7.7,-9.41l0,-7.32l4.4,-1.05z" fill="#000000" id="svg_7"/>
  <path d="m63.57,193.63l9.9,3.14l5.5,5.23l11,6.27l4.4,3.14l4.4,2.09l0,2.09l5.5,2.09l11,6.27l0,2.09l7.7,2.09l4.4,4.18l6.6,3.14l-1.1,4.18l-2.2,2.09l-16.5,4.18l-7.7,3.14l-7.7,2.09l-13.2,4.18l-3.3,0l0,2.09l-13.2,3.14l-8.8,3.14l-2.2,0l0,2.09l-7.7,0l0,-13.59l3.3,-9.41l3.3,-15.68l1.1,-12.55l3.3,-9.41l1.1,-9.41l1.1,-2.09z" fill="#000000" id="svg_8"/>
  <path d="m148.27,251.14l11,0l7.7,6.27l5.5,2.09l3.3,3.14l9.9,5.23l6.6,5.23l5.5,3.14l12.1,7.32l7.7,5.23l5.5,3.14l12.1,7.32l5.5,4.18l5.5,2.09l3.3,3.14l7.7,4.18l8.8,6.27l3.3,2.09l-1.1,4.18l-4.4,10.46l-3.3,8.36l-4.4,7.32l-5.5,0l-1.1,-1.05l-1.1,-29.27l-4.4,-3.14l-61.6,0l-1.1,1.05l-1.1,31.37l-1.1,1.05l-33,1.05l-1.1,3.14l-1.1,53.32l-2.2,3.14l-17.6,-4.18l-12.1,-4.18l-14.3,-7.32l-14.3,-10.46l-7.7,-8.36l-8.8,-10.46l-3.3,-6.27l-5.5,-8.36l-5.5,-14.64l-2.2,-2.09l-3.3,-18.82l-1.1,-11.5l0,-17.77l7.7,-5.23l13.2,-3.14l9.9,-4.18l17.6,-5.23l5.5,-3.14l13.2,-3.14l9.9,-2.09l0,-2.09l16.5,-4.18l8.8,-4.18z" fill="#000000" id="svg_9"/>
  <path d="m197.77,332.69l30.8,0l4.4,2.09l1.1,31.37l34.1,1.05l1.1,1.05l0,31.37l-3.3,1.05l-29.7,1.05l-2.2,2.09l-1.1,28.23l-2.2,4.18l-33,0l-2.2,-4.18l-1.1,-29.27l-2.2,-1.05l-28.6,-1.05l-3.3,-3.14l0,-25.09l1.1,-5.23l34.1,-1.05l0,-30.32l2.2,-3.14z" fill="#00ff00" id="svg_10"/>
 </g>
</svg>