<?xml version="1.0"?>
<svg width="512" height="512" xmlns="http://www.w3.org/2000/svg" xmlns:svg="http://www.w3.org/2000/svg" enable-background="new 0 0 512 512" version="1.1" xml:space="preserve">
 <!-- Created with SVG-edit - https://github.com/SVG-Edit/svgedit-->

 <g class="layer">
  <title>Layer 1</title>
  <path d="m205.22,311.99c-0.11,2.8 -0.21,5.6 -0.61,8.77c-0.69,1.85 -1.22,3.3 -1.47,4.81c-0.34,1.98 -0.45,4.01 -0.84,5.82c-0.35,-1.91 -0.51,-3.61 -0.68,-5.32c-0.34,0.01 -0.68,0.01 -1.02,0.03c0,7.92 -0.14,15.85 0.06,23.77c0.11,4.2 0.8,8.38 1.23,12.87c0.21,1.95 0.41,3.61 0.62,5.55c0.12,1.49 0.23,2.72 0.32,4.22c-0.14,1.2 -0.25,2.13 -0.54,3.1c-0.4,0.62 -0.62,1.18 -0.9,1.98c-0.21,0.87 -0.36,1.49 -0.63,2.26c-0.2,0.51 -0.27,0.88 -0.35,1.26c0,0 -0.22,0.06 -0.6,0.04c-1.85,0.13 -3.32,0.29 -4.92,0.21c-2.13,-0.18 -4.13,-0.11 -6.32,-0.06c-0.7,-0.22 -1.21,-0.41 -1.73,-0.85c-0.45,-0.54 -0.9,-0.83 -1.43,-1.32c-0.28,-0.94 -0.47,-1.67 -0.57,-2.76c0.11,-29.6 0.17,-58.84 0.09,-88.1c-0.01,-1.63 -1.13,-3.26 -1.76,-5.2c-0.24,-1.9 -0.6,-3.5 -0.6,-5.09c-0.04,-18.31 -0.01,-36.63 -0.06,-54.94c-0.01,-1.4 0.8,-3.57 -1.84,-3.61c-0.39,-0.15 -0.67,-0.22 -1.18,-0.39c-0.96,0.62 -1.68,1.35 -2.41,2.33c0,0.74 0.02,1.22 -0.04,1.88c-0.14,0.42 -0.21,0.67 -0.49,0.96c-0.84,1.27 -1.46,2.49 -2.09,3.7c-0.01,-0.01 0.01,0.02 -0.23,0.02c-0.5,0.92 -0.75,1.86 -1.06,3.11c-0.19,5.2 -0.32,10.08 -0.66,15c-0.74,0.99 -1.27,1.93 -2.06,2.89c-0.71,0.98 -1.55,1.94 -1.55,2.91c-0.09,8.68 -0.02,17.36 -0.02,26.28c-1.27,1.44 -2.52,2.63 -4,3.86c-0.49,0 -0.76,-0.02 -1.14,-0.26c-4.3,-2.19 -6.06,-5.61 -5.63,-10.79c0.16,-1.91 -0.74,-3.94 -1.18,-6.23c0.02,-6.42 0.08,-12.5 0.36,-18.66c1.16,-2.02 1.93,-3.95 -0.38,-5.78c-0.04,-0.78 0.02,-1.32 0.34,-1.86c0.7,-0.53 1.53,-1.02 1.54,-1.54c0.11,-4.32 0.11,-8.64 0.01,-12.95c-0.01,-0.55 -0.8,-1.09 -1.21,-1.87c1.05,-2.67 2.08,-5.08 3.16,-7.71c0.15,-0.51 0.23,-0.8 0.52,-1.12c1.74,-2.45 4.15,-4.39 3.7,-7.92c0,0 0.02,-0.26 0.32,-0.37c2.83,-1.6 3.3,-4.3 3.56,-7.37c0,-0.55 -0.02,-0.87 -0.04,-1.18c0,0 0.1,0.13 0.39,0.11c1.4,-2.25 2.52,-4.48 3.66,-6.94c0.07,-0.67 0.11,-1.13 0.34,-1.7c0.67,-0.55 1.43,-0.88 1.6,-1.44c1.39,-4.75 5.2,-4.72 8.55,-5.59c2.37,-0.62 3.3,0.13 3.18,3.18c-0.19,4.69 -0.42,9.41 1.91,13.86c1.03,1.97 1.15,4.69 -0.7,6.84c-0.65,0.76 -1.26,2.01 -1.24,3.02c0.15,7.17 -0.08,14.43 0.89,21.48c0.89,6.43 5.01,9.11 10.06,8.2c1.85,-0.34 3.55,-1.32 3.18,-3.38c-0.24,-1.42 -1.86,-2.69 -3.08,-3.72c-1.4,-1.18 -3.04,-2.02 -4.54,-3.31c-0.03,-1.25 -0.09,-2.21 -0.04,-3.29c0.15,-0.36 0.25,-0.55 0.65,-0.83c0.56,-4.41 0.9,-8.71 1.12,-13.02c0.01,-0.27 -0.89,-0.6 -1.35,-1.17c1.67,-2.56 3.42,-3.71 5.53,-0.88c1.03,1.39 2.19,2.67 3.16,4.11c2.37,3.53 4.66,7.13 6.98,10.93c0,0.8 0.01,1.38 -0.17,2.07c-3.13,2.33 -4.06,4.62 -2.52,6.49c1.69,2.05 3.87,1.81 5.52,0.08c2.35,-2.45 4.54,-5.58 3.3,-9.34c-1.3,-3.96 -2.62,-8.21 -6.15,-10.88c-0.1,-0.42 -0.19,-0.65 -0.31,-1.13c-2.26,-4.64 -4.79,-9.14 -9.29,-10.43c-3.63,-1.04 -4.99,-3.7 -6.42,-7.01c-0.06,-0.52 -0.11,-0.81 -0.08,-1.42c0.19,-3.56 0.06,-6.84 0.46,-10.03c0.14,-1.14 1.4,-2.55 2.42,-2.94c0.6,-0.23 1.98,1.11 2.58,2.08c2.29,3.63 4.4,7.39 6.59,11.36c0.6,2.36 1.28,4.36 4,4.74c0,-1.54 0,-2.82 0.01,-4.43c0.04,-2.18 0.08,-4.04 0.26,-6c0.62,-0.63 1.1,-1.16 1.81,-1.56c0.93,3.96 1.62,7.8 2.31,11.64c0.24,-0.04 0.47,-0.08 0.7,-0.11c0.14,-0.64 0.27,-1.29 0.6,-1.85c1.27,0.43 2.32,0.88 3.42,1.02c0.14,0.02 0.44,-1.51 0.7,-2.52c0.04,-0.49 0.04,-0.77 0.1,-1.02c0.04,0.03 0.16,0.01 0.34,-0.1c0.52,-1.55 0.85,-2.98 1.32,-4.63c0.21,-1.45 0.28,-2.7 0.44,-4.15c0.12,-0.5 0.16,-0.8 0.34,-1.1c0.26,-0.04 0.36,-0.08 0.57,0.08c0.66,-0.85 1.21,-1.9 1.99,-2.98c0.69,0.06 1.15,0.15 1.63,0.46c0.39,0.76 0.77,1.29 1.2,2.08c-0.01,0.96 -0.09,1.66 -0.36,2.47c-0.5,1.8 -0.8,3.5 -1.11,5.48c-0.6,4.54 -0.46,9.09 -3.95,12.11c-0.02,-0.01 -0.05,-0.03 -0.27,-0.01c-4.23,3.11 -4.05,10.26 0.21,12.74c0.47,0.29 0.82,0.44 1.17,0.85c1.06,3.17 3.33,2.26 5.21,2.19c0.46,-0.01 0.89,-1.2 1.32,-1.99c-0.01,-0.13 -0.17,-0.32 0.04,-0.36c0.77,-0.22 1.33,-0.4 2.11,-0.48c0.51,-0.36 0.81,-0.82 1.27,-1.42c0.25,-0.72 0.34,-1.3 0.51,-2.08c0.17,-0.48 0.25,-0.76 0.54,-1.06c2.56,-1.57 1.46,-2.64 -0.25,-3.78c-0.07,-0.15 -0.22,-0.43 -0.16,-0.67c0.04,-0.55 0.02,-0.88 0.15,-1.35c-0.35,-2.49 -1.38,-4.88 -1.22,-7.17c0.24,-3.24 1.46,-6.37 2.03,-9.6c0.14,-0.78 -0.63,-1.77 -0.95,-2.95c0.89,-0.69 1.75,-1.09 2.78,-1.4c0.44,0.15 0.7,0.22 0.98,0.54c1.43,1.04 2.84,1.84 4.32,2.83c0.52,0.69 0.97,1.18 1.38,1.95c0.08,2.26 0.14,4.27 2.46,4.69c0.04,0.11 0.07,0.22 0.09,0.73c0.02,0.94 0.07,1.48 0.05,2.28c0.55,2.53 1.05,4.85 1.86,7.03c0.32,0.85 1.34,1.38 2.05,2.06c0,0 0.13,0.28 0.14,0.64c0.04,0.68 0.06,0.99 -0.05,1.49c1.16,3.12 0.39,7.26 3.87,8.96c0,0 0.11,0.31 0.09,0.71c0.1,1.13 0.22,1.85 0.26,2.82c0.5,2.42 1.01,4.62 1.74,6.73c0.17,0.51 1.08,0.71 1.75,1.25c0.22,0.96 0.36,1.71 0.37,2.61c0.44,0.92 0.99,1.71 1.55,2.51c0,0.02 0.04,0.02 -0.01,0.29c-0.17,2.16 0.45,3.36 2.29,3.43c0,0 0.1,-0.02 0.07,0.18c0.09,0.69 0.21,1.18 0.26,1.92c1.21,2.3 2.49,4.35 3.76,6.4c0,0 0.07,0.02 0.06,0.25c0.06,0.5 0.12,0.78 0.21,1.32c1.26,2.18 2.51,4.1 3.75,6.03c0,0 0.07,-0.04 0.02,0.18c0.02,0.74 0.1,1.26 0.17,2.04c1.25,1.94 2.5,3.63 3.81,5.52c0.18,0.62 0.3,1.02 0.33,1.68c-0.09,0.44 -0.09,0.62 -0.19,1.13c-0.02,1.88 0.04,3.45 0.05,5.23c-0.04,0.5 0,0.8 -0.08,1.23c-0.19,0.22 -0.26,0.32 -0.55,0.43c-3.64,2.86 -7.06,4.42 -10.55,0.15c-0.17,-0.2 -0.59,-0.15 -0.96,-0.41c-0.26,-0.51 -0.46,-0.85 -0.65,-1.44c-1.93,-3.45 -3.83,-6.66 -5.82,-9.8c-0.24,-0.38 -0.95,-0.38 -1.44,-0.55c0,0 -0.09,0.01 -0.07,-0.21c-0.52,-1.15 -1.05,-2.08 -1.57,-3.26c-0.79,-1.27 -1.6,-2.3 -2.41,-3.33c0,0 -0.08,-0.02 -0.09,-0.22c-1.32,-1.84 -2.63,-3.47 -3.94,-5.09c-0.05,-0.24 -0.1,-0.47 -0.17,-1.11c-0.54,-1.33 -1.07,-2.27 -1.53,-3.45c-0.52,-0.87 -1.1,-1.49 -1.83,-2.14c-0.14,-0.04 -0.41,0.03 -0.41,0.03c-0.03,-0.29 -0.06,-0.59 -0.11,-1.35c-0.12,-1.15 -0.24,-1.84 -0.25,-2.8c-0.41,-1.94 -0.79,-3.71 -1.5,-5.27c-0.37,-0.82 -1.35,-1.29 -2.06,-1.92c-0.06,-0.11 -0.12,-0.22 -0.21,-0.76c-0.12,-1.39 -0.21,-2.35 -0.28,-3.56c-0.19,-3.16 -1.76,-3.22 -3.95,-2.48c-0.73,0.81 -1.56,1.56 -1.63,2.38c-0.33,4.61 -0.63,9.23 -0.64,13.86c-0.01,4.27 0.5,8.54 0.54,12.82c0.09,10.11 0.02,20.22 0.04,30.34c0.01,1.06 0.12,2.12 0.12,3.4c-1.8,2.14 -3.47,4.14 -5.28,5.95c-3.93,3.9 -3.58,9.04 -3.57,14.19c0.01,2.53 1,3.36 3.04,3.11c1.36,-0.16 2.73,-0.36 4.44,-0.6c0,1.63 0,2.77 0,3.92c-0.01,19.57 0.02,39.14 -0.02,58.71c-0.01,2.99 -0.29,5.99 -0.49,9.23c-0.08,0.71 -0.11,1.19 -0.14,1.67c-0.13,0.18 -0.26,0.37 -0.7,0.68c-0.97,0.19 -1.63,0.27 -2.34,0.04c-3.52,-0.44 -6.98,-0.58 -10.45,-0.67c-0.07,0 -0.16,0.62 -0.49,0.98c-1.62,-1.53 -3,-3.08 -4.37,-4.63c0,-0.74 0,-1.49 0.16,-2.59c0.31,-1.65 0.46,-2.96 0.87,-4.33c0.56,-1.2 1.1,-2.33 1.11,-3.47c0.06,-13.99 0.04,-27.98 0.02,-41.96c0,-1.06 -0.13,-2.13 -0.21,-3.19c-0.27,0.01 -0.55,0.01 -0.82,0.02c-0.09,1.53 -0.18,3.05 -0.51,4.5c-0.47,-1.35 -0.6,-2.65 -0.97,-3.87c-0.28,-0.91 -0.85,-1.71 -1.29,-2.56c-0.1,-3.73 -0.2,-7.45 -0.29,-11.78c0.1,-2.97 0.17,-5.34 0.51,-7.78c1.46,-4.81 2.24,-9.56 0.79,-14.82c-0.69,0.72 -1.05,1.1 -1.67,1.47c-2.04,-0.29 -2.74,0.87 -3.02,2.58c-0.17,1.05 -0.34,2.11 -0.7,2.98c-0.44,-1.82 -0.67,-3.46 -0.9,-5.1c-0.54,3.96 -0.7,7.8 -0.48,11.63c0.12,2.09 0.88,4.13 1.43,6.49c0.16,2.69 0.23,5.07 0.3,7.45z" fill="#3C4753" id="svg_6" opacity="1"/>
  <path d="m329.47,341.95c-0.07,-0.1 -0.14,-0.2 -0.27,-0.71c-0.11,-0.93 -0.14,-1.45 -0.03,-2.12c-0.47,-2.31 -1.04,-4.49 -1.77,-6.61c-0.11,-0.34 -0.95,-0.36 -1.59,-0.5c-0.14,0.02 -0.4,0.15 -0.4,0.15c-0.09,-0.67 -0.18,-1.34 -0.24,-2.51c-0.17,-1.3 -0.38,-2.1 -0.62,-3.08c-0.2,-0.32 -0.36,-0.47 -0.57,-0.85c-0.98,-1.2 -1.91,-2.17 -3.1,-3.15c-1.87,1.51 -1.89,2.89 0.12,4.34c0.03,1.02 0,1.77 -0.28,2.56c-2.85,1.44 -1.39,4.08 -1.58,6.16c-0.04,0.43 1.2,1.01 1.84,1.51c0.04,0.32 0.07,0.64 -0.16,1.22c-1.6,1.33 -1.32,1.97 0.16,2.29c0.04,0.75 0.07,1.51 -0.14,2.56c-0.47,0.59 -0.68,0.88 -0.89,1.17c0.34,0.16 0.69,0.32 1.03,0.48c0.04,3.06 0.07,6.12 -0.19,9.53c-2.56,2.65 -2.36,5.16 0.19,6.58c0.04,2.59 0.07,5.19 -0.19,8.13c-0.79,1.35 -1.66,2.36 -1.67,3.38c-0.03,2.75 0.31,5.5 0.26,8.31c-2.21,0.32 -4.17,0.57 -6.24,0.74c-0.1,-0.09 -0.33,-0.24 -0.37,-0.53c-0.25,-1.97 -0.5,-3.64 -0.66,-5.33c-0.28,-2.82 -0.5,-5.64 -0.7,-8.72c0,-0.97 -0.05,-1.67 -0.01,-2.7c0.1,-2.99 0.43,-5.74 -0.01,-8.32c-0.21,-1.25 -1.73,-2.58 -2.92,-3.1c-0.45,-0.2 -2.31,1.68 -2.41,2.74c-0.4,4.37 -0.37,8.78 -0.56,13.51c-0.04,3.6 -0.03,6.88 -0.07,10.39c-0.24,0.82 -0.43,1.41 -0.92,1.94c-2.62,-0.06 -4.96,-0.08 -7.43,-0.32c-0.48,-2.01 -1.12,-3.79 -1.12,-5.58c-0.07,-20.15 -0.21,-40.31 0.09,-60.47c0.07,-4.44 -1.89,-7.08 -4.04,-9.88c-3.47,-4.5 -7.19,-8.76 -10.67,-13.24c-2.82,-3.63 -5.45,-7.45 -8.14,-11.34c0.04,-0.39 0.01,-0.61 0.04,-0.98c0.01,-0.78 -0.07,-1.4 -0.11,-2.17c0.1,-0.38 0.11,-0.6 0.26,-0.9c1.12,-1.24 2.04,-2.39 3.07,-3.54c0.1,-0.01 0.25,-0.15 0.5,-0.17c2.84,-1.26 4.78,-0.48 6.61,1.98c1.86,2.52 4.12,4.66 6.31,7.05c0.09,0.08 0.34,0.11 0.42,0.33c1.33,1.65 2.58,3.08 4.06,4.57c0.7,0.02 1.16,-0.01 1.81,0.06c0.88,0.81 1.58,1.51 2.33,2.39c0.4,0.53 0.74,0.88 1.12,1.42c0.49,0.24 0.92,0.29 1.59,0.34c0.67,-0.06 1.12,-0.1 1.86,-0.06c3.47,-0.01 6.66,-0.1 10.1,-0.13c1.51,0.08 2.77,0.1 4.03,0.12c0.23,0.08 0.47,0.15 0.95,0.49c1.08,0.74 1.91,1.23 2.74,1.71c0,0 0.11,-0.01 0.09,0.2c0.39,0.98 0.8,1.76 1.22,2.78c0.82,1.07 1.63,1.9 2.57,2.84c0.25,0.48 0.36,0.85 0.47,1.48c1.26,2.16 2.52,4.07 3.83,6.21c0.41,1.05 0.77,1.87 1.14,2.96c0.84,1.68 1.68,3.11 2.67,4.73c0.32,1.39 0.5,2.57 0.65,4.03c0.32,1.59 0.52,3 1.08,4.2c0.68,1.49 1.65,2.8 2.49,4.18c0,0 0.13,-0.05 0.12,0.2c0.06,1.39 0.12,2.54 0.11,3.97c0.36,3.32 0.8,6.35 1.08,9.52c-0.86,0.76 -1.57,1.37 -2.54,1.89c-2.29,-0.16 -4.33,-0.24 -6.37,-0.32z" fill="#00ff00" id="svg_7" opacity="1"/>
  <path d="m192.82,138.13c0.05,-0.29 0.1,-0.58 0.39,-1.16c1.56,-3.29 2.89,-6.3 4.46,-9.29c0.93,-0.9 1.63,-1.81 2.44,-2.82c0.26,-0.19 0.41,-0.31 0.75,-0.47c0.63,-0.16 1.04,-0.3 1.7,-0.36c5.57,-2.15 10.89,-1.74 16.43,0.14c0.67,0.06 1.12,0.06 1.63,0.16c0.07,0.1 0.19,0.28 0.16,0.54c1.33,1.61 2.7,2.96 4.09,4.29c0.01,-0.03 0.07,-0.04 0.06,0.23c0.63,2.43 1.28,4.58 1.74,6.91c-0.09,2.99 0.02,5.82 0.11,8.64c0.04,1.27 0.05,2.54 0.07,4.08c-0.24,1.48 -0.48,2.69 -0.93,3.95c-0.36,0.59 -0.5,1.14 -0.64,1.89c0.07,0.46 0.14,0.71 0.08,1.16c-0.18,0.53 -0.22,0.85 -0.43,1.34c-1.38,2.57 -2.59,4.99 -3.81,7.42c0,0 -0.21,0.19 -0.52,0.23c-1.87,1.46 -3.43,2.89 -5.21,4.31c-0.65,0.08 -1.1,0.15 -1.76,0.05c-4.38,-1.04 -8.91,-0.23 -12.6,-3.68c-0.06,-0.11 -0.26,-0.25 -0.32,-0.48c-1.2,-1.86 -2.75,-3.31 -3.4,-5.15c-2.22,-6.26 -5.17,-12.37 -4.29,-19.52c0.1,-0.78 -0.12,-1.6 -0.19,-2.4z" fill="#3C4753" id="svg_8" opacity="1"/>
  <path d="m315.89,241.32c0.2,0.11 0.41,0.21 0.82,0.59c1.65,1.42 3.09,2.56 4.53,3.71c0,0 0.04,0.04 0.11,0.3c1.28,2.37 3.16,4.31 3.62,6.61c2.5,12.51 0.04,26.56 -11.74,33.35c-2.57,-0.42 -4.99,-0.75 -7.4,-0.97c-0.14,-0.01 -0.34,0.95 -0.67,1.5c-0.24,0.11 -0.34,0.16 -0.65,0.18c-0.65,-0.13 -1.09,-0.22 -1.6,-0.51c-1.88,-1.65 -3.69,-3.08 -5.54,-4.76c-1.43,-2.34 -2.81,-4.43 -4.21,-6.8c-0.11,-0.78 -0.21,-1.3 -0.26,-2.11c-1.77,-7.54 -2.09,-14.79 0.04,-22.27c0.24,-0.78 0.41,-1.35 0.78,-1.97c2.43,-2.18 4.66,-4.32 6.89,-6.46c0,0 0.22,-0.11 0.48,-0.15c0.53,-0.08 0.8,-0.11 1.27,-0.01c3.81,-0.02 7.42,-0.18 11.29,-0.25c0.91,0.05 1.58,0.04 2.25,0.03m3.19,13.81c0,0 0.01,-0.06 -0.01,-0.53c-0.55,-0.54 -1.11,-1.08 -1.79,-1.53c0,0 -0.14,0.04 -0.04,-0.47c-0.7,-0.6 -1.41,-1.21 -2.36,-2.05c-0.08,-0.08 -0.16,-0.16 -0.26,-0.74c-0.8,-1.79 -1.78,-3.1 -4.18,-1.61c-0.4,0.74 -0.8,1.49 -1.32,2.2c0,0 -0.09,-0.1 -0.52,-0.08c-2.13,1.26 -1.49,2.13 0.52,3.32c1.18,0.34 2.37,0.68 3.69,1.26c0,0 0.17,0.21 0.03,0.82c0.02,1.26 0.04,2.51 -0.37,3.89c-0.28,0.06 -0.57,0.11 -1.36,-0.08c-0.73,0.07 -1.46,0.15 -2.57,0.08c-0.25,-0.1 -0.5,-0.19 -0.79,-0.76c-0.77,-0.54 -1.55,-1.07 -2.57,-2.03c-0.95,-2.02 -1.89,-4.05 -3.32,-6.23c-0.32,0.13 -0.64,0.27 -1.43,0.37c-3.01,0.77 -2.7,4.1 -4.07,6.44c-0.04,0.08 -0.15,0.21 -0.13,0.23c0.1,0.15 0.22,0.27 0.36,0.95c-0.01,0.74 -0.02,1.48 -0.38,2.56c-0.11,2.27 -1.88,4.67 0.7,7.1c0.5,0.9 0.91,1.88 1.53,2.67c0.74,0.92 1.66,1.67 2.68,2.75c0.07,0.2 0.16,0.39 0.23,1.06c0.83,0.83 1.65,1.65 2.73,2.69c0.18,0.12 0.36,0.24 0.54,0.92c0.17,2.98 1.94,2.05 3.76,1.76c0.32,0 0.65,0 1.46,0.2c2.47,0.04 2.58,-0.06 2.56,-2.28c0.44,-0.23 0.88,-0.47 1.79,-0.55c0.79,-1.33 1.56,-2.67 2.32,-4.28c0,0 -0.16,-0.22 0.21,-0.43c0.25,-0.91 0.5,-1.83 1.17,-2.77c0.41,-0.95 0.82,-1.9 1.18,-3.3c0.06,-0.29 0.12,-0.59 0.52,-1.01c0.03,-0.69 0.06,-1.37 0.06,-2.68c0.02,-1.67 0.04,-3.34 0.36,-5.33c-0.3,-0.84 -0.6,-1.69 -0.95,-2.54m5.24,7.36c0,-1.45 0,-2.91 0,-4.36c-2.27,1.59 -2.91,3.12 0,4.36z" fill="#3C4753" id="svg_10" opacity="1"/>
 </g>
</svg>