<?xml version="1.0"?>
<svg width="512" height="512" xmlns="http://www.w3.org/2000/svg" xmlns:svg="http://www.w3.org/2000/svg" enable-background="new 0 0 512 512" version="1.1" xml:space="preserve">
 <!-- Created with SVG-edit - https://github.com/SVG-Edit/svgedit-->

 <g class="layer">
  <title>Layer 1</title>
  <path d="m334.1,215.05c2.65,-0.01 5.31,-0.02 8.32,0.2c1.75,1.67 3.6,2.89 4.47,4.6c2.7,5.32 -0.19,11.73 -7.34,12.18c-4,0.25 -7.93,1.63 -11.9,2.49c-0.68,0 -1.35,0.01 -2.58,-0.03c-7.41,0.7 -14.3,1.27 -21.13,2.28c-2.65,0.39 -5.46,1.36 -7.66,2.86c-2.53,1.74 -4.55,4.3 -6.64,6.63c-1.61,1.79 -2.99,3.78 -4.48,5.69c0,0 -0.26,0.19 -0.49,0.09c-0.77,0.46 -1.3,1.03 -2.02,1.73c-0.57,0.86 -0.97,1.57 -1.36,2.29c0,0 -0.08,-0.04 -0.35,-0.05c-1.77,1.32 -3.3,2.63 -4.8,3.97c-2.13,1.9 -1.85,3.3 1,4.37c0.75,0.57 1.39,1.2 2.03,1.21c4.87,0.08 9.73,0.03 14.6,0.02c2.37,0.1 4.75,0.19 7.44,0.61c1.23,0.78 2.15,1.6 3.09,1.64c4,0.18 8.02,0.13 12.02,0.18c7.12,0.09 14.24,0.2 21.61,0.28c1.7,-0.05 3.16,-0.09 4.71,0.1c4.08,0.55 8.07,0.86 12.27,1.18c0.63,-0.06 1.05,-0.13 1.68,-0.06c0.82,0.63 1.43,1.12 1.98,1.84c0.53,2.06 1.61,3.89 1.62,5.72c0.03,4.84 -3.95,8.18 -9.31,8.18c-51.73,0.01 -103.46,0.01 -155.2,0.02c-1.51,0 -3.01,0.2 -4.74,0.21c-0.7,-0.19 -1.17,-0.28 -1.66,-0.61c-0.9,-0.96 -1.79,-1.69 -2.8,-2.51c-0.28,-0.24 -0.37,-0.43 -0.4,-0.87c-0.55,-0.97 -1.1,-1.72 -1.73,-2.74c-0.16,-1.39 -0.23,-2.51 -0.25,-3.78c0.06,-0.14 0.21,-0.44 0.44,-0.48c3.35,-2.76 2.52,-6.7 3.28,-10.4c0.01,-1.11 0.01,-1.97 0.1,-2.97c0.08,-0.14 0.26,-0.41 0.5,-0.43c2.5,-0.33 2.26,-1.95 2.07,-3.67c0.02,-0.11 0.13,-0.32 0.36,-0.34c0.46,-0.53 0.68,-1.03 0.93,-1.74c0.86,-0.92 1.7,-1.63 2.78,-2.3c0.54,-0.46 0.83,-0.94 1.2,-1.63c0.87,-0.49 1.66,-0.78 2.71,-1.02c2.13,-1.6 5.71,-0.26 6.55,-3.71c-0.03,-0.06 -0.08,-0.19 0.19,-0.12c1.42,0.05 2.55,0.02 3.83,0.17c0.93,0.01 1.72,-0.16 2.78,-0.36c1.72,-0.02 3.17,-0.03 4.94,0.06c5.52,0.03 10.72,-0.03 16.19,-0.1c6.86,-0.01 13.44,0 20.32,0.1c1.39,0.03 2.46,-0.02 3.78,-0.09c1.42,0 2.59,0.02 4.01,0.09c2.26,-0.39 3.89,-1.24 3.98,-3.7c-0.03,-0.06 -0.09,-0.17 0.12,-0.22c1.27,-1.25 2.32,-2.44 3.48,-3.65c0.11,-0.02 0.27,-0.16 0.49,-0.19c1.47,-1.27 2.72,-2.51 4.17,-3.74c0.75,-0.01 1.3,-0.01 1.96,0.2c3.46,2.98 8.72,2.8 11.76,-0.16c0.61,-0.09 1.02,-0.18 1.66,-0.27c1.58,-1.3 2.92,-2.63 4.29,-3.94c0.03,0.01 0.01,-0.05 0.25,-0.03c1.15,-1.73 2.08,-3.47 3.07,-5.42c0.03,-0.51 0.01,-0.8 0.07,-1.34c0.25,-0.74 0.42,-1.23 0.8,-1.74c2.86,-0.44 5.5,-1.15 8.15,-1.2c3.67,-0.07 7.33,0.48 11,0.53c3.22,0.04 6.5,-0.7 9.66,-0.3c5.19,0.66 6.01,0.33 7.04,-5.04c0.48,-0.29 0.77,-0.52 1.06,-0.75z" fill="#00ff00" id="svg_6" opacity="1"/>
  <path d="m225.19,144.86c-0.29,-0.39 -0.58,-0.79 -1.02,-1.49c-0.6,-0.83 -1.04,-1.35 -1.49,-1.86c0,0 -0.05,0 -0.05,-0.14c-0.01,-0.13 0,-0.46 0.14,-0.62c-0.4,-2.35 -1.13,-4.51 -1.43,-6.72c-1.13,-8.1 1.47,-14.91 7.56,-20.57c2.95,-1.25 5.56,-2.99 8.4,-3.51c4.96,-0.91 9.93,-0.46 14.26,2.75c0.44,0.33 1.21,0.22 1.83,0.32c0,0 0.25,0.17 0.42,0.43c1.47,1.43 2.76,2.59 4.04,3.74c0.1,0.23 0.21,0.46 0.36,0.95c0.54,0.85 1.04,1.44 1.43,2.21c-0.66,1.94 -0.48,3.31 1.7,3.6c0,0 0.21,0 0.22,0.19c0.11,0.87 0.2,1.56 0.21,2.55c-0.02,2.76 0.03,5.21 0.03,7.92c-0.17,0.91 -0.29,1.57 -0.63,2.26c-0.83,1.36 -1.43,2.69 -2.18,4.19c-0.44,0.95 -0.74,1.74 -1.12,2.65c-0.07,0.12 -0.1,0.39 -0.31,0.46c-1.97,1.45 -3.57,3.1 -5.49,4.15c-6.74,3.7 -13.67,4.15 -20.66,0.58c-0.27,-0.14 -0.63,-0.08 -1.11,-0.2c-0.4,-0.13 -0.63,-0.17 -0.95,-0.41c-1.19,-1.09 -2.3,-1.97 -3.49,-3.01c-0.27,-0.23 -0.46,-0.32 -0.66,-0.41z" fill="#3C4854" id="svg_8" opacity="1"/>
  <path d="m300.43,315.24c0.07,0.25 -0.01,0.51 -0.09,0.63c-1.2,0.91 -2.32,1.71 -3.91,2.66c-0.79,1.18 -1.29,2.2 -1.4,3.26c-0.5,4.7 -0.89,9.41 -1.32,14.12c-0.3,0.05 -0.6,0.11 -1.13,-0.16c-1.73,-0.68 -3.22,-1.03 -4.72,-1.38c-0.03,-4.31 0.1,-8.63 -0.14,-12.94c-0.1,-1.81 0.44,-4.3 -2.63,-4.95c-0.24,-0.05 -0.42,-0.25 -0.49,-0.63c-2.07,-1.09 -4.08,-2.41 -6.1,-2.43c-21.61,-0.15 -43.22,-0.11 -64.83,-0.07c-1.49,0.01 -3.1,0.13 -4.44,0.7c-0.95,0.4 -1.53,1.66 -2.28,2.54c-2.88,1.61 -2.11,4.45 -2.41,6.98c-0.18,1.49 -0.48,4.12 -1.08,4.22c-2.5,0.44 -5.15,0.26 -7.69,-0.07c-0.38,-0.05 -0.7,-2.09 -0.71,-3.21c-0.04,-3.3 0.21,-6.74 -3.16,-8.67c-1.68,-0.96 -3.63,-1.97 -5.48,-2c-10.86,-0.19 -21.72,-0.09 -32.58,-0.11c-3.59,-0.01 -5.82,2.32 -8.54,4.78c-0.85,1.01 -1.47,1.89 -1.55,2.81c-0.16,2.04 -0.05,4.11 -0.05,6.17c0,7.86 0,7.86 -7.45,6.86c-0.04,-11.17 -0.43,-22.35 0.05,-33.5c0.23,-5.36 1.96,-10.71 5.76,-15.38c1,-0.28 1.64,-0.36 2.48,-0.24c10.36,0.25 20.52,0.32 30.68,0.35c0.36,0 0.72,-0.38 1.35,-0.57c0.94,0.05 1.62,0.08 2.3,0.11c0.1,0.06 0.21,0.12 0.48,0.5c0.6,2.78 2.18,3.74 4.51,3.72c0,0 0.21,0.04 0.27,0.36c2,1.29 3.93,2.26 5.87,3.24c6.07,0.06 12.14,0.12 18.56,0.41c1.03,0.1 1.72,-0.05 2.42,-0.18c23.45,-0.03 46.91,-0.07 70.36,-0.07c23.24,-0.01 46.48,0.01 70.08,0.28c1.27,0.41 2.17,0.56 3.07,0.7c1.23,0.88 2.47,1.76 3.93,2.72c0.21,0.26 0.28,0.38 0.53,0.72c0.35,0.64 0.61,0.99 0.88,1.33c0.03,0.24 0.06,0.47 0,1.19c-0.05,9.69 -0.01,18.88 0.03,28.06c-2.3,0.08 -4.6,0.16 -7.17,-0.15c-0.27,-2.79 -0.15,-5.21 -0.33,-7.61c-0.07,-0.86 -0.89,-1.65 -1.37,-2.47c-0.64,-0.45 -1.27,-0.89 -2.09,-1.4c-1.97,-1.09 -3.74,-2.94 -5.55,-2.97c-13.11,-0.24 -26.23,-0.16 -39.34,-0.04c-1.21,0.01 -2.41,1.01 -3.55,1.8z" fill="#3B4753" id="svg_88" opacity="1"/>
  <path d="m274.03,226.95c-0.1,-0.07 -0.2,-0.14 -0.48,-0.54c-2.86,-1.41 -5.55,-2.49 -8.24,-3.57c-0.42,-0.03 -0.85,-0.07 -1.51,-0.33c-3.03,-1.25 -5.83,-2.26 -8.63,-3.28c-0.31,-0.17 -0.63,-0.34 -1.08,-0.86c-0.82,-0.78 -1.49,-1.2 -2.17,-1.63c-0.51,1.35 -1.02,2.7 -1.57,4.32c-0.11,2.22 -0.18,4.16 -0.25,6.1c-0.07,0.89 -0.13,1.79 -0.33,2.94c-0.12,0.25 -0.38,0.33 -0.63,0.31c-0.72,0.01 -1.21,0.03 -1.85,-0.11c-0.72,1.12 -1.29,2.4 -2.02,4.05c-0.91,0 -2.08,0 -3.25,0c-9.44,0 -18.89,-0.03 -28.33,0.04c-1.07,0.01 -3.36,-0.88 -2.26,2.12c-0.25,0.69 -0.43,1.19 -0.61,1.68c-0.49,0.07 -0.97,0.14 -1.92,0.23c-0.93,0.07 -1.4,0.13 -2.15,0.1c-2.15,0.3 -4.08,0.51 -5.9,1.09c-2.95,0.95 -3.39,0.63 -3.01,-2.41c0.6,-4.93 1.1,-9.87 1.64,-14.81c0.08,-0.88 0.16,-1.76 0.52,-2.93c0.83,-2.98 1.39,-5.67 1.99,-8.54c0.08,-0.44 0.1,-0.7 0.34,-1.08c0.45,-1.63 0.68,-3.15 0.97,-4.88c0.1,-0.86 0.17,-1.48 0.32,-2.34c0.5,-1.36 1.08,-2.45 1.29,-3.6c0.83,-4.53 1.56,-9.09 2.33,-13.89c0.12,-1.09 0.24,-1.93 0.59,-2.8c0.8,-2.07 1.37,-4.11 1.98,-6.32c0.08,-0.41 0.12,-0.64 0.38,-0.99c0.25,-0.55 0.28,-1 0.38,-1.68c0.2,-1.13 0.33,-2.03 0.55,-3.16c0.11,-0.73 0.12,-1.22 0.14,-1.72c0,0 0.09,0.09 0.37,0.04c1.4,-1.57 2.52,-3.09 3.76,-4.75c0.08,-0.24 0.06,-0.36 0.03,-0.47c0,0 0.13,-0.28 0.35,-0.49c1.12,-0.88 2.01,-1.54 2.9,-2.2c0.1,0.04 0.21,0.08 0.77,0.13c3.77,-0.09 7.08,-0.19 10.56,-0.28c0.16,0.01 0.47,0.11 0.47,0.37c1.16,0.86 2.32,1.48 3.67,2.25c1.28,0.4 2.36,0.64 3.73,0.95c1.62,0.08 2.95,0.09 4.47,0.24c1.11,-0.01 2.24,0.13 2.93,-0.36c3.63,-2.57 7.51,-4 12,-3.48c0.16,0.02 0.35,-0.21 0.75,-0.3c0.5,0.09 0.78,0.15 1.06,0.43c3.48,2.6 6.97,4.97 10.61,7.38c0.16,0.05 0.44,0.19 0.5,0.4c1.87,1.84 3.14,4.45 6.27,3.72c0,0 0.23,0.07 0.29,0.41c1.41,1.26 2.77,2.18 4.3,3.17c0.39,0.16 0.61,0.26 0.87,0.56c0.33,0.82 0.61,1.45 0.68,2.21c-0.53,0.81 -1.12,1.47 -1.15,2.15c-0.14,3.09 -0.01,6.2 -0.2,9.28c-0.07,1.04 -0.81,2.03 -1.47,3.01c-4.42,-3.11 -8.57,-6.23 -12.82,-9.23c-1.98,-1.4 -4.06,-2.71 -6.24,-3.72c-0.69,-0.32 -2.05,0.2 -2.81,0.75c-2.98,2.18 -2.34,5.09 -1.58,7.12c-1.24,2.04 -2.48,3.44 -2.99,5.07c-0.76,2.43 -0.99,5.01 -1.62,8.46c3.39,1.36 7.29,2.92 11,4.4c1.35,0.63 2.46,1.28 3.65,1.67c4.14,1.36 8.32,2.6 11.6,5.72c0.69,0.65 1.82,1.26 1.94,2.03c0.94,5.98 0.88,5.99 6.61,7.24c0,1.3 0,2.7 -0.17,4.26c-3.03,2.55 -6.07,2.4 -9.27,0.98c-0.93,-0.41 -2.03,-0.44 -3.05,-0.65z" fill="#3B4753" id="svg_89" opacity="1"/>
  <path d="m137.57,264.2c-0.13,-1.27 -0.12,-2.58 -0.4,-3.82c-1.28,-5.55 -0.81,-10.73 2.71,-15.43c0.57,-0.76 0.8,-1.76 1.25,-2.87c0.15,-0.44 0.25,-0.66 0.68,-1.03c1.1,-0.94 1.86,-1.74 2.62,-2.53c0.22,-0.09 0.44,-0.19 1.08,-0.31c2.75,-1.18 5.09,-2.36 7.42,-3.52c0.27,-0.08 0.53,-0.16 1.28,-0.24c2.03,-0.05 3.58,-0.1 5.13,-0.14c0.27,0.07 0.53,0.15 1.04,0.51c1.47,0.97 2.71,1.67 3.95,2.36c2.66,1.49 5.33,2.96 8,4.44c0,0 0.14,0.2 0.14,0.57c0.6,1.63 1.05,3 1.82,4.14c2.99,4.44 2.88,14.48 -0.15,19.06c-0.78,1.18 -1.06,2.7 -1.62,4.17c-0.05,0.11 -0.22,0.3 -0.45,0.29c-1.34,0.67 -2.45,1.35 -3.84,2.03c-3.74,0.44 -7.2,1.25 -10.66,1.22c-4.21,-0.03 -8.43,-0.76 -12.83,-1.3c-1.29,-0.72 -2.39,-1.34 -3.53,-1.97c-0.04,0 -0.05,-0.07 -0.07,-0.3c-1.08,-1.38 -2.13,-2.52 -3.19,-3.66c0,0 -0.18,0.03 -0.21,-0.13c-0.08,-0.62 -0.12,-1.07 -0.17,-1.53z" fill="#00ff00" id="svg_90" opacity="1"/>
  <path d="m280,192.89c0.44,-1.01 1.18,-2.01 1.25,-3.05c0.2,-3.09 0.07,-6.19 0.2,-9.28c0.03,-0.68 0.62,-1.34 1.38,-2.13c2.16,0.58 3.88,1.28 5.7,2.18c2.13,1.46 4.15,2.71 6.5,4.16c-0.11,0.57 -0.39,1.61 -0.51,2.67c-0.11,1.09 -0.08,2.19 -0.1,3.28c-0.07,3.99 0.28,4.24 4.21,4.14c2.52,-0.07 3.38,-1.24 3.44,-3.68c0.16,-6.01 0.23,-5.98 5.95,-6.24c0.89,-0.05 1.78,-0.5 2.64,-0.83c1.53,-0.58 3,-1.64 4.55,-1.74c5.04,-0.33 10.1,-0.32 15.31,-0.34c0.25,0.14 0.36,0.19 0.45,0.47c1.36,1.91 2.73,3.61 4.1,5.3c0.03,1.24 0.05,2.47 -0.16,4.07c-0.68,1.39 -1.12,2.42 -1.57,3.46c0,0 0.06,0.07 -0.2,0.07c-0.67,0.51 -1.07,1.02 -1.47,1.53c-0.16,0.16 -0.31,0.32 -0.83,0.54c-1.6,0.61 -2.84,1.16 -4.08,1.72c-1.64,0.02 -3.28,0.03 -5.26,-0.18c-0.48,-1.4 -0.4,-2.65 -0.83,-3.67c-0.38,-0.91 -1.22,-2.05 -2.06,-2.27c-3.73,-0.95 -4.87,-0.01 -5.38,3.79c-0.11,0.84 -0.5,1.63 -0.75,2.45c-0.87,0.03 -1.75,0.07 -2.89,-0.24c-1.23,-0.75 -2.17,-1.5 -3.14,-1.52c-5.95,-0.11 -11.91,-0.1 -17.86,-0.03c-1.36,0.02 -2.73,0.43 -4.29,0.57c-1.14,-0.86 -2.1,-1.62 -3.05,-2.61c-0.4,-1.01 -0.82,-1.8 -1.24,-2.59z" fill="#37414B" id="svg_174" opacity="1"/>
 </g>
</svg>