<?xml version="1.0"?>
<svg width="500" height="500" xmlns="http://www.w3.org/2000/svg" xmlns:svg="http://www.w3.org/2000/svg" preserveAspectRatio="xMidYMid meet" version="1.0">
 <!-- Created with SVG-edit - https://github.com/SVG-Edit/svgedit-->

 <g class="layer">
  <title>Layer 1</title>
  <path d="m71.89,26.3l11.02,0l5.51,3.3l4.13,8.81l2.75,18.72l4.13,18.72l2.75,9.91l1.38,22.02l-4.13,5.5l-4.13,11.01l0,12.11l5.51,12.11l6.88,8.81l6.88,5.5l17.9,7.71l9.64,1.1l12.39,0l12.39,-2.2l2.75,-2.2l9.64,-3.3l5.51,-2.2l9.64,1.1l4.13,2.2l1.38,8.81l-2.75,5.5l-9.64,5.5l-8.26,3.3l-9.64,2.2l-13.77,2.2l-16.52,0l-26.16,-3.3l6.88,31.93l2.75,11.01l2.75,9.91l0,23.12l-2.75,8.81l-2.75,7.71l-6.88,14.31l-9.64,16.51l-9.64,15.41l-2.75,5.5l-5.51,7.71l-2.75,8.81l-2.75,0l-1.38,7.71l-2.75,6.61l-2.75,14.31l-2.75,6.61l-4.13,18.72l-2.75,29.73l-2.75,6.61l-12.39,-1.1l-11.02,-3.3l0,-16.51l5.51,-28.62l1.38,-2.2l2.75,-19.82l2.75,-4.4l5.51,-18.72l6.88,-12.11l5.51,-11.01l5.51,-7.71l4.13,-7.71l6.88,-12.11l8.26,-14.31l5.51,-14.31l2.75,-9.91l-1.38,-12.11l-5.51,-16.51l-2.75,-17.62l-6.88,-41.84l-5.51,-8.81l-2.75,-1.1l-5.51,-15.41l-1.38,-14.31l2.75,-14.31l4.13,-13.21l-2.75,-26.42l-5.51,-23.12l-2.75,-8.81l0,-12.11l6.88,-4.4z" fill="#000000" id="svg_4"/>
  <path d="m394.1,26.3l9.64,0l5.51,3.3l1.38,3.3l0,7.71l-2.75,17.62l-2.75,7.71l-2.75,16.51l-1.38,3.3l-1.38,18.72l5.51,12.11l2.75,6.61l0,13.21l-5.51,15.41l-5.51,9.91l-5.51,5.5l-2.75,28.62l-4.13,17.62l-5.51,27.52l-2.75,4.4l0,14.31l6.88,19.82l5.51,8.81l4.13,8.81l2.75,5.5l2.75,1.1l4.13,8.81l4.13,6.61l5.51,8.81l4.13,7.71l2.75,6.61l8.26,19.82l4.13,18.72l5.51,23.12l2.75,36.33l-2.75,1.1l-19.28,0l-2.75,-1.1l-1.38,-4.4l-2.75,-19.82l-1.38,-4.4l-2.75,-24.22l-5.51,-17.62l-2.75,-11.01l-6.88,-14.31l-5.51,-11.01l-2.75,-6.61l-2.75,0l-2.75,-7.71l-6.88,-8.81l-5.51,-12.11l0,-2.2l-2.75,0l-5.51,-13.21l-5.51,-12.11l-1.38,-23.12l1.38,-12.11l4.13,-9.91l4.13,-19.82l0,-16.51l-23.41,3.3l-16.52,0l-23.41,-4.4l-15.15,-7.71l-1.38,-3.3l-4.13,-1.1l0,-8.81l4.13,-1.1l0,-2.2l5.51,-2.2l9.64,1.1l19.28,7.71l8.26,1.1l12.39,0l15.15,-3.3l11.02,-5.5l8.26,-5.5l4.13,-5.5l5.51,-8.81l0,-24.22l-5.51,-11.01l-1.38,-5.5l6.88,-36.33l1.38,-14.31l6.88,-19.82l6.88,-5.5z" fill="#000000" id="svg_5"/>
  <path d="m132.48,44.02l15.15,0l2.75,4.4l-1.38,8.81l-1.38,1.1l-19.28,1.1l-4.13,-2.2l-1.38,-9.91l9.64,-3.3z" fill="#00ff00" id="svg_6"/>
  <path d="m328,45.02l15.15,0l8.26,2.2l1.38,4.4l-1.38,7.71l-1.38,1.1l-22.03,-1.1l0,-14.31z" fill="#00ff00" id="svg_7"/>
  <path d="m171.03,47.22l23.41,5.5l8.26,4.4l-1.38,4.4l-4.13,6.61l-11.02,-1.1l-20.65,-7.71l4.13,-11.01l1.38,-1.1z" fill="#00ff00" id="svg_8"/>
  <path d="m299.09,48.32l6.88,0l4.13,8.81l0,2.2l-19.28,6.61l-9.64,2.2l-5.51,-2.2l-2.75,-7.71l5.51,-4.4l13.77,-3.3l6.88,-2.2z" fill="#00ff00" id="svg_9"/>
  <path d="m252.27,67.04l6.88,2.2l5.51,5.5l-1.38,4.4l-2.75,0l-1.38,3.3l-6.88,4.4l-2.75,3.3l-2.75,0l-1.38,4.4l-6.88,2.2l-5.51,-1.1l-6.88,-5.5l-5.51,-5.5l-6.88,-4.4l-2.75,-4.4l5.51,-5.5l1.38,-2.2l8.26,0l4.13,5.5l8.26,3.3l6.88,-2.2l2.75,-4.4l4.13,-3.3z" fill="#00ff00" id="svg_10"/>
  <path d="m133.85,120.99l8.26,1.1l6.88,6.61l0,6.61l-6.88,5.5l-2.75,2.2l-6.88,0l-9.64,-7.71l0,-6.61l11.02,-7.71z" fill="#000000" id="svg_11"/>
  <path d="m339.02,120.99l8.26,2.2l4.13,3.3l0,11.01l-1.38,2.2l-8.26,3.3l-6.88,-1.1l-6.88,-5.5l0,-7.71l5.51,-6.61l5.51,-1.1z" fill="#000000" id="svg_12"/>
  <path d="m234.37,173.83l12.39,1.1l4.13,3.3l5.51,4.4l-4.13,5.5l-4.13,3.3l-13.77,-1.1l-2.75,2.2l-5.51,-1.1l0,-2.2l-4.13,-1.1l-2.75,-3.3l0,-3.3l6.88,-3.3l2.75,-3.3l5.51,-1.1z" fill="#00ff00" id="svg_13"/>
  <path d="m199.95,191.45l6.88,2.2l4.13,6.61l0,4.4l-19.28,7.71l-12.39,1.1l-4.13,-7.71l1.38,-4.4l11.02,-4.4l9.64,-3.3l2.75,-2.2z" fill="#00ff00" id="svg_14"/>
  <path d="m271.55,191.45l6.88,2.2l15.15,4.4l0,2.2l6.88,2.2l-2.75,9.91l-5.51,1.1l-9.64,-2.2l-17.9,-7.71l0,-5.5l6.88,-6.61z" fill="#00ff00" id="svg_15"/>
  <path d="m137.98,204.66l17.9,0l2.75,2.2l1.38,7.71l-4.13,3.3l-13.77,0l-4.13,-3.3l-1.38,-8.81l1.38,-1.1z" fill="#00ff00" id="svg_16"/>
  <path d="m319.74,204.66l17.9,0l2.75,1.1l-4.13,11.01l-4.13,2.2l-12.39,-1.1l-2.75,-2.2l0,-9.91l2.75,-1.1z" fill="#00ff00" id="svg_17"/>
  <path d="m216.47,249.8l13.77,0l1.38,1.1l0,9.91l-2.75,2.2l-19.28,2.2l-11.02,0l-1.38,-13.21l1.38,-1.1l17.9,-1.1z" fill="#00ff00" id="svg_18"/>
  <path d="m250.89,250.9l28.92,0l4.13,1.1l1.38,7.71l-2.75,6.61l-17.9,-1.1l-12.39,-2.2l-2.75,-4.4l1.38,-7.71z" fill="#00ff00" id="svg_19"/>
  <path d="m169.65,257.5l9.64,1.1l1.38,8.81l-2.75,3.3l-16.52,4.4l-6.88,3.3l-5.51,-2.2l-5.51,-6.61l0,-3.3l11.02,-4.4l6.88,-2.2l8.26,-2.2z" fill="#00ff00" id="svg_20"/>
  <path d="m304.6,258.61l6.88,0l4.13,3.3l6.88,0l6.88,3.3l6.88,3.3l1.38,4.4l-4.13,4.4l-1.38,3.3l-8.26,0l-4.13,-3.3l-5.51,-3.3l-8.26,-2.2l-2.75,-2.2l1.38,-11.01z" fill="#00ff00" id="svg_21"/>
  <path d="m234.37,316.96l11.02,1.1l5.51,6.61l-1.38,6.61l-4.13,4.4l-9.64,1.1l-8.26,-3.3l-1.38,-9.91l2.75,-4.4l5.51,-2.2z" fill="#000000" id="svg_22"/>
  <path d="m367.94,319.16l2.75,2.2l4.13,7.71l0,6.61l-5.51,8.81l-4.13,2.2l-5.51,-1.1l-8.26,-3.3l1.38,-6.61l8.26,-9.91l1.38,-2.2l2.75,0l2.75,-4.4z" fill="#00ff00" id="svg_23"/>
  <path d="m109.07,320.26l2.75,0l1.38,6.61l4.13,1.1l8.26,13.21l-11.02,5.5l-5.51,-1.1l-5.51,-5.5l-2.75,-8.81l4.13,-9.91l4.13,-1.1z" fill="#00ff00" id="svg_24"/>
  <path d="m124.21,357.69l9.64,0l4.13,9.91l2.75,6.61l0,9.91l-6.88,2.2l-8.26,0l-2.75,-2.2l-2.75,-15.41l-1.38,-7.71l5.51,-3.3z" fill="#00ff00" id="svg_25"/>
  <path d="m341.77,357.69l9.64,0l6.88,4.4l-5.51,19.82l-2.75,5.5l-12.39,-2.2l-1.38,-2.2l1.38,-13.21l4.13,-12.11z" fill="#00ff00" id="svg_26"/>
  <path d="m124.21,400.63l12.39,0l4.13,1.1l0,8.81l-4.13,8.81l-4.13,2.2l-9.64,0l-2.75,-1.1l2.75,-18.72l1.38,-1.1z" fill="#00ff00" id="svg_27"/>
  <path d="m348.66,399.53l2.75,1.1l4.13,12.11l0,7.71l-4.13,1.1l-9.64,-1.1l-4.13,-3.3l-1.38,-14.31l2.75,-2.2l9.64,-1.1z" fill="#00ff00" id="svg_28"/>
 </g>
</svg>