<?xml version="1.0"?>
<svg width="500" height="500" xmlns="http://www.w3.org/2000/svg" xmlns:svg="http://www.w3.org/2000/svg" preserveAspectRatio="xMidYMid meet" version="1.0">
 <!-- Created with SVG-edit - https://github.com/SVG-Edit/svgedit-->

 <g class="layer">
  <title>Layer 1</title>
  <path d="m213.5,10.55l-2.57,1.07l0,56.22l0,56.22l4.8,4.16c5.14,4.59 11.84,8.53 12.07,7.15c0.11,-0.43 0,-1.92 0,-3.2c-0.11,-1.17 0.34,-2.56 1.01,-2.99c1.34,-0.75 -5.92,-8 -7.93,-8c-0.56,0 -1.01,-24 -1.01,-54.19c0,-50.35 -0.11,-54.41 -1.9,-55.9c-1.56,-1.28 -2.57,-1.39 -4.47,-0.53z" fill="#00ff00" id="svg_5"/>
  <path d="m187.69,11.62c-0.89,0.96 -1.23,17.5 -1.34,53.45l0,51.95l-2.79,4.16c-1.56,2.35 -3.58,4.27 -4.47,4.27c-0.89,0 -1.68,0.43 -1.68,1.07c0,0.53 -0.67,1.07 -1.34,1.07c-0.78,0 -3.24,1.49 -5.36,3.2c-2.12,1.71 -4.69,3.2 -5.7,3.2c-1.01,0 -2.12,0.64 -2.46,1.49c-0.34,0.85 -2.9,2.56 -5.7,3.95c-2.79,1.28 -6.26,3.52 -7.6,4.91c-1.34,1.39 -2.9,2.45 -3.69,2.45c-0.67,0 -2.01,0.96 -3.13,2.13c-1.01,1.17 -2.68,2.13 -3.58,2.13c-0.89,0 -1.68,0.43 -1.68,1.07c0,0.53 -0.78,1.07 -1.68,1.07c-0.78,0 -2.01,0.64 -2.46,1.39c-1.34,2.13 -12.96,7.68 -20,9.49c-10.61,2.88 -31.28,2.13 -37.32,-1.39c-4.58,-2.67 -6.82,-3.31 -9.27,-2.67c-4.13,0.96 -4.58,4.59 -1.01,6.72c1.68,0.96 3.58,2.35 4.13,2.99c1.56,1.6 19.1,4.8 26.7,4.8c4.8,0 6.26,0.32 6.26,1.6c0,0.85 -4.8,6.29 -10.73,12.06c-16.98,16.43 -18.32,17.92 -18.32,19.2c0,0.75 -0.78,1.28 -1.68,1.28c-0.89,0 -1.68,0.43 -1.68,0.96c0,0.53 -1.79,2.77 -3.91,5.01c-2.12,2.13 -3.91,4.27 -3.91,4.69c0,0.53 -1.23,1.92 -2.79,3.31c-1.45,1.39 -2.79,3.63 -2.79,4.8c0,4.59 8.6,3.95 11.28,-0.85c0.78,-1.28 1.9,-2.99 2.57,-3.63c0.67,-0.64 3.8,-3.95 6.82,-7.36c3.13,-3.41 8.38,-8.96 11.73,-12.38c3.35,-3.31 6.7,-6.93 7.37,-8c0.67,-1.07 2.01,-2.35 3.13,-2.99c1.12,-0.64 4.58,-3.63 7.82,-6.51c9.38,-8.43 12.74,-11.2 13.52,-11.2c0.34,0 1.23,-0.53 2.01,-1.07c0.78,-0.64 3.35,-2.77 5.81,-4.8c2.46,-2.03 5.14,-3.73 5.92,-3.73c0.67,0 1.34,-0.32 1.34,-0.85c0,-0.96 17.09,-11.95 18.66,-11.95c0.67,0 1.45,-0.75 1.79,-1.49c0.34,-0.85 2.35,-2.45 4.36,-3.41c2.01,-0.96 4.13,-2.45 4.58,-3.2c0.45,-0.85 1.56,-1.49 2.35,-1.49c0.89,0 2.12,-0.75 2.9,-1.6c0.78,-0.85 2.35,-1.6 3.46,-1.6c1.23,0 2.12,-0.64 2.12,-1.39c0,-0.85 2.01,-2.35 4.36,-3.41c2.46,-1.07 4.69,-2.56 5.03,-3.31c0.34,-0.85 1.12,-1.49 1.79,-1.49c1.9,0 5.25,-3.73 6.03,-6.83c0.34,-1.49 1.23,-2.77 1.79,-2.77c0.67,0 1.12,-19.31 1.12,-53.66l0,-53.55l-3.02,-1.39c-3.8,-1.6 -4.25,-1.6 -5.7,0.11z" fill="#00ff00" id="svg_6"/>
  <path d="m127.47,59.84c-3.24,0.85 -8.38,2.24 -11.4,2.88c-2.9,0.75 -6.03,1.92 -6.93,2.56c-0.89,0.53 -3.8,2.03 -6.59,3.09c-2.79,1.17 -7.15,3.41 -9.61,5.01c-2.57,1.71 -5.03,2.99 -5.47,2.99c-0.45,0 -2.57,1.39 -4.69,3.2c-2.01,1.71 -4.25,3.2 -4.8,3.2c-1.68,0 -29.05,26.67 -29.05,28.27c0,0.43 -1.34,2.56 -3.13,4.69c-1.68,2.13 -3.91,5.55 -5.03,7.57c-1.12,2.03 -4.25,7.79 -6.93,12.7c-2.79,5.01 -5.03,9.71 -5.03,10.45c0,1.28 -2.46,7.25 -4.8,11.52c-0.56,1.07 -1.68,4.69 -2.46,8c-0.89,3.2 -2.01,7.57 -2.68,9.6c-2.35,7.57 -3.46,12.48 -5.14,23.47c-1.01,6.19 -2.57,15.26 -3.58,20.27c-1.23,7.15 -1.68,19.63 -1.79,56.43l-0.22,47.26l2.68,2.03c1.45,1.07 4.02,2.03 5.81,2.03c1.79,0 6.59,0.43 10.73,1.07c35.42,5.01 53.63,5.55 70.72,2.13c18.32,-3.52 21.45,-4.37 27.04,-7.57c3.02,-1.71 5.81,-3.09 6.26,-3.09c1.01,0 11.06,-9.17 14.75,-13.34c1.56,-1.81 3.91,-5.44 5.25,-8c1.45,-2.67 3.02,-5.55 3.58,-6.4c0.56,-0.85 1.79,-4.48 2.9,-8c1.01,-3.52 2.46,-7.57 3.02,-9.07c1.34,-3.2 5.59,-35.1 4.92,-36.81c-0.22,-0.75 -1.9,-1.07 -4.02,-0.75c-2.79,0.43 -4.25,-0.21 -7.15,-2.88c-3.13,-2.88 -3.8,-3.2 -4.47,-1.71c-1.12,2.88 -0.67,8.32 0.89,11.2c1.34,2.35 1.23,2.99 -1.12,6.29c-1.45,2.13 -2.68,5.33 -2.68,7.25c0,1.92 -0.67,5.55 -1.56,8c-0.89,2.56 -1.9,6.51 -2.35,8.85c-0.45,2.35 -2.46,7.68 -4.58,11.84c-5.25,10.56 -13.74,18.56 -24.58,23.47c-7.6,3.41 -10.06,3.95 -23.01,4.91c-19.22,1.39 -60.22,-0.43 -64.13,-2.88l-2.68,-1.6l0,-29.12c0.11,-15.9 0.56,-33.6 1.12,-39.15c1.9,-18.99 4.47,-40.01 5.47,-44.27c4.47,-18.99 7.71,-30.4 9.05,-32c0.45,-0.64 1.23,-2.77 1.68,-4.8c0.78,-3.31 5.92,-15.15 8.49,-19.2c0.56,-0.85 1.45,-2.67 2.01,-3.95c0.67,-1.17 1.68,-2.56 2.23,-2.99c0.67,-0.32 1.23,-1.49 1.23,-2.56c0,-1.07 0.78,-2.67 1.79,-3.41c1.01,-0.75 3.58,-4.05 5.7,-7.36c4.13,-5.97 25.14,-26.67 27.26,-26.67c0.56,0 2.46,-1.17 4.13,-2.67c1.68,-1.49 4.02,-2.99 5.25,-3.31c1.23,-0.43 2.46,-1.07 2.79,-1.39c1.23,-1.6 9.16,-5.44 11.06,-5.44c1.12,0 2.68,-0.75 3.46,-1.6c0.78,-0.85 2.23,-1.6 3.24,-1.6c1.01,0 2.46,-0.53 3.13,-1.17c0.78,-0.75 5.14,-1.49 9.83,-1.81c7.15,-0.43 8.83,-0.21 10.73,1.49c4.69,4.05 5.47,8.11 5.47,28.06c0,10.35 0.45,19.42 1.01,20.27c0.89,1.28 1.79,0.96 5.14,-1.81c2.12,-1.92 4.69,-3.41 5.47,-3.41c0.78,0 2.23,-0.85 3.24,-1.92c1.56,-1.6 1.9,-4.48 1.9,-16.64c0,-17.28 -2.01,-26.56 -7.15,-33.28c-6.37,-8.11 -19.55,-11.63 -31.62,-8.43z" id="svg_7"/>
  <path d="m261.2,59.3c-5.81,1.39 -9.27,3.31 -12.96,7.47c-6.59,7.36 -10.5,21.55 -10.5,38.19l0,10.45l3.69,2.67c1.9,1.39 5.25,3.41 7.37,4.48c3.46,1.81 3.91,1.81 5.59,0.21c1.45,-1.39 1.9,-5.23 2.35,-21.12c0.78,-25.6 1.79,-27.2 16.54,-26.14c5.81,0.43 13.63,3.09 23.13,8c1.9,0.96 5.81,2.88 8.83,4.37c2.9,1.6 5.92,3.63 6.7,4.69c0.67,1.07 1.79,1.92 2.35,1.92c3.91,0 30.72,26.56 30.72,30.4c0,0.85 0.67,1.92 1.56,2.35c1.68,0.96 6.26,8.64 6.26,10.56c0,0.75 0.67,1.49 1.45,1.81c0.67,0.21 2.01,2.35 2.9,4.59c0.78,2.35 2.9,7.04 4.58,10.56c1.79,3.52 3.46,8.32 3.91,10.67c0.45,2.35 1.23,4.69 1.68,5.33c1.23,1.6 4.36,12.27 5.59,19.42c0.56,3.41 1.79,9.81 2.79,14.19c5.47,25.28 7.82,102.84 3.24,107.11c-1.56,1.6 -9.61,2.24 -36.76,3.31c-24.36,0.96 -46.7,-1.49 -51.06,-5.65c-0.78,-0.75 -2.23,-1.28 -3.35,-1.28c-2.46,0 -17.65,-13.98 -17.65,-16.22c0,-0.96 -0.78,-2.24 -1.68,-2.99c-1.68,-1.39 -6.03,-13.34 -8.83,-24.54c-1.68,-6.93 -4.02,-33.6 -4.58,-54.09c-0.45,-10.88 -0.45,-10.88 -4.13,-13.98c-5.03,-4.05 -9.38,-6.61 -11.51,-6.61c-1.45,0 -1.68,2.77 -1.68,20.48c0,16.64 0.56,24.11 2.9,38.73c1.56,9.92 3.24,20.8 3.8,24.11c0.45,3.31 1.34,6.93 2.01,8c2.57,4.8 4.69,10.24 4.69,12.16c0,1.07 0.56,2.35 1.23,2.67c0.56,0.43 1.68,1.81 2.23,2.99c2.46,5.33 6.93,10.77 12.07,15.04c1.45,1.28 3.46,2.99 4.47,3.84c1.01,0.96 4.36,2.77 7.37,4.16c3.13,1.49 5.81,2.88 6.14,3.31c0.56,0.75 7.15,2.24 23.46,5.55c16.31,3.2 37.54,2.35 78.54,-3.31c12.51,-1.71 11.84,0.32 11.95,-41.18c0,-34.99 -0.56,-43.21 -5.03,-75.74c-0.89,-6.51 -1.9,-13.44 -2.12,-15.47c-0.78,-6.72 -6.48,-26.99 -9.72,-35.1c-1.79,-4.27 -3.24,-8.96 -3.24,-10.35c0,-1.39 -0.45,-2.56 -0.89,-2.56c-1.01,0 -5.81,-10.45 -5.81,-12.59c0,-0.64 -0.45,-1.28 -1.12,-1.28c-0.56,0 -1.34,-1.17 -1.79,-2.67c-0.34,-1.39 -1.34,-3.09 -2.23,-3.84c-0.89,-0.64 -1.56,-1.92 -1.56,-2.67c0,-0.85 -0.89,-2.45 -1.9,-3.52c-1.12,-1.17 -4.25,-5.23 -7.04,-9.17c-2.79,-3.95 -6.37,-8.43 -8.04,-9.92c-1.79,-1.49 -3.13,-3.2 -3.13,-3.84c0,-0.64 -1.12,-1.71 -2.46,-2.24c-1.45,-0.64 -3.02,-2.13 -3.69,-3.41c-0.56,-1.28 -2.12,-2.56 -3.58,-2.99c-1.34,-0.32 -3.02,-1.49 -3.69,-2.77c-0.67,-1.17 -2.35,-2.56 -3.69,-3.09c-2.46,-1.07 -10.95,-6.51 -16.65,-10.67c-1.56,-1.17 -3.58,-2.13 -4.25,-2.13c-0.78,0 -4.25,-1.39 -7.71,-3.09c-6.48,-3.31 -10.5,-4.59 -21.9,-7.04c-7.49,-1.71 -10.5,-1.81 -16.2,-0.53z" id="svg_8"/>
  <path d="m245.11,139.1c0.67,0.43 3.8,4.05 6.93,8c3.13,3.95 6.03,7.25 6.59,7.15c1.12,-0.11 0.45,-6.29 -0.89,-8.85c-0.56,-0.96 -1.79,-1.81 -2.68,-1.81c-0.89,0 -1.68,-0.43 -1.68,-1.07c0,-0.53 -1.79,-1.81 -4.02,-2.67c-4.36,-1.71 -6.26,-2.03 -4.25,-0.75z" fill="#00ff00" id="svg_9"/>
  <path d="m200.31,140.17c-1.23,0.21 -3.13,1.39 -4.25,2.45c-1.12,1.07 -2.68,2.03 -3.58,2.03c-0.89,0 -1.68,0.43 -1.68,1.07c0,0.53 -0.67,1.07 -1.34,1.07c-0.78,0.11 -3.24,1.49 -5.36,3.2c-2.12,1.81 -4.36,3.2 -5.03,3.2c-0.67,0 -2.01,0.96 -3.13,2.13c-1.01,1.17 -2.68,2.13 -3.58,2.13c-0.89,0 -1.68,0.43 -1.68,1.07c0,0.53 -0.67,1.07 -1.34,1.07c-0.78,0.11 -3.24,1.49 -5.36,3.2c-2.12,1.81 -4.47,3.2 -5.25,3.2c-0.78,0 -1.9,0.96 -2.57,2.13c-0.67,1.17 -1.9,2.13 -2.68,2.13c-0.78,0 -2.79,1.17 -4.47,2.67c-1.68,1.49 -3.46,2.67 -4.13,2.67c-0.56,0 -1.34,0.75 -1.68,1.6c-0.45,0.85 -1.34,1.6 -2.23,1.6c-0.89,0 -2.9,1.39 -4.58,3.2c-1.56,1.71 -3.35,3.2 -3.91,3.2c-1.12,0 -2.79,1.39 -13.63,11.2c-3.58,3.2 -6.82,5.87 -7.26,5.87c-0.34,0 -1.68,1.49 -2.9,3.2c-1.23,1.71 -2.9,3.2 -3.58,3.2c-0.78,0 -1.45,0.43 -1.45,0.96c0,0.64 -2.12,3.2 -4.69,5.76c-2.68,2.56 -6.26,6.51 -8.16,8.64c-1.79,2.13 -5.7,6.4 -8.6,9.39c-3.02,2.99 -5.36,5.65 -5.36,6.08c0,0.32 -1.68,2.45 -3.69,4.59c-13.3,14.72 -14.86,17.18 -13.18,21.44c1.45,3.63 2.79,3.63 6.59,-0.21c2.79,-2.88 4.02,-4.27 10.5,-12.27c1.34,-1.71 3.69,-4.37 5.03,-5.76c1.45,-1.49 2.57,-3.09 2.57,-3.52c0,-0.53 0.67,-0.96 1.45,-0.96c0.67,0 2.01,-1.49 2.9,-3.31c1.68,-3.73 6.48,-8.64 10.17,-10.56c3.13,-1.6 4.47,-0.11 4.47,5.23c0,2.67 1.34,5.23 5.81,10.35c3.13,3.73 6.03,6.83 6.26,6.83c1.12,0 -1.01,-6.61 -2.57,-8.11c-1.79,-1.71 -1.9,-2.99 -1.68,-14.83c0.11,-12.06 0.67,-13.44 8.38,-21.12c3.91,-3.95 7.37,-7.15 7.82,-7.15c0.34,0 2.79,-1.92 5.25,-4.27c2.57,-2.35 5.14,-4.27 5.59,-4.27c0.45,0 1.79,-0.85 2.9,-1.92c2.68,-2.35 10.06,-7.79 13.85,-10.03c1.56,-1.07 4.25,-3.09 5.92,-4.48c1.68,-1.49 4.13,-2.99 5.47,-3.41c1.23,-0.43 2.57,-1.07 2.9,-1.49c1.01,-1.6 17.32,-11.74 18.77,-11.74c0.67,0 1.34,-0.43 1.34,-1.07c0,-0.53 2.23,-2.24 5.03,-3.84c2.79,-1.49 5.03,-3.2 5.03,-3.73c0,-1.39 4.13,-1.17 5.81,0.32c3.35,3.09 7.49,4.48 9.16,3.09c1.34,-1.07 2.23,-1.07 4.25,0c1.45,0.75 2.79,1.6 3.13,1.92c1.12,1.28 7.82,5.44 7.82,4.91c0,-3.73 -7.26,-10.24 -16.42,-14.83c-2.01,-0.96 -3.69,-2.45 -3.69,-3.2c0,-1.49 -5.47,-2.56 -9.5,-1.92z" fill="#00ff00" id="svg_10"/>
  <path d="m269.02,155.85c-0.78,0.85 -2.9,1.6 -4.8,1.6l-3.35,0l2.9,2.13c1.56,1.17 3.35,2.13 3.91,2.13c0.56,0 1.34,0.64 1.68,1.49c0.34,0.85 2.46,2.35 4.58,3.31c2.23,1.07 4.02,2.35 4.02,3.09c0,0.64 1.56,1.92 3.35,2.77c6.14,2.99 27.04,21.98 43.01,38.94c4.36,4.59 8.04,8.75 8.16,9.17c0.22,0.53 1.79,2.35 3.46,3.95c1.68,1.6 3.35,3.52 3.58,4.27c0.22,0.75 1.9,1.49 3.69,1.6c3.46,0.21 6.03,-2.24 4.69,-4.69c-2.01,-3.95 -3.69,-6.08 -6.59,-8.64c-1.68,-1.49 -3.02,-3.2 -3.02,-3.73c0,-0.53 -1.45,-2.03 -3.35,-3.31c-1.79,-1.39 -3.35,-2.88 -3.35,-3.31c0,-0.53 -2.46,-3.41 -5.59,-6.51c-3.02,-3.09 -5.59,-5.76 -5.59,-5.97c0,-0.85 -4.47,-4.69 -5.59,-4.69c-0.56,0 -1.12,-0.53 -1.12,-1.07c0,-1.28 -4.13,-5.33 -5.47,-5.33c-1.34,0 -4.58,-4.91 -4.58,-6.93c0,-1.28 1.34,-1.6 6.03,-1.6c6.48,0 24.36,-2.88 25.25,-4.16c0.34,-0.32 2.01,-1.6 3.69,-2.56c4.36,-2.67 3.91,-7.47 -0.67,-8c-1.9,-0.21 -4.13,0.43 -5.47,1.49c-3.24,2.88 -11.51,4.59 -22.46,4.69c-10.06,0 -22.34,-2.45 -25.14,-5.01c-0.78,-0.75 -2.68,-1.39 -4.25,-1.39c-1.45,0 -2.68,-0.43 -2.68,-0.96c0,-0.53 -1.23,-1.28 -2.79,-1.6c-1.56,-0.43 -2.79,-1.17 -2.79,-1.71c0,-1.6 -1.79,-1.28 -3.35,0.53z" fill="#00ff00" id="svg_11"/>
  <path d="m242.77,165.77c0.45,0.96 1.12,2.99 1.34,4.48c1.23,6.61 1.56,7.25 4.25,7.89c1.56,0.43 2.79,1.17 2.79,1.71c0,0.64 0.78,1.07 1.68,1.07c0.78,0 2.01,0.64 2.46,1.49c0.45,0.85 2.68,2.56 5.03,3.73c2.23,1.28 4.36,2.99 4.69,3.84c0.34,0.85 1.12,1.6 1.79,1.6c0.67,0 2.68,1.28 4.47,2.88c3.69,3.31 8.27,7.36 15.64,13.66l5.03,4.27l0,16.54c-0.11,13.02 -0.56,17.71 -2.01,21.76c-3.35,8.85 0,14.83 5.14,9.17c2.35,-2.67 4.02,-8.75 5.47,-20.27c0.67,-5.01 1.68,-9.6 2.46,-10.35c1.68,-1.71 6.26,0.43 8.04,3.63c0.67,1.39 2.57,3.41 4.13,4.59c1.68,1.28 3.02,2.77 3.02,3.41c0,0.53 1.34,2.35 3.13,3.95c4.69,4.59 8.04,8.32 8.04,9.07c0,0.75 0.56,1.39 5.59,6.93c1.56,1.71 3.69,4.05 4.69,5.33c2.57,2.99 4.69,2.88 6.48,-0.43c1.79,-3.2 0.22,-7.04 -4.69,-10.99c-1.79,-1.39 -3.13,-3.2 -3.13,-4.05c0,-0.75 -1.01,-1.92 -2.23,-2.56c-1.23,-0.64 -2.23,-1.6 -2.23,-2.13c0,-0.64 -1.68,-2.88 -3.8,-5.12c-2.12,-2.13 -5.92,-6.4 -8.38,-9.28c-2.57,-2.99 -5.81,-6.51 -7.26,-8c-1.45,-1.49 -2.9,-3.52 -3.24,-4.59c-0.45,-0.96 -1.45,-1.81 -2.46,-1.81c-0.89,0 -1.68,-0.43 -1.68,-0.96c0,-1.28 -24.36,-24.64 -25.58,-24.64c-0.56,0 -2.01,-1.07 -3.13,-2.45c-1.12,-1.28 -4.02,-3.63 -6.59,-5.33c-2.46,-1.6 -5.59,-3.84 -6.93,-5.01c-1.34,-1.17 -2.9,-2.13 -3.46,-2.13c-0.67,0 -1.68,-0.96 -2.35,-2.13c-0.67,-1.17 -1.9,-2.13 -2.68,-2.13c-0.78,0 -2.79,-1.17 -4.36,-2.56c-1.56,-1.39 -4.47,-3.31 -6.37,-4.27c-3.35,-1.49 -3.46,-1.49 -2.79,0.21z" fill="#00ff00" id="svg_12"/>
  <path d="m163.33,189.78c-0.34,0.96 -1.34,1.81 -2.01,1.81c-0.78,0 -3.13,1.39 -5.14,3.2c-2.01,1.71 -4.13,3.2 -4.69,3.2c-1.68,0 -0.89,9.6 0.89,12.38c1.56,2.13 1.68,3.2 0.56,5.33c-1.34,2.88 -1.01,3.84 3.24,8.64c3.91,4.37 6.26,5.01 8.94,2.45c3.8,-3.63 2.23,-9.6 -4.36,-16.75c-2.57,-2.67 -4.58,-5.97 -4.58,-7.36c0,-2.45 3.46,-5.23 4.8,-3.95c1.23,1.17 4.02,-1.92 4.69,-5.23c0.89,-3.63 -1.12,-6.72 -2.35,-3.73z" id="svg_13"/>
 </g>
</svg>