<?xml version="1.0"?>
<svg width="500" height="500" xmlns="http://www.w3.org/2000/svg" xmlns:svg="http://www.w3.org/2000/svg" preserveAspectRatio="xMidYMid meet" version="1.0">
 <!-- Created with SVG-edit - https://github.com/SVG-Edit/svgedit-->

 <g class="layer">
  <title>Layer 1</title>
  <path d="m213.24,16.28l7.52,0l3.76,4.38l7.52,25.17l-1.25,6.57l-3.76,1.09l-10.02,0l-3.76,-1.09l-1.25,-2.19l-1.25,-16.41l-2.51,-10.94l2.51,-5.47l2.51,-1.09z" fill="#000000" id="svg_4"/>
  <path d="m144.32,25.04l10.02,1.09l5.01,9.85l3.76,7.66l5.01,10.94l-2.51,4.38l-5.01,2.19l-10.02,0l-3.76,-2.19l-2.51,-12.04l-6.27,-15.32l3.76,-5.47l2.51,-1.09z" fill="#000000" id="svg_5"/>
  <path d="m96.71,42.54l7.52,0l3.76,2.19l2.51,12.04l5.01,10.94l-6.27,5.47l-11.28,0l-5.01,-5.47l-1.25,-10.94l0,-9.85l5.01,-4.38z" fill="#000000" id="svg_6"/>
  <path d="m210.73,57.86l16.29,4.38l2.51,1.09l-1.25,4.38l-2.51,5.47l-3.76,1.09l-12.53,0l-1.25,-1.09l1.25,-14.22l1.25,-1.09z" fill="#000000" id="svg_7"/>
  <path d="m149.33,68.8l17.54,0l2.51,4.38l0,18.6l1.25,6.57l2.51,1.09l0,6.57l-7.52,2.19l-10.02,0l-7.52,-2.19l-1.25,-6.57l2.51,-3.28l0,-17.51l-2.51,-4.38l1.25,-4.38l1.25,-1.09z" fill="#000000" id="svg_8"/>
  <path d="m97.96,81.93l18.8,0l1.25,4.38l0,9.85l1.25,12.04l1.25,6.57l-5.01,3.28l-8.77,1.09l-6.27,-2.19l-3.76,-2.19l1.25,-9.85l0,-13.13l-2.51,-8.75l2.51,-1.09z" fill="#000000" id="svg_9"/>
  <path d="m211.98,83.03l8.77,0l10.02,4.38l8.77,8.75l1.25,3.28l0,10.94l-2.51,5.47l-7.52,7.66l-10.02,3.28l-7.52,0l-11.28,-4.38l-7.52,-6.57l-1.25,-4.38l0,-13.13l2.51,-5.47l8.77,-6.57l7.52,-3.28z" fill="#00ff00" id="svg_10"/>
  <path d="m50.85,90.78l3.76,0l0,2.19l5.01,2.19l1.25,9.85l2.51,3.28l-5.01,5.47l-6.27,0l-5.01,-5.47l0,-13.13l3.76,-4.38z" fill="#000000" id="svg_11"/>
  <path d="m165.62,114.76l8.77,0l1.25,15.32l8.77,18.6l3.76,9.85l1.25,6.57l2.51,0l3.76,6.57l2.51,3.28l-2.51,5.47l-12.53,5.47l-11.28,-1.09l-5.01,-1.09l-1.25,-2.19l0,-10.94l-2.51,-14.22l-5.01,-15.32l-1.25,-1.09l-2.51,-10.94l-5.01,-6.57l2.51,-5.47l1.25,-1.09l12.53,-1.09z" fill="#000000" id="svg_12"/>
  <path d="m116.75,123.51l7.52,1.09l0,15.32l2.51,0l3.76,15.32l6.27,12.04l2.51,9.85l6.27,4.38l0,7.66l-6.27,3.28l-7.52,3.28l-8.77,0l-8.77,-3.28l0,-13.13l-2.51,-12.04l-2.51,-4.38l-1.25,-12.04l-5.01,-13.13l-3.76,-6.57l1.25,-4.38l12.53,-2.19l3.76,-1.09z" fill="#000000" id="svg_14"/>
  <path d="m228.27,135.55l6.27,1.09l1.25,1.09l2.51,13.13l5.01,17.51l2.51,6.57l-5.01,5.47l-6.27,1.09l-12.53,0l-8.77,-3.28l-1.25,-4.38l3.76,-7.66l0,-9.85l-2.51,-15.32l11.28,-4.38l3.76,-1.09z" fill="#000000" id="svg_15"/>
  <path d="m343.55,135.55l7.52,1.09l2.51,3.28l-1.25,8.75l-6.27,5.47l-10.02,14.22l-2.51,3.28l-7.52,-1.09l-10.02,-5.47l0,-6.57l7.52,-4.38l2.51,-5.47l6.27,-4.38l2.51,-4.38l8.77,-4.38z" fill="#000000" id="svg_16"/>
  <path d="m71.65,153.06l6.27,0l2.51,4.38l2.51,9.85l10.02,17.51l7.52,12.04l3.76,2.19l1.25,5.47l-8.77,6.57l-3.76,2.19l-11.28,0l-2.51,-7.66l0,-6.57l-7.52,-13.13l-5.01,-14.22l-7.52,-10.94l-1.25,-3.28l11.28,-2.19l2.51,-2.19z" fill="#000000" id="svg_17"/>
  <path d="m307.21,174.94l8.77,1.09l11.28,0l2.51,2.19l-1.25,4.38l-2.51,5.47l-1.25,19.7l0,8.75l-6.27,4.38l-11.28,1.09l-10.02,-1.09l-3.76,-5.47l3.76,-9.85l3.76,-6.57l3.76,-10.94l1.25,-10.94l1.25,-2.19z" fill="#000000" id="svg_18"/>
  <path d="m219.5,192.45l7.52,2.19l22.55,1.09l0,5.47l-3.76,4.38l-2.51,7.66l-2.51,28.45l-2.51,19.7l-2.51,19.7l2.51,7.66l8.77,-2.19l7.52,-7.66l2.51,0l2.51,-6.57l5.01,-5.47l10.02,-17.51l8.77,-22.98l3.76,-3.28l5.01,1.09l6.27,4.38l16.29,2.19l5.01,5.47l-2.51,4.38l-2.51,4.38l-7.52,2.19l-2.51,7.66l-3.76,5.47l-1.25,2.19l-2.51,0l-1.25,7.66l-3.76,2.19l-7.52,13.13l-5.01,6.57l-5.01,14.22l-2.51,5.47l-3.76,1.09l-17.54,0l-8.77,-3.28l-5.01,-6.57l-6.27,-3.28l0,2.19l-2.51,1.09l-17.54,0l-5.01,-3.28l-8.77,1.09l-6.27,3.28l-16.29,0l-5.01,-3.28l-6.27,1.09l-6.27,2.19l-11.28,0l-7.52,-2.19l0,-2.19l-15.04,1.09l-8.77,-3.28l-3.76,-2.19l0,-10.94l-3.76,-12.04l-5.01,-9.85l-2.51,-7.66l-6.27,-15.32l-3.76,-8.75l-3.76,-3.28l-1.25,-4.38l1.25,-1.09l13.78,-2.19l7.52,-3.28l5.01,2.19l3.76,15.32l2.51,3.28l2.51,9.85l6.27,13.13l1.25,2.19l2.51,0l0,-6.57l-2.51,-7.66l-2.51,-16.41l-5.01,-14.22l-2.51,-4.38l0,-7.66l23.81,-1.09l7.52,-2.19l1.25,1.09l0,17.51l5.01,16.41l2.51,15.32l5.01,17.51l2.51,3.28l0,5.47l2.51,-1.09l0,-12.04l-1.25,-7.66l-2.51,-53.62l-2.51,-6.57l1.25,-2.19l20.05,0l11.28,-1.09l1.25,4.38l-1.25,3.28l0,28.45l2.51,31.73l1.25,15.32l1.25,5.47l3.76,1.09l1.25,-4.38l2.51,-6.57l2.51,-18.6l1.25,-3.28l2.51,-27.36l2.51,-8.75l0,-20.79l3.76,-2.19z" fill="#000000" id="svg_19"/>
  <path d="m115.5,311.72l22.55,1.09l8.77,2.19l10.02,0l6.27,-2.19l8.77,1.09l7.52,2.19l11.28,-1.09l5.01,-2.19l15.04,0l2.51,1.09l16.29,0l3.76,3.28l0,2.19l8.77,2.19l7.52,4.38l-1.25,3.28l-15.04,7.66l-2.51,0l-2.51,4.38l-7.52,7.66l-7.52,4.38l-26.31,6.57l-2.51,1.09l-21.3,0l-6.27,-3.28l-5.01,-4.38l-5.01,-4.38l-6.27,-5.47l0,-2.19l-5.01,-2.19l-7.52,-3.28l-6.27,-6.57l-2.51,-1.09l-3.76,-9.85l-1.25,-5.47l1.25,-1.09z" fill="#00ff00" id="svg_20"/>
  <path d="m218.25,362.05l3.76,1.09l5.01,6.57l0,10.94l-7.52,17.51l-3.76,18.6l-10.02,9.85l-2.51,0l-2.51,4.38l-13.78,8.75l-5.01,-2.19l0,-44.86l-5.01,-12.04l-2.51,-5.47l12.53,-4.38l16.29,-2.19l11.28,-4.38l3.76,-2.19z" fill="#000000" id="svg_21"/>
  <path d="m144.32,366.43l6.27,1.09l18.8,7.66l1.25,3.28l-5.01,10.94l-1.25,13.13l-2.51,10.94l-2.51,30.64l-2.51,15.32l-2.51,3.28l-6.27,0l-6.27,-3.28l0,-19.7l2.51,-45.96l0,-12.04l-1.25,-5.47l0,-8.75l1.25,-1.09z" fill="#000000" id="svg_22"/>
  <path d="m58.75,119.12l6.56,0l7.5,3.08l6.56,6.15l0.94,2.31l0,7.69l-1.87,3.85l-5.62,5.38l-7.5,2.31l-5.62,0l-8.43,-3.08l-5.62,-4.62l-0.94,-3.08l0,-9.23l1.87,-3.85l6.56,-4.62l5.62,-2.31z" fill="#00ff00" id="svg_23"/>
 </g>
</svg>