<?xml version="1.0"?>
<svg width="500" height="500" xmlns="http://www.w3.org/2000/svg" xmlns:svg="http://www.w3.org/2000/svg" preserveAspectRatio="xMidYMid meet" version="1.0">
 <!-- Created with SVG-edit - https://github.com/SVG-Edit/svgedit-->

 <g class="layer">
  <title>Layer 1</title>
  <path d="m116.67,32.93l18.52,1.2l13.58,3.6l12.35,7.2l11.11,9.6l7.41,10.79l3.7,13.19l1.23,7.2l0,11.99l-2.47,13.19l-2.47,7.2l-7.41,0l-9.88,-6l2.47,-9.6l0,-21.59l-3.7,-9.6l-2.47,-1.2l-1.23,-6l-4.94,-2.4l-4.94,-3.6l-16.05,-6l-22.23,0l-19.76,9.6l-7.41,6l-8.64,9.6l-11.11,16.79l-3.7,10.79l-3.7,8.4l-2.47,28.79l2.47,29.98l4.94,13.19l3.7,10.79l6.17,13.19l1.23,4.8l2.47,0l3.7,7.2l14.82,15.59l3.7,3.6l6.17,2.4l6.17,3.6l13.58,2.4l16.05,-3.6l12.35,-7.2l6.17,-6l6.17,-11.99l0,-14.39l-2.47,-6l-1.23,-1.2l0,-7.2l7.41,-2.4l7.41,0l6.17,6l2.47,17.99l-3.7,19.19l-7.41,11.99l-2.47,0l-2.47,4.8l-4.94,2.4l0,2.4l-11.11,7.2l-16.05,4.8l-6.17,1.2l-12.35,0l-11.11,-3.6l-1.23,-3.6l1.23,-7.2l-8.64,6l-7.41,-1.2l0,-2.4l-6.17,-1.2l-4.94,-4.8l-6.17,-6l-9.88,-10.79l-6.17,-10.79l-8.64,-15.59l-6.17,-15.59l-7.41,-35.98l0,-25.19l7.41,-31.18l9.88,-19.19l6.17,-9.6l4.94,-7.2l3.7,-3.6l2.47,0l2.47,-4.8l12.35,-9.6l16.05,-7.2l18.52,-3.6z" fill="#000000" id="svg_4"/>
  <path d="m348.82,32.93l17.29,1.2l16.05,4.8l13.58,8.4l8.64,7.2l0,2.4l4.94,2.4l4.94,6l0,2.4l2.47,0l4.94,8.4l0,2.4l2.47,0l6.17,13.19l3.7,10.79l4.94,17.99l0,43.18l-7.41,29.98l-4.94,9.6l-3.7,9.6l-7.41,13.19l-3.7,4.8l-1.23,3.6l-6.17,6l-11.11,10.79l-3.7,3.6l-13.58,7.2l-18.52,4.8l-11.11,0l-12.35,-2.4l-11.11,-4.8l-9.88,-4.8l-6.17,-6l-8.64,-10.79l-6.17,-11.99l0,-26.39l6.17,-9.6l1.23,-1.2l12.35,1.2l3.7,2.4l-1.23,4.8l-3.7,9.6l0,11.99l4.94,10.79l8.64,9.6l13.58,7.2l6.17,1.2l16.05,0l12.35,-4.8l7.41,-4.8l2.47,0l1.23,-3.6l6.17,-6l8.64,-10.79l4.94,-8.4l6.17,-10.79l7.41,-21.59l2.47,-14.39l1.23,-6l0,-29.98l-4.94,-20.39l-1.23,-7.2l-2.47,0l-4.94,-10.79l-7.41,-10.79l-2.47,-2.4l0,-3.6l-4.94,-2.4l-2.47,-4.8l-4.94,-1.2l-6.17,-4.8l-16.05,-6l-22.23,0l-19.76,9.6l-6.17,6l-4.94,10.79l-1.23,6l0,13.19l3.7,14.39l-13.58,7.2l-6.17,-2.4l-1.23,-8.4l0,-9.6l-2.47,-4.8l0,-11.99l4.94,-15.59l7.41,-10.79l6.17,-7.2l6.17,-4.8l16.05,-7.2l19.76,-3.6z" fill="#000000" id="svg_5"/>
  <path d="m116.67,92.9l6.17,2.4l6.17,9.6l4.94,6l11.11,7.2l14.82,7.2l12.35,6l11.11,-1.2l6.17,-6l2.47,-4.8l7.41,-1.2l3.7,6l-3.7,8.4l-6.17,7.2l2.47,4.8l4.94,2.4l6.17,6l3.7,6l3.7,3.6l7.41,14.39l3.7,16.79l1.23,9.6l1.23,105.55l1.23,1.2l16.05,0l1.23,-105.55l3.7,-23.99l4.94,-9.6l3.7,-8.4l2.47,-3.6l2.47,0l1.23,-4.8l4.94,-2.4l2.47,-4.8l4.94,-1.2l1.23,-3.6l2.47,0l-6.17,-8.4l-3.7,-2.4l0,-8.4l4.94,-2.4l4.94,-1.2l6.17,8.4l6.17,3.6l8.64,1.2l1.23,3.6l-1.23,3.6l-8.64,1.2l-4.94,0l0,10.79l-3.7,1.2l-2.47,4.8l-6.17,6l-4.94,6l-6.17,10.79l-4.94,20.39l-1.23,116.34l-3.7,6l-35.81,0l-3.7,-1.2l-1.23,-3.6l-1.23,-121.14l-6.17,-19.19l-7.41,-13.19l-6.17,-6l0,-2.4l-6.17,-2.4l-9.88,-7.2l-8.64,-3.6l-8.64,-3.6l-11.11,-6l-8.64,-3.6l-11.11,-7.2l-6.17,-4.8l-6.17,-7.2l-3.7,-6l-1.23,-7.2l4.94,-4.8z" fill="#00ff00" id="svg_6"/>
  <path d="m353.76,92.9l4.94,1.2l2.47,1.2l0,8.4l-9.88,13.19l-9.88,8.4l-7.41,4.8l-16.05,8.4l-4.94,0l-1.23,-10.79l1.23,-2.4l9.88,-4.8l12.35,-7.2l4.94,-1.2l1.23,-4.8l2.47,0l0,-2.4l2.47,0l2.47,-7.2l4.94,-4.8z" fill="#00ff00" id="svg_7"/>
  <path d="m80.86,104.9l7.41,0l9.88,11.99l4.94,3.6l0,2.4l6.17,2.4l7.41,6l6.17,2.4l11.11,4.8l24.7,8.4l7.41,4.8l6.17,2.4l12.35,8.4l8.64,8.4l7.41,9.6l3.7,10.79l2.47,7.2l1.23,22.79l0,97.15l-1.23,4.8l-11.11,3.6l-14.82,4.8l-9.88,7.2l-3.7,6l0,14.39l8.64,16.79l8.64,7.2l13.58,7.2l29.64,8.4l4.94,8.4l0,17.99l-6.17,3.6l-4.94,-2.4l-1.23,-15.59l-11.11,-3.6l-13.58,-3.6l-8.64,-4.8l-6.17,-2.4l-6.17,-4.8l-9.88,-8.4l-6.17,-9.6l-3.7,-10.79l-1.23,-14.39l4.94,-15.59l3.7,-3.6l2.47,0l1.23,-3.6l2.47,0l0,-2.4l16.05,-7.2l8.64,-1.2l1.23,-3.6l0,-94.75l-2.47,-22.79l-2.47,-7.2l-2.47,0l-1.23,-6l-6.17,-2.4l-3.7,-1.2l-13.58,0l-12.35,4.8l-11.11,8.4l-8.64,9.6l-6.17,-1.2l-1.23,-8.4l1.23,-3.6l6.17,-6l8.64,-7.2l13.58,-7.2l7.41,0l-1.23,-4.8l-27.17,0l-20.99,6l-3.7,2.4l-3.7,0l-1.23,3.6l-6.17,2.4l-3.7,3.6l-6.17,0l-3.7,-3.6l1.23,-6l9.88,-7.2l2.47,0l0,-2.4l14.82,-6l11.11,-2.4l2.47,0l-1.23,-4.8l-7.41,-2.4l-12.35,-6l-4.94,-4.8l-6.17,-6l-6.17,-6l0,-2.4l-3.7,-1.2l-3.7,-6l2.47,-7.2z" fill="#00ff00" id="svg_8"/>
  <path d="m384.63,104.9l7.41,0l2.47,7.2l-9.88,13.19l-2.47,0l-1.23,3.6l-2.47,0l0,2.4l-12.35,8.4l-9.88,6l-6.17,1.2l-1.23,4.8l12.35,1.2l12.35,6l8.64,4.8l7.41,4.8l0,9.6l-1.23,1.2l-6.17,0l-6.17,-4.8l-7.41,-3.6l-6.17,-3.6l-8.64,-2.4l-13.58,-3.6l-25.93,-1.2l-1.23,6l8.64,0l13.58,8.4l12.35,10.79l3.7,7.2l-2.47,4.8l-1.23,2.4l-6.17,0l-2.47,-6l-4.94,-2.4l-2.47,-3.6l-3.7,-1.2l-4.94,-4.8l-11.11,-4.8l-13.58,0l-11.11,3.6l-2.47,7.2l-4.94,11.99l-1.23,7.2l0,105.55l1.23,2.4l11.11,2.4l7.41,3.6l7.41,3.6l0,2.4l4.94,2.4l6.17,8.4l2.47,6l0,16.79l-7.41,17.99l-2.47,0l-2.47,6l-9.88,8.4l-6.17,4.8l-12.35,4.8l-4.94,2.4l-16.05,3.6l-3.7,2.4l-1.23,13.19l-3.7,3.6l-6.17,0l-2.47,-3.6l0,-15.59l3.7,-7.2l4.94,-3.6l18.52,-4.8l16.05,-6l1.23,-2.4l6.17,-2.4l4.94,-4.8l2.47,0l1.23,-6l2.47,0l2.47,-7.2l1.23,-16.79l-3.7,-8.4l-7.41,-6l-12.35,-4.8l-11.11,-2.4l-6.17,-6l0,-109.15l3.7,-17.99l3.7,-10.79l6.17,-9.6l2.47,0l1.23,-4.8l12.35,-9.6l7.41,-4.8l14.82,-7.2l11.11,-3.6l11.11,-3.6l20.99,-9.6l3.7,-3.6l3.7,-1.2l6.17,-6l11.11,-13.19z" fill="#00ff00" id="svg_9"/>
  <path d="m180.88,355.57l109.9,0l1.23,6l-1.23,2.4l-2.47,0l-2.47,6l-9.88,7.2l-18.52,6l-13.58,2.4l-6.17,4.8l-4.94,-2.4l-3.7,-1.2l0,-2.4l-13.58,-1.2l-19.76,-7.2l-6.17,-4.8l-3.7,-3.6l-6.17,-8.4l1.23,-3.6z" fill="#000000" id="svg_10"/>
 </g>
</svg>