<?xml version="1.0"?>
<svg width="500" height="500" xmlns="http://www.w3.org/2000/svg" xmlns:svg="http://www.w3.org/2000/svg" preserveAspectRatio="xMidYMid meet" version="1.0">
 <!-- Created with SVG-edit - https://github.com/SVG-Edit/svgedit-->

 <g class="layer">
  <title>Layer 1</title>
  <path d="m229.28,81.93l2.77,0.98l4.62,16.62l0.92,0.98l1.85,15.64l2.77,21.51l0.92,3.91l0,6.84l-1.85,-2.93l0,-1.96l-2.77,0l-0.92,-6.84l-1.85,0l-0.92,-5.87l-2.77,-0.98l-2.77,-8.8l-2.77,-3.91l0,-31.28l2.77,-3.91z" fill="#000000" id="svg_4"/>
  <path d="m190.48,91.71l3.7,0.98l2.77,3.91l0,2.93l2.77,0.98l5.54,10.75l2.77,3.91l4.62,9.78l5.54,11.73l3.7,8.8l4.62,9.78l5.54,11.73l3.7,9.78l1.85,1.96l1.85,6.84l3.7,5.87l3.7,10.75l2.77,4.89l3.7,9.78l1.85,1.96l1.85,5.87l1.85,4.89l1.85,0.98l2.77,8.8l3.7,7.82l5.54,12.71l3.7,8.8l4.62,10.75l2.77,5.87l4.62,11.73l1.85,0.98l1.85,6.84l0.92,4.89l2.77,0.98l1.85,5.87l1.85,5.87l1.85,0.98l1.85,4.89l10.16,0l1.85,-3.91l4.62,-1.96l0,-1.96l5.54,-3.91l9.24,-2.93l13.86,-0.98l6.47,1.96l8.31,2.93l8.31,5.87l6.47,7.82l3.7,9.78l1.85,2.93l0,22.48l-6.47,12.71l-2.77,4.89l-7.39,6.84l-11.09,5.87l-14.78,0.98l-9.24,-0.98l-12.01,-6.84l-6.47,-5.87l-2.77,-4.89l-1.85,-0.98l-4.62,-11.73l-3.7,-7.82l-2.77,-5.87l-4.62,-11.73l-2.77,-4.89l-2.77,-6.84l-7.39,-17.6l-7.39,-15.64l-3.7,-9.78l-3.7,-7.82l-2.77,-5.87l-4.62,-11.73l-3.7,-8.8l-4.62,-9.78l-0.92,-5.87l-4.62,0l1.85,7.82l2.77,29.33l1.85,37.15l1.85,18.57l1.85,27.37l0.92,7.82l0,29.33l-8.31,16.62l-2.77,2.93l-0.92,1.96l-5.54,2.93l-3.7,2.93l-12.01,3.91l-12.93,0l-6.47,-1.96l-6.47,-1.96l0,-1.96l-4.62,-1.96l-6.47,-5.87l-2.77,-2.93l-2.77,-4.89l-2.77,-6.84l-1.85,-9.78l0,-7.82l2.77,-11.73l2.77,-6.84l5.54,-7.82l7.39,-5.87l11.09,-5.87l21.25,0l8.31,0.98l2.77,-0.98l0.92,-1.96l0,-16.62l-0.92,-24.44l-1.85,-21.51l-1.85,-22.48l-0.92,-7.82l-0.92,-29.33l-1.85,-11.73l-2.77,-3.91l-2.77,-8.8l-3.7,-8.8l-3.7,-9.78l-8.31,-20.53l-2.77,-9.78l-1.85,0l-4.62,-13.69l-2.77,-8.8l-4.62,-13.69l-1.85,-14.66l0.92,-0.98zm146.89,236.58l-6.47,2.93l-5.54,3.91l-2.77,4.89l-2.77,4.89l-0.92,12.71l0.92,6.84l5.54,7.82l6.47,5.87l6.47,1.96l10.16,0l8.31,-2.93l6.47,-5.87l3.7,-6.84l0.92,-4.89l0,-11.73l-1.85,-6.84l-1.85,0l-1.85,-3.91l-4.62,-4.89l-3.7,-2.93l-4.62,-0.98l-12.01,0zm-128.41,27.37l-9.24,4.89l-3.7,4.89l-2.77,2.93l-2.77,6.84l0,13.69l3.7,7.82l1.85,0l1.85,4.89l7.39,4.89l3.7,1.96l11.09,0l6.47,-2.93l0,-1.96l4.62,-0.98l6.47,-7.82l1.85,-8.8l0,-8.8l-2.77,-8.8l-6.47,-7.82l-9.24,-4.89l-12.01,0z" fill="#000000" id="svg_5"/>
  <path d="m320.74,136.68l11.09,0l5.54,3.91l0,1.96l4.62,1.96l1.85,3.91l4.62,4.89l6.47,14.66l0.92,6.84l0,10.75l-1.85,6.84l-12.93,6.84l-9.24,3.91l-4.62,1.96l-7.39,1.96l-11.09,3.91l-12.93,1.96l-15.71,1.96l-7.39,0l-3.7,-4.89l-3.7,-8.8l-3.7,-5.87l-2.77,-7.82l-3.7,-7.82l-1.85,-4.89l-3.7,-6.84l-2.77,-6.84l-3.7,-8.8l0,-2.93l26.79,0l17.55,-0.98l13.86,-3.91l6.47,-1.96l9.24,-3.91l3.7,-1.96zm7.39,7.82l-2.77,1.96l0,15.64l6.47,13.69l6.47,7.82l4.62,2.93l5.54,0l2.77,-5.87l0,-5.87l-1.85,-6.84l-2.77,-6.84l-6.47,-9.78l-6.47,-5.87l-5.54,-0.98z" fill="#00ff00" id="svg_6"/>
  <path d="m179.39,143.52l14.78,0l2.77,2.93l3.7,9.78l5.54,14.66l1.85,1.96l3.7,11.73l0,1.96l1.85,0l3.7,11.73l3.7,8.8l0,3.91l-7.39,0l-6.47,-0.98l-22.17,0l-21.25,1.96l-15.71,3.91l-14.78,3.91l-6.47,2.93l-11.09,2.93l-7.39,3.91l-5.54,0l-11.09,-6.84l-2.77,-4.89l-2.77,-2.93l-4.62,-9.78l-1.85,-5.87l-1.85,-8.8l0,-10.75l3.7,-8.8l3.7,-2.93l12.01,-4.89l5.54,-1.96l12.01,-3.91l4.62,-1.96l8.31,-1.96l10.16,-2.93l12.01,-1.96l9.24,-1.96l20.32,-2.93z" fill="#00ff00" id="svg_7"/>
 </g>
</svg>