<?xml version="1.0" encoding="utf-8"?>
<!-- Generator: Adobe Illustrator 27.5.0, SVG Export Plug-In . SVG Version: 6.00 Build 0)  -->
<svg version="1.1" xmlns="http://www.w3.org/2000/svg" xmlns:xlink="http://www.w3.org/1999/xlink" x="0px" y="0px"
	 viewBox="0 0 3500 2500" style="enable-background:new 0 0 3500 2500;" xml:space="preserve">
<g id="BG">
	<rect x="0" style="fill:#FFFFFF;" width="3500" height="2500"/>
</g>
<g id="room">
	<path style="fill:#D9F1FF;" d="M290.462,2192.026c355.044-163.117,162.546-461.408,72.05-1007.886
		C96.827,418.47,877.782-38.538,1529.912,490.521c561.347,391.955,968.808-139.597,1432.216,354.896
		c313.92,334.977,52.755,712.932,45.042,987.237c-6.081,216.229,202.691,359.372,202.691,359.372H290.462z"/>
	<g id="window">
		<rect x="2243.32" y="814.688" style="fill:#B8E5FF;" width="637.62" height="618.89"/>
		<g>
			<defs>
				<rect id="SVGID_1_" x="2263.922" y="837.501" width="597.688" height="577.176"/>
			</defs>
			<clipPath id="SVGID_00000036214221093022523640000014488775662661118602_">
				<use xlink:href="#SVGID_1_"  style="overflow:visible;"/>
			</clipPath>
			
				<rect x="2263.922" y="837.501" style="clip-path:url(#SVGID_00000036214221093022523640000014488775662661118602_);fill:#FFFFFF;" width="597.688" height="577.176"/>
			<g style="clip-path:url(#SVGID_00000036214221093022523640000014488775662661118602_);">
				<path style="fill:#F2FAFF;" d="M2910.36,1467.699v-331.163c-0.11-0.015-0.219-0.034-0.333-0.034
					c-1.537-0.195-3.033,0.877-3.021,2.491v24.278c-11.162,2.038-9.558,13.133-9.506,22.23
					c-17.425,6.029-16.304,22.506-15.853,38.463h-13.604v48.784c-12.448,5.578-20.456,13.389-20.456,23.437v81.238h-15.782v-322.506
					h-13.168v-30.847h-75.51v30.847h-13.337v266.314h-13.394v-147.033l-44.391-26.187v-43.605h-30.984v-0.017h-5.849v0.017h-0.049
					v23.708c-0.16,0.143-0.606,0.453-0.786,0.579v0.052l-28.649,30.552v210.252c-2.404,0.343-4.261,1.089-6.638,2.673
					c-2.606,1.737-3.561,3.667-5.27,5.201h-6.923v-87.177h-21.65v-217.707l-73.125,74.499v143.208h-17.136v-0.229h-8.089v-149.516
					h-54.266v236.923h-0.066v-193.141h-61.737v80.679h-53.188v62.38l-2.707-1.795h-17.196v-62.704h-24.132v-16.474h-38.206v221.33
					H2910.36z"/>
			</g>
		</g>
		<rect x="2543.098" y="824.778" style="fill:#B8E5FF;" width="19.669" height="608.8"/>
		
			<rect x="2552.295" y="813.179" transform="matrix(-1.836970e-16 1 -1 -1.836970e-16 3691.3079 -1432.9517)" style="fill:#B8E5FF;" width="19.669" height="631.999"/>
	</g>
	<g id="plant">
		<g>
			<g>
				<path style="fill:#6BB2E3;" d="M2644.513,2126.28L2644.513,2126.28c48.154,0,87.191-39.037,87.191-87.191v-118.864h-174.382
					v118.864C2557.323,2087.243,2596.359,2126.28,2644.513,2126.28z"/>
				
					<rect x="2731.704" y="2010.054" transform="matrix(-1 -1.224647e-16 1.224647e-16 -1 5473.0723 4204.6021)" style="fill:#425899;" width="9.664" height="184.493"/>
				
					<rect x="2547.659" y="2010.054" transform="matrix(-1 -1.224647e-16 1.224647e-16 -1 5104.9814 4204.6021)" style="fill:#425899;" width="9.664" height="184.493"/>
				
					<rect x="2621.611" y="2010.054" transform="matrix(-1 -1.224647e-16 1.224647e-16 -1 5252.8857 4204.6021)" style="fill:#425899;" width="9.664" height="184.493"/>
			</g>
			
				<rect x="2644.289" y="2038.865" transform="matrix(-1.836970e-16 1 -1 -1.836970e-16 4780.2329 -518.0098)" style="fill:#425899;" width="9.664" height="184.493"/>
		</g>
		<g>
			<path style="fill:#A3CFFF;" d="M2615.505,1695.693c16.289,8.67,3.42,29.97,10.091,50.163s33.477,19.704,23.353,55.839
				c-6.236,22.255-28.325,8.305-27.82,37.238s11.461,28.225,2.959,43.1c-14.822,25.933-65.347,11.425-65.745-17.53
				s23.839-38.805,3.361-52.273c-20.478-13.468-28.669-19.594-15.191-38.852c16.682-23.835,42.547-23.113,35.312-41.719
				C2574.59,1713.054,2593.96,1684.225,2615.505,1695.693z"/>
			<path style="fill:#425899;" d="M2606.898,1919.57l-4.244,1.218c-28.832-100.476-1.837-195.086-1.56-196.03l4.237,1.239
				C2605.059,1726.929,2578.431,1820.363,2606.898,1919.57z"/>
		</g>
		<g>
			<path style="fill:#A1D3FF;" d="M2831.698,1674.606c12.022,21.576-17.914,36.185-25.074,63.734
				c-7.16,27.55,24.926,35.472-12.694,68.754c-23.171,20.498-28.859,8.737-35.497,52.229c-5.844,38.29-36.511,3.75-56.872,27.108
				c-26.271,30.138-72.96-30.554-52.384-63.403c20.576-32.849,46.949-26.014,33.701-56.026
				c-13.249-30.012-0.564-53.809,28.574-65.678c36.064-14.69,50.887,15.448,56.26-10.727
				C2773.084,1664.422,2815.798,1646.069,2831.698,1674.606z"/>
			<path style="fill:#425899;" d="M2659.471,1920.103c40.041-132.3,137.802-217.958,138.784-218.806l-3.866-4.472
				c-0.995,0.861-100.043,87.646-140.575,221.565L2659.471,1920.103z"/>
		</g>
	</g>
	<g id="plant_1_">
		<g>
			<g>
				<path style="fill:#6BB2E3;" d="M835.552,2126.28L835.552,2126.28c-48.154,0-87.191-39.037-87.191-87.191v-118.864h174.382
					v118.864C922.742,2087.243,883.706,2126.28,835.552,2126.28z"/>
				<rect x="738.697" y="2010.054" style="fill:#425899;" width="9.664" height="184.493"/>
				<rect x="922.742" y="2010.054" style="fill:#425899;" width="9.664" height="184.493"/>
				<rect x="848.79" y="2010.054" style="fill:#425899;" width="9.664" height="184.493"/>
			</g>
			
				<rect x="826.112" y="2038.865" transform="matrix(-1.836970e-16 1 -1 -1.836970e-16 2962.0549 1300.168)" style="fill:#425899;" width="9.664" height="184.494"/>
		</g>
		<g>
			<path style="fill:#A3CFFF;" d="M825.884,1695.693c-16.289,8.67-3.42,29.97-10.091,50.163
				c-6.671,20.193-33.477,19.704-23.353,55.839c6.236,22.255,28.325,8.305,27.819,37.238s-11.461,28.225-2.959,43.1
				c14.822,25.933,65.347,11.425,65.745-17.53c0.398-28.956-23.839-38.805-3.362-52.273c20.478-13.468,28.669-19.594,15.192-38.852
				c-16.682-23.835-42.547-23.113-35.312-41.719C866.8,1713.054,847.429,1684.225,825.884,1695.693z"/>
			<path style="fill:#425899;" d="M834.492,1919.57l4.244,1.218c28.832-100.476,1.836-195.086,1.56-196.03l-4.237,1.239
				C836.331,1726.929,862.959,1820.363,834.492,1919.57z"/>
		</g>
		<g>
			<path style="fill:#A3CFFF;" d="M1008.219,1783.179c6.687,12.758-10.983,20.828-15.568,36.783
				c-4.585,15.954,12.914,27.435-9.514,46.278c-13.814,11.605-21.917-7.109-34.323,11.768
				c-12.406,18.877-5.031,23.241-17.058,29.091c-20.968,10.198-47.16-21.389-34.675-40.233s32.446-14.529,25.169-32.223
				c-7.277-17.694-9.862-25.249,7.302-31.734c21.244-8.027,37.603,3.82,41.125-11.36
				C974.2,1776.368,999.374,1766.305,1008.219,1783.179z"/>
			<path style="fill:#425899;" d="M904.156,1923.734l-3.272-1.082c25.624-77.468,84.661-126.588,85.254-127.075l2.187,2.664
				C987.739,1798.722,929.456,1847.245,904.156,1923.734z"/>
		</g>
		<g>
			<path style="fill:#A1D3FF;" d="M607.656,1678.677c-12.022,21.576,17.914,36.185,25.074,63.734
				c7.16,27.55-24.926,35.472,12.694,68.754c23.171,20.498,28.859,8.737,35.497,52.229c5.844,38.29,36.511,3.75,56.872,27.108
				c26.271,30.138,72.96-30.554,52.384-63.403c-20.576-32.849-46.949-26.014-33.701-56.026
				c13.249-30.012,0.564-53.809-28.574-65.678c-36.064-14.69-50.887,15.448-56.26-10.727
				C666.27,1668.493,623.557,1650.14,607.656,1678.677z"/>
			<path style="fill:#425899;" d="M779.883,1924.174c-40.041-132.3-137.802-217.958-138.784-218.806l3.866-4.472
				c0.995,0.861,100.043,87.646,140.575,221.565L779.883,1924.174z"/>
		</g>
	</g>
	<g>
		<rect x="529.071" y="838.83" style="fill:#FFFFFF;" width="324.799" height="389.199"/>
		<g>
			<path style="fill:#E6F6FF;" d="M790.42,991.916c-2.618,18.923-27.039,62.026-31.718,68.08
				c-5.144,6.611-20.539,90.717-42.118,86.929c-10.27-20.78-13.334-81.265-28.747-78.423c-15.395,2.823-22.6,79.371-28.747,78.423
				c-6.165-0.947-30.809-28.339-39.035-97.328c0,0-15.451-28.952-22.006-51.496c-2.229-7.651-3.417-14.578-2.637-19.369
				c3.083-18.905,26.704-30.233,40.057-32.127c13.352-1.894,45.182,17.011,57.513,15.116c12.312-1.894,46.204-19.833,56.473-17.011
				c10.27,2.841,39.017,27.41,41.078,42.527C790.717,988.536,790.662,990.114,790.42,991.916z"/>
			<path style="fill:#D4EFFF;" d="M790.42,991.916c-2.618,18.923-27.039,62.026-31.718,68.08
				c-5.144,6.611-20.539,90.717-42.118,86.929c-10.27-20.78-13.334-81.265-28.747-78.423c-15.395,2.823-22.6,79.371-28.747,78.423
				c-6.165-0.947-30.809-28.339-39.035-97.328c0,0-15.451-28.952-22.006-51.496c13.482,9.23,25.125,33.679,52.981,38.786
				c49.119,8.988,57.272-4.133,82.881-7.588c25.59-3.454,33.891-19.369,51.868-33.891
				C787.412,994.089,788.972,992.919,790.42,991.916z"/>
			<path style="fill:#FFFFFF;" d="M638.17,956.4c0,0-17.661,14.472-18.675,33.236c-1.014,18.764,25.299,46.333,25.299,46.333
				s3.043,66.941,8.114,84.183c-14.2-26.878-19.271-79.619-19.271-79.619s-21.965-23.967-26.17-43.616
				C601.207,967.666,634.113,958.935,638.17,956.4z"/>
		</g>
		<rect x="628.132" y="879.139" style="fill:#D4EFFF;" width="131.922" height="13.848"/>
	</g>
	<g>
		<rect x="980.541" y="571.276" style="fill:#FFFFFF;" width="273.561" height="327.802"/>
		<rect x="1063.974" y="605.226" style="fill:#D4EFFF;" width="111.111" height="11.664"/>
		<rect x="1007.796" y="860.745" style="fill:#D4EFFF;" width="111.111" height="11.664"/>
		<g>
			<path style="fill:#E6F6FF;" d="M1200.661,700.212c-2.205,15.938-22.773,52.241-26.715,57.34
				c-4.333,5.568-17.299,76.406-35.474,73.216c-8.65-17.502-11.23-68.445-24.212-66.052c-12.966,2.377-19.035,66.85-24.212,66.052
				c-5.193-0.798-25.948-23.868-32.877-81.974c0,0-13.013-24.384-18.535-43.372c-1.877-6.444-2.878-12.278-2.221-16.314
				c2.596-15.923,22.492-25.464,33.738-27.059c11.246-1.595,38.055,14.327,48.44,12.732c10.37-1.595,38.915-16.704,47.564-14.327
				c8.65,2.393,32.862,23.086,34.598,35.818C1200.911,697.365,1200.864,698.695,1200.661,700.212z"/>
		</g>
		<path style="fill:#A3DDFF;" d="M1087.962,792.431c2.625,1.225,2.049-32.778,13.521-41.383c11.472-8.604,31.959-6.965,34.827,4.917
			c2.868,11.882,0.41,50.396,6.965,44.66c6.556-5.736,0.41-40.563,10.653-52.035c10.243-11.472,29.091-16.799,27.861-36.875
			c-1.229-20.077-10.653-43.841-25.403-36.466c-14.75,7.375-23.354,20.896-44.66,14.34c-21.306-6.556-35.646-20.077-45.89-9.014
			c-10.243,11.063-15.979,34.417-3.278,47.119S1081.816,789.563,1087.962,792.431z"/>
	</g>
</g>
<g id="matchine">
	<g id="matchine_1_">
		<g>
			<path style="fill:#FFFFFF;" d="M2155.723,1341.508c1.918,0.015,3.729,0.045,5.42,0.061v-20.112h27.752v767.453h-27.752v-719.469
				c-1.691-0.015-3.503-0.045-5.42-0.06c-26.62-0.317-74.605-0.86-101.798-1.132c-10.102-0.106-17.334-0.166-19.523-0.166v-27.873
				C2042.706,1340.209,2118.971,1341.085,2155.723,1341.508z"/>
			<rect x="2155.723" y="1338.82" style="fill:#FFFFFF;" width="37.883" height="38.065"/>
			<path style="fill:#F2FAFF;" d="M2053.925,1361.303v6.946c27.193,0.272,75.178,0.815,101.798,1.132v7.504h5.42v163.328
				l13.514-3.896c-0.211-4.319-0.03-128.993,0-155.99c0-2.235,0-3.443,0-3.443h-5.33v-21.154h-13.604v5.572H2053.925z"/>
		</g>
		<g>
			
				<rect x="1714.004" y="1332.789" transform="matrix(-1 -1.224647e-16 1.224647e-16 -1 3800.5903 2729.2869)" style="fill:#4BA8D6;" width="372.582" height="63.709"/>
			
				<rect x="1714.004" y="1332.789" transform="matrix(-1 -1.224647e-16 1.224647e-16 -1 3654.4949 2729.2869)" style="fill:#8CD6FF;" width="226.486" height="63.709"/>
			
				<rect x="1714.004" y="1348.716" transform="matrix(-1 -1.224647e-16 1.224647e-16 -1 3654.4949 2705.396)" style="fill:#4BA8D6;" width="226.486" height="7.964"/>
			
				<rect x="1695.136" y="1332.789" transform="matrix(-1 -1.224647e-16 1.224647e-16 -1 3798.2593 2681.3325)" style="fill:#FFFFFF;" width="407.988" height="15.755"/>
			<path style="fill:#FFFFFF;" d="M1964.128,1376.567h129.116c0.589,0,1.067-0.477,1.067-1.067v-36.205h-2.134v35.138h-126.981
				v-41.644h-2.134v42.711C1963.061,1376.09,1963.538,1376.567,1964.128,1376.567z"/>
		</g>
		<rect x="2161.143" y="1376.885" style="fill:#C4E8FF;" width="27.752" height="3.443"/>
		
			<rect x="1760.667" y="1321.972" transform="matrix(-1 -1.224647e-16 1.224647e-16 -1 3749.9814 2654.0991)" style="fill:#8CD6FF;" width="228.648" height="10.155"/>
		<g>
			<g>
				<polygon style="fill:#FFFFFF;" points="2003.605,1332.025 2052.422,1332.025 2056.576,1262.197 1999.45,1262.197 				"/>
				<polygon style="fill:#8CD6FF;" points="2050.816,1301.233 2049.188,1328.593 2006.839,1328.593 2005.211,1301.233 				"/>
			</g>
			<polygon style="opacity:0.3;fill:#FFFFFF;" points="2033.495,1328.593 2045.273,1328.593 2048.552,1267.799 2036.774,1267.799 
							"/>
		</g>
		
			<rect x="1920.033" y="1288.246" transform="matrix(-1 -1.224647e-16 1.224647e-16 -1 3874.011 2610.4375)" style="fill:#FFFFFF;" width="33.945" height="33.945"/>
		<g>
			<polygon style="fill:#94DBFF;" points="2281.857,1671.534 2269.719,1587.291 2078.75,1587.291 2063.217,2159.097 
				2349.895,2159.097 2349.895,1671.534 			"/>
			<polygon style="fill:#C2EBFF;" points="2202.83,2159.097 2007.183,2159.097 2072.292,1587.291 2229.334,1587.291 			"/>
			<rect x="1978.254" y="2146.996" style="fill:#69C6F5;" width="408.589" height="48.418"/>
			<g>
				<polygon style="fill:#94DBFF;" points="2199.779,1778.385 2079.784,1778.385 2084.896,1733.919 2201.483,1733.919 				"/>
				<polygon style="fill:#94DBFF;" points="2197.236,1844.758 2072.154,1844.758 2077.702,1796.501 2199.085,1796.501 				"/>
				<polygon style="fill:#94DBFF;" points="2194.467,1917.007 2063.849,1917.007 2069.89,1864.452 2196.481,1864.452 				"/>
				<polygon style="fill:#94DBFF;" points="2191.443,1995.948 2054.775,1995.948 2061.379,1938.494 2193.644,1938.494 				"/>
				<polygon style="fill:#94DBFF;" points="2188.124,2082.557 2044.819,2082.557 2052.069,2019.485 2190.541,2019.485 				"/>
			</g>
		</g>
		<g>
			<g>
				<rect x="1745.114" y="1387.417" style="fill:#30596E;" width="11.267" height="6.76"/>
				<g>
					<polygon style="fill:#4BA8D6;" points="1755.737,1335.926 1754.729,1334.459 1768.548,1324.976 1780.282,1324.976 
						1780.282,1326.755 1769.101,1326.755 					"/>
					<path style="fill:#4BA8D6;" d="M1744.851,1390.199h11.236c2.619,0,4.742-2.123,4.742-4.742v-50.211
						c0-2.619-2.123-4.742-4.742-4.742h-11.236c-2.619,0-4.742,2.123-4.742,4.742v50.211
						C1740.109,1388.076,1742.232,1390.199,1744.851,1390.199z"/>
				</g>
			</g>
			<rect x="1735.528" y="1344.603" style="fill:#8CD6FF;" width="29.692" height="13.52"/>
			<g>
				<rect x="1790.181" y="1387.417" style="fill:#30596E;" width="11.267" height="6.76"/>
				<g>
					<polygon style="fill:#4BA8D6;" points="1800.804,1335.926 1799.796,1334.459 1813.614,1324.976 1825.35,1324.976 
						1825.35,1326.755 1814.167,1326.755 					"/>
					<path style="fill:#4BA8D6;" d="M1789.918,1390.199h11.236c2.619,0,4.742-2.123,4.742-4.742v-50.211
						c0-2.619-2.123-4.742-4.742-4.742h-11.236c-2.619,0-4.742,2.123-4.742,4.742v50.211
						C1785.176,1388.076,1787.299,1390.199,1789.918,1390.199z"/>
				</g>
			</g>
			<rect x="1780.595" y="1344.603" style="fill:#8CD6FF;" width="29.692" height="13.52"/>
			<g>
				<rect x="1837.126" y="1387.417" style="fill:#30596E;" width="11.267" height="6.76"/>
				<g>
					<polygon style="fill:#4BA8D6;" points="1847.749,1335.926 1846.741,1334.459 1860.559,1324.976 1872.294,1324.976 
						1872.294,1326.755 1861.111,1326.755 					"/>
					<path style="fill:#4BA8D6;" d="M1836.863,1390.199h11.236c2.619,0,4.742-2.123,4.742-4.742v-50.211
						c0-2.619-2.123-4.742-4.742-4.742h-11.236c-2.619,0-4.742,2.123-4.742,4.742v50.211
						C1832.12,1388.076,1834.243,1390.199,1836.863,1390.199z"/>
				</g>
			</g>
			<rect x="1827.54" y="1344.603" style="fill:#8CD6FF;" width="29.692" height="13.52"/>
			<path style="fill:#30596E;" d="M1654.373,1595.939c-9.271,0.001-19.115-1.573-29.51-4.727l1.162-3.828
				c27.231,8.264,50.451,5.236,69.007-8.993c57.706-44.254,53.931-182.79,53.886-184.185l3.998-0.129
				c0.012,0.353,1.067,35.761-5.154,76.258c-8.396,54.65-25.317,92.072-50.292,111.227
				C1684.983,1591.139,1670.558,1595.938,1654.373,1595.939z"/>
			<path style="fill:#30596E;" d="M1699.408,1595.939c-9.271,0.001-19.115-1.573-29.51-4.727l1.162-3.828
				c27.232,8.265,50.45,5.235,69.006-8.993c57.706-44.253,53.932-182.79,53.887-184.185l3.998-0.129
				c0.012,0.353,1.067,35.761-5.154,76.259c-8.397,54.649-25.318,92.071-50.293,111.227
				C1730.019,1591.139,1715.592,1595.939,1699.408,1595.939z"/>
			<path style="fill:#30596E;" d="M1746.091,1595.939c-9.271,0.001-19.115-1.573-29.51-4.727l1.162-3.828
				c27.233,8.265,50.45,5.235,69.006-8.993c57.706-44.253,53.932-182.79,53.887-184.185l3.998-0.129
				c0.012,0.353,1.067,35.761-5.154,76.259c-8.397,54.649-25.318,92.071-50.293,111.227
				C1776.701,1591.139,1762.274,1595.939,1746.091,1595.939z"/>
		</g>
		<g>
			<g>
				<path style="fill:#FFFFFF;" d="M2326.265,1478.76h-252.407c-4.744,0-8.591-3.846-8.591-8.591l0,0
					c0-4.745,3.846-8.591,8.591-8.591h252.407c4.744,0,8.591,3.846,8.591,8.591l0,0
					C2334.855,1474.914,2331.009,1478.76,2326.265,1478.76z"/>
				<polygon style="fill:#94DBFF;" points="2306.289,1521.359 2093.833,1521.359 2076.543,1478.479 2323.58,1478.479 				"/>
			</g>
			<g>
				<g>
					<polygon style="fill:#FFFFFF;" points="2236.179,1462.939 2284.996,1462.939 2289.151,1393.111 2232.024,1393.111 					"/>
					<polygon style="fill:#8CD6FF;" points="2283.39,1432.147 2281.762,1459.507 2239.413,1459.507 2237.785,1432.147 					"/>
				</g>
				<polygon style="opacity:0.3;fill:#FFFFFF;" points="2266.069,1459.507 2277.847,1459.507 2281.126,1398.713 2269.348,1398.713 
									"/>
			</g>
		</g>
	</g>
	<g id="spot_light">
		<g>
			<path style="fill:#8CD6FF;" d="M1812.39,846.422l103.281,65.351l54.787-86.585c18.046-28.52,9.555-66.27-18.965-84.316h0
				c-28.52-18.046-66.27-9.555-84.316,18.965L1812.39,846.422z"/>
			<g>
				<path style="fill:#8CD6FF;" d="M1622.186,713.766c18.8-26.738,142.241,20.17,276.934,105.397s229.939,176.694,213.826,205.132
					l0.13,0.082l-13.988,22.106l-23.734-15.018c-50.156-7.9-142.102-49.599-239.992-111.539
					c-97.891-61.941-174.944-127.176-203.559-169.118l-23.62-14.946l13.988-22.106L1622.186,713.766z"/>
				
					<ellipse transform="matrix(0.5347 -0.845 0.845 0.5347 109.4199 1980.995)" style="fill:#6BBFED;" cx="1853.578" cy="891.137" rx="59.62" ry="290.395"/>
				
					<ellipse transform="matrix(0.5347 -0.845 0.845 0.5347 104.654 1982.8164)" style="fill:#CCEDFF;" cx="1852.849" cy="896.376" rx="50.714" ry="274.547"/>
				<g>
					
						<ellipse transform="matrix(0.5347 -0.845 0.845 0.5347 130.1045 1978.7274)" style="fill:#FFFFFF;" cx="1861.861" cy="871.221" rx="10.991" ry="61.177"/>
					
						<ellipse transform="matrix(0.5347 -0.845 0.845 0.5347 75.455 1975.3977)" style="fill:#FFFFFF;" cx="1831.514" cy="919.181" rx="10.991" ry="61.177"/>
				</g>
				<g>
					
						<ellipse transform="matrix(0.5347 -0.845 0.845 0.5347 112.0438 1824.9764)" style="fill:#FFFFFF;" cx="1713.214" cy="810.745" rx="10.991" ry="61.177"/>
					<path style="fill:#FFFFFF;" d="M1843.149,900.792c17.189,10.876,32.707,17.189,34.661,14.101
						c1.954-3.088-10.396-14.409-27.585-25.285c-17.189-10.876-32.707-17.19-34.661-14.102
						C1813.611,878.596,1825.961,889.916,1843.149,900.792z"/>
					<path style="fill:#6BBFED;" d="M1952.119,933.464c12.051,7.625,22.931,12.052,24.301,9.887s-7.289-10.102-19.34-17.727
						s-22.931-12.052-24.301-9.886C1931.409,917.903,1940.068,925.839,1952.119,933.464z"/>
					<path style="fill:#6BBFED;" d="M1777.499,824.331c12.051,7.625,22.931,12.052,24.301,9.886
						c1.37-2.165-7.289-10.102-19.34-17.727c-12.051-7.625-22.931-12.052-24.301-9.886S1765.448,816.706,1777.499,824.331z"/>
					<path style="fill:#6BBFED;" d="M1772.508,872.982c8.571,5.423,16.309,8.572,17.283,7.032s-5.184-7.185-13.755-12.608
						c-8.571-5.423-16.309-8.572-17.283-7.032C1757.779,861.914,1763.937,867.559,1772.508,872.982z"/>
					<path style="fill:#6BBFED;" d="M1913.93,971.291c8.571,5.423,16.309,8.572,17.283,7.032s-5.184-7.185-13.755-12.608
						c-8.571-5.423-16.309-8.571-17.284-7.031C1899.201,960.222,1905.359,965.867,1913.93,971.291z"/>
					
						<ellipse transform="matrix(0.5347 -0.845 0.845 0.5347 93.5159 2129.1489)" style="fill:#FFFFFF;" cx="1980.161" cy="979.656" rx="10.991" ry="61.177"/>
				</g>
			</g>
		</g>
		<path style="fill:#6BBFED;" d="M1911.898,773.669L1911.898,773.669c0.51,11.387,10.155,20.205,21.542,19.695l196.758-8.814
			c11.387-0.51,20.205-10.155,19.695-21.542v0c-0.51-11.387-10.155-20.205-21.542-19.695l-196.758,8.814
			C1920.205,752.637,1911.387,762.282,1911.898,773.669z"/>
		<g>
			<path style="fill:#6BBFED;" d="M2125.27,782.603L2125.27,782.603c10.754,3.78,22.536-1.873,26.316-12.626l111.304-277.498
				c3.78-10.753-1.873-22.535-12.626-26.316v0c-10.754-3.78-22.536,1.873-26.316,12.626l-111.304,277.498
				C2108.864,767.04,2114.517,778.822,2125.27,782.603z"/>
			<circle style="fill:#6BBFED;" cx="2132.524" cy="762.52" r="31.534"/>
			<circle style="fill:#6BBFED;" cx="1934.033" cy="772.103" r="28.796"/>
			<circle style="fill:#40A0D6;" cx="2132.524" cy="762.52" r="14.567"/>
			
				<ellipse transform="matrix(0.9732 -0.2298 0.2298 0.9732 -125.7415 464.9663)" style="fill:#40A0D6;" cx="1933.833" cy="772.455" rx="14.037" ry="14.037"/>
		</g>
	</g>
</g>
<g id="dentist">
	<g>
		<path style="fill:#4BA8D6;" d="M1092.375,1086.474c0,0-11.776-46.319-25.122-56.525c-13.346-10.206-37.683,29.048-31.403,32.973
			c6.281,3.925,11.776,3.14,11.776,3.14s-3.925,32.973,16.487,40.824C1084.524,1114.736,1092.375,1095.109,1092.375,1086.474z"/>
		<g>
			<path style="fill:#FFFFFF;" d="M1703.226,1586.58h-388.078c-16.33,0-29.567-13.238-29.567-29.568l0,0
				c0-16.33,13.238-29.567,29.567-29.567h388.078c16.33,0,29.567,13.238,29.567,29.567l0,0
				C1732.794,1573.343,1719.556,1586.58,1703.226,1586.58z"/>
			<path style="fill:#4BA8D6;" d="M1370.845,1586.981c22.906,22.874,74.65,38.833,134.822,38.833
				c60.172,0,111.916-15.958,134.822-38.833H1370.845z"/>
			<path style="fill:#4BA8D6;" d="M1706.389,2197.28c-34.511-28.859-112.469-48.994-203.125-48.994
				c-90.657,0-168.614,20.135-203.125,48.994H1706.389z"/>
			<rect x="1485.236" y="1594.837" style="fill:#4BA8D6;" width="24.038" height="603.362"/>
			<rect x="1468.409" y="1808.778" style="fill:#4BA8D6;" width="57.692" height="362.979"/>
			<rect x="1468.409" y="1614.698" style="fill:#4BA8D6;" width="57.692" height="94.482"/>
		</g>
		<g>
			<path style="fill:#0E0E0E;" d="M1428.752,923.762c0,0,27.035-19.814,49.176-2.117c22.141,17.697,21.953,32.987,21.953,32.987
				s43.383-23.178,66.813,7.051c23.43,30.229,13.181,48.22,13.181,48.22s30.63-8.712,50.983,14.774
				c20.353,23.486-4.829,56.24-4.829,56.24s28.977,12.14,1.95,53.451s-90.601,27.037-90.601,27.037s9.446,39.57-42.395,42.826
				s-74.689-39.095-74.689-39.095c-14.977-16.347-30.786-32.543-5.601-56.2c-33.511-21.369-32.988-37.227-4.845-48.611
				c0,0-30.36,18.435-43.289-17.845c-12.929-36.28,44.433-60.981,44.433-60.981s-37.087-24.954-20.727-45.338
				C1406.624,915.777,1428.752,923.762,1428.752,923.762z"/>
			<path style="fill:#FFFFFF;" d="M1294.234,1122.058l-87.567,84.879l-115.45-130.343l-37.101,63.206
				c0,0,84.93,135.664,112.549,167.149c40.14,45.758,230.506-123.314,236.556-159.37
				C1412.525,1092.135,1322.653,1067.411,1294.234,1122.058z"/>
			<path style="fill:#231F20;" d="M1594.831,1597.09c-18.867-195.563-77.053-252.847-77.053-252.847s-46.341,0-169.496,0
				c-32.207,96.464-42.279,182.043-43.405,252.846H1594.831z"/>
			<path style="fill:#9EDDAE;" d="M1314.947,1454.719c30.77,8.868,113.561-1.088,183.25-23.662l61.46-36.411
				c0,0-59.323-86.137-57.45-96.867c5.362-28.293,16.404-72.803,21.25-114.912c0.536-4.554,1.005-9.076,1.39-13.553
				c2.694-31.426,1.2-60.366-9.6-78.96c-24.557-44.879-181.098-22.829-198.049,5.243c-16.924,28.206-28.764,61.931-31.149,85.781
				c-0.674,7.092,3.073,25.301,8.892,47.243c5.817,21.932,13.443,47.816,20.285,70.436
				C1324.778,1330.175,1314.947,1454.719,1314.947,1454.719z"/>
			<path style="fill:#FFFFFF;" d="M1315.736,1289.157c8.064,49.894-1.581,478.316-1.581,478.316
				c-25.063-10.591-60.835-37.345-57.545-86.38c0,0,44.413-311.811,39.529-357.838c-4.884-46.026-44.352-162.831,24.854-238.089
				c18.535-14.948,42.602-19.369,42.602-19.369s24.608-7.599,25.282-2.37C1372.412,1078.796,1299.535,1142.443,1315.736,1289.157z"
				/>
			<path style="fill:#E67A5C;" d="M1338.975,978.889l19.606,67.833l10.308,35.638c0.465,0.804,1.071,1.604,1.807,2.401
				c11.767,12.834,56.204,23.609,78.351,5.758c7.664-6.195,6.513-20.372,1.773-36.245c-7.612-25.514-24.488-55.375-28.804-63.375
				c-5.813-10.687-10.52-19.529-12.363-23.609C1393.158,969.962,1355.756,976.174,1338.975,978.889z"/>
			<path style="fill:#C2674E;" d="M1358.582,1046.723l10.308,35.638c0.465,0.804,1.071,1.604,1.807,2.401
				c4.335-1.387,10.191-5.161,17.291-14.628c15.479-20.635,0.155-73,0.155-73L1358.582,1046.723z"/>
			<g>
				<g>
					<g>
						<g>
							<path style="fill:#E67A5C;" d="M1260.193,970.986c4.801,55.376,47.758,105.059,75.685,103.873
								c45.476-1.932,93.331-62.735,88.53-118.111c-4.801-55.376-45.454-97.079-90.801-93.148S1255.392,915.61,1260.193,970.986z"/>
							<path style="fill:#0E0E0E;" d="M1274.091,896.839c0,0,100.351,44.175,162.525,111.899c7.25-15.79-1.04-24.57,2.482-38.295
								c13.53-52.732,0.02-91.345-41.179-113.951C1351.452,830.995,1295.544,853.95,1274.091,896.839z"/>
							<path style="fill:#0E0E0E;" d="M1286.86,901.849c0,0-24.593,22.962-27.055,66.275c-8.844-42.88,6.735-130.667,102.7-122.078
								C1458.471,854.636,1286.86,901.849,1286.86,901.849z"/>
						</g>
						
							<ellipse transform="matrix(0.3947 -0.9188 0.9188 0.3947 -44.6919 1871.1388)" style="fill:#E67A5C;" cx="1397.795" cy="969.489" rx="19.469" ry="19.469"/>
						<path style="fill:#C2674E;" d="M1400.355,985.032c0.12-0.04,0.237-0.096,0.348-0.169c0.668-0.443,0.851-1.344,0.408-2.012
							c-3.101-4.681-4.183-8.977-3.216-12.767c1.326-5.198,6.152-7.801,6.201-7.826c0.708-0.374,0.981-1.251,0.609-1.959
							c-0.372-0.709-1.247-0.983-1.954-0.615c-0.245,0.128-5.993,3.187-7.66,9.644c-1.196,4.629,0.016,9.719,3.599,15.127
							C1399.06,985.013,1399.749,985.232,1400.355,985.032z"/>
						<path style="fill:#C2674E;" d="M1307,1021.169c2.546-0.841,4.311-2.116,4.464-2.23c0.64-0.472,0.777-1.374,0.304-2.014
							c-0.472-0.64-1.374-0.777-2.013-0.305c-0.268,0.195-6.648,4.765-11.992,0.742c-0.641-0.483-0.954-1.075-0.983-1.864
							c-0.156-4.15,6.847-11.23,9.558-13.609c0.598-0.524,0.657-1.434,0.133-2.032c-0.524-0.599-1.435-0.659-2.032-0.133
							c-1.103,0.968-10.771,9.633-10.537,15.881c0.062,1.652,0.798,3.055,2.129,4.057
							C1299.866,1022.551,1303.983,1022.166,1307,1021.169z"/>
						<g>
							<path style="fill:#F0F0F0;" d="M1330.759,986.111c-8.693,2.708-19.176,4.282-22.999,1.698l0,0
								c-4.662-3.154-10.06-14.067-7.42-20.559c2.778-6.836,20.756-17.32,38.045-13.686c2.217,0.466,4.324,2.361,5.932,5.335
								c2.999,5.549,3.559,13.353,1.361,18.978c-0.355,0.91-1.27,1.838-2.551,2.746
								C1340.168,982.721,1335.253,984.711,1330.759,986.111z M1301.182,967.593c-2.412,5.933,2.662,16.47,7.088,19.463
								c3.553,2.402,14.008,0.744,22.218-1.813c7.719-2.404,13.482-5.495,14.343-7.697c2.46-6.294,1.043-13.854-1.314-18.214
								c-1.478-2.735-3.368-4.467-5.32-4.878c-11.747-2.469-24.133,1.939-31.277,7.004
								C1303.99,963.535,1301.942,965.724,1301.182,967.593z"/>
							<path style="fill:#F0F0F0;" d="M1270.046,1000.348c-2.649,0.513-9.042,1.512-11.178-0.281
								c-3.507-2.944-6.061-8.26-6.509-13.543c-0.28-3.314,0.317-6.026,1.681-7.635c7.746-9.123,26.492-10.764,30.849-7.211
								c4.587,3.741,5.752,16.035,3.588,20.09l0,0c-0.484,0.909-1.389,1.802-2.593,2.656
								C1282.232,997.015,1275.822,999.23,1270.046,1000.348z M1287.676,991.34c1.942-3.64,0.769-15.59-3.361-18.958
								c-4.041-3.295-22.281-1.51-29.582,7.095c-1.19,1.402-1.725,3.943-1.468,6.97c0.428,5.054,2.856,10.127,6.187,12.923
								c1.255,1.054,5.249,1.086,10.421,0.085C1277.156,998.045,1285.872,994.721,1287.676,991.34L1287.676,991.34z"/>
							<path style="fill:#282828;" d="M1382.004,957.851c0.665-0.22,1.088-0.899,0.965-1.61c-0.134-0.784-0.879-1.31-1.663-1.176
								l-33.817,5.816c-2.473-6.809-10.011-10.176-20.486-9.052c-12.68,1.362-26.994,9.211-28.276,18.53
								c-2.821,1.005-7.076,2.291-10.276,3.009c-5.056-5.7-15.726-5.12-24.373-1.893c-8.561,3.2-13.833,8.456-13.431,13.392
								c0.064,0.793,0.759,1.383,1.552,1.318c0.79-0.068,1.383-0.76,1.318-1.552c-0.286-3.506,4.472-7.807,11.568-10.459
								c7.722-2.879,17.787-3.602,21.642,1.64c0.333,0.452,0.897,0.67,1.447,0.558c3.718-0.756,9.335-2.471,12.411-3.627
								c0.543-0.204,0.91-0.715,0.932-1.294c0.299-8.04,13.865-15.481,25.791-16.759c4.591-0.493,15.511-0.682,17.783,8.179
								c0.186,0.727,0.9,1.189,1.639,1.062l35.063-6.029C1381.867,957.891,1381.937,957.873,1382.004,957.851z"/>
						</g>
					</g>
				</g>
				<path style="fill:#0E0E0E;" d="M1326.481,973.247c1.55,3.66,4.492,5.912,6.572,5.032c2.079-0.881,2.508-4.561,0.958-8.221
					c-1.55-3.66-4.492-5.912-6.571-5.032C1325.36,965.907,1324.931,969.587,1326.481,973.247z"/>
				<path style="fill:#0E0E0E;" d="M1273.227,986.492c1.55,3.66,4.492,5.912,6.571,5.032c2.079-0.881,2.508-4.561,0.958-8.221
					c-1.55-3.66-4.492-5.912-6.571-5.032C1272.106,979.151,1271.677,982.832,1273.227,986.492z"/>
			</g>
			<g>
				<path style="fill:#FFFFFF;" d="M1279.999,1032.81c0,0,12.591-34.176,23.384-36.334c10.792-2.159,75.201-10.608,75.201-10.608
					s8.568,19.192,28.787,6.854c2.878,28.78-32.738,84.337-60.819,84.337C1298.346,1077.058,1279.999,1032.81,1279.999,1032.81z"/>
				<path style="fill:#FFFFFF;" d="M1392.32,1006.771c-0.99,0-1.995-0.129-3.005-0.39c-5.712-1.479-10.966-7.037-13.074-13.83
					c-2.889-9.308-3.986-30.752,2.953-36.466c0.741-0.61,1.833-0.503,2.441,0.236c0.609,0.739,0.503,1.832-0.236,2.441
					c-4.745,3.908-5.074,22.355-1.845,32.76c1.738,5.6,6.109,10.329,10.631,11.5c2.975,0.77,5.701-0.004,8.104-2.3
					c7.588-7.259,13.667-18.315,13.728-18.426c0.458-0.84,1.512-1.15,2.354-0.691c0.841,0.459,1.15,1.512,0.691,2.353
					c-0.257,0.472-6.39,11.634-14.374,19.272C1398.249,1005.56,1395.354,1006.771,1392.32,1006.771z"/>
			</g>
			<path style="fill:#231F20;" d="M1327.674,1474.561c0,0-116.143,90.693-134.522,135.109
				c-18.379,44.417,10.462,100.758,50.284,114.543s205.484,12.936,243.774-19.228c38.29-32.164,102.37-124.743,100.838-179.881
				S1425.697,1451.587,1327.674,1474.561z"/>
			<g>
				<path style="fill:#FF9C80;" d="M1189.261,1644.299l-57.464,449.866l50.799,8.147l122.72-434.795
					C1301.028,1571.125,1193.348,1586.067,1189.261,1644.299z"/>
				<g>
					<path style="fill:#0D0D0D;" d="M1073.222,2196.512c-0.297-10.667,36.422-37.507,36.422-37.507l21.112-67.648l54.252-8.187
						l20.407,35.255l-72.967,69.983L1073.222,2196.512z"/>
					<polygon style="fill:#0D0D0D;" points="1192.808,2165.375 1144.578,2115.271 1205.455,2118.178 1205.912,2178.355 					"/>
				</g>
			</g>
			<g>
				<path style="fill:#FF9C80;" d="M1319.07,1644.475l151.62,427.425l49.013-15.641l-86.581-443.408
					C1385.818,1528.755,1296.453,1590.659,1319.07,1644.475z"/>
				<g>
					<path style="fill:#0D0D0D;" d="M1419.318,2160.979c-1.724-10.531,31.065-42.052,31.065-42.052l11.851-69.867l52.664-15.388
						l24.949,32.2l-62.925,79.134L1419.318,2160.979z"/>
					<polygon style="fill:#0D0D0D;" points="1540.895,2127.269 1498.483,2072.152 1539.855,2065.622 1548.376,2125.195 					"/>
				</g>
			</g>
			<path style="fill:#FFFFFF;" d="M1663.516,1637.689c0,0-37.666,65.606-231.557,92.354h-6.071c0,0-0.555-148.339,1.457-278.96
				c0.763-49.751-9.689-261.549,25.866-364.658c7.869-15.585-1.493-21.534-0.885-27.21c34.178,1.756,48.935,7.536,74.362,26.974
				c35.097,30.549,30.079,209,30.079,209L1663.516,1637.689z"/>
			<path style="fill:#D9F2FF;" d="M1518.875,1202.423c0,0-2.447,197.118-86.92,259.37c0.763-49.751,1.908-96.922,3.585-132.356
				C1482.885,1302.908,1518.875,1202.423,1518.875,1202.423z"/>
			<g>
				<polygon style="fill:#4BA8D6;" points="1257.103,1275.31 1211.846,1258.92 1208.55,1283.182 1244.608,1307.715 				"/>
				<g>
					<g>
						<polygon style="fill:#3A312F;" points="1200.064,1254.235 1129.388,1208.867 1130.19,1209.104 1105.774,1207.822 
							1105.778,1207.123 1130.206,1206.104 1130.612,1206.087 1131.009,1206.342 1201.684,1251.71 						"/>
					</g>
				</g>
				<path style="fill:#4BA8D6;" d="M1218.794,1262.285c0,0-47.851-35.646-52.606-32.759c-4.755,2.888,10.185,17.428,10.185,17.428
					s-7.307-3.491-9.313,0.236c-2.524,4.689,5.804,9.177,5.804,9.177s-5.619,1.39-5.804,4.502c-0.186,3.112,5.643,8.493,5.643,8.493
					s-7.786,1.866-6.535,5.781c1.251,3.915,6.054,15.131,30.782,20.294S1236.961,1274.429,1218.794,1262.285z"/>
				<path style="fill:#4BA8D6;" d="M1225.511,1269.183c0,0-8.751-19.761-14.68-23.996c-5.929-4.234-24.843-10.163-24.843-10.163
					s-3.67,2.258,1.129,8.469c4.799,6.211,18.915,12.422,18.915,12.422S1218.736,1276.523,1225.511,1269.183z"/>
				<path style="fill:#FFFFFF;" d="M1427.872,1164.78l-53.613,134.878l-143.274-35.571l-9.909,78.018
					c0,0,149.783,61.136,191.18,54.78s131.198-200.037,127.468-236.406C1533.988,1104.551,1440.778,1104.551,1427.872,1164.78z"/>
			</g>
		</g>
		<g>
			<g>
				<path style="fill:#3A312F;" d="M1073.763,1051.656l-72.432-42.509c-2.676-1.533-6.122-0.604-7.67,2.078l-3.313,5.743
					l-1.733-0.999l3.314-5.743c2.097-3.634,6.765-4.894,10.406-2.809l72.44,42.514L1073.763,1051.656z"/>
				<path style="fill:#3A312F;" d="M993.444,1010.969c2.046,1.256,0.866,6.901-2.637,12.609c-3.503,5.708-8.001,9.318-10.047,8.062
					c-2.046-1.256-0.866-6.901,2.637-12.609C986.899,1013.323,991.397,1009.714,993.444,1010.969z"/>
			</g>
			<path style="fill:#FFFFFF;" d="M991.457,1014.208c1.156,0.709,0.143,4.462-2.262,8.381c-2.405,3.92-5.292,6.522-6.448,5.813
				c-1.156-0.709-0.143-4.462,2.262-8.381S990.301,1013.499,991.457,1014.208z"/>
		</g>
		<g>
			<path style="fill:#4BA8D6;" d="M1060.068,1033.558c-0.908,0.605-9.077,3.631-5.446,12.405s10.892,10.59,10.892,10.59
				s-9.077,19.062-4.538,26.323l26.021-10.893C1082.155,1054.738,1060.976,1032.953,1060.068,1033.558z"/>
			<path style="fill:#3A312F;" d="M1211.852,1256.726c-0.095,0-0.189-0.026-0.273-0.082l-27.631-18.073
				c-0.231-0.151-0.296-0.461-0.145-0.692c0.15-0.231,0.463-0.295,0.691-0.145l27.631,18.074c0.231,0.15,0.296,0.461,0.145,0.691
				C1212.174,1256.646,1212.015,1256.726,1211.852,1256.726z"/>
		</g>
	</g>
	<path style="fill:#3A312F;" d="M1060.552,1083.142c-4.258-6.812,2.808-23.085,4.267-26.28c-1.831-0.631-7.529-3.143-10.659-10.708
		c-2.281-5.514-0.532-9.813,5.198-12.779c0.199-0.103,0.35-0.179,0.433-0.234c0.116-0.077,0.316-0.148,0.6-0.043
		c2.561,0.948,22.4,22.048,27.088,38.75l-0.963,0.271c-4.551-16.213-23.968-36.743-26.361-38.033
		c-0.093,0.051-0.205,0.11-0.336,0.177c-1.935,1.001-7.821,4.047-4.734,11.508c3.484,8.419,10.482,10.278,10.553,10.296l0.591,0.149
		l-0.262,0.55c-0.089,0.188-8.907,18.897-4.565,25.844L1060.552,1083.142z"/>
</g>
<g id="patient">
	<g>
		
			<rect x="980.093" y="1447.088" transform="matrix(0.5 -0.866 0.866 0.5 -795.8561 1598.6072)" style="fill:#4BA8D6;" width="12.829" height="82.896"/>
		<g>
			<path style="fill:#FFA599;" d="M2188.659,1715.168c0,0,38.458,25.272,53.841,28.568c15.383,3.296,76.915-16.482,85.705-6.593
				c8.79,9.889-63.73,62.631-83.508,65.927c-19.778,3.296-97.792-48.347-97.792-48.347L2188.659,1715.168z"/>
			<path style="fill:#30596E;" d="M1525.307,1495.29c0,0,308.584-55.038,363.894-28.585
				c55.31,26.453,299.459,248.463,299.459,248.463l-22.907,44.921c0,0-322.242-153.907-341.481-156.312
				c-19.238-2.405-336.671,120.24-384.767,93.787C1391.408,1671.112,1471.631,1499.827,1525.307,1495.29z"/>
		</g>
		<path style="fill:#4BA8D6;" d="M1425.963,1916.674c-52.687,0-95.551-42.864-95.551-95.551s42.864-95.551,95.551-95.551
			s95.551,42.864,95.551,95.551S1478.649,1916.674,1425.963,1916.674z M1425.963,1737.428c-46.149,0-83.695,37.546-83.695,83.695
			s37.546,83.695,83.695,83.695s83.695-37.546,83.695-83.695S1472.112,1737.428,1425.963,1737.428z"/>
		<path style="fill:#4BA8D6;" d="M1479.661,1739.841l-51.518,84.177c-7.674,12.538-3.509,28.936,9.217,36.293l217.604,125.805
			c11.75,6.793,26.743,3.469,34.521-7.653l67.018-95.825L1479.661,1739.841z"/>
		<path style="fill:#6BC3F0;" d="M2185.964,1852.012l-30.896,9.568l-336.902,104.342c-57.251,8.192-115.498-5.311-163.312-37.855
			l-251.352-152.084l-39.052-23.617l-11.571-7.007l7.208-1.387l320.933-61.543c66.297-10.741,172.227-17.902,243.515,19.064
			L2185.964,1852.012z"/>
		<path style="fill:#4BA8D6;" d="M2185.964,1849.143l-30.896,9.568c-85.361-46.285-291.72-156.934-319.557-160.218
			c-35.223-4.137-412.292,78.734-412.292,78.734l-19.716-4.114l-39.052-23.617l-4.363-8.394l320.933-61.543
			c66.297-10.741,172.227-17.902,243.515,19.064L2185.964,1849.143z"/>
		<path style="fill:#FFFFFF;" d="M2337.518,1857.079l-411-226.884c-35.228-19.447-81.205-18.009-121.169-13.307l-377.97,64.803
			c-30.465,3.584-48.581-10.422-75.304-25.484l-310.107-174.789c-15.366-8.766-34.844-4.845-45.621,9.184l0,0
			c-13.18,17.157-8.027,42.018,10.887,52.522l342.529,185.89c26.729,14.506,57.347,20.226,87.51,16.35l358.852-61.692
			c40.445-5.198,84.727-7.141,120.484,12.459l391.42,214.556c14.68,8.047,33.101,2.799,41.337-11.775l0,0
			C2357.738,1884.098,2352.414,1865.302,2337.518,1857.079z"/>
		<path style="fill:#FFFFFF;" d="M972.887,1480.004L972.887,1480.004c-10.36,15.824-31.784,20.295-47.609,9.935l-109.795-71.883
			c-15.824-10.36-20.295-31.784-9.935-47.609h0c10.36-15.824,31.784-20.295,47.608-9.935l109.795,71.883
			C978.777,1442.756,983.248,1464.179,972.887,1480.004z"/>
		<path style="fill:#FD5655;" d="M1463.571,1673.648c22.162-32.425,53.334-86.776,61.736-178.358
			c-28.659-2.615-97.197,9.241-126.476-10.341c-29.279-19.583-93.205-90.63-116.461-99.412
			c-23.255-8.782-47.571-16.149-105.322-6.786c-42.115,6.827-64.405,6.238-97.966,49.657
			c-53.348,69.017,37.327,97.997,110.627,137.283c21.984,7.862,122.998,65.752,201.542,111.356
			C1417.02,1685.126,1439.629,1681.676,1463.571,1673.648z"/>
		<g>
			<path style="fill:#FFA599;" d="M1153.199,1397.512c12.271,7.916-44.667,68.552-79.996,66.283l-39.284-39.056l42.978-66.62
				l49.923,25.779L1153.199,1397.512z"/>
		</g>
		<path style="fill:#FFA599;" d="M1012.38,1252.742c65.759,25.159,97.595,81.241,92.295,130.704
			c-21.108,49.171-101.17,68.313-164.703,37.969c-59.852-28.587-90.508-86.397-71.537-130.588
			C887.405,1246.635,950.43,1229.041,1012.38,1252.742z"/>
		<path style="fill:#FFA599;" d="M1196.941,1472.64l111.631,75.121l256.07-1.249l-6.639,36.512c0,0-226.646,29.073-259.424,33.438
			c-32.778,4.365-169.714-82.565-169.714-82.565C1083.901,1503.989,1119.601,1445.81,1196.941,1472.64z"/>
		<path style="fill:#4BA8D6;" d="M1704.745,1951.79L1704.745,1951.79c-3.551,6.151-11.417,8.259-17.568,4.708l-709.29-416.939
			c-6.151-3.551-8.259-11.417-4.708-17.568l0,0c3.551-6.151,11.417-8.259,17.568-4.708l709.29,416.939
			C1706.188,1937.773,1708.296,1945.638,1704.745,1951.79z"/>
		<path style="fill:#4BA8D6;" d="M954.668,1511.143c3.834-5.966,2.061-13.911-3.95-17.674l-150.831-94.416
			c-6.05-3.721-13.971-1.833-17.693,4.217l0,0c-3.721,6.05-1.833,13.972,4.216,17.693l150.657,94.307
			c5.91,3.699,13.695,1.957,17.461-3.91C954.575,1511.287,954.622,1511.215,954.668,1511.143z"/>
		<g>
			<path style="fill:#65BBE6;" d="M1657.999,1580.914l-42.47,55.395l-251.182,45.331c-70.169,11.695-81.783-13.852-87.177-54.698v0
				C1277.169,1626.943,1659.212,1579.332,1657.999,1580.914z"/>
			<path style="fill:#FFFFFF;" d="M1661.573,1591.822l-387.266,51.146c-6.563,0.867-12.586-3.751-13.453-10.314l0,0
				c-0.867-6.563,3.751-12.586,10.314-13.453l387.266-51.146c6.563-0.867,12.586,3.751,13.453,10.314h0
				C1672.754,1584.932,1668.136,1590.955,1661.573,1591.822z"/>
			<circle style="fill:#4BA8D6;" cx="1322.245" cy="1659.81" r="8.576"/>
		</g>
		<g>
			<path style="fill:#4BA8D6;" d="M2019.938,2135.229l-134.078-313.912c-21.924-28.814-58.904-41.799-94.029-33.018l0,0
				c-63.583,15.896-89.744,91.979-49.384,143.616l86.656,203.314H2019.938z"/>
			<circle style="fill:#65BBE6;" cx="1811.384" cy="1875.777" r="29.916"/>
			<polygon style="fill:#6BC3F0;" points="1706.786,2145.122 2013.792,2034.6 2078.702,2146.876 			"/>
			<circle style="fill:#4BA8D6;" cx="1989.43" cy="2101.649" r="16.858"/>
		</g>
		<path style="fill:#FFA599;" d="M1563.716,1545.043c0,0,78.531,1.122,93.116,17.95s-91.433,21.877-103.213,16.267
			C1541.84,1573.651,1544.083,1551.774,1563.716,1545.043z"/>
		<path style="fill:#0E0E0E;" d="M980.116,1239.778c0,0,35.085-0.78,60.813,56.915c9.655,21.65,11.429,74.556,24.032,92.292
			c17.824,25.084,45.459,25.09,62.043,34.567c28.311,16.177-9.75,84.201,38.998,134.722
			c-62.688-12.133-219.888-118.515-255.276-150.87c-35.388-32.355-73.288-77.966-35.864-137.22
			C906.049,1235.1,947.506,1233.727,980.116,1239.778z"/>
	</g>
	<path style="fill:#4BA8D6;" d="M2176.294,2195.609h-735.466v-7.788c0-32.278,26.167-58.445,58.445-58.445h618.577
		c32.278,0,58.445,26.167,58.445,58.445V2195.609z"/>
</g>
<g id="shadow">
	<path d="M3204.709,2202.515H265.292c-2.881,0-5.217-2.336-5.217-5.217l0,0c0-2.881,2.336-5.217,5.217-5.217h2939.417
		c2.881,0,5.217,2.336,5.217,5.217l0,0C3209.926,2200.179,3207.59,2202.515,3204.709,2202.515z"/>
</g>
</svg>
