<?xml version="1.0" encoding="utf-8"?>
<!-- Generator: Adobe Illustrator 27.5.0, SVG Export Plug-In . SVG Version: 6.00 Build 0)  -->
<svg version="1.1" xmlns="http://www.w3.org/2000/svg" xmlns:xlink="http://www.w3.org/1999/xlink" x="0px" y="0px"
	 viewBox="0 0 500 500" style="enable-background:new 0 0 500 500;" xml:space="preserve">
<g id="Background_Simple">
	<g>
		<path style="fill:#92E3A9;" d="M323.833,36.062c0,0-79.342-31.171-155.222,12.821C92.731,92.874,56.279,183.385,24.834,255.824
			c-31.445,72.44-10.206,147.607,49.578,183.277c59.784,35.67,98.467-13.379,180.987-13.52c82.52-0.141,105.06,12.726,172.29-33.764
			c67.23-46.49,76.547-160.451,20.216-246.535C391.574,59.198,323.833,36.062,323.833,36.062z"/>
		<path style="opacity:0.7;fill:#FFFFFF;" d="M323.833,36.062c0,0-79.342-31.171-155.222,12.821
			C92.731,92.874,56.279,183.385,24.834,255.824c-31.445,72.44-10.206,147.607,49.578,183.277
			c59.784,35.67,98.467-13.379,180.987-13.52c82.52-0.141,105.06,12.726,172.29-33.764c67.23-46.49,76.547-160.451,20.216-246.535
			C391.574,59.198,323.833,36.062,323.833,36.062z"/>
	</g>
</g>
<g id="Table">
	
		<line style="fill:none;stroke:#263238;stroke-linecap:round;stroke-linejoin:round;stroke-miterlimit:10;" x1="487.846" y1="424.672" x2="9.84" y2="424.672"/>
</g>
<g id="Plant">
	<g>
		<rect x="50.269" y="298.25" style="fill:#B8B8B8;" width="2.257" height="125.805"/>
		<rect x="57.235" y="286.189" style="fill:#B8B8B8;" width="2.257" height="137.866"/>
		<rect x="64.202" y="286.189" style="fill:#B8B8B8;" width="2.257" height="137.866"/>
		<g>
			<path style="fill:#92E3A9;" d="M50.163,298.09c0,0-1.451-3.193-6.676-3.483c-5.225-0.29-9.289,2.903-9.289,2.903
				s4.644-0.29,6.676,0.581c2.032,0.871,4.644,2.613,4.644,2.613s-1.742,1.451-2.903,4.354c-1.161,2.903-2.903,8.418-2.903,8.418
				s5.515-4.064,6.967-6.676c1.451-2.612,3.483-4.064,3.483-4.064s0.871,3.193,0.29,5.515c-0.581,2.322-0.871,5.805-0.871,5.805
				s5.805-2.032,4.644-9.289C53.065,297.509,50.163,298.09,50.163,298.09z"/>
			<path style="fill:#92E3A9;" d="M60.032,318.409c0,0-1.451-3.193-6.676-3.483c-5.225-0.29-9.289,2.903-9.289,2.903
				s4.644-0.29,6.676,0.581c2.032,0.871,4.644,2.612,4.644,2.612s-1.742,1.451-2.903,4.354c-1.161,2.903-2.903,8.418-2.903,8.418
				s5.515-4.064,6.966-6.676c1.451-2.612,3.483-4.064,3.483-4.064s0.871,3.193,0.29,5.515c-0.581,2.322-0.871,5.805-0.871,5.805
				s5.805-2.032,4.644-9.289C62.935,317.828,60.032,318.409,60.032,318.409z"/>
			<path style="fill:#92E3A9;" d="M48.131,327.698c0,0-1.451-3.193-6.676-3.483c-5.225-0.29-9.289,2.903-9.289,2.903
				s4.644-0.29,6.676,0.581c2.032,0.871,4.644,2.612,4.644,2.612s-1.742,1.451-2.903,4.354c-1.161,2.903-2.903,8.418-2.903,8.418
				s5.515-4.064,6.966-6.676c1.451-2.612,3.483-4.064,3.483-4.064s0.871,3.193,0.29,5.515c-0.581,2.322-0.871,5.806-0.871,5.806
				s5.805-2.032,4.644-9.289S48.131,327.698,48.131,327.698z"/>
			<path style="fill:#92E3A9;" d="M66.978,363.662c0,0-2.882-0.524-5.567,2.923c-2.686,3.447-2.429,7.755-2.429,7.755
				s2.011-3.325,3.575-4.305c1.564-0.98,4.003-1.944,4.003-1.944s0.167,1.886,1.606,4.064c1.439,2.178,4.395,5.997,4.395,5.997
				s-0.164-5.718-1.266-7.957c-1.102-2.239-1.131-4.324-1.131-4.324s2.605,0.922,3.922,2.425c1.317,1.503,3.569,3.36,3.569,3.36
				s1.368-4.95-4.163-7.607C67.961,361.394,66.978,363.662,66.978,363.662z"/>
			<path style="fill:#92E3A9;" d="M67.908,359.758c0,0-0.921,2.78,2.117,5.921c3.038,3.141,7.34,3.488,7.34,3.488
				s-3.011-2.456-3.763-4.142c-0.752-1.686-1.365-4.235-1.365-4.235s1.89,0.098,4.248-1.023c2.358-1.121,6.552-3.514,6.552-3.514
				s-5.685-0.636-8.056,0.142s-4.439,0.516-4.439,0.516s1.277-2.451,2.949-3.545c1.673-1.094,3.826-3.065,3.826-3.065
				s-4.711-2.046-8.114,3.06C65.8,358.468,67.908,359.758,67.908,359.758z"/>
			<path style="fill:#92E3A9;" d="M38.881,368.466c0,0-0.921,2.78,2.117,5.921c3.038,3.141,7.34,3.488,7.34,3.488
				s-3.011-2.456-3.763-4.142c-0.752-1.686-1.366-4.235-1.366-4.235s1.891,0.098,4.248-1.023c2.358-1.121,6.552-3.514,6.552-3.514
				s-5.685-0.636-8.056,0.142c-2.371,0.778-4.439,0.516-4.439,0.516s1.277-2.451,2.949-3.545s3.826-3.065,3.826-3.065
				s-4.711-2.046-8.114,3.06C36.773,367.176,38.881,368.466,38.881,368.466z"/>
			<path style="fill:#92E3A9;" d="M64.518,379.357c0,0-0.921,2.78,2.117,5.921c3.038,3.141,7.34,3.488,7.34,3.488
				s-3.012-2.456-3.763-4.142c-0.752-1.686-1.366-4.235-1.366-4.235s1.891,0.098,4.248-1.023c2.358-1.121,6.552-3.514,6.552-3.514
				s-5.685-0.636-8.056,0.142c-2.371,0.778-4.439,0.516-4.439,0.516s1.277-2.451,2.949-3.545c1.673-1.094,3.826-3.065,3.826-3.065
				s-4.711-2.046-8.114,3.06C62.409,378.067,64.518,379.357,64.518,379.357z"/>
			<path style="fill:#92E3A9;" d="M64.966,330.6c0,0-1.451-3.193-6.676-3.483c-5.225-0.29-9.289,2.903-9.289,2.903
				s4.644-0.29,6.676,0.581c2.032,0.871,4.644,2.612,4.644,2.612s-1.742,1.451-2.903,4.354c-1.161,2.903-2.903,8.418-2.903,8.418
				s5.515-4.064,6.966-6.676c1.451-2.612,3.483-4.064,3.483-4.064s0.871,3.193,0.29,5.515c-0.581,2.322-0.871,5.806-0.871,5.806
				s5.805-2.032,4.644-9.289C67.869,330.02,64.966,330.6,64.966,330.6z"/>
			<path style="fill:#92E3A9;" d="M54.392,297.774c0,0-2.253,2.688-0.258,7.526c1.995,4.838,6.63,7.124,6.63,7.124
				s-2.268-4.064-2.36-6.272c-0.092-2.209,0.35-5.317,0.35-5.317s2.061,0.944,5.181,0.738c3.119-0.207,8.846-1.018,8.846-1.018
				s-6.047-3.219-9.03-3.4c-2.983-0.181-5.17-1.386-5.17-1.386s2.504-2.165,4.849-2.644c2.345-0.479,5.612-1.722,5.612-1.722
				s-4.34-4.358-10.384-0.177C52.614,295.406,54.392,297.774,54.392,297.774z"/>
			<path style="fill:#92E3A9;" d="M62.229,318.383c0,0-2.253,2.688-0.258,7.526c1.995,4.838,6.63,7.124,6.63,7.124
				s-2.268-4.064-2.36-6.272c-0.092-2.209,0.35-5.317,0.35-5.317s2.061,0.944,5.181,0.737s8.846-1.018,8.846-1.018
				s-6.047-3.219-9.03-3.4c-2.983-0.181-5.17-1.387-5.17-1.387s2.504-2.164,4.849-2.644c2.345-0.479,5.612-1.722,5.612-1.722
				s-4.34-4.359-10.384-0.177C60.452,316.016,62.229,318.383,62.229,318.383z"/>
			<path style="fill:#92E3A9;" d="M67.034,328.544c0,0-2.253,2.688-0.258,7.526c1.995,4.838,6.63,7.124,6.63,7.124
				s-2.268-4.063-2.36-6.272c-0.092-2.209,0.35-5.317,0.35-5.317s2.061,0.944,5.181,0.738c3.119-0.207,8.846-1.018,8.846-1.018
				s-6.047-3.219-9.03-3.4c-2.983-0.181-5.17-1.387-5.17-1.387s2.504-2.164,4.849-2.644c2.345-0.479,5.612-1.722,5.612-1.722
				s-4.34-4.358-10.384-0.177C65.257,326.177,67.034,328.544,67.034,328.544z"/>
			<path style="fill:#92E3A9;" d="M55.643,293.734c0,0,3.144-1.555,3.264-6.786c0.12-5.232-3.204-9.189-3.204-9.189
				s0.441,4.632-0.363,6.691c-0.804,2.059-2.46,4.727-2.46,4.727s-1.507-1.694-4.446-2.759c-2.939-1.066-8.508-2.627-8.508-2.627
				s4.241,5.38,6.9,6.745c2.658,1.366,4.175,3.349,4.175,3.349s-3.163,0.974-5.503,0.47c-2.34-0.505-5.831-0.681-5.831-0.681
				s2.22,5.736,9.435,4.34C56.318,296.616,55.643,293.734,55.643,293.734z"/>
			<path style="fill:#92E3A9;" d="M35.526,371.267c0,0-3.24-1.343-7.257,2.012c-4.016,3.355-4.806,8.462-4.806,8.462
				s3.196-3.383,5.275-4.133c2.079-0.751,5.177-1.261,5.177-1.261s-0.282,2.249,0.851,5.163c1.133,2.914,3.625,8.133,3.625,8.133
				s1.256-6.734,0.533-9.634s-0.229-5.347-0.229-5.347s2.816,1.739,3.977,3.832c1.161,2.093,3.327,4.837,3.327,4.837
				s2.855-5.448-2.947-9.958C37.251,368.861,35.526,371.267,35.526,371.267z"/>
			<path style="fill:#92E3A9;" d="M66.858,352.573c0,0,3.144-1.555,3.264-6.786c0.12-5.232-3.204-9.189-3.204-9.189
				s0.441,4.632-0.363,6.692s-2.46,4.727-2.46,4.727s-1.507-1.693-4.446-2.759c-2.939-1.066-8.508-2.627-8.508-2.627
				s4.241,5.38,6.899,6.745c2.658,1.366,4.175,3.349,4.175,3.349s-3.163,0.974-5.503,0.47c-2.34-0.505-5.831-0.681-5.831-0.681
				s2.22,5.736,9.435,4.339C67.533,355.456,66.858,352.573,66.858,352.573z"/>
			<path style="fill:#92E3A9;" d="M38.259,369.055c0,0,3.144-1.555,3.264-6.786c0.12-5.232-3.204-9.189-3.204-9.189
				s0.441,4.632-0.363,6.691c-0.804,2.059-2.46,4.727-2.46,4.727s-1.507-1.694-4.446-2.76c-2.939-1.066-8.508-2.627-8.508-2.627
				s4.241,5.38,6.899,6.746c2.658,1.366,4.175,3.349,4.175,3.349s-3.163,0.974-5.503,0.47c-2.34-0.505-5.831-0.681-5.831-0.681
				s2.22,5.736,9.435,4.34C38.934,371.938,38.259,369.055,38.259,369.055z"/>
			<path style="fill:#92E3A9;" d="M53.395,392.268c0,0-0.921,2.78,2.117,5.921c3.038,3.141,7.34,3.488,7.34,3.488
				s-3.011-2.456-3.763-4.141c-0.752-1.686-1.366-4.235-1.366-4.235s1.891,0.098,4.248-1.023c2.358-1.121,6.552-3.514,6.552-3.514
				s-5.685-0.636-8.056,0.142c-2.371,0.778-4.439,0.516-4.439,0.516s1.277-2.451,2.949-3.545c1.673-1.094,3.826-3.065,3.826-3.065
				s-4.711-2.046-8.114,3.06C51.286,390.978,53.395,392.268,53.395,392.268z"/>
			<path style="fill:#92E3A9;" d="M50.04,395.069c0,0-3.24-1.342-7.256,2.012c-4.016,3.355-4.806,8.462-4.806,8.462
				s3.196-3.383,5.275-4.133c2.079-0.751,5.177-1.262,5.177-1.262s-0.282,2.25,0.851,5.163c1.133,2.914,3.625,8.133,3.625,8.133
				s1.256-6.734,0.533-9.634c-0.723-2.9-0.229-5.347-0.229-5.347s2.816,1.739,3.977,3.832c1.161,2.093,3.327,4.837,3.327,4.837
				s2.855-5.448-2.947-9.958S50.04,395.069,50.04,395.069z"/>
			<path style="fill:#92E3A9;" d="M52.773,392.857c0,0,3.144-1.555,3.264-6.786c0.12-5.231-3.204-9.189-3.204-9.189
				s0.441,4.632-0.363,6.691c-0.804,2.059-2.46,4.727-2.46,4.727s-1.507-1.694-4.446-2.759c-2.939-1.066-8.508-2.627-8.508-2.627
				s4.241,5.38,6.9,6.745c2.658,1.366,4.175,3.349,4.175,3.349s-3.163,0.974-5.503,0.47c-2.34-0.505-5.831-0.681-5.831-0.681
				s2.22,5.736,9.435,4.34C53.447,395.74,52.773,392.857,52.773,392.857z"/>
			<path style="fill:#92E3A9;" d="M63.554,366.144c0,0-0.921,2.78,2.117,5.921c3.038,3.141,7.34,3.488,7.34,3.488
				s-3.011-2.456-3.763-4.141c-0.752-1.686-1.366-4.235-1.366-4.235s1.891,0.098,4.248-1.023c2.358-1.121,6.552-3.514,6.552-3.514
				s-5.685-0.636-8.056,0.142c-2.371,0.778-4.439,0.516-4.439,0.516s1.277-2.451,2.949-3.545c1.673-1.094,3.826-3.065,3.826-3.065
				s-4.711-2.046-8.114,3.06C61.446,364.854,63.554,366.144,63.554,366.144z"/>
			<path style="fill:#92E3A9;" d="M60.199,368.945c0,0-3.24-1.342-7.256,2.012c-4.016,3.355-4.806,8.462-4.806,8.462
				s3.196-3.383,5.275-4.133c2.079-0.751,5.177-1.262,5.177-1.262s-0.282,2.249,0.851,5.163c1.133,2.914,3.625,8.133,3.625,8.133
				s1.256-6.734,0.533-9.634c-0.723-2.9-0.229-5.347-0.229-5.347s2.816,1.739,3.977,3.832c1.161,2.093,3.327,4.837,3.327,4.837
				s2.855-5.448-2.947-9.958C61.924,366.539,60.199,368.945,60.199,368.945z"/>
			<path style="fill:#92E3A9;" d="M62.932,366.733c0,0,3.144-1.555,3.264-6.786c0.12-5.232-3.204-9.189-3.204-9.189
				s0.441,4.632-0.363,6.692c-0.804,2.059-2.46,4.727-2.46,4.727s-1.507-1.694-4.446-2.759c-2.939-1.066-8.508-2.627-8.508-2.627
				s4.241,5.38,6.899,6.745c2.658,1.366,4.175,3.349,4.175,3.349s-3.163,0.974-5.503,0.47c-2.34-0.505-5.831-0.681-5.831-0.681
				s2.22,5.736,9.435,4.34C63.607,369.615,62.932,366.733,62.932,366.733z"/>
			<path style="fill:#92E3A9;" d="M80.385,376.842c0,0,3.144-1.555,3.264-6.786c0.12-5.232-3.204-9.189-3.204-9.189
				s0.441,4.632-0.363,6.692c-0.804,2.059-2.46,4.727-2.46,4.727s-1.507-1.693-4.446-2.759c-2.939-1.066-8.508-2.627-8.508-2.627
				s4.241,5.38,6.899,6.746c2.658,1.366,4.175,3.349,4.175,3.349s-3.163,0.974-5.503,0.47c-2.34-0.505-5.831-0.681-5.831-0.681
				s2.22,5.736,9.435,4.34C81.06,379.724,80.385,376.842,80.385,376.842z"/>
			<path style="fill:#92E3A9;" d="M48.17,357.726c0,0-0.921,2.78,2.117,5.921c3.038,3.141,7.34,3.488,7.34,3.488
				s-3.011-2.456-3.763-4.141c-0.752-1.686-1.366-4.235-1.366-4.235s1.891,0.098,4.248-1.023c2.358-1.121,6.552-3.514,6.552-3.514
				s-5.685-0.636-8.056,0.142c-2.371,0.778-4.439,0.516-4.439,0.516s1.277-2.451,2.949-3.545c1.673-1.094,3.826-3.065,3.826-3.065
				s-4.711-2.046-8.114,3.06C46.062,356.436,48.17,357.726,48.17,357.726z"/>
			<path style="fill:#92E3A9;" d="M44.815,360.527c0,0-3.24-1.342-7.256,2.012s-4.806,8.462-4.806,8.462s3.196-3.383,5.275-4.133
				c2.079-0.751,5.177-1.261,5.177-1.261s-0.282,2.25,0.851,5.163c1.133,2.914,3.625,8.133,3.625,8.133s1.256-6.735,0.533-9.634
				c-0.723-2.9-0.229-5.347-0.229-5.347s2.816,1.739,3.977,3.832c1.161,2.093,3.327,4.837,3.327,4.837s2.855-5.448-2.947-9.958
				C46.54,358.121,44.815,360.527,44.815,360.527z"/>
			<path style="fill:#92E3A9;" d="M47.548,358.315c0,0,3.144-1.555,3.264-6.786c0.12-5.232-3.204-9.189-3.204-9.189
				s0.441,4.632-0.363,6.692c-0.804,2.059-2.46,4.727-2.46,4.727s-1.507-1.693-4.446-2.759s-8.508-2.627-8.508-2.627
				s4.241,5.38,6.899,6.746c2.658,1.365,4.175,3.349,4.175,3.349s-3.163,0.974-5.503,0.47c-2.34-0.505-5.831-0.681-5.831-0.681
				s2.22,5.736,9.435,4.339C48.222,361.197,47.548,358.315,47.548,358.315z"/>
			<g>
				<path style="fill:#92E3A9;" d="M66.255,385.095c0,0-2.882-0.524-5.567,2.923c-2.686,3.447-2.429,7.755-2.429,7.755
					s2.011-3.325,3.575-4.305c1.564-0.98,4.003-1.944,4.003-1.944s0.167,1.886,1.606,4.064c1.439,2.178,4.395,5.997,4.395,5.997
					s-0.164-5.718-1.266-7.957c-1.102-2.239-1.131-4.324-1.131-4.324s2.605,0.922,3.922,2.425c1.317,1.503,3.569,3.36,3.569,3.36
					s1.368-4.95-4.163-7.607C67.238,382.828,66.255,385.095,66.255,385.095z"/>
				<path style="fill:#92E3A9;" d="M76.933,393.091c0,0-0.921,2.78,2.117,5.921c3.038,3.141,7.34,3.488,7.34,3.488
					s-3.011-2.455-3.763-4.141c-0.752-1.686-1.366-4.235-1.366-4.235s1.891,0.098,4.248-1.023c2.358-1.121,6.552-3.514,6.552-3.514
					s-5.685-0.636-8.056,0.142c-2.371,0.778-4.439,0.516-4.439,0.516s1.277-2.451,2.949-3.545c1.673-1.094,3.826-3.065,3.826-3.065
					s-4.711-2.046-8.114,3.06C74.824,391.801,76.933,393.091,76.933,393.091z"/>
				<path style="fill:#92E3A9;" d="M73.578,395.892c0,0-3.24-1.342-7.256,2.012c-4.016,3.355-4.806,8.462-4.806,8.462
					s3.196-3.383,5.275-4.133c2.079-0.751,5.177-1.262,5.177-1.262s-0.282,2.25,0.851,5.163c1.133,2.914,3.625,8.133,3.625,8.133
					s1.256-6.735,0.533-9.634c-0.723-2.9-0.229-5.348-0.229-5.348s2.816,1.739,3.977,3.832c1.161,2.093,3.327,4.837,3.327,4.837
					s2.855-5.448-2.947-9.958C75.302,393.486,73.578,395.892,73.578,395.892z"/>
				<path style="fill:#92E3A9;" d="M76.311,393.68c0,0,3.144-1.555,3.264-6.786c0.12-5.232-3.203-9.189-3.203-9.189
					s0.441,4.632-0.363,6.692s-2.46,4.727-2.46,4.727s-1.507-1.693-4.446-2.759c-2.939-1.066-8.508-2.627-8.508-2.627
					s4.241,5.38,6.899,6.745c2.658,1.366,4.175,3.349,4.175,3.349s-3.163,0.974-5.503,0.47c-2.34-0.505-5.831-0.681-5.831-0.681
					s2.22,5.736,9.435,4.34C76.985,396.563,76.311,393.68,76.311,393.68z"/>
			</g>
			<g>
				<path style="fill:#92E3A9;" d="M16.639,376.3c0,0-2.881-0.524-5.567,2.923c-2.686,3.447-2.429,7.755-2.429,7.755
					s2.011-3.325,3.575-4.305c1.564-0.98,4.003-1.943,4.003-1.943s0.167,1.886,1.606,4.064c1.439,2.178,4.395,5.997,4.395,5.997
					s-0.164-5.718-1.266-7.957c-1.102-2.239-1.131-4.324-1.131-4.324s2.605,0.922,3.922,2.425c1.317,1.503,3.569,3.36,3.569,3.36
					s1.368-4.95-4.163-7.607C17.622,374.032,16.639,376.3,16.639,376.3z"/>
				<path style="fill:#92E3A9;" d="M27.317,384.296c0,0-0.921,2.78,2.117,5.921c3.038,3.141,7.34,3.488,7.34,3.488
					s-3.012-2.456-3.763-4.141c-0.752-1.686-1.366-4.235-1.366-4.235s1.89,0.098,4.248-1.023c2.358-1.121,6.553-3.514,6.553-3.514
					s-5.685-0.636-8.056,0.142c-2.371,0.778-4.439,0.516-4.439,0.516s1.277-2.451,2.949-3.545c1.673-1.094,3.826-3.065,3.826-3.065
					s-4.711-2.046-8.114,3.06S27.317,384.296,27.317,384.296z"/>
				<path style="fill:#92E3A9;" d="M23.962,387.097c0,0-3.24-1.342-7.256,2.012s-4.806,8.462-4.806,8.462s3.196-3.383,5.275-4.133
					c2.079-0.751,5.177-1.262,5.177-1.262s-0.282,2.249,0.851,5.163c1.133,2.914,3.625,8.133,3.625,8.133s1.256-6.735,0.533-9.634
					c-0.723-2.9-0.229-5.347-0.229-5.347s2.816,1.739,3.977,3.832s3.327,4.837,3.327,4.837s2.855-5.448-2.947-9.958
					C25.687,384.691,23.962,387.097,23.962,387.097z"/>
				<path style="fill:#92E3A9;" d="M26.695,384.885c0,0,3.144-1.555,3.264-6.786c0.12-5.232-3.204-9.189-3.204-9.189
					s0.441,4.632-0.363,6.692c-0.804,2.059-2.46,4.727-2.46,4.727s-1.507-1.694-4.446-2.759c-2.939-1.066-8.508-2.627-8.508-2.627
					s4.241,5.38,6.9,6.745s4.175,3.349,4.175,3.349s-3.163,0.974-5.503,0.47c-2.34-0.505-5.831-0.681-5.831-0.681
					s2.22,5.736,9.435,4.34S26.695,384.885,26.695,384.885z"/>
			</g>
			<g>
				<path style="fill:#92E3A9;" d="M34.646,377.55c0,0-2.882-0.524-5.567,2.923c-2.686,3.447-2.429,7.755-2.429,7.755
					s2.011-3.325,3.575-4.305c1.564-0.98,4.003-1.944,4.003-1.944s0.167,1.886,1.606,4.064c1.439,2.178,4.395,5.997,4.395,5.997
					s-0.164-5.718-1.266-7.957c-1.102-2.239-1.131-4.324-1.131-4.324s2.605,0.922,3.922,2.425c1.317,1.503,3.569,3.36,3.569,3.36
					s1.368-4.95-4.163-7.607C35.629,375.282,34.646,377.55,34.646,377.55z"/>
				<path style="fill:#92E3A9;" d="M45.324,385.546c0,0-0.921,2.78,2.117,5.921c3.038,3.141,7.34,3.488,7.34,3.488
					s-3.011-2.455-3.763-4.141c-0.752-1.686-1.366-4.235-1.366-4.235s1.891,0.098,4.248-1.023c2.358-1.121,6.552-3.514,6.552-3.514
					s-5.685-0.636-8.056,0.142c-2.371,0.778-4.439,0.516-4.439,0.516s1.277-2.451,2.949-3.545c1.673-1.094,3.826-3.065,3.826-3.065
					s-4.711-2.046-8.114,3.06C43.215,384.255,45.324,385.546,45.324,385.546z"/>
				<path style="fill:#92E3A9;" d="M41.969,388.346c0,0-3.24-1.342-7.256,2.012c-4.016,3.355-4.806,8.462-4.806,8.462
					s3.196-3.383,5.275-4.133c2.079-0.751,5.177-1.262,5.177-1.262s-0.282,2.25,0.851,5.163c1.133,2.914,3.625,8.133,3.625,8.133
					s1.256-6.735,0.533-9.634c-0.723-2.9-0.229-5.347-0.229-5.347s2.816,1.739,3.977,3.832c1.161,2.093,3.327,4.837,3.327,4.837
					s2.855-5.448-2.947-9.958C43.693,385.941,41.969,388.346,41.969,388.346z"/>
				<path style="fill:#92E3A9;" d="M44.702,386.135c0,0,3.144-1.554,3.264-6.786c0.12-5.231-3.204-9.189-3.204-9.189
					s0.441,4.632-0.363,6.692s-2.46,4.727-2.46,4.727s-1.507-1.693-4.446-2.759c-2.939-1.066-8.508-2.627-8.508-2.627
					s4.241,5.38,6.899,6.746c2.658,1.365,4.175,3.349,4.175,3.349s-3.163,0.974-5.503,0.47c-2.34-0.505-5.831-0.681-5.831-0.681
					s2.22,5.736,9.435,4.34S44.702,386.135,44.702,386.135z"/>
			</g>
			<g>
				<path style="fill:#92E3A9;" d="M56.015,399.315c0,0-2.882-0.524-5.567,2.923c-2.686,3.447-2.429,7.755-2.429,7.755
					s2.011-3.325,3.575-4.305c1.564-0.98,4.003-1.944,4.003-1.944s0.167,1.886,1.606,4.064c1.439,2.178,4.395,5.998,4.395,5.998
					s-0.164-5.718-1.266-7.957c-1.102-2.239-1.131-4.324-1.131-4.324s2.605,0.922,3.922,2.425c1.317,1.503,3.569,3.36,3.569,3.36
					s1.368-4.95-4.163-7.607C56.998,397.047,56.015,399.315,56.015,399.315z"/>
				<path style="fill:#92E3A9;" d="M66.693,407.31c0,0-0.921,2.78,2.117,5.921c3.038,3.141,7.34,3.488,7.34,3.488
					s-3.011-2.456-3.763-4.141c-0.752-1.686-1.365-4.235-1.365-4.235s1.89,0.098,4.248-1.023c2.358-1.121,6.553-3.514,6.553-3.514
					s-5.685-0.636-8.056,0.142c-2.371,0.778-4.439,0.516-4.439,0.516s1.277-2.451,2.949-3.545c1.673-1.094,3.826-3.065,3.826-3.065
					s-4.711-2.046-8.114,3.06C64.584,406.02,66.693,407.31,66.693,407.31z"/>
				<path style="fill:#92E3A9;" d="M62.883,406.021c0,0-3.24-1.342-7.256,2.012s-4.806,8.462-4.806,8.462s3.196-3.383,5.275-4.133
					c2.079-0.751,5.177-1.262,5.177-1.262s-0.282,2.25,0.851,5.163c1.133,2.914,3.625,8.133,3.625,8.133s1.256-6.734,0.533-9.634
					c-0.723-2.9-0.229-5.347-0.229-5.347s2.816,1.739,3.977,3.832c1.161,2.093,3.327,4.837,3.327,4.837s2.855-5.448-2.947-9.958
					C64.608,403.615,62.883,406.021,62.883,406.021z"/>
				<path style="fill:#92E3A9;" d="M66.07,407.9c0,0,3.144-1.555,3.264-6.786c0.12-5.232-3.204-9.189-3.204-9.189
					s0.441,4.632-0.363,6.692c-0.804,2.059-2.46,4.727-2.46,4.727s-1.507-1.693-4.446-2.759c-2.939-1.066-8.508-2.627-8.508-2.627
					s4.241,5.38,6.899,6.745c2.658,1.366,4.175,3.349,4.175,3.349s-3.163,0.974-5.503,0.47c-2.34-0.505-5.831-0.681-5.831-0.681
					s2.246,5.864,9.435,4.34C68.564,410.263,66.456,407.79,66.07,407.9z"/>
			</g>
			<path style="fill:#92E3A9;" d="M45.375,405.979c0,0-0.648,1.956,1.489,4.165c2.137,2.209,5.163,2.453,5.163,2.453
				s-2.118-1.727-2.647-2.913c-0.529-1.186-0.96-2.979-0.96-2.979s1.33,0.069,2.988-0.72c1.658-0.788,4.609-2.472,4.609-2.472
				s-3.999-0.448-5.666,0.1c-1.668,0.547-3.123,0.363-3.123,0.363s0.898-1.724,2.074-2.494c1.176-0.77,2.691-2.156,2.691-2.156
				s-3.313-1.439-5.707,2.152C43.892,405.072,45.375,405.979,45.375,405.979z"/>
			<path style="fill:#92E3A9;" d="M43.015,407.949c0,0-2.279-0.944-5.104,1.415c-2.825,2.36-3.381,5.952-3.381,5.952
				s2.248-2.379,3.71-2.907c1.463-0.528,3.642-0.887,3.642-0.887s-0.198,1.582,0.599,3.632s2.55,5.72,2.55,5.72
				s0.883-4.737,0.375-6.777c-0.508-2.04-0.161-3.761-0.161-3.761s1.981,1.223,2.797,2.695c0.817,1.472,2.34,3.402,2.34,3.402
				s2.008-3.832-2.073-7.004C44.229,406.257,43.015,407.949,43.015,407.949z"/>
			<path style="fill:#92E3A9;" d="M44.938,406.394c0,0,2.212-1.093,2.296-4.773c0.084-3.68-2.253-6.464-2.253-6.464
				s0.31,3.258-0.255,4.707c-0.566,1.448-1.73,3.325-1.73,3.325s-1.06-1.191-3.127-1.941c-2.067-0.75-5.984-1.848-5.984-1.848
				s2.983,3.784,4.853,4.745c1.87,0.961,2.937,2.356,2.937,2.356s-2.225,0.685-3.871,0.33c-1.646-0.355-4.101-0.479-4.101-0.479
				s1.561,4.035,6.636,3.052C45.412,408.421,44.938,406.394,44.938,406.394z"/>
			<path style="fill:#92E3A9;" d="M64.533,283.452c0,0-0.648,1.956,1.489,4.165c2.137,2.209,5.163,2.453,5.163,2.453
				s-2.118-1.727-2.647-2.913c-0.529-1.186-0.961-2.979-0.961-2.979s1.33,0.069,2.988-0.72c1.658-0.788,4.609-2.472,4.609-2.472
				s-3.999-0.448-5.666,0.1c-1.668,0.547-3.123,0.363-3.123,0.363s0.898-1.724,2.075-2.494c1.176-0.77,2.691-2.156,2.691-2.156
				s-3.313-1.439-5.707,2.152C63.05,282.545,64.533,283.452,64.533,283.452z"/>
			<path style="fill:#92E3A9;" d="M62.173,285.422c0,0-2.279-0.944-5.104,1.415c-2.825,2.36-3.38,5.952-3.38,5.952
				s2.248-2.379,3.71-2.907c1.463-0.528,3.642-0.887,3.642-0.887s-0.198,1.582,0.599,3.632c0.797,2.049,2.55,5.72,2.55,5.72
				s0.883-4.737,0.375-6.777c-0.508-2.04-0.161-3.761-0.161-3.761s1.981,1.223,2.797,2.695c0.817,1.472,2.34,3.402,2.34,3.402
				s2.008-3.832-2.073-7.004C63.386,283.73,62.173,285.422,62.173,285.422z"/>
			<path style="fill:#92E3A9;" d="M64.096,283.867c0,0,2.211-1.094,2.296-4.773c0.084-3.68-2.253-6.464-2.253-6.464
				s0.31,3.258-0.255,4.707c-0.566,1.448-1.73,3.325-1.73,3.325s-1.06-1.191-3.127-1.941c-2.067-0.75-5.984-1.848-5.984-1.848
				s2.983,3.784,4.853,4.745c1.87,0.961,2.937,2.356,2.937,2.356s-2.225,0.685-3.871,0.33c-1.646-0.355-4.101-0.479-4.101-0.479
				s1.561,4.035,6.636,3.052C64.57,285.894,64.096,283.867,64.096,283.867z"/>
			<path style="fill:#92E3A9;" d="M80.603,335.434c0,0-0.648,1.956,1.489,4.165c2.137,2.209,5.163,2.453,5.163,2.453
				s-2.118-1.727-2.647-2.913c-0.529-1.186-0.961-2.979-0.961-2.979s1.33,0.069,2.988-0.72c1.658-0.789,4.609-2.472,4.609-2.472
				s-3.999-0.448-5.666,0.1c-1.668,0.547-3.123,0.363-3.123,0.363s0.898-1.724,2.075-2.494c1.176-0.77,2.691-2.156,2.691-2.156
				s-3.313-1.439-5.707,2.153C79.12,334.527,80.603,335.434,80.603,335.434z"/>
			<path style="fill:#92E3A9;" d="M78.243,337.404c0,0-2.279-0.944-5.104,1.415c-2.825,2.36-3.381,5.952-3.381,5.952
				s2.248-2.379,3.71-2.907c1.462-0.528,3.642-0.887,3.642-0.887s-0.198,1.582,0.599,3.632c0.797,2.049,2.55,5.72,2.55,5.72
				s0.883-4.737,0.375-6.777c-0.508-2.04-0.161-3.761-0.161-3.761s1.981,1.223,2.797,2.695c0.817,1.472,2.34,3.402,2.34,3.402
				s2.008-3.832-2.073-7.004C79.456,335.712,78.243,337.404,78.243,337.404z"/>
			<path style="fill:#92E3A9;" d="M80.165,335.849c0,0,2.212-1.093,2.296-4.773c0.084-3.68-2.253-6.464-2.253-6.464
				s0.31,3.258-0.255,4.707c-0.566,1.448-1.73,3.325-1.73,3.325s-1.06-1.191-3.127-1.941c-2.067-0.75-5.984-1.848-5.984-1.848
				s2.983,3.784,4.853,4.745c1.87,0.961,2.937,2.356,2.937,2.356s-2.225,0.685-3.871,0.33c-1.646-0.355-4.101-0.479-4.101-0.479
				s1.561,4.035,6.636,3.052C80.64,337.876,80.165,335.849,80.165,335.849z"/>
		</g>
	</g>
</g>
<g id="Scales">
	<g>
		<path style="fill:#FFFFFF;stroke:#263238;stroke-linecap:round;stroke-linejoin:round;stroke-miterlimit:10;" d="M54.881,259.054
			v38.839h110.852v-38.839H54.881z M160.656,294.257H59.957V262.69h100.698V294.257z"/>
		<polygon style="fill:#263238;stroke:#263238;stroke-linecap:round;stroke-linejoin:round;stroke-miterlimit:10;" points="
			64.579,252.719 64.579,258.914 69.074,258.914 69.074,263.384 64.579,263.384 64.579,268.615 80.086,268.615 80.086,252.719 		"/>
		
			<rect x="60.418" y="283.456" style="fill:#FFFFFF;stroke:#263238;stroke-linecap:round;stroke-linejoin:round;stroke-miterlimit:10;" width="13.946" height="1.252"/>
		
			<rect x="62.027" y="278.628" style="fill:#263238;stroke:#263238;stroke-linecap:round;stroke-linejoin:round;stroke-miterlimit:10;" width="9.476" height="10.549"/>
		
			<rect x="73.943" y="281.191" style="fill:#263238;stroke:#263238;stroke-linecap:round;stroke-linejoin:round;stroke-miterlimit:10;" width="27.216" height="27.317"/>
		<polygon style="fill:#263238;stroke:#263238;stroke-linecap:round;stroke-linejoin:round;stroke-miterlimit:10;" points="
			102.948,287.81 102.948,294.005 107.443,294.005 107.443,298.475 102.948,298.475 102.948,303.706 118.456,303.706 
			118.456,287.81 		"/>
		<polygon style="fill:#FFFFFF;stroke:#263238;stroke-linecap:round;stroke-linejoin:round;stroke-miterlimit:10;" points="
			55.345,313.124 55.345,329.684 104.378,337.073 117.874,337.073 172.57,329.684 172.57,313.124 		"/>
		
			<rect x="104.378" y="337.073" style="fill:#FFFFFF;stroke:#263238;stroke-linecap:round;stroke-linejoin:round;stroke-miterlimit:10;" width="13.388" height="86.879"/>
		
			<rect x="107.711" y="337.073" style="fill:#263238;stroke:#263238;stroke-linecap:round;stroke-linejoin:round;stroke-miterlimit:10;" width="6.721" height="86.879"/>
		<polygon style="fill:#FFFFFF;stroke:#263238;stroke-linecap:round;stroke-linejoin:round;stroke-miterlimit:10;" points="
			172.57,313.03 172.57,271.85 170.022,271.85 167.308,313.03 		"/>
		
			<rect x="165.732" y="276.019" style="fill:#FFFFFF;stroke:#263238;stroke-linecap:round;stroke-linejoin:round;stroke-miterlimit:10;" width="3.636" height="1.488"/>
	</g>
</g>
<g id="Clock">
	<g style="opacity:0.3;">
		
			<ellipse transform="matrix(0.7071 -0.7071 0.7071 0.7071 -74.5783 82.9271)" style="fill:none;stroke:#000000;stroke-linecap:round;stroke-linejoin:round;stroke-miterlimit:10;" cx="62.813" cy="131.488" rx="44.827" ry="44.827"/>
		
			<ellipse transform="matrix(0.9013 -0.4332 0.4332 0.9013 -50.7595 40.1871)" style="fill:none;stroke:#000000;stroke-linecap:round;stroke-linejoin:round;stroke-miterlimit:10;" cx="62.813" cy="131.488" rx="37.839" ry="37.839"/>
		<polyline style="fill:none;stroke:#000000;stroke-linecap:round;stroke-linejoin:round;stroke-miterlimit:10;" points="
			45.572,131.488 62.813,131.488 75.128,108.335 		"/>
	</g>
</g>
<g id="Giraffe">
	<g>
		<g style="opacity:0.3;">
			<polygon style="fill:#FFFFFF;stroke:#000000;stroke-linecap:round;stroke-linejoin:round;stroke-miterlimit:10;" points="
				442.597,424.672 428.72,225.596 414.655,225.596 400.779,424.672 			"/>
			<g>
				<path style="stroke:#000000;stroke-linecap:round;stroke-linejoin:round;stroke-miterlimit:10;" d="M411.193,275.275
					c3.245-4.473,8.699-12.902,8.699-19.021c0-7.273-4.893-11.263-6.51-12.384L411.193,275.275z"/>
				<path style="stroke:#000000;stroke-linecap:round;stroke-linejoin:round;stroke-miterlimit:10;" d="M414.868,354.041
					c-0.783-11.738-4.421-20.955-7.312-26.596l-4.194,60.163C407.292,382.566,415.906,369.614,414.868,354.041z"/>
				<path style="stroke:#000000;stroke-linecap:round;stroke-linejoin:round;stroke-miterlimit:10;" d="M432.15,274.796
					c-3.05,6.779-8.633,20.962-5.896,28.677c2.214,6.239,6.24,12.959,9.103,17.33L432.15,274.796z"/>
				<path style="stroke:#000000;stroke-linecap:round;stroke-linejoin:round;stroke-miterlimit:10;" d="M438.158,360.995
					c-3.135,7.227-11.569,27.909-11.569,41.269c0,10.085,5.057,17.887,8.957,22.408h7.05L438.158,360.995z"/>
			</g>
			<g>
				<path style="fill:#FFFFFF;stroke:#000000;stroke-linecap:round;stroke-linejoin:round;stroke-miterlimit:10;" d="
					M410.757,172.102c0,0-7.798-1.949-12.671-0.975c-4.874,0.975-11.371,3.899-15.27,10.397c-3.899,6.498-9.422,20.144-7.473,21.768
					c1.949,1.624,5.848-4.549,5.848-4.549s10.072-3.249,14.945-8.772c4.874-5.523,12.021-14.295,12.021-14.295L410.757,172.102z"/>
				<path style="fill:#FFFFFF;stroke:#000000;stroke-linecap:round;stroke-linejoin:round;stroke-miterlimit:10;" d="
					M406.858,173.401c0,0-9.097,2.924-14.62,7.798c-5.523,4.874-7.798,11.371-7.798,11.371s7.148-3.574,12.021-8.122
					C401.335,179.899,406.858,173.401,406.858,173.401z"/>
			</g>
			<path style="fill:#FFFFFF;stroke:#000000;stroke-linecap:round;stroke-linejoin:round;stroke-miterlimit:10;" d="
				M413.681,170.477l-6.823-15.595c0,0,2.274-4.224-1.625-5.523c-3.899-1.299-4.873,2.599-4.224,4.224
				c0.65,1.624,2.274,2.599,2.274,2.599l3.574,17.219L413.681,170.477z"/>
			<g>
				<path style="fill:#FFFFFF;stroke:#000000;stroke-linecap:round;stroke-linejoin:round;stroke-miterlimit:10;" d="
					M431.226,172.102c0,0,7.798-1.949,12.671-0.975c4.874,0.975,11.371,3.899,15.27,10.397c3.899,6.498,9.422,20.144,7.473,21.768
					c-1.949,1.624-5.848-4.549-5.848-4.549s-10.072-3.249-14.945-8.772c-4.873-5.523-12.021-14.295-12.021-14.295L431.226,172.102z"
					/>
				<path style="fill:#FFFFFF;stroke:#000000;stroke-linecap:round;stroke-linejoin:round;stroke-miterlimit:10;" d="
					M435.124,173.401c0,0,9.097,2.924,14.62,7.798c5.523,4.874,7.798,11.371,7.798,11.371s-7.148-3.574-12.021-8.122
					C440.648,179.899,435.124,173.401,435.124,173.401z"/>
			</g>
			<path style="fill:#FFFFFF;stroke:#000000;stroke-linecap:round;stroke-linejoin:round;stroke-miterlimit:10;" d="
				M428.302,170.477l6.823-15.595c0,0-2.274-4.224,1.625-5.523c3.899-1.299,4.873,2.599,4.224,4.224
				c-0.65,1.624-2.274,2.599-2.274,2.599l-3.574,17.219L428.302,170.477z"/>
			<path style="fill:#FFFFFF;stroke:#000000;stroke-linecap:round;stroke-linejoin:round;stroke-miterlimit:10;" d="
				M441.661,184.674c-2.37-9.479-10.684-16.301-20.446-16.697c-0.16-0.007-0.321-0.012-0.484-0.017
				c-8.137-0.239-13.043,2.872-15.914,6.043c-2.137,2.359-3.5,5.318-4.104,8.443l-5.349,27.634h52.649L441.661,184.674z"/>
			
				<ellipse style="fill:#FFFFFF;stroke:#000000;stroke-linecap:round;stroke-linejoin:round;stroke-miterlimit:10;" cx="421.688" cy="218.216" rx="32.068" ry="18.667"/>
			<path style="stroke:#000000;stroke-linecap:round;stroke-linejoin:round;stroke-miterlimit:10;" d="M412.219,186.884
				c0,1.705-1.091,3.087-2.437,3.087c-1.346,0-2.437-1.382-2.437-3.087s1.091-3.087,2.437-3.087
				C411.128,183.798,412.219,185.18,412.219,186.884z"/>
			<path style="stroke:#000000;stroke-linecap:round;stroke-linejoin:round;stroke-miterlimit:10;" d="M434.312,186.884
				c0,1.705-1.091,3.087-2.437,3.087c-1.346,0-2.437-1.382-2.437-3.087s1.091-3.087,2.437-3.087
				C433.221,183.798,434.312,185.18,434.312,186.884z"/>
			<path style="fill:#FFFFFF;stroke:#000000;stroke-linecap:round;stroke-linejoin:round;stroke-miterlimit:10;" d="
				M413.438,217.262c0,2.333-2.473,4.224-5.523,4.224c-3.05,0-5.523-1.891-5.523-4.224c0-2.333,2.473-4.224,5.523-4.224
				C410.965,213.039,413.438,214.93,413.438,217.262z"/>
			<path style="fill:#FFFFFF;stroke:#000000;stroke-linecap:round;stroke-linejoin:round;stroke-miterlimit:10;" d="
				M439.023,217.262c0,2.333-2.473,4.224-5.523,4.224c-3.05,0-5.523-1.891-5.523-4.224c0-2.333,2.473-4.224,5.523-4.224
				C436.55,213.039,439.023,214.93,439.023,217.262z"/>
			<path style="fill:#FFFFFF;stroke:#000000;stroke-linecap:round;stroke-linejoin:round;stroke-miterlimit:10;" d="
				M421.215,167.977c0,0,0.589-5.298-3.31-8.222c-3.899-2.924-6.498-0.65-5.198,0.975c1.3,1.625,3.249,3.899,3.249,3.899
				s-7.148-1.624-7.473,1.3c-0.325,2.924,8.122,3.574,8.122,3.574S420.951,172.3,421.215,167.977z"/>
		</g>
		<g style="opacity:0.3;">
			
				<rect x="471.219" y="158.334" transform="matrix(-1 -1.224647e-16 1.224647e-16 -1 954.0439 583.0059)" style="fill:#FFFFFF;stroke:#000000;stroke-linecap:round;stroke-linejoin:round;stroke-miterlimit:10;" width="11.606" height="266.337"/>
			<g>
				
					<line style="fill:none;stroke:#000000;stroke-linecap:round;stroke-linejoin:round;stroke-miterlimit:10;" x1="482.98" y1="163.468" x2="476.704" y2="163.468"/>
				
					<line style="fill:none;stroke:#000000;stroke-linecap:round;stroke-linejoin:round;stroke-miterlimit:10;" x1="482.98" y1="170.114" x2="479.288" y2="170.114"/>
			</g>
			<g>
				
					<line style="fill:none;stroke:#000000;stroke-linecap:round;stroke-linejoin:round;stroke-miterlimit:10;" x1="482.98" y1="177.129" x2="476.704" y2="177.129"/>
				
					<line style="fill:none;stroke:#000000;stroke-linecap:round;stroke-linejoin:round;stroke-miterlimit:10;" x1="482.98" y1="183.775" x2="479.288" y2="183.775"/>
			</g>
			<g>
				
					<line style="fill:none;stroke:#000000;stroke-linecap:round;stroke-linejoin:round;stroke-miterlimit:10;" x1="482.98" y1="190.79" x2="476.704" y2="190.79"/>
				
					<line style="fill:none;stroke:#000000;stroke-linecap:round;stroke-linejoin:round;stroke-miterlimit:10;" x1="482.98" y1="197.435" x2="479.288" y2="197.435"/>
			</g>
			<g>
				
					<line style="fill:none;stroke:#000000;stroke-linecap:round;stroke-linejoin:round;stroke-miterlimit:10;" x1="482.98" y1="204.45" x2="476.704" y2="204.45"/>
				
					<line style="fill:none;stroke:#000000;stroke-linecap:round;stroke-linejoin:round;stroke-miterlimit:10;" x1="482.98" y1="211.096" x2="479.288" y2="211.096"/>
			</g>
			<g>
				
					<line style="fill:none;stroke:#000000;stroke-linecap:round;stroke-linejoin:round;stroke-miterlimit:10;" x1="482.98" y1="218.111" x2="476.704" y2="218.111"/>
				
					<line style="fill:none;stroke:#000000;stroke-linecap:round;stroke-linejoin:round;stroke-miterlimit:10;" x1="482.98" y1="224.757" x2="479.288" y2="224.757"/>
			</g>
			<g>
				
					<line style="fill:none;stroke:#000000;stroke-linecap:round;stroke-linejoin:round;stroke-miterlimit:10;" x1="482.98" y1="231.772" x2="476.704" y2="231.772"/>
				
					<line style="fill:none;stroke:#000000;stroke-linecap:round;stroke-linejoin:round;stroke-miterlimit:10;" x1="482.98" y1="238.417" x2="479.288" y2="238.417"/>
			</g>
			<g>
				
					<line style="fill:none;stroke:#000000;stroke-linecap:round;stroke-linejoin:round;stroke-miterlimit:10;" x1="482.98" y1="245.432" x2="476.704" y2="245.432"/>
				
					<line style="fill:none;stroke:#000000;stroke-linecap:round;stroke-linejoin:round;stroke-miterlimit:10;" x1="482.98" y1="252.078" x2="479.288" y2="252.078"/>
			</g>
			<g>
				
					<line style="fill:none;stroke:#000000;stroke-linecap:round;stroke-linejoin:round;stroke-miterlimit:10;" x1="482.98" y1="259.093" x2="476.704" y2="259.093"/>
				
					<line style="fill:none;stroke:#000000;stroke-linecap:round;stroke-linejoin:round;stroke-miterlimit:10;" x1="482.98" y1="265.739" x2="479.288" y2="265.739"/>
			</g>
			<g>
				
					<line style="fill:none;stroke:#000000;stroke-linecap:round;stroke-linejoin:round;stroke-miterlimit:10;" x1="482.98" y1="272.754" x2="476.704" y2="272.754"/>
				
					<line style="fill:none;stroke:#000000;stroke-linecap:round;stroke-linejoin:round;stroke-miterlimit:10;" x1="482.98" y1="279.399" x2="479.288" y2="279.399"/>
			</g>
			<g>
				
					<line style="fill:none;stroke:#000000;stroke-linecap:round;stroke-linejoin:round;stroke-miterlimit:10;" x1="482.98" y1="286.414" x2="476.704" y2="286.414"/>
				
					<line style="fill:none;stroke:#000000;stroke-linecap:round;stroke-linejoin:round;stroke-miterlimit:10;" x1="482.98" y1="293.06" x2="479.288" y2="293.06"/>
			</g>
			<g>
				
					<line style="fill:none;stroke:#000000;stroke-linecap:round;stroke-linejoin:round;stroke-miterlimit:10;" x1="482.98" y1="300.075" x2="476.704" y2="300.075"/>
				
					<line style="fill:none;stroke:#000000;stroke-linecap:round;stroke-linejoin:round;stroke-miterlimit:10;" x1="482.98" y1="306.721" x2="479.288" y2="306.721"/>
			</g>
			<g>
				
					<line style="fill:none;stroke:#000000;stroke-linecap:round;stroke-linejoin:round;stroke-miterlimit:10;" x1="482.98" y1="313.736" x2="476.704" y2="313.736"/>
				
					<line style="fill:none;stroke:#000000;stroke-linecap:round;stroke-linejoin:round;stroke-miterlimit:10;" x1="482.98" y1="320.382" x2="479.288" y2="320.382"/>
			</g>
			<g>
				
					<line style="fill:none;stroke:#000000;stroke-linecap:round;stroke-linejoin:round;stroke-miterlimit:10;" x1="482.98" y1="327.397" x2="476.704" y2="327.397"/>
				
					<line style="fill:none;stroke:#000000;stroke-linecap:round;stroke-linejoin:round;stroke-miterlimit:10;" x1="482.98" y1="334.042" x2="479.288" y2="334.042"/>
			</g>
			<g>
				
					<line style="fill:none;stroke:#000000;stroke-linecap:round;stroke-linejoin:round;stroke-miterlimit:10;" x1="482.98" y1="341.057" x2="476.704" y2="341.057"/>
				
					<line style="fill:none;stroke:#000000;stroke-linecap:round;stroke-linejoin:round;stroke-miterlimit:10;" x1="482.98" y1="347.703" x2="479.288" y2="347.703"/>
			</g>
			<g>
				
					<line style="fill:none;stroke:#000000;stroke-linecap:round;stroke-linejoin:round;stroke-miterlimit:10;" x1="482.98" y1="354.718" x2="476.704" y2="354.718"/>
				
					<line style="fill:none;stroke:#000000;stroke-linecap:round;stroke-linejoin:round;stroke-miterlimit:10;" x1="482.98" y1="361.364" x2="479.288" y2="361.364"/>
			</g>
			<g>
				
					<line style="fill:none;stroke:#000000;stroke-linecap:round;stroke-linejoin:round;stroke-miterlimit:10;" x1="482.98" y1="368.379" x2="476.704" y2="368.379"/>
				
					<line style="fill:none;stroke:#000000;stroke-linecap:round;stroke-linejoin:round;stroke-miterlimit:10;" x1="482.98" y1="375.024" x2="479.288" y2="375.024"/>
			</g>
			<g>
				
					<line style="fill:none;stroke:#000000;stroke-linecap:round;stroke-linejoin:round;stroke-miterlimit:10;" x1="482.98" y1="382.039" x2="476.704" y2="382.039"/>
				
					<line style="fill:none;stroke:#000000;stroke-linecap:round;stroke-linejoin:round;stroke-miterlimit:10;" x1="482.98" y1="388.685" x2="479.288" y2="388.685"/>
			</g>
			<g>
				
					<line style="fill:none;stroke:#000000;stroke-linecap:round;stroke-linejoin:round;stroke-miterlimit:10;" x1="482.98" y1="395.7" x2="476.704" y2="395.7"/>
				
					<line style="fill:none;stroke:#000000;stroke-linecap:round;stroke-linejoin:round;stroke-miterlimit:10;" x1="482.98" y1="402.346" x2="479.288" y2="402.346"/>
			</g>
			<g>
				
					<line style="fill:none;stroke:#000000;stroke-linecap:round;stroke-linejoin:round;stroke-miterlimit:10;" x1="482.98" y1="409.361" x2="476.704" y2="409.361"/>
				
					<line style="fill:none;stroke:#000000;stroke-linecap:round;stroke-linejoin:round;stroke-miterlimit:10;" x1="482.98" y1="416.006" x2="479.288" y2="416.006"/>
			</g>
		</g>
	</g>
</g>
<g id="Window">
	<g style="opacity:0.3;">
		<g>
			<g>
				<polyline style="fill:#FFFFFF;stroke:#000000;stroke-linecap:round;stroke-linejoin:round;stroke-miterlimit:10;" points="
					127.607,274.163 116.312,285.457 242.606,285.457 242.606,275.188 				"/>
				<polyline style="fill:#FFFFFF;stroke:#000000;stroke-linecap:round;stroke-linejoin:round;stroke-miterlimit:10;" points="
					127.607,261.09 116.312,272.385 242.606,272.385 242.606,262.116 				"/>
				<polyline style="fill:#FFFFFF;stroke:#000000;stroke-linecap:round;stroke-linejoin:round;stroke-miterlimit:10;" points="
					127.607,248.018 116.312,259.313 242.606,259.313 242.606,249.044 				"/>
				<polyline style="fill:#FFFFFF;stroke:#000000;stroke-linecap:round;stroke-linejoin:round;stroke-miterlimit:10;" points="
					127.607,234.946 116.312,246.241 242.606,246.241 242.606,235.971 				"/>
				<polyline style="fill:#FFFFFF;stroke:#000000;stroke-linecap:round;stroke-linejoin:round;stroke-miterlimit:10;" points="
					127.607,221.874 116.312,233.169 242.606,233.169 242.606,222.899 				"/>
				<polyline style="fill:#FFFFFF;stroke:#000000;stroke-linecap:round;stroke-linejoin:round;stroke-miterlimit:10;" points="
					127.607,208.802 116.312,220.096 242.606,220.096 242.606,209.827 				"/>
				<polyline style="fill:#FFFFFF;stroke:#000000;stroke-linecap:round;stroke-linejoin:round;stroke-miterlimit:10;" points="
					127.607,195.73 116.312,207.024 242.606,207.024 242.606,196.755 				"/>
				<polyline style="fill:#FFFFFF;stroke:#000000;stroke-linecap:round;stroke-linejoin:round;stroke-miterlimit:10;" points="
					127.607,182.658 116.312,193.952 242.606,193.952 242.606,183.683 				"/>
				<polyline style="fill:#FFFFFF;stroke:#000000;stroke-linecap:round;stroke-linejoin:round;stroke-miterlimit:10;" points="
					127.607,169.585 116.312,180.88 242.606,180.88 242.606,170.611 				"/>
				<polyline style="fill:#FFFFFF;stroke:#000000;stroke-linecap:round;stroke-linejoin:round;stroke-miterlimit:10;" points="
					127.607,156.513 116.312,167.808 242.606,167.808 242.606,157.538 				"/>
				<polyline style="fill:#FFFFFF;stroke:#000000;stroke-linecap:round;stroke-linejoin:round;stroke-miterlimit:10;" points="
					127.607,143.441 116.312,154.736 242.606,154.736 242.606,144.466 				"/>
				<polyline style="fill:#FFFFFF;stroke:#000000;stroke-linecap:round;stroke-linejoin:round;stroke-miterlimit:10;" points="
					127.607,130.369 116.312,141.663 242.606,141.663 242.606,131.394 				"/>
				<polyline style="fill:#FFFFFF;stroke:#000000;stroke-linecap:round;stroke-linejoin:round;stroke-miterlimit:10;" points="
					127.607,117.297 116.312,128.591 242.606,128.591 242.606,118.322 				"/>
				<polyline style="fill:#FFFFFF;stroke:#000000;stroke-linecap:round;stroke-linejoin:round;stroke-miterlimit:10;" points="
					127.607,104.225 116.312,115.519 242.606,115.519 242.606,105.25 				"/>
				<polyline style="fill:#FFFFFF;stroke:#000000;stroke-linecap:round;stroke-linejoin:round;stroke-miterlimit:10;" points="
					127.607,91.152 116.312,102.447 242.606,102.447 242.606,92.178 				"/>
				<polyline style="fill:#FFFFFF;stroke:#000000;stroke-linecap:round;stroke-linejoin:round;stroke-miterlimit:10;" points="
					127.607,78.08 116.312,89.375 242.606,89.375 242.606,79.105 				"/>
				<polyline style="fill:#FFFFFF;stroke:#000000;stroke-linecap:round;stroke-linejoin:round;stroke-miterlimit:10;" points="
					127.607,65.008 116.312,76.303 242.606,76.303 242.606,66.033 				"/>
				<polyline style="fill:#FFFFFF;stroke:#000000;stroke-linecap:round;stroke-linejoin:round;stroke-miterlimit:10;" points="
					127.607,51.936 116.312,63.23 242.606,63.23 242.606,52.961 				"/>
				<polyline style="fill:#FFFFFF;stroke:#000000;stroke-linecap:round;stroke-linejoin:round;stroke-miterlimit:10;" points="
					127.607,38.864 116.312,50.158 242.606,50.158 242.606,39.889 				"/>
			</g>
			<g>
				<polyline style="fill:#FFFFFF;stroke:#000000;stroke-linecap:round;stroke-linejoin:round;stroke-miterlimit:10;" points="
					254.648,274.163 243.353,285.457 369.647,285.457 369.647,275.188 				"/>
				<polyline style="fill:#FFFFFF;stroke:#000000;stroke-linecap:round;stroke-linejoin:round;stroke-miterlimit:10;" points="
					254.648,261.09 243.353,272.385 369.647,272.385 369.647,262.116 				"/>
				<polyline style="fill:#FFFFFF;stroke:#000000;stroke-linecap:round;stroke-linejoin:round;stroke-miterlimit:10;" points="
					254.648,248.018 243.353,259.313 369.647,259.313 369.647,249.044 				"/>
				<polyline style="fill:#FFFFFF;stroke:#000000;stroke-linecap:round;stroke-linejoin:round;stroke-miterlimit:10;" points="
					254.648,234.946 243.353,246.241 369.647,246.241 369.647,235.971 				"/>
				<polyline style="fill:#FFFFFF;stroke:#000000;stroke-linecap:round;stroke-linejoin:round;stroke-miterlimit:10;" points="
					254.648,221.874 243.353,233.169 369.647,233.169 369.647,222.899 				"/>
				<polyline style="fill:#FFFFFF;stroke:#000000;stroke-linecap:round;stroke-linejoin:round;stroke-miterlimit:10;" points="
					254.648,208.802 243.353,220.096 369.647,220.096 369.647,209.827 				"/>
				<polyline style="fill:#FFFFFF;stroke:#000000;stroke-linecap:round;stroke-linejoin:round;stroke-miterlimit:10;" points="
					254.648,195.73 243.353,207.024 369.647,207.024 369.647,196.755 				"/>
				<polyline style="fill:#FFFFFF;stroke:#000000;stroke-linecap:round;stroke-linejoin:round;stroke-miterlimit:10;" points="
					254.648,182.658 243.353,193.952 369.647,193.952 369.647,183.683 				"/>
				<polyline style="fill:#FFFFFF;stroke:#000000;stroke-linecap:round;stroke-linejoin:round;stroke-miterlimit:10;" points="
					254.648,169.585 243.353,180.88 369.647,180.88 369.647,170.611 				"/>
				<polyline style="fill:#FFFFFF;stroke:#000000;stroke-linecap:round;stroke-linejoin:round;stroke-miterlimit:10;" points="
					254.648,156.513 243.353,167.808 369.647,167.808 369.647,157.538 				"/>
				<polyline style="fill:#FFFFFF;stroke:#000000;stroke-linecap:round;stroke-linejoin:round;stroke-miterlimit:10;" points="
					254.648,143.441 243.353,154.736 369.647,154.736 369.647,144.466 				"/>
				<polyline style="fill:#FFFFFF;stroke:#000000;stroke-linecap:round;stroke-linejoin:round;stroke-miterlimit:10;" points="
					254.648,130.369 243.353,141.663 369.647,141.663 369.647,131.394 				"/>
				<polyline style="fill:#FFFFFF;stroke:#000000;stroke-linecap:round;stroke-linejoin:round;stroke-miterlimit:10;" points="
					254.648,117.297 243.353,128.591 369.647,128.591 369.647,118.322 				"/>
				<polyline style="fill:#FFFFFF;stroke:#000000;stroke-linecap:round;stroke-linejoin:round;stroke-miterlimit:10;" points="
					254.648,104.225 243.353,115.519 369.647,115.519 369.647,105.25 				"/>
				<polyline style="fill:#FFFFFF;stroke:#000000;stroke-linecap:round;stroke-linejoin:round;stroke-miterlimit:10;" points="
					254.648,91.152 243.353,102.447 369.647,102.447 369.647,92.178 				"/>
				<polyline style="fill:#FFFFFF;stroke:#000000;stroke-linecap:round;stroke-linejoin:round;stroke-miterlimit:10;" points="
					254.648,78.08 243.353,89.375 369.647,89.375 369.647,79.105 				"/>
				<polyline style="fill:#FFFFFF;stroke:#000000;stroke-linecap:round;stroke-linejoin:round;stroke-miterlimit:10;" points="
					254.648,65.008 243.353,76.303 369.647,76.303 369.647,66.033 				"/>
				<polyline style="fill:#FFFFFF;stroke:#000000;stroke-linecap:round;stroke-linejoin:round;stroke-miterlimit:10;" points="
					254.648,51.936 243.353,63.23 369.647,63.23 369.647,52.961 				"/>
				<polyline style="fill:#FFFFFF;stroke:#000000;stroke-linecap:round;stroke-linejoin:round;stroke-miterlimit:10;" points="
					254.648,38.864 243.353,50.158 369.647,50.158 369.647,39.889 				"/>
			</g>
		</g>
		
			<line style="fill:#FFFFFF;stroke:#000000;stroke-linecap:round;stroke-linejoin:round;stroke-miterlimit:10;" x1="133.478" y1="38.493" x2="365.123" y2="38.493"/>
	</g>
</g>
<g id="Character_2">
	<g>
		<path style="fill:#263238;stroke:#263238;stroke-linecap:round;stroke-linejoin:round;stroke-miterlimit:10;" d="M278.408,180.027
			c0,0-2.721-5.215-5.442-13.15c-2.721-7.936-3.854-6.802,0.227-13.377c4.081-6.575,7.709-16.325,10.656-14.057
			c2.948,2.267,2.948,2.267,2.948,2.267s1.814-4.081,3.628-7.255c1.814-3.174,12.243-8.842,11.563-7.709
			c-0.68,1.134-2.041,2.721-2.041,2.721s10.883-2.494,21.086,2.721c10.203,5.215,30.155,24.487,33.33,35.597
			c3.174,11.11-10.656,24.941-10.656,24.941s0.907,0.907-1.134,2.721c-2.041,1.814-7.255,4.988-7.255,4.988l-8.616,2.494
			l-43.986-7.482L278.408,180.027z"/>
		<g>
			<path style="fill:#92E3A9;stroke:#263238;stroke-linecap:round;stroke-linejoin:round;stroke-miterlimit:10;" d="
				M287.024,222.653c0,0-42.172,9.523-43.079,12.244c-0.907,2.721-16.098,79.13-16.098,79.13s-5.215,4.308-5.215,5.215
				c0,0.907,0.227,2.494,0,3.401c-0.227,0.907-26.981,14.511-31.743,16.098c-4.761,1.587-12.924,4.081-12.924,4.081l0.907,20.633
				c0,0,14.284,0.453,29.249-2.494c14.964-2.947,34.237-7.709,34.237-7.709s-19.272,47.614-21.54,71.421l140.121-0.227
				l-16.325-74.595c0,0,29.702-94.321,29.249-99.082s-36.051-19.272-43.079-22.447c-7.029-3.174-13.831-4.308-13.831-4.308
				L287.024,222.653z"/>
			<g>
				<path style="fill:none;stroke:#263238;stroke-linecap:round;stroke-linejoin:round;stroke-miterlimit:10;" d="M250.672,271.207
					c-2.297,8.35-6.946,25.344-6.946,29.244c0,5.012,6.486,24.175,6.486,24.175l-7.855,28.625"/>
				<path style="fill:none;stroke:#263238;stroke-linecap:round;stroke-linejoin:round;stroke-miterlimit:10;" d="M252.963,262.461
					c0,0-0.882,3.305-1.213,4.498"/>
				<path style="fill:none;stroke:#263238;stroke-linecap:round;stroke-linejoin:round;stroke-miterlimit:10;" d="M225.447,321.973
					c0,0,15.036,0.295,19.753,5.896"/>
				<path style="fill:none;stroke:#263238;stroke-linecap:round;stroke-linejoin:round;stroke-miterlimit:10;" d="M236.061,319.319
					c0,0,7.076,1.769,10.319,5.307"/>
			</g>
			<polygon style="fill:#263238;stroke:#263238;stroke-linecap:round;stroke-linejoin:round;stroke-miterlimit:10;" points="
				282.813,424.571 278.321,402.539 272.052,424.589 			"/>
			<polyline style="fill:none;stroke:#263238;stroke-linecap:round;stroke-linejoin:round;stroke-miterlimit:10;" points="
				339.512,379.874 304.445,381.236 304.786,385.662 331.001,384.3 			"/>
			<polyline style="fill:none;stroke:#263238;stroke-linecap:round;stroke-linejoin:round;stroke-miterlimit:10;" points="
				236.694,373.746 257.802,378.512 256.44,382.598 236.013,377.491 			"/>
		</g>
		<path style="fill:#92E3A9;stroke:#263238;stroke-linecap:round;stroke-linejoin:round;stroke-miterlimit:10;" d="M278.332,274.848
			c3.701,8.46,13.747,24.85,13.747,24.85s22.999-25.643,25.908-30.666c2.908-5.023,6.873-10.839,6.873-10.839l-5.816-7.667
			l9.517-1.057c0,0-0.678-15.772-0.948-22.455c-5.77-2.181-10.66-3.001-10.66-3.001l-29.929-1.36c0,0-3.115,0.703-7.666,1.782
			c-1.261,1.989-2.863,4.655-4.198,7.323c-2.644,5.287-4.494,9.253-4.494,9.253l8.195,3.701l-8.46,9.253
			C270.401,253.964,274.631,266.389,278.332,274.848z"/>
		<path style="fill:#FFFFFF;stroke:#263238;stroke-linecap:round;stroke-linejoin:round;stroke-miterlimit:10;" d="M288.433,210.807
			c0,0-2.316,13.66-3.676,19.781c-1.36,6.122-0.824,34.794,3.628,46.48c1.814,4.761,2.494,13.377,2.494,13.377
			s17.685-25.394,23.353-40.812c5.668-15.418,7.029-19.952,7.029-19.952l3.854-19.499c0,0-8.843,6.575-16.552,8.843
			C300.854,221.292,288.433,210.807,288.433,210.807z"/>
		<polygon style="fill:#263238;stroke:#263238;stroke-linecap:round;stroke-linejoin:round;stroke-miterlimit:10;" points="
			307.276,224.221 321.26,229.681 326.439,206.335 		"/>
		<g>
			<path style="fill:#FFFFFF;stroke:#263238;stroke-linecap:round;stroke-linejoin:round;stroke-miterlimit:10;" d="
				M292.919,159.848c0,0,1.134,6.802,3.628,9.069c2.494,2.267,4.535,3.401,4.535,2.721c0-0.68-0.454-5.668-0.454-5.668
				s4.761,7.709,9.976,10.43c5.215,2.721,14.511,4.761,14.511,4.761s3.174,9.296,4.081,9.75c0.907,0.453,2.041-0.907,2.041-0.907
				s0.907-2.948,1.36-3.628c0.453-0.68,4.988-2.948,5.668,3.854c0.68,6.802-4.535,12.017-5.895,12.47
				c-1.36,0.453-2.267,1.814-2.267,1.814s-5.215,8.389-7.029,10.883c-1.814,2.494-15.418,10.883-19.726,11.79
				c-4.308,0.907-8.842,0.227-11.79-3.854c-2.948-4.081-9.069-12.697-10.43-16.551c-1.36-3.854-2.267-29.702-2.267-29.702
				l10.883-14.284c0,0-1.134,4.308,0.453,2.947C291.785,164.382,292.919,159.848,292.919,159.848z"/>
			<path style="fill:none;stroke:#263238;stroke-linecap:round;stroke-linejoin:round;stroke-miterlimit:10;" d="M286.344,183.881
				c0,0,2.948,5.215,9.523,2.267"/>
			<path style="fill:none;stroke:#263238;stroke-linecap:round;stroke-linejoin:round;stroke-miterlimit:10;" d="M298.587,191.817
				c0,0-1.587,6.122-1.587,7.482s0.907,2.267,2.494,2.721c1.587,0.454,4.761-0.907,4.761-0.907"/>
			<path style="fill:none;stroke:#263238;stroke-linecap:round;stroke-linejoin:round;stroke-miterlimit:10;" d="M292.692,205.194
				c0,0,2.494,4.081,7.482,4.308c4.988,0.227,9.069-2.267,9.069-2.267"/>
			<path style="fill:none;stroke:#263238;stroke-linecap:round;stroke-linejoin:round;stroke-miterlimit:10;" d="M310.377,188.189
				c0,0,3.628,4.308,9.069,0.907"/>
			<path style="fill:none;stroke:#263238;stroke-width:2;stroke-linecap:round;stroke-linejoin:round;stroke-miterlimit:10;" d="
				M284.756,179.8c0,0,7.255-3.628,12.47,0.227"/>
			<path style="fill:none;stroke:#263238;stroke-width:2;stroke-linecap:round;stroke-linejoin:round;stroke-miterlimit:10;" d="
				M309.017,181.387c0,0,8.616-2.267,12.244,3.174"/>
			<path style="fill:none;stroke:#263238;stroke-linecap:round;stroke-linejoin:round;stroke-miterlimit:10;" d="M279.088,181.614
				c0,0-2.267-5.668-3.854-1.134c-1.587,4.535,1.36,10.203,2.494,12.47c1.134,2.267,2.041,3.628,2.041,3.628L279.088,181.614z"/>
		</g>
		<path style="fill:#FFFFFF;stroke:#263238;stroke-linecap:round;stroke-linejoin:round;stroke-miterlimit:10;" d="M205.261,357.983
			c2.595,4.393,2.45,9.282-0.324,10.921c-2.774,1.639-7.127-0.593-9.722-4.986c-2.595-4.392-2.45-9.282,0.324-10.921
			S202.666,353.591,205.261,357.983z"/>
		<g>
			<path style="fill:none;stroke:#263238;stroke-width:3;stroke-linecap:round;stroke-linejoin:round;stroke-miterlimit:10;" d="
				M340.365,194.316c-3.223-1.261-6.425-1.101-6.425-1.101"/>
			<path style="fill:none;stroke:#263238;stroke-width:2;stroke-linecap:round;stroke-linejoin:round;stroke-miterlimit:10;" d="
				M312.527,243.507c7.621-6.583,15.659-14.379,19.954-20.878c9.481-14.343,13.863-24.712,10.092-27.185
				c-0.711-0.466-1.46-0.835-2.208-1.128"/>
			<path style="fill:none;stroke:#263238;stroke-width:2;stroke-linecap:round;stroke-linejoin:round;stroke-miterlimit:10;" d="
				M272.282,187.09c-1.095,1.225-1.668,2.895-1.458,4.639c1.152,9.548,4.16,29.805,10.122,42.812
				c0.638,1.391,1.249,2.707,1.835,3.951"/>
			<path style="fill:none;stroke:#263238;stroke-width:3;stroke-linecap:round;stroke-linejoin:round;stroke-miterlimit:10;" d="
				M276.813,184.95l-1.41,0.313c-1.249,0.278-2.324,0.934-3.121,1.827"/>
			<path style="fill:none;stroke:#263238;stroke-width:2;stroke-linecap:round;stroke-linejoin:round;stroke-miterlimit:10;" d="
				M293.131,284.801c-0.821,14.95-2.34,32.636-5.135,43.575c-5.591,21.879-19.934,39.381-38.652,42.542
				c-18.718,3.16-39.868-14.343-39.868-14.343"/>
			<g>
				<path style="fill:none;stroke:#263238;stroke-width:3;stroke-linecap:round;stroke-linejoin:round;stroke-miterlimit:10;" d="
					M282.781,238.492c6.788,14.405,10.173,19.143,11.292,19.143c0.665,0,9.255-6.181,18.455-14.128"/>
				<path style="fill:none;stroke:#263238;stroke-width:3;stroke-linecap:round;stroke-linejoin:round;stroke-miterlimit:10;" d="
					M294.073,257.635c0,0-0.122,12.216-0.942,27.166"/>
			</g>
		</g>
		<g>
			<path style="fill:#FFFFFF;stroke:#263238;stroke-linecap:round;stroke-linejoin:round;stroke-miterlimit:10;" d="
				M263.933,347.704c0,0-14.367-3.725-17.56-4.257c-3.193-0.532-23.236-5.853-25.365-4.434
				c-2.128,1.419-17.205,12.948-18.447,14.367c-1.242,1.419-4.789,7.272-4.257,8.869c0.532,1.596,3.548,1.419,4.257,0.532
				s4.789-4.08,4.789-4.08s-3.37,4.257-1.951,4.966s5.499,0.532,5.499,0.532s0.532,1.242,4.08,1.774
				c3.548,0.532,5.499,1.596,9.401,1.774c3.902,0.177,19.334-2.661,19.334-2.661l6.031-3.015l14.19-0.709V347.704z"/>
			<polyline style="fill:none;stroke:#263238;stroke-linecap:round;stroke-linejoin:round;stroke-miterlimit:10;" points="
				207.351,358.702 216.929,350.542 224.379,347.527 			"/>
			<polyline style="fill:none;stroke:#263238;stroke-linecap:round;stroke-linejoin:round;stroke-miterlimit:10;" points="
				210.898,364.2 218.703,358.169 229.877,354.444 			"/>
			<polyline style="fill:none;stroke:#263238;stroke-linecap:round;stroke-linejoin:round;stroke-miterlimit:10;" points="
				217.106,365.797 225.975,362.072 233.957,360.475 			"/>
		</g>
		<path style="fill:#92E3A9;stroke:#263238;stroke-linecap:round;stroke-linejoin:round;stroke-miterlimit:10;" d="M341.752,275.532
			l-12.157,58.716l-68.286,12.674l1.293,25.607c0,0,85.357-6.725,86.651-7.501c1.293-0.776,3.362-1.811,4.656-3.363
			c1.293-1.552,16.554-58.457,18.882-77.08c2.328-18.623,0.073-32.457,1.071-33.817c0.998-1.36-18.401-10.413-18.401-10.413"/>
		<g>
			<path style="fill:#FFFFFF;stroke:#263238;stroke-linecap:round;stroke-linejoin:round;stroke-miterlimit:10;" d="
				M180.599,343.084c0,0-11.478-3.789-12.313-4.151c-0.836-0.362-5.649,0.729-10.669,1.447c-5.02,0.717-13.874-0.672-13.234,2.345
				c0.576,2.718,3.944,3.586,6.096,3.944c2.151,0.359,2.151,0.359,2.151,0.359s-6.813,4.303-8.964,5.379
				c-2.151,1.076-5.737,5.737-2.869,7.172l2.535,0.512c0,0-2.532,2.532-2.532,3.978s1.989,2.712,1.989,2.712
				s-0.904,3.074-0.181,4.521s1.447,2.351,1.447,2.351s-0.723,2.532-0.181,3.617c0.542,1.085,5.244,1.808,6.51,1.266
				c1.266-0.542,3.074-5.425,3.074-5.425s8.499-3.617,14.285-4.34s8.68-3.978,8.68-3.978l5.063-1.266c0,0,2.351-1.447,1.447-9.765
				C182.029,345.443,180.599,343.084,180.599,343.084z"/>
			<path style="fill:#FFFFFF;stroke:#263238;stroke-linecap:round;stroke-linejoin:round;stroke-miterlimit:10;" d="M152.63,347.028
				l9.146,2.031c0,0,6.148,4.159,8.318,3.978c2.17-0.181,5.606-1.808,5.606-1.808"/>
			<path style="fill:#FFFFFF;stroke:#263238;stroke-linecap:round;stroke-linejoin:round;stroke-miterlimit:10;" d="M143.332,360.09
				c0,0,6.691,1.266,7.776-0.362c1.085-1.627-5.606-5.967-5.606-5.967"/>
			
				<line style="fill:#FFFFFF;stroke:#263238;stroke-linecap:round;stroke-linejoin:round;stroke-miterlimit:10;" x1="149.661" y1="357.016" x2="154.543" y2="354.123"/>
			<path style="fill:#FFFFFF;stroke:#263238;stroke-linecap:round;stroke-linejoin:round;stroke-miterlimit:10;" d="
				M142.789,366.781c0,0,6.691,1.628,8.318,0.543c1.628-1.085-2.532-4.521-3.797-5.063c-1.266-0.543-1.266-0.543-1.266-0.543"/>
			<polyline style="fill:#FFFFFF;stroke:#263238;stroke-linecap:round;stroke-linejoin:round;stroke-miterlimit:10;" points="
				150.022,364.068 152.735,362.441 155.628,361.537 			"/>
			<path style="fill:#FFFFFF;stroke:#263238;stroke-linecap:round;stroke-linejoin:round;stroke-miterlimit:10;" d="
				M144.055,373.652c0,0,4.882,1.447,5.967,1.085c1.085-0.362,2.712-2.17,0.362-3.616s-3.978-2.351-3.978-2.351"/>
			<path style="fill:#FFFFFF;stroke:#263238;stroke-linecap:round;stroke-linejoin:round;stroke-miterlimit:10;" d="
				M150.022,374.737c0,0,2.531,1.989,0.362,3.797"/>
		</g>
	</g>
</g>
<g id="Character_1">
	<g>
		<path style="fill:#FFFFFF;stroke:#263238;stroke-linecap:round;stroke-linejoin:round;stroke-miterlimit:10;" d="M208.118,377.657
			c-6.048-9.856-11.649-15.681-11.649-15.681s-2.464-11.425-4.256-15.681c-1.792-4.256-3.903-9.871-3.903-9.871
			s-0.457-0.897-0.798-1.952c-0.373-1.205,8.608-7.362,10.05-7.55c2.573-0.335,2.698-0.773,4.015-1.721
			c4.268-3.073,3.082-14.092,3.147-15.232c0.065-1.14,2.573-4.209,1.057-6.936c-1.516-2.727-4.054-2.031-5.326-2.975
			c-3.542-2.629-3.894-7.351-4.394-11.375c-1.022-8.225-7.489-16.275-15.348-18.987c0,0-10.702-3.692-24.934,1.259
			c-14.232,4.951-21.948,15.995-23.835,26.668s3.992,24.362,14.747,29.138c6.077,2.698,17.703,3.608,17.703,3.608
			s-1.562,1.653-1.271,2.673c0.172,0.603,0.698,1.15,1.102,1.501c-1.886,1.768-6.431,4.285-10.094,9.962
			c-4.48,6.944-7.168,28.001-8.512,42.114c-1.344,14.113,1.12,20.609,1.12,20.609s16.353-10.753,30.913-15.681
			c14.561-4.928,36.514,3.808,36.514,3.808S214.166,387.514,208.118,377.657z"/>
		<path style="fill:none;stroke:#263238;stroke-linecap:round;stroke-linejoin:round;stroke-miterlimit:10;" d="M182.269,329.876
			c0.834,0.103,1.735,0.155,2.703,0.139"/>
		<path style="fill:none;stroke:#263238;stroke-linecap:round;stroke-linejoin:round;stroke-miterlimit:10;" d="M173.826,325.894
			c0,0,1.464,1.832,4.66,3.054"/>
		<path style="fill:#92E3A9;stroke:#263238;stroke-linecap:round;stroke-linejoin:round;stroke-miterlimit:10;" d="M214.39,389.306
			c0,0-13.665-6.272-29.345-4.256c-15.681,2.016-29.569,8.736-36.066,13.441c-6.496,4.704-5.376,11.424-2.912,17.473
			c2.464,6.048,8.559,15.406,22,17.87c13.441,2.464,29.299-3.309,34.451-7.789c5.152-4.48,15.233-16.801,15.233-25.985
			C217.751,390.874,214.39,389.306,214.39,389.306z"/>
		<path style="fill:#FFFFFF;stroke:#263238;stroke-linecap:round;stroke-linejoin:round;stroke-miterlimit:10;" d="M226.935,391.098
			c0,0,13.665-7.616,22.849-2.016c9.184,5.6-0.896,27.105-0.896,27.105S230.519,400.058,226.935,391.098z"/>
		<path style="fill:#FFFFFF;stroke:#263238;stroke-linecap:round;stroke-linejoin:round;stroke-miterlimit:10;" d="M207.894,426.94
			c0,0,9.776,4.533,18.377,4.533c8.601,0,18.374-2.737,18.374-2.737l-29.321-17.593L207.894,426.94z"/>
		<g>
			<path style="fill:#FFFFFF;stroke:#263238;stroke-linecap:round;stroke-linejoin:round;stroke-miterlimit:10;" d="
				M176.084,398.938c0,0-9.632,7.392-9.632,19.265c0,11.873,32.706,14.785,41.442,8.737s10.753-9.633,10.753-9.633
				s14.561,9.633,20.161,11.424c5.6,1.792,16.353,2.912,20.833,1.568c4.48-1.344,8.96-4.704,9.857-7.168
				c0.896-2.464,0.896-5.824,0.896-5.824s1.792-4.704-0.672-5.824c-2.464-1.12-3.36-0.896-9.184,0.896
				c-5.824,1.792-12.545,1.792-12.545,1.792s-6.72-10.753-10.304-16.801c-3.584-6.048-9.857-10.977-19.041-13.441
				C209.462,381.465,189.525,386.394,176.084,398.938z"/>
			<path style="fill:none;stroke:#263238;stroke-linecap:round;stroke-linejoin:round;stroke-miterlimit:10;" d="M223.663,404.358
				c0.178-0.919,0.304-1.836,0.36-2.732"/>
			<path style="fill:none;stroke:#263238;stroke-linecap:round;stroke-linejoin:round;stroke-miterlimit:10;" d="M218.646,417.307
				c0,0,2.74-4.733,4.32-10.113"/>
			<path style="fill:none;stroke:#263238;stroke-linecap:round;stroke-linejoin:round;stroke-miterlimit:10;" d="M270.393,417.307
				c0,0-2.912-0.896-4.704,0.224"/>
			<path style="fill:none;stroke:#263238;stroke-linecap:round;stroke-linejoin:round;stroke-miterlimit:10;" d="M269.428,421.605
				c0,0-1.355-0.678-3.117-0.135"/>
			<path style="fill:none;stroke:#263238;stroke-linecap:round;stroke-linejoin:round;stroke-miterlimit:10;" d="M267.531,425.535
				c0,0-1.22-0.542-2.44-0.407"/>
		</g>
		<g>
			<path style="fill:#FFFFFF;stroke:#263238;stroke-linecap:round;stroke-linejoin:round;stroke-miterlimit:10;" d="
				M167.572,338.679c0,0-5.824-1.12-9.856,7.168c-4.032,8.288-0.224,21.057,0.896,26.881c1.12,5.824,9.408,28.897,11.201,32.93
				s6.048,10.977,6.048,10.977s4.928,14.561,6.272,16.129c1.344,1.568,3.584,1.568,3.584,1.568s1.344,0.672,2.464,0.896
				c1.12,0.224,4.032-0.448,4.032-0.448s2.912,2.24,4.256,0.896c1.344-1.344,0.896-2.688,0.672-4.256
				c-0.224-1.568-0.448-4.256-0.448-4.256s2.016,3.36,2.24,4.704c0.224,1.344,3.136,2.016,3.36,0c0.224-2.016,1.12-4.256-0.896-7.84
				c-2.016-3.584-3.584-8.064-7.616-11.649c-4.032-3.584-4.928-4.928-5.376-5.6c-0.448-0.672-6.496-33.154-6.496-33.154
				s1.344-19.265,0.896-24.641"/>
			<path style="fill:none;stroke:#263238;stroke-linecap:round;stroke-linejoin:round;stroke-miterlimit:10;" d="M192.213,434.78
				c0,0-1.792-3.808-2.464-6.048"/>
			<path style="fill:none;stroke:#263238;stroke-linecap:round;stroke-linejoin:round;stroke-miterlimit:10;" d="M185.717,434.332
				c0,0-1.12-2.688-1.344-5.824"/>
		</g>
		<path style="fill:#263238;" d="M194.753,298.238c0.457,1.188,0.4,2.316-0.128,2.519c-0.528,0.203-1.327-0.595-1.784-1.783
			c-0.457-1.188-0.4-2.315,0.128-2.519C193.497,296.252,194.295,297.05,194.753,298.238z"/>
		<path style="fill:none;stroke:#263238;stroke-linecap:round;stroke-linejoin:round;stroke-miterlimit:10;" d="M189.358,293.228
			c0,0,1.151-3.705,4.609-2.561"/>
		<path style="fill:none;stroke:#263238;stroke-linecap:round;stroke-linejoin:round;stroke-miterlimit:10;" d="M200.284,312.69
			c0,0,2.049,0.683,3.244-0.341"/>
		<path style="fill:#92E3A9;stroke:#263238;stroke-linecap:round;stroke-linejoin:round;stroke-miterlimit:10;" d="M181.797,273.931
			c0,0,2.14,0.412,3.133,1.405l1.162,1.42l1.166,0.401l-0.248-3.723l0.079-0.153c-1.945-1.556-4.098-2.801-6.375-3.586
			c0,0-10.702-3.692-24.934,1.259c-14.232,4.951-21.948,15.995-23.835,26.668s3.992,24.362,14.747,29.138
			c2.727,1.211,6.571,2.061,9.981,2.631l1.272-0.212c0,0,1.808,0,2.195,0c0.387,0,3.357-0.517,3.357-0.517l-2.995-1.594
			c1.02,0.146,3.642-0.874,3.642-0.874l-1.602-1.165l2.039-0.583l-2.331-1.166l2.914-0.728l-2.768-1.02l4.662-0.583
			c0,0-4.723-2.746-6.143-4.295c-1.42-1.549,4.519-13.557,4.519-13.557s3.486,1.937,4.003,2.066
			c0.517,0.129-1.162-3.615-1.162-3.615l3.744,1.033c0,0-1.162-0.904-1.678-1.42c-0.516-0.517-1.033-1.937-1.42-2.711
			c-0.387-0.775-2.324-4.519-2.324-4.519l2.711,0.258c0,0-1.291-0.904-2.195-1.937s-4.921-2.932-4.921-2.932l3.475-0.248
			l-3.971-2.234l8.438-1.241c0,0-1.986-1.489-4.716-2.978c-2.73-1.489-5.46-0.993-5.46-0.993l1.148-2.205
			c2.345-1.804,7.938-3.067,7.938-3.067h-5.232l4.088-1.43c0,0,3.723-0.496,5.957-0.745c2.234-0.248,9.928,2.73,9.928,2.73
			L181.797,273.931z"/>
		<path style="fill:#FFFFFF;stroke:#263238;stroke-linecap:round;stroke-linejoin:round;stroke-miterlimit:10;" d="M168.007,305.901
			c0,0-4.389-6.145-9.437-4.828c-5.048,1.317-2.414,11.632,0,15.144c2.414,3.512,8.779,3.292,10.535,1.536
			c1.756-1.756,1.756-1.756,1.756-1.756"/>
	</g>
</g>
</svg>
