<?xml version="1.0"?>
<svg width="500" height="500" xmlns="http://www.w3.org/2000/svg" xmlns:svg="http://www.w3.org/2000/svg" xmlns:xlink="http://www.w3.org/1999/xlink" enable-background="new 0 0 500 500" version="1.1" xml:space="preserve">
 <!-- Created with SVG-edit - https://github.com/SVG-Edit/svgedit-->
 <g class="layer">
  <title>Layer 1</title>
  <defs transform="translate(-8 -200)">
   <rect height="500" id="svg_2" width="500"/>undefinedundefinedundefined</defs>
  <clipPath id="svg_3" transform="translate(0 31) translate(2 33) translate(1 23) translate(2 12) translate(0 -7) translate(-8 68) translate(10 -31) translate(-1 -29) translate(0 1) translate(0 1) translate(0 1) translate(0 1) translate(0 1) translate(0 1) translate(0 1) translate(0 1) translate(0 1) translate(0 1) translate(0 -1) translate(0 -1) translate(0 -1) translate(0 -1) translate(0 -1) translate(0 -1) translate(0 -1) translate(0 -1) translate(0 -1) translate(0 -1) translate(0 -1) translate(0 -1) translate(0 -1) translate(0 -1) translate(0 -1)">
   <use id="svg_4" overflow="visible" x="6" xlink:href="#SVGID_1_" y="95"/>
  </clipPath>
  <g clip-path="url(#SVGID_00000160903444750489127000000018005260344925773708_)" id="svg_5">
   <g id="svg_6">
    <path d="m147,229.81c0,0 9.99,21.41 59.44,42.82l-1,34.46c0,0 -65.94,2.61 -80.92,-17.75l22.48,-59.53z" fill="#38BC9C" id="svg_7"/>
    <path d="m155.99,398.48l-29.13,0.45l-16.04,0.25l0,0l-72.97,1.13c1.44,-9.03 5.35,-23.08 9.75,-37.35c5.32,-17.23 11.36,-34.79 14.69,-44.27c0,0 0,0 0,-0.01c1.57,-4.47 2.54,-7.15 2.54,-7.15l-3.75,-0.21l-27.85,-1.55l-0.02,0l-10.6,-0.59c1.66,-25.14 15.02,-58.19 19.52,-68.7c0.99,-2.31 2.46,-4.35 4.31,-5.99c10.34,-9.16 21.49,-15.24 31.61,-19.26c0.53,-0.22 1.06,-0.42 1.59,-0.62c3.46,-1.32 6.79,-2.4 9.91,-3.28c13.1,-3.72 22.48,-3.98 22.48,-3.98c4.12,1.6 8.24,3.7 12.13,5.96c3.42,1.99 6.66,4.11 9.57,6.15c0.59,0.41 1.17,0.82 1.73,1.22c6.89,4.97 11.54,9.13 11.54,9.13c0.01,0.02 0.02,0.04 0.03,0.06c6.2,14.01 9.35,36.23 10.78,60c0.19,3.23 0.36,6.49 0.49,9.76c0,0 0,0 0,0c0.06,1.53 0.12,3.06 0.17,4.59c1.52,46.71 -2.48,94.26 -2.48,94.26z" fill="#38BC9C" id="svg_8"/>
    <path d="m124.16,213.31c-2.04,15.55 -10.77,42.04 -12.38,40.78l-22.23,-42.76c13.1,-3.72 22.48,-3.98 22.48,-3.98c4.12,1.6 8.24,3.69 12.13,5.96z" fill="#FF9797" id="svg_9"/>
    <g id="svg_10">
     <path d="m135.46,220.68c-5.23,17.4 -11.13,34.66 -21.31,49.64c-0.38,0.56 -1.1,0.74 -1.6,0.22c-14.72,-15.33 -27.61,-34.54 -34.5,-55.31c0.53,-0.22 1.06,-0.42 1.59,-0.62c3.81,8.96 7.89,17.75 12.89,26.09c5.92,9.88 12.89,19.04 20.63,27.43c9.89,-14.61 15.51,-31.68 20.57,-48.67c0.58,0.41 1.17,0.82 1.73,1.22z" fill="#2BAA89" id="svg_11"/>
     <path d="m70.1,253.26c-1.07,-4.65 -2.99,-10.14 -6.85,-13.05c-0.26,-0.19 -0.54,0.18 -0.41,0.44c1.24,2.37 2.69,4.56 3.62,7.11c0.86,2.36 1.48,4.83 1.91,7.31c1.05,5.98 1.23,12.16 1.01,18.22c-0.47,12.54 -3.17,24.61 -5.58,36.85c-0.27,1.39 1.69,1.98 2.05,0.59c3.33,-12.75 5.72,-26.2 5.87,-39.44c0.07,-6.02 -0.27,-12.16 -1.62,-18.03z" fill="#2BAA89" id="svg_12"/>
     <path d="m158.64,308.14c-1.7,-12.46 -4.29,-24.82 -6.18,-37.26c-1.89,-12.39 -3.09,-25 -5.49,-37.3c-0.12,-0.61 -1.06,-0.47 -1.04,0.15c0.47,12.43 2.6,24.95 4.43,37.23c1.87,12.54 3.51,25.37 6.43,37.71c0.31,1.28 2.02,0.7 1.85,-0.53z" fill="#2BAA89" id="svg_13"/>
    </g>
    <g id="svg_14">
     <path d="m90.82,263.71c0,0 31.7,18.84 70.17,26.85c0,0 -24.77,84.38 -34.86,110.27c0,0 -43.07,-1.83 -74.29,-22.06c0,0 31.64,-90.6 38.98,-115.06z" fill="#1D5061" id="svg_15"/>
     <path d="m93.53,275.64c0,0 26.19,15.56 57.96,22.18c0,0 -20.45,69.7 -28.79,91.08c0,0 -35.58,-1.51 -61.37,-18.21c0,0 26.14,-74.85 32.2,-95.05z" fill="#235968" id="svg_16"/>
     <path d="m115.67,357.67c5.55,-1.76 10.78,-4.65 15.3,-8.46c0.92,-0.78 1.85,-1.61 2.97,-2.03c0.28,-0.11 0.6,-0.19 0.89,-0.1c0.8,0.26 0.76,1.46 0.49,2.28c-0.58,1.77 -1.46,3.42 -2.59,4.85c3.79,-1.24 6.8,-4.2 9.94,-6.76c0.72,-0.6 1.49,-1.19 2.39,-1.4c0.22,-0.06 0.47,-0.08 0.65,0.07c0.21,0.18 0.21,0.52 0.17,0.8c-0.56,4.16 -3.81,7.27 -6.86,10.01c1.68,-0.98 3.37,-1.94 5.07,-2.86c1.07,-0.58 2.18,-1.16 3.38,-1.23c0.54,-0.03 1.2,0.14 1.35,0.68c0.11,0.41 -0.13,0.83 -0.37,1.18c-2.35,3.4 -5.42,6.25 -8.94,8.26c2.63,-1.12 5.28,-2.25 8.08,-2.74c0.4,-0.07 0.85,-0.11 1.17,0.15c0.65,0.53 0.13,1.61 -0.45,2.22c-2.7,2.85 -6.16,4.77 -9.61,6.52c2.63,-0.76 5.29,-1.53 8.02,-1.69c0.19,-0.01 0.41,-0.01 0.55,0.12c0.3,0.26 0.07,0.77 -0.18,1.08c-1.88,2.33 -4.44,3.98 -7.15,5.1c-2.71,1.12 -5.59,1.74 -8.46,2.26c-7.01,1.28 -14.31,2 -21.17,0.05c0.85,-6.06 2.02,-11.92 3.18,-17.92c0.74,-0.01 1.46,-0.21 2.18,-0.44z" fill="#F48484" id="svg_17"/>
     <path d="m25.45,309.36c0,0 -1.59,81.55 91.83,71.1c0,0 4.99,-17.75 2.99,-26.11c0,0 -54.61,4.18 -59.19,-43.08l-35.63,-1.91z" fill="#FFFFFF" id="svg_18"/>
    </g>
   </g>
   <g id="svg_19">
    <path d="m71.11,120.95c-2.8,-0.51 -5.9,0.05 -7.98,2.08c-2.43,2.38 -2.97,6.14 -3.2,9.61c-0.99,15.05 1.73,31.07 11.01,42.62c1.68,2.08 4.55,4.12 6.65,2.5c1.27,-0.97 1.5,-2.83 1.62,-4.47c1.07,-15.02 1.22,-30.12 0.46,-45.16c-0.24,-4.67 -4.53,-6.44 -8.56,-7.18z" fill="#1D5061" id="svg_20"/>
    <g id="svg_21">
     <g id="svg_22">
      <polygon fill="#FF9797" id="svg_23" points="118.52499389648438,221.9739990234375 95.5459976196289,221.9739990234375 96.16100311279297,206.51699829101562 97.04499816894531,184.375 117.0260009765625,184.375 117.91000366210938,206.61599731445312 "/>
      <path d="m117.91,206.62c-1.96,0.27 -3.93,0.46 -5.88,0.63c-4.94,0.41 -9.96,0.66 -14.79,-0.47c-0.35,-0.08 -0.7,-0.16 -1.08,-0.26l0.89,-22.14l19.98,0l0.88,22.24z" fill="#F48484" id="svg_24"/>
     </g>
     <path d="m75.24,158.53c-2.24,-1.27 -5.36,-1.51 -7.25,0.22c-0.98,0.89 -1.49,2.16 -1.79,3.43c-1.36,5.76 1.37,11.97 5.92,15.85c1.97,1.68 4.36,3.03 6.96,3.2c0.88,0.06 1.86,-0.06 2.47,-0.68c0.47,-0.47 0.64,-1.14 0.75,-1.79c1.05,-6.04 -1.16,-16.89 -7.06,-20.23z" fill="#F48484" id="svg_25"/>
     <path d="m76.09,131.4l3.13,50.05c0,0 6.65,12.54 19.51,18.41c5.35,2.44 11.41,2.54 16.83,0.31c6.87,-2.83 16.81,-8.18 22.14,-16.98c0,0 5.83,-29.91 5.35,-51.84c0,0 -2.1,-27.11 -36.11,-28.38c0,0 -27.01,-1.43 -30.85,28.43z" fill="#FF9797" id="svg_26"/>
    </g>
    <path d="m117.57,138.54c1.5,-0.14 3.03,-0.32 4.38,-1.03c1.34,-0.7 2.48,-2.05 2.55,-3.62c4.57,1.35 9.34,1.92 14.08,1.66c3.5,-0.19 7.7,-1.49 8.5,-5.06c2.86,0.41 5.66,-1.55 7.16,-4.12c1.5,-2.58 1.94,-5.66 2.19,-8.66c0.12,-1.41 0.2,-2.88 -0.3,-4.19s-1.73,-2.43 -3.08,-2.29c0.44,-2.42 0.19,-5.29 -1.68,-6.79c-2.53,-2.04 -6.18,-0.37 -9.35,-0.79c-4.21,-0.57 -7.01,-4.68 -10.54,-7.14c-3.41,-2.39 -7.58,-3.24 -11.63,-3.97c-4.53,-0.81 -9.09,-1.54 -13.68,-1.49c-13.44,0.17 -26.78,7.97 -33.54,20.18c-2.75,4.98 -4.99,11.02 -0.69,15.73c4.69,5.13 12.55,7.94 18.95,9.65c8.67,2.32 17.78,2.74 26.68,1.93z" fill="#1D5061" id="svg_27"/>
    <path d="m82.45,162.53c0.24,7.06 0.56,14.45 3.99,20.53c5.11,9.04 16.27,12.94 26.21,11.41c9.93,-1.53 18.73,-7.57 26.2,-14.58c-0.55,6.54 -4.14,12.31 -7.63,17.78c-1.89,2.97 -4.19,6.21 -7.57,6.69c-0.88,0.13 -1.82,0.06 -2.59,0.5c-0.68,0.38 -1.12,1.09 -1.63,1.69c-2.76,3.23 -8.31,3.12 -10.96,-0.22c-1.93,2.29 -5.09,3.37 -7.94,2.72c-2.86,-0.64 -5.3,-2.99 -6.16,-5.91c-2.51,1 -5.48,0.67 -7.74,-0.86c-2.25,-1.53 -3.75,-4.23 -3.9,-7.04c-2.87,-1.65 -4.66,-4.87 -5.47,-8.19s-0.75,-6.78 -0.75,-10.21c0,-17.78 -1.61,-35.52 -3.21,-53.22c1.88,-0.28 3.85,-0.54 5.63,0.17c2.62,1.05 2.87,3.31 2.76,5.77c-0.17,3.51 -0.09,7 0.03,10.54c0.24,7.48 0.49,14.95 0.73,22.43z" fill="#1D5061" id="svg_28"/>
    <g id="svg_29">
     <path d="m134.33,153.83c-1.01,-1.87 -3.87,-1.95 -4.86,0c-1.36,2.68 -1.34,5.46 -0.21,8.21c0.43,1.04 1.81,1.55 2.78,1.39c1.04,-0.16 1.85,-0.85 2.24,-1.86c0.17,-0.18 0.32,-0.37 0.44,-0.61c1.1,-2.26 0.78,-4.97 -0.39,-7.13z" fill="#1D5061" id="svg_30"/>
     <path d="m100.36,153.83c-1.01,-1.87 -3.86,-1.95 -4.86,0c-1.36,2.68 -1.33,5.46 -0.21,8.21c0.43,1.04 1.81,1.55 2.78,1.39c1.04,-0.16 1.85,-0.85 2.24,-1.86c0.17,-0.18 0.32,-0.37 0.44,-0.61c1.1,-2.26 0.78,-4.97 -0.39,-7.13z" fill="#1D5061" id="svg_31"/>
     <path d="m120.77,169.9c-1.02,-1.92 -3.34,-3.46 -3.64,-5.67c-0.35,-2.58 0.78,-5.01 0.09,-7.65c-0.26,-0.98 -1.47,-0.45 -1.44,0.25c-0.31,1.6 -0.4,3.23 -0.65,4.84c-0.18,1.17 -0.46,2.26 -0.21,3.46c0.41,2 1.93,3.38 3.09,4.96c-1.48,0.75 -2.98,1.09 -4.73,1.05c-1.52,-0.03 -1.52,2.43 0,2.47c2.56,0.07 4.88,-0.59 7.06,-2c0.56,-0.36 0.75,-1.11 0.43,-1.71z" fill="#F48484" id="svg_32"/>
     <path d="m119.35,177.69c-3.78,4.86 -9.22,3.6 -12.88,-0.59c-0.48,-0.54 -1.47,0.02 -1.22,0.74c2.49,7.07 11.74,7.04 15.79,1.62c0.93,-1.25 -0.71,-3.03 -1.69,-1.77z" fill="#FFFFFF" id="svg_33"/>
     <path d="m102.52,145.43c-0.3,-0.72 -1.16,-1.09 -1.86,-1.11c-2.37,-0.09 -5.16,-0.37 -7.44,0.44c-1.61,0.56 -1.71,2.99 0,3.52c2.32,0.71 5.04,0.45 7.44,0.54c0.73,0.03 1.52,-0.44 1.86,-1.11c0.43,-0.86 0.37,-1.41 0,-2.28z" fill="#1D5061" id="svg_34"/>
     <path d="m137.49,145.43c-0.3,-0.72 -1.16,-1.09 -1.86,-1.11c-2.38,-0.09 -5.16,-0.37 -7.44,0.44c-1.61,0.56 -1.71,2.99 0,3.52c2.32,0.71 5.04,0.45 7.44,0.54c0.73,0.03 1.52,-0.44 1.86,-1.11c0.43,-0.86 0.37,-1.41 0,-2.28z" fill="#1D5061" id="svg_35"/>
    </g>
   </g>
  </g>
  <g clip-path="url(#SVGID_00000160903444750489127000000018005260344925773708_)" id="svg_36">
   <path d="m420.24,111.3c7.43,0.34 14.25,4.93 18.91,10.99c4.65,6.07 7.38,13.49 9.43,20.96c1.98,7.22 3.4,14.61 4.24,22.07c0.54,4.84 0.86,9.81 2.62,14.32c1.77,4.51 5.35,8.61 9.96,9.36c0.55,0.08 1.12,0.13 1.6,0.44c0.39,0.26 0.67,0.68 0.88,1.11c1.29,2.73 -0.22,6.37 -2.88,7.6c-2.67,1.24 -6,0.22 -7.94,-2.05c0.12,1.9 0.24,3.86 -0.34,5.68s-1.99,3.46 -3.81,3.66c-2.88,0.31 -4.87,-2.84 -6.15,-5.56c-0.11,2.21 -0.27,4.56 -1.57,6.3c-1.8,2.38 -5.37,2.72 -7.92,1.27c-2.54,-1.45 -4.14,-4.3 -4.87,-7.23c-0.73,-2.94 -0.71,-6.01 -0.77,-9.05c-0.18,-9 -1.12,-17.99 -2.79,-26.82c-1.2,-6.3 -2.89,-12.78 -6.92,-17.63c-3.32,-3.99 -7.93,-6.52 -11.92,-9.78c-4.87,-3.98 -9.67,-10.44 -6.01,-16.79c3.34,-5.79 9.82,-9.14 16.25,-8.85z" fill="#1D5061" id="svg_37"/>
   <path d="m325.66,301.1c0,0 -27.34,76.1 -34.44,96.43c0,0 6.46,7.34 27.95,6.41l29.15,-87.83c0,0 -9.19,-11.8 -22.66,-15.01z" fill="#FCC14C" id="svg_38"/>
   <path d="m351.36,231.66c-5.27,7.85 -30.72,46.6 -41.67,78.76c0,0 16.39,13.14 37.23,15.87c0,0 10.92,-56.23 5.65,-94.38c-0.08,-0.58 -0.88,-0.75 -1.21,-0.25z" fill="#A9A9CD" id="svg_39"/>
   <path d="m432.09,367.52c-2.26,1.34 -4.5,2.71 -6.71,4.13c-5.87,3.78 -13.05,7.94 -17.13,13.93c0,0 -17.96,-2.24 -29.92,-6.52c2.61,0.94 9.68,-11 11.2,-12.99c8.23,-10.82 19.73,-17.89 31.24,-24.31c2.44,-1.38 5.04,-2.63 7.3,-4.35c1.05,7.42 2.55,18.43 4.02,30.11z" fill="#A9A9CD" id="svg_40"/>
   <path d="m433.31,327.65c-2.19,0.21 -4.39,0.33 -6.57,0.33c0,0 0.53,3.61 1.34,9.43c-2.27,1.72 -4.87,2.97 -7.31,4.35c-11.51,6.42 -23.01,13.49 -31.24,24.31c-1.52,1.99 -8.59,13.93 -11.2,12.99c11.96,4.28 29.92,6.52 29.92,6.52c4.09,-5.99 11.26,-10.15 17.13,-13.93c2.21,-1.42 4.45,-2.79 6.71,-4.13c2.13,16.96 4.19,35.32 4.64,46.1c0,0 -65.94,6.79 -124.38,-5.74c0,0 23.22,-65.02 34.71,-95.3c0,0 -11.49,-18.8 -8.99,-34.99c0,0 12.49,-47 14.24,-47.26c0,0 8.92,-1.9 20.39,-3.32c8.48,-1.04 18.36,-1.82 27.06,-1.38c0,0 4.19,0.31 10.68,2.1c8.06,2.21 19.67,6.69 31.29,15.65c0,0 22.97,39.17 29.97,72.59c0,0 -4.1,2.14 -10.5,4.62c-7.23,2.8 -17.4,6.03 -27.89,7.06z" fill="#A9A9CD" id="svg_41"/>
   <path d="m462.66,334.95c-0.53,10.79 -5.74,18.57 -14.72,23.6c-5.31,2.96 -10.63,5.88 -15.85,8.97c-2.26,1.34 -4.5,2.71 -6.71,4.13c-5.87,3.78 -13.04,7.94 -17.13,13.93c0,0 -17.96,-2.24 -29.92,-6.52c2.61,0.94 9.68,-11 11.2,-12.99c8.23,-10.82 19.73,-17.89 31.24,-24.31c2.45,-1.38 5.04,-2.63 7.31,-4.35c0.84,-0.65 1.64,-1.35 2.37,-2.16c1.28,-1.42 2.32,-3.06 2.74,-4.98c0.06,-0.25 0.12,-1.39 0.12,-2.62c10.49,-1.03 20.66,-4.26 27.89,-7.06c1,2.4 1.51,13.52 1.46,14.36z" fill="#FCC14C" id="svg_42"/>
   <path d="m410.44,227.73c-11.3,17.62 -35.9,41.5 -35.9,41.5l-1.84,-42.22c8.48,-1.04 18.36,-1.82 27.06,-1.38c0,0 4.18,0.31 10.68,2.1z" fill="#FF9797" id="svg_43"/>
   <path d="m377.78,371.85c0,0 28.48,6.26 47.46,2.61l0.5,15.14c0,0 -25.98,4.18 -52.45,-2.61c0,0 0,-6.79 4.49,-15.14z" fill="#9596C6" id="svg_44"/>
   <path d="m351.53,237.38l0,0.26c0,0.03 0.05,0.03 0.05,0l0,-0.26c0,-0.03 -0.05,-0.03 -0.05,0z" fill="#9596C6" id="svg_45"/>
   <path d="m349.32,248.44c1.27,-3.8 2.97,-7.81 3.56,-11.8c0.05,-0.33 -0.37,-0.58 -0.56,-0.24c-1.81,3.24 -2.83,7.14 -4.03,10.67c-1.32,3.89 -2.64,7.79 -3.97,11.68c-2.38,7.03 -5.05,14.02 -4.9,21.61c0.14,6.98 2.43,13.43 5.23,19.68c0.88,1.94 1.61,3.75 1.53,5.95c-0.08,2.17 -0.85,4.3 -1.46,6.35c-1.19,3.97 -2.38,7.93 -3.57,11.9c-0.42,1.43 1.72,2.04 2.14,0.62c1.19,-3.97 2.38,-7.94 3.57,-11.9c0.92,-3.11 1.97,-6.31 1.34,-9.6c-0.59,-3.05 -2.33,-5.81 -3.5,-8.64c-1.5,-3.65 -2.64,-7.47 -3.28,-11.38c-1.35,-8.14 1.43,-15.66 3.97,-23.22c1.31,-3.89 2.62,-7.79 3.93,-11.68z" fill="#9596C6" id="svg_46"/>
   <path d="m428.57,253.07c-5.01,10.76 -4.68,22.95 -4.61,34.65c0.08,13.18 0.23,26.65 1.7,39.75c0.14,1.26 1.98,1.33 1.94,0c-0.46,-12.74 -1.43,-25.43 -1.6,-38.2c-0.17,-11.95 -0.7,-24.5 3.1,-35.97c0.11,-0.32 -0.38,-0.54 -0.53,-0.23z" fill="#9596C6" id="svg_47"/>
   <path d="m362.6,128.8c3.56,-9.81 12.66,-16.8 22.5,-18.9c9.84,-2.11 20.22,0.24 29.15,5.04c3.89,2.09 7.59,4.67 10.57,8.02c3.62,4.08 6.06,9.17 7.66,14.47c3.37,11.08 3.21,23.17 0.35,34.4c-2.95,11.64 -9.04,22.77 -18.54,29.56c-9.51,6.79 -22.71,8.5 -32.66,2.45c-9.97,-6.07 -14.9,-18.24 -17.78,-29.92c-3.64,-14.79 -6.57,-30.48 -1.25,-45.12z" fill="#1D5061" id="svg_48"/>
   <g id="svg_49">
    <polygon fill="#FF9797" id="svg_50" points="402.260009765625,235.02899169921875 379.2820129394531,235.02899169921875 379.95599365234375,218.1669921875 380.7799987792969,197.42999267578125 400.7619934082031,197.42999267578125 401.6059875488281,218.61599731445312 "/>
    <path d="m401.61,218.62c-0.72,0.18 -1.45,0.35 -2.19,0.5c-5.75,1.14 -13.25,1.16 -19.46,-0.95l0.82,-20.74l19.98,0l0.85,21.19z" fill="#F48484" id="svg_51"/>
    <path d="m425.83,172.63c2.25,-1.27 5.36,-1.51 7.26,0.22c0.97,0.89 1.48,2.16 1.78,3.43c1.36,5.76 -1.37,11.96 -5.92,15.85c-1.96,1.68 -4.35,3.03 -6.96,3.2c-0.88,0.05 -1.85,-0.06 -2.47,-0.68c-0.46,-0.47 -0.64,-1.14 -0.75,-1.79c-1.04,-6.04 1.17,-16.89 7.06,-20.23z" fill="#F48484" id="svg_52"/>
    <path d="m359.83,144.46l3.13,50.04c0,0 6.65,12.54 19.51,18.41c5.34,2.44 11.4,2.54 16.83,0.31c6.87,-2.82 16.8,-8.18 22.13,-16.97c0,0 5.84,-29.92 5.35,-51.84c0,0 -2.1,-27.11 -36.1,-28.38c0,0 -27.02,-1.44 -30.85,28.43z" fill="#FF9797" id="svg_53"/>
   </g>
   <g id="svg_54">
    <path d="m375.66,170.75c-0.05,-1.9 -0.05,-4.27 -2.17,-4.95c-2.2,-0.69 -3.73,1.16 -3.97,3.26c-0.2,1.81 0.11,3.5 0.79,5.15c0.01,0.04 0.03,0.09 0.05,0.13c0,0.01 0.01,0.02 0.01,0.03c0.03,0.07 0.06,0.14 0.09,0.21c0.43,0.97 1.72,1.4 2.65,1.13c0.25,-0.07 0.46,-0.18 0.66,-0.32c1.74,-0.82 1.94,-2.76 1.89,-4.64z" fill="#1D5061" id="svg_55"/>
    <path d="m407.63,170.75c-0.05,-1.9 -0.05,-4.27 -2.17,-4.95c-2.2,-0.69 -3.73,1.16 -3.97,3.26c-0.2,1.81 0.11,3.5 0.79,5.15c0.01,0.04 0.03,0.09 0.05,0.13c0,0.01 0.01,0.02 0.01,0.03c0.03,0.07 0.06,0.14 0.09,0.21c0.43,0.97 1.72,1.4 2.65,1.13c0.25,-0.07 0.47,-0.18 0.66,-0.32c1.75,-0.82 1.94,-2.76 1.89,-4.64z" fill="#1D5061" id="svg_56"/>
    <path d="m375.88,160.27c-2.06,-0.56 -4.39,-0.47 -6.45,0c-0.91,0.2 -3.64,1.22 -2.72,2.76c0.72,1.21 2.19,0.87 3.33,0.71c1.83,-0.26 3.58,-0.19 5.42,-0.19c1.78,0 2.19,-2.81 0.42,-3.28z" fill="#1D5061" id="svg_57"/>
    <path d="m409.35,160.27c-2.06,-0.56 -4.39,-0.47 -6.46,0c-0.9,0.2 -3.63,1.22 -2.71,2.76c0.72,1.21 2.19,0.87 3.33,0.71c1.82,-0.26 3.58,-0.19 5.42,-0.19c1.78,0 2.19,-2.81 0.42,-3.28z" fill="#1D5061" id="svg_58"/>
    <path d="m389.45,179.4c-1.46,0.15 -3.43,0.35 -4.72,-0.62c0.85,-1.34 3.18,-2.07 3.91,-3.62c0.9,-1.9 0.6,-4.78 0.43,-6.81c-0.06,-0.77 -1.23,-1.08 -1.4,-0.19c-0.46,2.45 -0.02,5.54 -1.96,7.26c-1.02,0.9 -2.67,1.55 -3.12,2.99c-1.01,3.19 5.44,3.54 7.12,3.02c1.02,-0.32 0.89,-2.14 -0.26,-2.03z" fill="#F48484" id="svg_59"/>
    <path d="m395.51,186.53c-3.98,4.27 -11.19,4.28 -15.09,-0.01c-0.43,-0.47 -1.16,0.02 -1.02,0.62c0.79,3.34 4.38,4.7 7.34,4.97c3.88,0.35 7.75,-0.82 10.51,-3.76c1.11,-1.18 -0.63,-3 -1.74,-1.82z" fill="#FFFFFF" id="svg_60"/>
   </g>
   <path d="m390.69,140.53c3.76,6.65 10.12,11.49 17.06,14.44c6.95,2.94 14.49,4.13 21.99,4.72c-0.48,-8.22 -1.44,-16.51 -4.34,-24.18c-2.9,-7.68 -7.92,-14.76 -14.99,-18.72c-4.86,-2.72 -10.45,-3.85 -16,-4.11c-10.89,-0.5 -22.57,2.74 -29.57,11.27c-4.12,5.02 -6.19,11.32 -7.22,17.7c-0.56,3.42 -3.13,14.38 0.89,16.43c3.86,1.96 13.8,-3.95 17.17,-5.82c1.55,-0.86 15.96,-10.06 15.01,-11.73z" fill="#1D5061" id="svg_61"/>
  </g>
  <g clip-path="url(#SVGID_00000160903444750489127000000018005260344925773708_)" id="svg_62">
   <g id="svg_63">
    <path d="m211.97,102.4c-1.93,0.97 -3.98,2.94 -3.3,5.06c1.16,0.7 2.32,1.41 3.48,2.11c-4.56,1.11 -8.06,4.95 -10.62,9.06c-6.42,10.31 -8.49,23.46 -5.58,35.38c0.4,1.6 0.94,3.29 2.21,4.28c1.27,0.99 3.46,0.8 4.06,-0.73c4.11,13.07 18.48,27.06 28.92,30.92c1.65,0.62 3.45,1.13 5.14,0.65c3.57,-1.01 4.74,-5.63 5.17,-9.48c1.95,-17.54 1.62,-35.37 -1,-52.82c-1.15,-7.67 -2.83,-16.44 -7.77,-22.54c-4.69,-5.81 -14.7,-4.94 -20.71,-1.89z" fill="#1D5061" id="svg_64"/>
    <path d="m227.43,109.57c0.52,-5.17 2.18,-10.21 4.82,-14.62c0.79,-1.31 1.7,-2.61 2.99,-3.37c1.29,-0.75 3.04,-0.85 4.17,0.16c1.12,1.01 1.12,3.22 -0.19,3.94c7.11,-3.87 15.58,-4.92 23.36,-2.89c7.77,2.04 14.77,7.14 19.29,14.05c0.93,1.42 1.28,4.05 -0.35,4.23c10.19,7.39 15.4,21.71 13.61,34.55c-0.19,1.35 -0.49,2.76 -1.35,3.78c-0.86,1.03 -2.46,1.49 -3.5,0.67c0.16,10.16 -5.2,19.41 -10.4,28c-2.46,4.08 -6.06,8.72 -10.6,7.88c-3.28,-0.61 -5.4,-3.91 -6.88,-7.03c-4.56,-9.66 -6.66,-20.37 -10.01,-30.56c-3.34,-10.2 -8.34,-20.39 -16.9,-26.4c-2.47,-1.73 -5.22,-3.1 -7.24,-5.38c-2.03,-2.28 -1.13,-3.92 -0.82,-7.01z" fill="#1D5061" id="svg_65"/>
    <g id="svg_66">
     <polygon fill="#FF9797" id="svg_67" points="257.3949890136719,233.9840087890625 234.41700744628906,233.9840087890625 234.8260040283203,223.71798706054688 234.95599365234375,220.44400024414062 235.04600524902344,218.156005859375 235.9149932861328,196.385986328125 255.89700317382812,196.385986328125 256.781005859375,218.51699829101562 256.8210144042969,219.49899291992188 256.96099853515625,223.00799560546875 "/>
     <path d="m256.78,218.52c-3.46,0.5 -6.94,0.82 -10.43,0.79c-2.4,-0.03 -7.14,-0.17 -11.3,-1.15l0.87,-21.77l19.98,0l0.88,22.13z" fill="#F48484" id="svg_68"/>
     <path d="m280.97,171.06c2.24,-1.27 5.36,-1.51 7.25,0.22c0.97,0.89 1.49,2.16 1.79,3.43c1.35,5.76 -1.38,11.97 -5.92,15.85c-1.97,1.68 -4.36,3.03 -6.96,3.2c-0.89,0.06 -1.86,-0.06 -2.47,-0.68c-0.47,-0.47 -0.64,-1.14 -0.75,-1.79c-1.05,-6.03 1.16,-16.89 7.06,-20.23z" fill="#F48484" id="svg_69"/>
     <path d="m214.11,170.54c-2.24,-1.27 -5.36,-1.51 -7.25,0.22c-0.98,0.89 -1.49,2.16 -1.79,3.43c-1.36,5.76 1.37,11.97 5.92,15.85c1.97,1.68 4.36,3.03 6.96,3.2c0.88,0.06 1.85,-0.06 2.47,-0.68c0.47,-0.47 0.64,-1.14 0.75,-1.79c1.05,-6.03 -1.16,-16.89 -7.06,-20.23z" fill="#F48484" id="svg_70"/>
     <path d="m214.96,143.41l3.13,50.05c0,0 6.65,12.54 19.51,18.41c5.35,2.44 11.41,2.54 16.84,0.31c6.86,-2.83 16.8,-8.18 22.13,-16.98c0,0 5.83,-29.91 5.35,-51.84c0,0 -2.1,-27.11 -36.11,-28.38c0,0 -27.01,-1.43 -30.85,28.43z" fill="#FF9797" id="svg_71"/>
    </g>
    <path d="m234.21,165.11c-0.74,-2.19 -3.26,-3.91 -5.4,-2.47c-2.85,1.92 -2.45,6.81 -0.69,9.38c0.63,0.93 1.46,1.56 2.6,1.56c3.64,0.01 4.4,-5.74 3.49,-8.47z" fill="#1D5061" id="svg_72"/>
    <path d="m270.17,165.11c-0.74,-2.19 -3.25,-3.91 -5.39,-2.47c-2.86,1.92 -2.46,6.81 -0.7,9.38c0.64,0.93 1.47,1.56 2.6,1.56c3.65,0.01 4.41,-5.74 3.49,-8.47z" fill="#1D5061" id="svg_73"/>
    <path d="m234.06,154.56c-1.71,-1.14 -3.97,-1.31 -5.93,-0.96c-1.54,0.27 -3.94,1 -3.97,2.98c0,0.29 0.16,0.66 0.43,0.78c1.26,0.58 2.36,-0.21 3.63,-0.43c1.65,-0.29 3.05,0.22 4.59,0.72c1.8,0.58 2.75,-2.08 1.25,-3.09z" fill="#1D5061" id="svg_74"/>
    <path d="m270.52,154.56c-1.71,-1.14 -3.96,-1.31 -5.92,-0.96c-1.54,0.27 -3.94,1 -3.97,2.98c-0.01,0.29 0.16,0.66 0.42,0.78c1.26,0.58 2.37,-0.21 3.64,-0.43c1.64,-0.29 3.04,0.22 4.59,0.72c1.8,0.58 2.75,-2.08 1.24,-3.09z" fill="#1D5061" id="svg_75"/>
    <path d="m284.2,167.09c-1.65,-1.1 -4.4,-1.4 -6.32,-1.34c-0.02,0 -0.04,0.01 -0.05,0.01c-0.04,-0.29 -0.08,-0.59 -0.13,-0.88c-0.49,-3.24 -1.92,-4.76 -5.01,-5.62c-3.1,-0.87 -6.63,-0.96 -9.87,-0.88c-3.1,-0.37 -6.32,0.21 -9.18,1.44c-2.29,0.98 -2.77,2.83 -2.84,5c-1.42,-0.88 -3.32,-1.08 -4.7,-0.23c-0.08,-2.14 -0.58,-3.96 -2.83,-4.93c-2.87,-1.23 -6.09,-1.81 -9.19,-1.44c-3.24,-0.08 -6.77,0.01 -9.87,0.88c-3.09,0.86 -4.52,2.38 -5.01,5.62c-0.04,0.29 -0.09,0.59 -0.12,0.89c-2.28,-0.35 -4.94,-0.37 -6.89,0.81c-0.7,0.43 -0.41,1.63 0.42,1.62c1.11,-0.01 2.2,-0.31 3.31,-0.36c0.99,-0.04 1.97,0.04 2.94,0.2c-0.14,2.55 0.08,5.1 1.07,7.47c2.68,6.41 9.22,7.3 15.19,6c6.8,-1.48 10.84,-6.84 10.96,-14.01c0,0 0,-0.01 0,-0.01c0.07,-0.04 0.14,-0.09 0.2,-0.15c1.25,-1.18 2.94,-1.27 4.18,-0.03c0.11,0.12 0.24,0.19 0.36,0.24c0,0.04 0,0.08 0,0.11c0.12,7.17 4.16,12.53 10.96,14.01c5.97,1.3 12.51,0.41 15.19,-6c1.02,-2.44 1.23,-5.08 1.06,-7.7c0.88,0.1 1.76,0.14 2.65,0.24c1.04,0.13 2.13,0.43 3.18,0.33c0.65,-0.06 0.92,-0.9 0.34,-1.29zm-40.41,3.45c-1.52,7.67 -11.06,11.15 -17.67,8.54c-3.21,-1.26 -4.8,-4.72 -5.17,-8.09c-0.22,-2.06 -0.06,-4.14 0.27,-6.18c0.34,-2.11 1.13,-2.92 3.16,-3.58c2.05,-0.68 4.36,-0.9 6.62,-0.98c0.09,0.04 0.18,0.06 0.3,0.05c0.84,-0.05 1.68,-0.09 2.51,-0.1c0.07,0 0.15,0 0.22,-0.01c2.35,-0.01 4.57,0.4 6.81,0.81c0.22,0.06 0.44,0.12 0.66,0.19c1.01,0.35 2.04,0.55 2.41,1.74c0.21,0.68 0.13,1.92 0.16,2.64c0.05,1.65 0.05,3.34 -0.28,4.97zm32.16,0.61c-0.36,3.37 -1.96,6.83 -5.16,8.1c-6.61,2.6 -16.16,-0.87 -17.68,-8.55c-0.32,-1.62 -0.33,-3.32 -0.27,-4.97c0.03,-0.72 -0.05,-1.96 0.16,-2.64c0.36,-1.19 1.4,-1.39 2.41,-1.74c0.22,-0.07 0.44,-0.13 0.66,-0.19c2.24,-0.41 4.46,-0.82 6.81,-0.8c0.07,0 0.14,0 0.21,0c0.84,0.01 1.68,0.06 2.52,0.1c0.11,0.01 0.21,-0.01 0.29,-0.05c2.26,0.08 4.58,0.3 6.63,0.98c2.03,0.66 2.81,1.47 3.15,3.58c0.33,2.04 0.5,4.12 0.27,6.18z" fill="#FFFFFF" id="svg_76"/>
    <path d="m252.66,179.94c-0.45,-1.23 -2.13,-1.61 -2.95,-2.41c-1.36,-1.34 -0.28,-5.19 -0.4,-7.07c-0.04,-0.74 -1.14,-1 -1.3,-0.19c-0.3,1.56 -0.36,3.14 -0.48,4.73c-0.08,1.11 -0.34,2.3 0.31,3.26c0.47,0.68 1.31,1.02 1.95,1.49c1.54,1.14 1.19,0.86 -0.08,1.5c-0.96,0.48 -1.89,0.89 -2.92,1.18c-1.29,0.36 -0.74,2.49 0.55,2.09c1.56,-0.48 6.22,-2.1 5.32,-4.58z" fill="#F48484" id="svg_77"/>
    <path d="m257.49,187.1c-2.94,1.23 -5.74,3.14 -9.03,3.09c-3.53,-0.05 -5.78,-2.31 -8.76,-3.8c-0.77,-0.38 -1.38,0.52 -0.88,1.19c4.95,6.62 13.39,5.54 19.47,1.48c0.92,-0.62 0.34,-2.44 -0.8,-1.96z" fill="#FFFFFF" id="svg_78"/>
    <path d="m248.69,141.13c2.7,2.16 5.6,4.18 8.9,5.05c1.34,0.36 2.81,0.5 4.06,-0.13c1.24,-0.63 2.11,-2.24 1.57,-3.57c0.84,1.55 2.26,2.65 3.67,3.63c1.52,1.05 3.22,2.06 5.04,1.9c1.81,-0.15 3.57,-2.01 3.02,-3.82c1.13,1.87 3.12,3.03 5.15,3.66c0.91,0.28 1.87,0.48 2.8,0.27c2.35,-0.53 3.49,-3.35 3.79,-5.84c2.5,-20.97 -22.05,-32.25 -38.38,-32.64c-0.4,-0.01 -0.81,-0.02 -1.22,-0.02c-5.42,-0.04 -10.49,0.97 -12.82,6.84c-4.19,10.57 7.57,19.2 14.42,24.67z" fill="#1D5061" id="svg_79"/>
    <path d="m236.13,139.45c-0.9,1.88 -2.05,3.82 -3.91,4.61c-1.86,0.79 -4.51,-0.3 -4.62,-2.39c-0.78,5.62 -3.4,10.94 -7.32,14.88c-1.8,1.81 -4.26,3.42 -6.68,2.74c-1.54,-0.42 -2.75,-1.74 -3.43,-3.25c-0.67,-1.51 -0.87,-3.2 -0.93,-4.87c-0.33,-8.99 3.17,-17.8 8.37,-24.98c1.32,-1.83 2.77,-3.58 4.48,-5.03c2.55,-2.16 5.61,-3.55 8.75,-4.52c2.37,-0.73 5.92,-2.11 8.34,-0.93c4,1.96 1.55,9.29 0.8,12.51c-0.89,3.9 -2.12,7.65 -3.85,11.23z" fill="#1D5061" id="svg_80"/>
   </g>
   <g id="svg_81">
    <path d="m306.02,379.97l1.58,30.33l-133.38,-4.4l5.43,-23.96c-26.97,1.68 -20.56,-27.09 -20.56,-27.09c3.14,-30.42 14.63,-77.75 19.01,-95.08c1.35,-5.37 4.23,-10.17 8.28,-13.66c4.05,-3.48 9.07,-6.85 14.45,-10c2.98,-1.74 6.03,-3.3 9.13,-4.68c0.59,-0.26 1.19,-0.53 1.79,-0.78c2.01,-0.84 4.04,-1.61 6.08,-2.3c3.1,-1.05 6.25,-1.94 9.42,-2.64c2.85,-0.64 5.73,-1.13 8.61,-1.49l10.07,7.41l9.49,-7.7c2.66,0.25 5.3,0.61 7.94,1.1c4.44,0.82 8.83,1.96 13.17,3.45c1.83,0.62 3.65,1.31 5.46,2.07l0.57,0.23l1.52,0.63l1.56,0.65c28.02,14.29 32.57,37.17 32.57,37.17l9.66,62.24c8.16,60.65 -21.85,48.5 -21.85,48.5z" fill="#FFFFFF" id="svg_82"/>
    <path d="m276.53,228.48l-20.69,44.54l-6.56,14.12l-1.71,3.67l-2.22,4.79l-2.17,-5.31l-1.57,-3.81l-4.73,-11.58l-19.05,-46.55c3.1,-1.05 6.25,-1.94 9.42,-2.64c2.85,-0.64 5.73,-1.13 8.61,-1.49l10.07,7.41l9.49,-7.7c2.66,0.25 5.31,0.61 7.94,1.1c4.44,0.81 8.84,1.96 13.17,3.45z" fill="#A9A9CD" id="svg_83"/>
    <polygon fill="#1D5061" id="svg_84" points="252.14999389648438,249.9119873046875 255.83700561523438,273.02398681640625 245.35202026367188,295.5989990234375 236.87899780273438,274.89898681640625 241.66000366210938,249.9119873046875 237.16400146484375,238.94500732421875 238.66299438476562,233.20098876953125 252.64999389648438,233.20098876953125 257.1449890136719,240.51199340820312 "/>
    <path d="m263.36,225.03c-0.38,3.5 -1.82,13.98 -5.9,21.71c0,0 -7.53,-11.99 -11.53,-13.54c0,0 -6.47,5.76 -10.45,14.13c0,0 -6.46,-13.42 -8.23,-21.62c2.85,-0.64 5.73,-1.14 8.62,-1.49l10.06,7.41l9.49,-7.7c2.66,0.25 5.31,0.61 7.94,1.1z" fill="#FFFFFF" id="svg_85"/>
    <path d="m304.12,378.68c-15.28,-4.72 -30.68,-9.01 -45.95,-13.75c-7.55,-2.35 -15.08,-4.78 -22.64,-7.14c-7.64,-2.39 -15.32,-5.47 -23.12,-7.21c-0.75,-0.17 -1.35,1.01 -0.56,1.38c7.08,3.23 14.8,5.29 22.15,7.76c1.77,0.6 3.53,1.18 5.31,1.76c-8.99,4.37 -17.84,8.7 -27.4,11.67c-4.86,1.51 -9.78,2.69 -14.75,3.71c-5.05,1.03 -10.34,1.4 -15.28,2.89c-0.39,0.11 -0.46,0.83 0,0.9c4.83,0.7 9.87,-0.14 14.65,-0.92c5.44,-0.9 10.82,-2.24 16.1,-3.87c10.09,-3.1 20.49,-7.2 29.29,-13.32c0.07,-0.05 0.13,-0.1 0.18,-0.16c4.99,1.62 9.98,3.19 14.98,4.75c15.41,4.81 30.84,9.71 46.44,13.83c1.41,0.37 1.99,-1.85 0.6,-2.28z" fill="#F2F2F2" id="svg_86"/>
    <path d="m243.18,290.29c-7.87,-4.84 -15.14,-10.72 -22.11,-16.86c-1.69,-1.49 -3.7,-2.91 -5.2,-4.61c-0.86,-0.98 -1.24,-1.71 -0.78,-3.05c0.78,-2.32 2.9,-4.7 4.22,-6.74c0.98,-1.49 1.92,-3 3.03,-4.37c-4.36,1.16 -8.85,2.13 -13.31,2.57c-0.49,0.04 -1.03,-0.51 -0.98,-1.03c0.47,-5.04 0.89,-10.08 1.26,-15.12c0.25,-3.2 0.35,-6.44 0.65,-9.65c0.59,-0.27 1.19,-0.53 1.79,-0.78c0,3.65 -0.37,7.32 -0.61,10.93c-0.29,4.45 -0.64,8.89 -1.02,13.32c4.48,-1 8.91,-2.43 13.46,-2.88c2.84,-0.28 -3.37,9.4 -5.5,12.86c-0.86,1.38 -1.08,1.73 0.01,2.96c0.57,0.66 1.44,1.26 2.1,1.82c1.53,1.31 3.06,2.61 4.59,3.91c5.41,4.6 10.95,9 16.83,12.91l1.57,3.81z" fill="#F2F2F2" id="svg_87"/>
    <path d="m284.94,258.2c0.03,0.53 -0.53,1.06 -1.02,0.98c-4.44,-0.67 -8.88,-1.86 -13.17,-3.25c1.04,1.43 1.91,2.98 2.81,4.53c1.22,2.09 3.23,4.59 3.91,6.94c0.39,1.36 -0.03,2.07 -0.93,3.01c-1.58,1.62 -3.65,2.94 -5.41,4.34c-7.42,5.9 -15.11,11.51 -23.41,15.99c-0.05,0.03 -0.1,0.05 -0.15,0.07l1.71,-3.67c6.33,-3.69 12.3,-7.96 18.14,-12.44c1.59,-1.23 3.18,-2.44 4.76,-3.68c0.68,-0.52 1.59,-1.08 2.19,-1.7c1.14,-1.18 0.94,-1.54 0.15,-2.96c-1.96,-3.56 -7.72,-13.55 -4.89,-13.13c4.53,0.69 8.88,2.34 13.3,3.57c-0.17,-4.44 -0.31,-8.9 -0.39,-13.35c-0.08,-4.19 -0.32,-8.48 0.02,-12.67l1.52,0.63c0.3,3.85 0.2,7.78 0.31,11.63c0.15,5.05 0.32,10.11 0.55,15.16z" fill="#F2F2F2" id="svg_88"/>
    <g id="svg_89">
     <g id="svg_90">
      <path d="m234.96,220.44l-0.13,3.28c-1.94,1.35 -3.64,2.93 -4.95,4.58c-4.85,6.11 -6.16,14.55 -6.56,22.24c-0.45,8.56 0.53,17.21 -0.05,25.74c-0.08,1.1 -1.77,1.5 -1.96,0.27c-0.9,-5.63 -0.74,-11.53 -0.77,-17.23c-0.03,-5.31 0.03,-10.65 0.78,-15.92c1.13,-7.9 4.11,-15.89 10.43,-20.77c1.01,-0.78 2.08,-1.51 3.21,-2.19z" fill="#38BC9C" id="svg_91"/>
      <path d="m280.7,293.25c-0.04,0.34 -0.17,0.62 -0.36,0.82c-0.08,0.14 -0.21,0.24 -0.37,0.29c-0.18,0.1 -0.38,0.15 -0.58,0.16c-1.1,0.26 -2.56,0.31 -3.41,-0.33c-0.23,-0.17 -0.31,-0.61 0,-0.76c0.54,-0.26 1.17,-0.26 1.75,-0.35c0.14,-0.03 0.28,-0.05 0.43,-0.08c0.15,-6.63 0.43,-13.22 0.32,-19.85c-0.02,-1.2 -0.05,-2.39 -0.1,-3.59c-0.22,-5.2 -1.07,-16 -7.71,-16.06c-0.62,-0.01 -1.28,0.08 -2,0.27c-0.19,0.05 -0.37,0.1 -0.55,0.16c-6.69,2.24 -7.68,11.36 -8.61,17.54c-0.08,0.56 -0.16,1.12 -0.24,1.68c-0.47,3.34 -0.82,6.69 -1.07,10.06c-0.25,3.31 -0.22,6.67 -0.66,9.96c0.71,0.02 1.47,0.08 2.09,0.35c0.47,0.2 0.53,0.88 0,1.07c-0.86,0.3 -1.92,0.22 -2.8,0.15c-0.12,0 -0.23,-0.04 -0.32,-0.08c-0.31,-0.05 -0.59,-0.24 -0.65,-0.59c-0.73,-4.69 -0.21,-9.68 0.18,-14.4c0.18,-2.17 0.4,-4.35 0.67,-6.52c0.29,-2.26 0.62,-4.52 1.03,-6.76c1.11,-6.18 3.73,-13.51 10.12,-15.19c-0.52,-4.66 -1.38,-9.28 -2.59,-13.71c-1.47,-5.4 -4.12,-10.93 -8.31,-14.48l-0.14,-3.51c5.84,3.92 9.28,10.76 11.08,17.7c1.15,4.41 1.99,9.02 2.51,13.68c6.3,0.05 9.53,7.04 10.2,12.94c0.34,3.05 0.58,6.17 0.7,9.33c0.26,6.73 0.04,13.6 -0.61,20.1z" fill="#38BC9C" id="svg_92"/>
      <path d="m260.14,296.13l0,0c-0.68,0 -1.25,-0.57 -1.25,-1.25l0,-1.68c0,-0.69 0.57,-1.25 1.25,-1.25l0,0c0.69,0 1.25,0.56 1.25,1.25l0,1.68c0,0.68 -0.56,1.25 -1.25,1.25z" fill="#38BC9C" id="svg_93"/>
      <path d="m275.63,296.13l0,0c-0.69,0 -1.25,-0.57 -1.25,-1.25l0,-1.68c0,-0.69 0.56,-1.25 1.25,-1.25l0,0c0.68,0 1.25,0.56 1.25,1.25l0,1.68c0,0.68 -0.57,1.25 -1.25,1.25z" fill="#38BC9C" id="svg_94"/>
     </g>
     <g id="svg_95">
      <ellipse cx="222.18" cy="283.59" fill="#1D5061" id="svg_96" rx="11.24" ry="12.01"/>
      <path d="m228.53,283.59c0,3.75 -2.84,6.79 -6.35,6.79c-3.51,0 -6.36,-3.04 -6.36,-6.79c0,-3.75 2.85,-6.78 6.36,-6.78c3.51,0 6.35,3.04 6.35,6.78z" fill="#38BC9C" id="svg_97"/>
     </g>
     <path d="m259.63,294.59c-0.86,0.29 -1.92,0.22 -2.8,0.15c-0.12,0 -0.23,-0.04 -0.32,-0.09c-0.31,-0.04 -0.59,-0.23 -0.64,-0.58c-0.74,-4.7 -0.22,-9.68 0.18,-14.4c0.18,-2.17 0.4,-4.35 0.67,-6.52l2.55,0c-0.47,3.34 -0.82,6.7 -1.07,10.06c-0.25,3.31 -0.22,6.67 -0.65,9.96c0.7,0.02 1.46,0.08 2.08,0.35c0.47,0.2 0.53,0.88 0,1.07z" fill="#E6E6E6" id="svg_98"/>
     <path d="m280.7,293.25c-0.04,0.34 -0.17,0.62 -0.36,0.82c-0.08,0.14 -0.21,0.24 -0.37,0.29c-0.18,0.1 -0.38,0.15 -0.58,0.16c-1.1,0.26 -2.56,0.31 -3.41,-0.33c-0.23,-0.17 -0.31,-0.61 0,-0.76c0.54,-0.26 1.17,-0.26 1.75,-0.35c0.14,-0.03 0.28,-0.05 0.43,-0.08c0.15,-6.63 0.43,-13.22 0.32,-19.85l2.83,0c0.26,6.73 0.04,13.6 -0.61,20.1z" fill="#E6E6E6" id="svg_99"/>
    </g>
    <path d="m297.65,302.57c-0.05,-4.3 -0.1,-8.59 -0.27,-12.88c-0.15,-4.12 -0.18,-8.43 -1.11,-12.45c-0.07,-0.28 -0.52,-0.3 -0.57,0c-0.66,4.07 -0.47,8.33 -0.46,12.45c0,4.29 0.05,8.59 0.05,12.88c-0.01,8.76 -0.11,17.52 -0.32,26.28c-0.04,1.69 2.47,1.69 2.51,0c0.2,-8.76 0.27,-17.52 0.17,-26.28z" fill="#F2F2F2" id="svg_100"/>
    <g id="svg_101">
     <path d="m199.94,325.65c-2.88,-1.55 -5.59,-3.78 -8.8,-4.11c-0.49,-0.05 -0.98,-0.06 -1.47,-0.03c-4.66,0.24 -9.25,1.33 -13.65,2.98l-2.71,1.02c-1.38,0.51 -1.12,2.74 0.34,2.83c2.88,0.18 5.77,-0.77 8.64,-0.99c-2.02,0.54 -4.05,1.09 -6.08,1.63c-1.28,0.35 -2.58,0.7 -3.72,1.42c-0.6,0.39 -1.15,0.89 -1.57,1.48c-0.59,0.83 0.01,2.01 0.98,1.96c0.43,-0.03 0.87,-0.08 1.3,-0.14c2.96,-0.38 5.92,-0.76 8.88,-1.15c-2.12,0.64 -4.24,1.28 -6.36,1.92c-1.73,0.53 -3.61,1.2 -4.9,2.45c-0.72,0.7 -0.23,2.01 0.75,2.01c1.76,0.01 3.54,-0.27 5.29,-0.55c1.73,-0.27 3.46,-0.55 5.18,-0.82c-2.76,0.82 -5.53,1.64 -8.29,2.46c-0.83,0.24 -1.67,0.49 -2.38,1.02c-0.01,0.01 -0.01,0.01 -0.02,0.02c-1.02,0.78 -0.5,2.54 0.75,2.59c1.39,0.06 2.81,-0.15 4.19,-0.36c2.43,-0.36 4.85,-0.73 7.28,-1.1c1.99,2.57 4.89,4.2 7.62,5.78c1.54,0.89 3.1,1.79 4.78,2.3c1.53,0.46 3.13,0.59 4.71,0.65c3.34,0.13 6.7,-0.07 10.01,-0.57c0.27,-0.04 0.57,-0.1 0.75,-0.32c0.14,-0.17 0.19,-0.39 0.23,-0.61c1.09,-5.58 1.64,-11.28 1.64,-16.98c-1.05,-0.31 -10.02,-4.98 -13.37,-6.79z" fill="#F48484" id="svg_102"/>
     <path d="m289.03,330.95c3.41,0 6.83,-0.2 10.23,-0.58c0.72,-0.09 1.61,-0.34 1.77,-1.14c0.17,-0.85 -0.65,-1.51 -1.36,-1.86c-2.69,-1.33 -5.61,-2.04 -8.53,-2.1c3.69,-0.75 7.84,0.32 10.99,-1.99c0.04,-0.69 -0.37,-1.34 -0.89,-1.71c-0.52,-0.37 -1.14,-0.51 -1.75,-0.62c-2.66,-0.49 -5.37,-0.59 -8.05,-0.3c3.38,-0.81 6.77,-1.62 10.04,-2.91c0.53,-0.21 1.16,-0.58 1.15,-1.22c0,-0.66 -0.68,-1.01 -1.25,-1.16c-2.37,-0.63 -4.84,-0.44 -7.26,-0.16c-2.32,0.27 -4.25,0.46 -6.55,0.9c3.48,-1.44 6.95,-2.88 10.43,-4.31c0.46,-0.2 0.97,-0.43 1.19,-0.93c0.31,-0.69 -0.12,-1.56 -0.73,-1.91c-0.6,-0.34 -1.32,-0.31 -2,-0.26c-4.49,0.33 -8.96,1 -13.42,1.67c-1.74,0.26 -3.49,0.53 -5.13,1.21c-2.39,1 -4.43,2.83 -6.45,4.59c-4.18,3.65 -8.47,7.15 -12.86,10.47l30.43,4.32z" fill="#F48484" id="svg_103"/>
    </g>
   </g>
  </g>
  <g id="selectorGroup3">
   <path fill="none" id="selectedBox3" stroke="#22C" stroke-dasharray="5,5"/>
  </g>
 </g>
</svg>